<svg xmlns="http://www.w3.org/2000/svg" viewBox="0 0 385.12 105.85"><defs><style>.cls-1{fill:#b7d435}</style></defs><title>crush-title</title><g id="Layer_2" data-name="Layer 2"><g id="Layer_1-2" data-name="Layer 1"><path class="cls-1" d="M161.16 11.46a2 2 0 0 0 .09.64 2.07 2.07 0 0 1 .09.64 11.18 11.18 0 0 1-1.91 5.82 5.71 5.71 0 0 1-5 3.09 3.06 3.06 0 0 1-2.18-1.36 4.66 4.66 0 0 1-.55-2.29 10.14 10.14 0 0 1 .36-2.36l.36-1.09a2 2 0 0 0 .58-1.45c0-.24-.33-.45-1-.64s-1.45-.36-2.36-.55a21.43 21.43 0 0 0-2.82-.36q-1.46-.09-2.18-.09-3.46 0-6.73.18l-6.73.36-40.41 1.46a6 6 0 0 1-1.46.18h-2a.16.16 0 0 1-.18.18c-.12 0-.18.12-.18.36l-.73.55a.37.37 0 0 1-.09.27.37.37 0 0 0-.09.27l-3.46 5.83q-3.09 5.82-6.18 11.37t-6 11.37L44.93 96.22q2.91.18 5.55.27t5.37.09q2.91 0 5.64-.18a47.52 47.52 0 0 0 5.64-.73 3 3 0 0 0 1.64-.36 12.4 12.4 0 0 0 1.09-.82 6 6 0 0 1 1.36-.82 7.66 7.66 0 0 1 2.78-.36 6.43 6.43 0 0 1 2.91.64 2.32 2.32 0 0 1 1.27 2.27 5.3 5.3 0 0 1-1.55 3.91 11.19 11.19 0 0 1-3.82 2.46 20.82 20.82 0 0 1-4.73 1.27q-2.46.37-4.09.55-6.92.37-12.28.36h-10q-4.64 0-9.09-.09t-9.73-.09q-3.82 0-7.82-.09t-7.34-.5a32.65 32.65 0 0 1-5.55-1Q0 102.41 0 101.5q0-1.5 1.91-3.28a13.14 13.14 0 0 1 3.55-2.55l1.27-.73h.91a9.62 9.62 0 0 0 2.18.18q6.18.55 12.55.64t12.91.09v-.73a3 3 0 0 1 .18-.91 3 3 0 0 0 .18-.73l.73-.91a11.5 11.5 0 0 1 .73-1.27 12.17 12.17 0 0 0 .73-1.3l13.65-26.7 12.91-26.74q2.91-5.46 5.91-11.19t6.27-11a55.34 55.34 0 0 0-7 .45 51 51 0 0 1-6.46.45 12.28 12.28 0 0 1-2.36-.36 2 2 0 0 1-1.64-2.18 4.19 4.19 0 0 1 .55-1.64 20.16 20.16 0 0 1 1.27-2.18 13 13 0 0 1 1.64-2A2.62 2.62 0 0 1 64.39 6l7.09-.36q4.37 0 6.55-.09a25.33 25.33 0 0 0 3.18-.27q1-.18 1.18-.55a8.42 8.42 0 0 1 .55-.91L85.49 2A7.17 7.17 0 0 1 87.67.64 6.84 6.84 0 0 1 90.4 0a3.5 3.5 0 0 1 2.27.82 3.22 3.22 0 0 1 1 2.64 3 3 0 0 1-.09.73 2.93 2.93 0 0 0-.09.73 14 14 0 0 1 2.27-.18h2.45l27.1-1.09q3.45 0 6.82-.18t6.87-.2h6.73q2.18.18 4.64.55a24.74 24.74 0 0 1 4.7 1.18A11.13 11.13 0 0 1 159 7.37a7.68 7.68 0 0 1 2.16 4.09zM11.28 100h-.36l-.18.36h.55zm2.91-.18H14a.53.53 0 0 0-.36.18l-.18-.18a.16.16 0 0 0-.18.18v.36l.91.18zM16 100v-.18a.16.16 0 0 0-.18.18l-.18.36h.55V100zm3.27 0h-.55l.18.55a.16.16 0 0 0 .18-.18h.18zm2.55 0h-1.08v.36h.36l.18.18.36-.18.18-.18zm3.09 0l-.18-.18h-1.81l.55.55h.18l.18-.18v.18l.18-.18h.91zm2.73-.36v.36h.55v-.36zm2.73.18a.53.53 0 0 0 .18-.36l-.18-.18v.18h-.73v.36H30l.18.18zm3.46-.18a.54.54 0 0 0-.18-.36v-.18l-.91.18H32l-.18.18.55.18v.18a.16.16 0 0 0 .18-.18zm21.83-35.25h-.18l-.36.36c-.12 0-.18.18-.18.55l-.18.18a.16.16 0 0 1-.18.18l-.18.18-.18.36-.18.55c-.24 0-.3.06-.18.18s.06.18-.18.18v.55a.16.16 0 0 0-.18.18l-.73 1.46a.16.16 0 0 1-.18.18l-.18.73-.36.55a.16.16 0 0 0-.18.18l-.18.55a2.13 2.13 0 0 1-.36.55 3.15 3.15 0 0 0-.36.91l-.18.36v.36l-.18.55c-.12 0-.18.09-.18.27s-.06.27-.18.27l-.55.91a.52.52 0 0 1-.18.36v.18a.16.16 0 0 0-.18.18l-.18.55c-.24.24-.33.45-.27.64s0 .27-.27.27l-.18.73-.18.18v.18a.16.16 0 0 0-.18.18v.18a1 1 0 0 0-.36.73l-.36.73h-.18v.36a.16.16 0 0 0-.18.18v.18a1 1 0 0 0-.18.73l-.36.55-.18.18v.36H46v.18a1.57 1.57 0 0 0-.55 1.09l-.73 1.27-.36.73a1.75 1.75 0 0 0-.55 1.27V88a.16.16 0 0 0 .18.18V88h.18a.74.74 0 0 1 .18-.55l.36-.55a.52.52 0 0 1 .18-.36l.73-1.27c0-.12 0-.18.09-.18s.09-.06.09-.18l.36-.55a1.61 1.61 0 0 1 .18-.73 5.56 5.56 0 0 0 .27-.64 1.12 1.12 0 0 1 .27-.45l2.18-4.37.18-.18v-.36l.18-.18.36-.55a1.23 1.23 0 0 1 .42-.9 1 1 0 0 0 .36-.73l.18-.55a.71.71 0 0 1 .46-.72c.3-.12.45-.48.45-1.09v-.18h.18v-.18a1 1 0 0 1 .36-.73l.18-.55a4.4 4.4 0 0 0 .91-2l.36-.55a.52.52 0 0 1 .18-.36L54 68c-.12-.12.09-.64.64-1.55s.76-1.3.64-1.18l.18-.55zm-11.1 18.92l.55-.18.18-.18v-.18l.36-.91a.16.16 0 0 0 .18-.18l.36-.91a.16.16 0 0 0 .18-.18l.18-.55a.16.16 0 0 0-.18-.18L46 80a.16.16 0 0 1-.18.18v.36c-.12 0-.18 0-.18.09s-.06.09-.18.09l-.18.55a.16.16 0 0 1-.18.18l-.18.55a.16.16 0 0 1-.18.18v.36l-.18.18v.18l-.18.18zm.73 17.28l.18-.18.36.36v-.18l.18-.18h-.36l.18-.18-.18-.18v.18h-.18l-.18.18zm.36.55h.91l.36-.18-.18-.18v.22l-.18-.18a.16.16 0 0 0-.18.18v-.18l-.18.18h-.36zm1.09-23.46h.18a.16.16 0 0 0 .18.18.52.52 0 0 0 .18-.36l.36-.36.18-.36v-.18c.24-.24.36-.42.36-.55a.52.52 0 0 1 .18-.36.16.16 0 0 1 .18-.18l.18-.55.18-.36.18-.18a.16.16 0 0 1 .18-.18l.18-.55.18-.18v-.21a.16.16 0 0 1 .18-.18l.18-.73a.16.16 0 0 0 .18-.18l.18-.36h-.55a.16.16 0 0 0-.18.18h.18l-.55.55h.18a.16.16 0 0 0-.18.18l-.55 1.09-.18.18v.18a.29.29 0 0 1-.18.27.29.29 0 0 0-.18.27l-.15.55a.16.16 0 0 0-.18.18v.18l-.18.18V76l-.18.18-.18.55-.36.55a.16.16 0 0 1-.18.18zM49.29 82c0 .12 0 .06-.09-.18s-.15-.36-.27-.36l-.18.18a.52.52 0 0 0-.18.36h-.18a.53.53 0 0 1-.18.36v.18a.53.53 0 0 0-.18.36v.18c-.12 0-.15 0-.09.09s0 .09-.27.09v.18a.53.53 0 0 0-.18.36v.2l-.36.91h.55l.18-.36a.16.16 0 0 1 .14-.15V84c.12 0 .18-.12.18-.36l.36-.73a.16.16 0 0 0 .18-.18v-.18l.18-.18.18-.36zm1.45 18.55h-.91l-.18-.18-.55.18.18-.36-.18.18v-.18l-.18.18v-.18h-.18v-.55l-.18.73h-.18l.18-.18a.53.53 0 0 0-.36.18l-.2.63.55.18H50l.36-.18h.36zm-2.18.36v-.55a.16.16 0 0 0 .18-.18v.55l.18-.18.18.36zm6.74-32.52h-.36v.55l-.36.36-.38.7-.36.55a.16.16 0 0 0-.18.18v.18a.16.16 0 0 1-.18.18l-.18.55c0 .12 0 .18-.09.18s-.09.06-.09.18l-.18.36a.37.37 0 0 1-.09.27.37.37 0 0 0-.09.27v.18l-.36.55c-.36.36-.49.55-.36.55v.18c-.36.36-.49.55-.36.55l-.18.73-.18.18V76a.53.53 0 0 0-.18.36.53.53 0 0 1-.18.36v.18a.16.16 0 0 0-.18.18v.55l-.36.55a.53.53 0 0 0-.18.36.53.53 0 0 1-.18.36v.18a.53.53 0 0 0-.18.36.16.16 0 0 1-.18.18l-.18.18a.37.37 0 0 1-.09.27.37.37 0 0 0-.09.27l.18.36h.18v-.18c.12 0 .18-.09.18-.27s.18-.45.55-.82v-.18l.36-.73v-.36l.55-.91a1.45 1.45 0 0 1 .09-.45 8.5 8.5 0 0 1 .57-1.13l.18-.36a.16.16 0 0 1 .18-.18v-.36a.16.16 0 0 0 .18-.18.16.16 0 0 1 .18-.18l.18-.55c.24-.24.33-.42.27-.55s0-.18.09-.18l.36-.36a.74.74 0 0 1 .18-.55V72a.74.74 0 0 0 .18-.55l.18-.36a.16.16 0 0 1 .18-.18v-.18a.16.16 0 0 1 .18-.18l.18-.55a.16.16 0 0 1 .18-.18v-.73l.18-.36a.16.16 0 0 1 .18-.18zm-4.55 2h.18l.18-.18v-.55l.36-.55a.16.16 0 0 1 .18-.18l-.18-.18a.16.16 0 0 0-.18-.18l-.36.18v.55l-.18-.18V70h-.18v.18zm.36 30.74l.55-.55h-.73l-.18.18zm3.82-.55c-.24 0-.3 0-.18-.09s.06-.09-.18-.09l-.36.55.18-.18a.16.16 0 0 0 .18.18v-.18l.36.36V101l.36-.36zm1.45-.18l.18.18.36.18a.16.16 0 0 0 .18.18l.36-.18.18-.18v-.18zm2-41.65l-.18-.18-.36.18-.18.18-.18.36v.91l.36-.36a.16.16 0 0 1 .18-.18v-.36a.16.16 0 0 0 .18-.18zm.73-2l-.18.36v.36l.18-.18a.16.16 0 0 0 .18-.18v-.18zm0 43.65h2.36l-.73-.36-1.64.18zm.73-45.11a.16.16 0 0 0-.18.18c0 .12.12.18.36.18l.18-.36zm2.36-3.64a.16.16 0 0 0-.18-.18l-.55 1.09a.16.16 0 0 0-.18.18l.55.18c.12 0 .15-.06.09-.18s0-.18.27-.18l.18-.91zm.36 48.93l.18.18H66a.53.53 0 0 0 .36-.18l2.55-.18A2.77 2.77 0 0 0 70 100h.18c0-.12.09-.15.27-.09s.27 0 .27-.27h.45A4 4 0 0 0 72 99l1.27-.73a.16.16 0 0 0 .18.18l.55-.55.18-.36H74c0-.12.18-.27.55-.45s.55-.64.55-1.36l-.55.18a.16.16 0 0 0-.18.18h-.18c.12 0 .06.12-.18.36v.18c-.24 0-.34.06-.27.18s0 .3-.27.55v.18h-.17l-.36.36-1.09.73h-.18l-.36.18c0 .24-.06.34-.18.27s-.18 0-.18.09h-.18a.16.16 0 0 0-.18.18H70c0 .24-.06.3-.18.18s-.18-.06-.18.18l-.36.18v-.18a.16.16 0 0 0-.18.18h-.18a.75.75 0 0 0-.55.18h-2.16a.16.16 0 0 1-.18.18h-1.27a.53.53 0 0 1-.36.18.16.16 0 0 0-.18-.18h-1.1c-.37.34-.55.46-.55.34zm.36-50.75V50a.16.16 0 0 0-.18.18c0 .12 0 .18.09.18s.09.06.09.18l.18-.18.18-.55zm.91-1.64a.16.16 0 0 0-.18-.18v.18a.18.18 0 1 0 0 .36H64v-.35zM65.48 46l-.18-.18h.18l-.55-.18.18.36a.16.16 0 0 0 .18.18zm12.37-25.45a.16.16 0 0 1-.18.18l-.18.18c-.12 0-.18.09-.18.27s-.06.27-.18.27l-.36.73a.16.16 0 0 0-.18.18l-.18.36a.16.16 0 0 1-.18.18.16.16 0 0 0-.18.18l-.18.18a.53.53 0 0 1-.18.36v.18l-.36.73a1 1 0 0 0-.36.73l-.18.36h-.18v.18c0 .12 0 .18-.09.18s-.09.06-.09.18l-.18.36a.53.53 0 0 1-.18.36.53.53 0 0 0-.18.36v.36l-.73 1.27a.53.53 0 0 1-.18.36.74.74 0 0 0-.18.55l-.36.55-.18.18v.18a.32.32 0 0 0-.36.36.74.74 0 0 1-.18.55l-.18.36c-.12 0-.18.09-.18.27s-.06.27-.18.27v.18l-.36.55-.18.18v.18a.53.53 0 0 0-.18.36l-.18.36a.16.16 0 0 0-.18.18v.18l-.18.18-.18.55a.58.58 0 0 1-.36.55c-.24.12-.36.55-.36 1.27l-.36.55c0 .36-.12.55-.36.55l-.36.55-.18.36-.55.91c0 .24-.06.36-.18.36v.18c-.12 0-.18.12-.18.36a.32.32 0 0 1-.36.36v.18a.75.75 0 0 0-.27.73c.06.24-.15.61-.64 1.09l.18.55v-.55h.18l.55-.91a1.6 1.6 0 0 0 .45-.82 1.35 1.35 0 0 1 .64-.82v-.18a3.14 3.14 0 0 0 .64-1 2.92 2.92 0 0 0 .27-.82l.18-.18.18-.18.91-1.82 1.45-3.09.18-.18a.16.16 0 0 1 .18-.18l.55-.91a1.57 1.57 0 0 1 .55-1.09L73.3 30a.52.52 0 0 1 .18-.36 1 1 0 0 1 .36-.73v-.36a.16.16 0 0 1 .18-.18l.36-.91a.16.16 0 0 0 .18-.18l.56-1.28v.18c.12 0 .21-.24.27-.73s.21-.73.45-.73l.18-.18a.52.52 0 0 1 .18-.36V24a.16.16 0 0 1 .18-.18v-.36a.16.16 0 0 0 .18-.18l.18-.18.36-.73.36-.55a.16.16 0 0 1 .18-.18v-.54c.12 0 .18-.12.18-.36zm-9.46 81.13l-.18-.18h-1.64a.16.16 0 0 0-.18.18h-.73l-.18.18.18.36.18.18a.37.37 0 0 0 .27-.09.37.37 0 0 1 .27-.09h1.27c.12 0 .18 0 .18-.09s.06-.09.18-.09h.36zm-1.82-57.84l-.73-.18.18.18-.36.55.18.18H66l.18.18.18-.36h.18a.16.16 0 0 0-.18-.18l.18-.18zM65.85 99a.16.16 0 0 0 .18.18L67.3 99l.18-.18.73.18v-.36h-2l-.55.18zM66 39.11l.73-.18c0-.12 0-.18.09-.18s.09-.06.09-.18v-.18a.32.32 0 0 0 .39-.39v-.18a.32.32 0 0 0 .36-.36v-.18a.53.53 0 0 1 .18-.36v-.18a.16.16 0 0 0 .18-.18l.18-.55a.16.16 0 0 0-.18-.18l-.18.18a.16.16 0 0 0-.18.18l-.55 1.09a.32.32 0 0 0-.36.36l-.36.55-.36.73zm1.12-30.56l-.36.18.18.18h.18zm0 33.29V42l.18-.18zm.18.36a.16.16 0 0 0-.18-.18v.18zm1.27-34.38V8h-.36l.55.73V8zm.18 25.83a.51.51 0 0 0 .36.18.29.29 0 0 1 .18-.27.29.29 0 0 0 .18-.27h.18v-.55c0-.12.06-.15.18-.09s.18-.09.18-.45l.18-.55a.16.16 0 0 0 .18-.18l.36-.55a.16.16 0 0 1 .18-.18l.36-.55.73-1.45.36-.55h-.55l-.14-.19a.16.16 0 0 0 .18.18l-.55.36a.16.16 0 0 1-.18.18l-.18.73-.36.73-.36.36a.53.53 0 0 0-.18.36l-.18.36a.16.16 0 0 0-.18.18h.18v.18c0 .12 0 .12-.09 0s-.09 0-.09.36v.18l-.36.73-.18.18-.36.36zm2.18 4.55c0 .12 0 .06-.09-.18s-.15-.36-.27-.36l-.18.18a.16.16 0 0 0-.18.18l-.36.55a.53.53 0 0 0-.18.36v.36c-.24 0-.3.06-.18.18s.06.18-.18.18l-.18.55a.16.16 0 0 1-.18.18v.36a.16.16 0 0 0-.18.18h.55l.36-.55h-.18a2.07 2.07 0 0 1 .18-.64c.12-.3.3-.45.55-.45l.18-.73.18-.18.18-.18zM75.12 98h-.18l-.36.55h-.18l-.18.36-.55.36a.52.52 0 0 1-.18.36.16.16 0 0 1-.18-.18l-.55.36a.32.32 0 0 1-.36.36h-.18c0 .24-.06.3-.18.18s-.18-.06-.18.18h-.36l-.18.18a.53.53 0 0 1-.36.18l-.55.18h-.18l-1.09.36a.16.16 0 0 0 .18.18h.55c.24-.24.39-.3.45-.18s.27.06.64-.18h.36l2-1.09.18.18v-.18h.18l.36-.36c0-.12.09-.18.27-.18s.27-.12.27-.36l.36-.36.18-.18.18-.18v-.18l.18-.18a.53.53 0 0 1 .18-.36v-.18a.16.16 0 0 0 .18-.18v-.18l.18-.18V97c.24-.24.3-.39.18-.45s-.06-.21.18-.45l-.38-.6-.18.18H76l-.36.55c0 .12 0 .18-.09.18s-.09.06-.09.18v.18a.16.16 0 0 1-.18.18v.55l-.18.36zm-4.73.18l.18-.18-1.09.18zm-.73-90v.18l.18-.18zm.34 89.5l-.18.18h1.27l.18-.18.18-.18.18-.18.55-.36c.12 0 .15-.06.09-.18s0-.18.27-.18l.18-.18a.16.16 0 0 0-.18-.18l-.54.16h-.18l-.18.18a.16.16 0 0 1-.18.18h-.16v.36l-.36.18-.55.36zm7.46-72.94h-.18l-.36.73a.16.16 0 0 0-.18.18h-.34v.18l-.18.18-.18.55-.18.18v.36l-.36.73a.16.16 0 0 0-.18.18l-.18.36-.18.18-.18.55a.16.16 0 0 0-.18.18l-.18.55c-.24 0-.3 0-.18.09s.06.21-.18.45v.18a.16.16 0 0 0-.18.18l-.18.73-.18.18v.18a.16.16 0 0 1-.18.18v.36c-.12 0-.18.12-.18.36a.53.53 0 0 1-.18.36l-.36.18a.74.74 0 0 1-.18.55l-.18.36a.53.53 0 0 0-.18.36l-.36.73a.52.52 0 0 1-.18.36l-.24.38c-.24.24-.36.43-.36.55a.16.16 0 0 0 .18.18v.18a.16.16 0 0 0 .18-.18l.18-.36.73-1.09a.16.16 0 0 0 .18-.18v-.18a.53.53 0 0 0 .18-.36l.18-.36.18-.18.55-.91a1.4 1.4 0 0 1 .18-.55 1.63 1.63 0 0 0 .18-.73l.18-.55.73-.91.18-.18a.74.74 0 0 1 .18-.55v-.18c.12 0 .18-.09.18-.27s.06-.27.18-.27l.36-.73c.24 0 .3-.06.18-.18s-.06-.18.18-.18l.18-.91a.16.16 0 0 0 .18-.18v-.18a.58.58 0 0 1 .36-.55.58.58 0 0 0 .36-.55v-.18a.16.16 0 0 0 .18-.18zM71.67 7.82L71.3 8a.16.16 0 0 0 .18.18l.19-.18zm1.09 0h-.36a.16.16 0 0 0 .18.18zm-.18 18.55a.38.38 0 0 1 .27.09.36.36 0 0 0 .27.09l.18-.36a.16.16 0 0 0 .18-.18l.36-.91-.18-.18-.36.18a.16.16 0 0 0-.18.18h.18l-.36.73h-.18v.18zm.36-18.55l-.18-.18V8zm0 87.31v.18c0 .12 0 .15-.09.09s-.09 0-.09.09l.36.18.36-.18a.16.16 0 0 0-.18-.18l.18-.55a.52.52 0 0 1-.36-.18h-.18l.18.18-.36.36zm1.82-87.49a.16.16 0 0 1-.18-.18H74l-.18.18H74l-.15.36.36-.18V8l.18-.18V8l.18-.18h.18zm2 .18v-.18l-.18-.18v.18l-.18-.18.18.36zm1.09 0a.16.16 0 0 0 .15-.18l-.18-.18v.18l-.18-.18zm.73 11.82a.16.16 0 0 0-.18-.18H78a.16.16 0 0 0 .18.18H78l.36.36a.16.16 0 0 1 .18-.18zm.36-.73a.16.16 0 0 1-.18-.18h-.36l.18.18h-.18a.16.16 0 0 0 .18.18zm.73-11.64l-.73.18c-.12 0-.18.12-.18.36h1.09zm-.55 11.1h-.36a.16.16 0 0 1 .18.18h.18zm.73-.91l-.36-.18h-.18a.16.16 0 0 0 .18.18l-.18.18a.16.16 0 0 0 .18.18h.36zm.18-.73l-.18-.18-.18.18h.18l.18.36a.16.16 0 0 0 .18-.18v-.18zm.18-.73a.16.16 0 0 0-.18.18l.36.18h.18zm.91-.36a.16.16 0 0 0-.18-.18h-.36l.36.18zm.55-.18a.16.16 0 0 0-.18-.18l-.36-.36-.36.18a.54.54 0 0 1 .36.18l.36.18zm.18-.91l-.18-.18h-.18a.16.16 0 0 0-.18-.18l.18.18a.16.16 0 0 0 .18.18zm66.76-7.46c0-.12-.3-.18-.91-.18h-2.18a2 2 0 0 0-.64.09 2 2 0 0 1-.64.09h-4.73a2 2 0 0 0-.91.18h-4.09a12.91 12.91 0 0 0-2.09.18h-1.64a5.58 5.58 0 0 0-1.64.18h-3.82c-.24.24-.45.34-.64.27a2 2 0 0 0-.64-.09h-9.46a3.14 3.14 0 0 0-1.27.18h-3.64c0 .12-.12.18-.36.18H105v.18a.16.16 0 0 1-.18-.18h-.18l-.18.18h-2l.36.18.36.18 8.37-.18a.38.38 0 0 1 .27.09.36.36 0 0 0 .27.09c.24 0 .36-.06.36-.18h3.82a.53.53 0 0 0 .36-.18H121a.16.16 0 0 0 .18-.18l.18.18h.18a.74.74 0 0 0 .55-.18h4c.48 0 .73-.06.73-.18h3.27l.36-.18h8.73a.37.37 0 0 0 .27-.09.37.37 0 0 1 .27-.09l7.28-.17h.82a1.13 1.13 0 0 0 .79-.37zm-39.29-.36a.16.16 0 0 0-.18.18h.36l.18.18H111l.36.18.18-.18a.16.16 0 0 1 .18.18h.91l.18-.18c0 .12.12.18.36.18 0-.12 0-.15.09-.09s.09 0 .09-.09h3.27c.12 0 .18 0 .18-.09s.06-.09.18-.09v.18l.36-.18h4a.16.16 0 0 0 .18-.18h.36a.16.16 0 0 1 .18.18l2-.18a.16.16 0 0 1 .18-.18h3.64a1.61 1.61 0 0 0 .73-.18c.12 0 .18 0 .18.09s.06.09.18.09a.79.79 0 0 0 .36-.09 1.27 1.27 0 0 1 .55-.09h2a2.92 2.92 0 0 0 .73-.09c.24-.06.36-.15.36-.27l-4.18-.18a.81.81 0 0 0-.36.09.79.79 0 0 1-.36.09h-2.91a3.82 3.82 0 0 0-1.45.18l-9.1.18c0 .12-.18.18-.55.18h-2.73l-.36.18-.36-.18v.18zm5.27 2.91l-.18.18h-1.82v.36h.73a.16.16 0 0 0 .18.18l.18-.18a.16.16 0 0 0 .18.18h.14l.18-.18v.18l.18-.18h.91l.18-.36h.18a.16.16 0 0 0-.18-.18zm15.64-.36l-5.23.18a.16.16 0 0 0-.18-.18h-2.73l-.18.18h-3.31l.18.36c0 .24.06.36.18.36h.91a.16.16 0 0 0 .18-.18h.18v.18l.18-.18h.18v.18l.18-.18h4.73a.16.16 0 0 0 .18-.18h.36l.18.18h.36a.16.16 0 0 0 .18-.18l2.24-.18.18.18h.73a.16.16 0 0 1 .18-.18l.18-.18zm10.37-.36l-.18-.18-.55-.18H137l-.18.18v-.19a.53.53 0 0 0-.36.18h-1.27a.52.52 0 0 0-.36.18v-.18h-.36c-.36 0-.55.12-.55.36a.16.16 0 0 0 .18.18h5.09a.16.16 0 0 1 .18-.18h1.09zM134.78 6l.18.18h2.18a.53.53 0 0 1 .36-.18v.18l.36-.18.36.18.38-.18a.16.16 0 0 0 .18.18L139 6h1.82l.18-.18V6l.18-.18q0-.36-.27-.27t-.27-.27h-.73a.53.53 0 0 0-.36.18h-2.36a1.61 1.61 0 0 1-.73.18h-1.27c-.36 0-.55.12-.55.36z"/><path class="cls-1" d="M102.57 68a10.08 10.08 0 0 0 3.67-3.19 4.47 4.47 0 0 0 .88-3.11 2.64 2.64 0 0 0-1.6-2 5.16 5.16 0 0 0-3.59 0l-1.92 1a18.3 18.3 0 0 0-1.92 1.12L96 63.25l-1.92 1.6q-1 .8-1.92 1.68a19 19 0 0 0-1.76 1.84 26.64 26.64 0 0 0-4.79 7.59 11.11 11.11 0 0 0-.8 5.91 4.91 4.91 0 0 0 2.56 3.59 8.74 8.74 0 0 0 5.43.64 24 24 0 0 0 8.2-3.37 79.11 79.11 0 0 0 8.62-6.07q3-2.71 4.39-2.08t-1.68 4.47c-.21.21-.53.56-1 1a18.72 18.72 0 0 1-1.76 1.68 58.36 58.36 0 0 1-8.7 6.63 25.74 25.74 0 0 1-12.38 3.91 14.61 14.61 0 0 1-5-.56 9.57 9.57 0 0 1-4.31-2.64 11.1 11.1 0 0 1-2.63-5 17.1 17.1 0 0 1 .16-7.67A28.4 28.4 0 0 1 85 61.17a48.39 48.39 0 0 1 14.21-9.1 18.46 18.46 0 0 1 7-1.6 11.25 11.25 0 0 1 5.51 1.28 7.12 7.12 0 0 1 3.28 3.68 8.52 8.52 0 0 1 .16 5.43 17.64 17.64 0 0 1-3.75 6.95 20.47 20.47 0 0 1-7.58 5.67 4.81 4.81 0 0 1-3 .48 1.76 1.76 0 0 1-1.36-1.28 3.08 3.08 0 0 1 .48-2.24 6.92 6.92 0 0 1 2.62-2.44zm.48-14.37a.14.14 0 0 0-.16.16h-.32l-.16.16h-.16l-.16.16h-.48v.16h-.32l-.16.16h-.32v.16h-.32v.16h-.32v.16h-.32v.16h-.15l-.16.16h-.16l-.16.16h-.16v.16h-.32v.16h-.16v.16h-.16l-.16.16h-.16v.16h-.16a.14.14 0 0 0-.16.16c-.11 0-.27.11-.48.32H97v.16h-.16a.14.14 0 0 1-.16.16h-.18v.16h-.16l-.16.16H96a.14.14 0 0 1-.16.16v.16h-.16l-.16.16h-.16V58h-.16v.16h-.32v.16h-.16v.16h-.16l-.16.16a.14.14 0 0 0-.16.16h-.16a.14.14 0 0 1-.16.16l-.16.16h-.16v.16h-.16l-.16.16a.14.14 0 0 0-.16.16H93v.16h-.16v.16h-.16a.14.14 0 0 0-.16.16h-.16v.16h-.16v.16H92l-.16.16a.14.14 0 0 1-.16.16h-.16v.16h-.16c0 .11 0 .16-.08.16s-.08.05-.08.16h-.16v.16h-.16v.16h-.16l-.16.16h-.16V62h-.16l-.48.48v.16h-.32a.14.14 0 0 1-.16.16v.16h-.16v.16l-.16.16h-.16v.16l-.6.56v.16H88l-.16.16-.44.68h-.16v.16h-.16v.16h-.16v.16h-.16v.16l-.16.16v.2h-.16a.46.46 0 0 1-.16.32.46.46 0 0 0-.16.32l-.16.16-.16.16v.16l-.16.16v.16a.14.14 0 0 0-.16.16l-.48.6v.32a.14.14 0 0 0-.16.16.46.46 0 0 1-.16.32v.32a.65.65 0 0 0-.16.48v.32h.16v.16l.16-.16v-.48l.32-.48a.32.32 0 0 1 .08-.24.33.33 0 0 0 .08-.24v-.16c.1 0 .16-.1.16-.32a.14.14 0 0 0 .16-.16v-.16l1-1.28.32-.32v-.16l.48-.48v-.16h.16v-.16h.16v-.16h.16l.64-.8 1-1 1.76-1.6v-.16a.14.14 0 0 0 .16-.16h.16l.16-.16.16-.16H92V61l.64-.48.16-.16h.2l.16-.16a.14.14 0 0 0 .16-.16h.16v-.14h.16l.16-.16a.14.14 0 0 0 .16-.16h.16l.16-.16.16-.16.64-.48.16-.16a.46.46 0 0 0 .32-.16h.16v-.16h.16l.16-.16h.16V58c.1 0 .16 0 .16-.08s.05-.08.16-.08a.14.14 0 0 0 .16-.16h.16a.14.14 0 0 1 .16-.18.14.14 0 0 0 .16-.16h.16v-.16h.16a.14.14 0 0 0 .16-.16.46.46 0 0 0 .32-.16c.1 0 .16 0 .16-.08s.05-.08.16-.08l.16-.16.32-.16.32-.32c.21 0 .32-.05.32-.16h.16v-.16h.32a.14.14 0 0 1 .16-.16c.1 0 .16 0 .16-.08s.05-.08.16-.08l.16-.16h.16l.48-.32h.16l.16-.16h.16l.16-.16h.16c0-.1.1-.16.32-.16l.16-.16h.16l.16-.16h.16a.14.14 0 0 0 .16-.16h.32v-.16h.32v-.16zm-17.72 11.7H86v-.16h.16V65h.16v-.32h.16v-.16h.16v-.16h.16v-.16h.16V64h.16v-.16h.16v-.32h.16v-.16h.16v-.16h.16v-.16h.16v-.16a.14.14 0 0 0 .16-.16h.16v-.32a.14.14 0 0 0-.16-.16v.16h-.32v.16h-.36v.32h-.16a.14.14 0 0 0-.16.16l-.32.32v.16h-.16v.16h-.16v.16h-.16V64h-.16v.16H86v.16h-.16v.32h-.16v.16l-.16.16v.16h-.16zm1.6 24h.32a.34.34 0 0 1 .24.08c.05.05.18.08.4.08v.16h.32a1.13 1.13 0 0 1 .48.08 1.08 1.08 0 0 0 .48.08H90v-.21h.16v.16h.64a.32.32 0 0 0 .24-.08.33.33 0 0 1 .24-.08h.16a2.55 2.55 0 0 0 .64-.08 2.66 2.66 0 0 1 .64-.08h.16v-.16h.48a.32.32 0 0 0 .24-.08.32.32 0 0 1 .24-.08h.48V89h.48l.16-.16h.32l.16-.16h.32a.14.14 0 0 0 .16-.16h.32v-.16h.32v-.16h.32L97 88h.16l.16-.16h.16l.16-.16.16-.16h.16l.16-.16h.16v-.16h.16c.11 0 .16 0 .16-.08s.05-.08.16-.08v-.16h.16v-.16h.16l.16-.16h.16v-.16h.16v-.16h.16v-.16h.16v-.16h-.32l-.16.16h-.16v.16h-.16l-.16.16h-.32v.16h-.32v.16h-.18v.16h-.32a.14.14 0 0 1-.16.16h-.16v.16h-.32v.16H97a.14.14 0 0 0-.16.16.46.46 0 0 0-.32.16h-.16l-.16.16h-.32a.14.14 0 0 1-.16.16h-.16v.16h-.48v.16h-.48v.16h-.48l-.16.16h-.64v.16h-.64v.2H92v.16h-1.08l-.16.16h-.64l-.12-.2v.16h-.2v-.16l-.16.16h-1.12a.66.66 0 0 0-.48-.16h-.32V89h-.64l-.16.16zm2.87-24.64a.14.14 0 0 0-.16.16h-.16V65h-.32v.16l-.48.48v.16h-.16v.2h-.16v.16h-.16v.16H88v.16h-.16v.32h-.16v.16h-.16v.32h-.12v.16h.6v-.16h.16v-.16h.16v-.32h.16v-.2h.16v-.16h.16v-.16h.2v-.16h.16v-.32h.16v-.16h.16v-.16h.16v-.32H90v-.48zm-.8 26V91h.16v.16h.16v.16h.16l.16-.16h1.28V91l.16.16a.14.14 0 0 0 .16-.16v-.32zm.48-30l.16.16.16-.16h.32v-.16l.48-.32.16-.16h.16v-.15a.46.46 0 0 0 .32-.16l.16-.16c.21-.21.37-.32.48-.32v-.16H92v-.16h.16l.16-.16h.16l.16-.16h.16a.14.14 0 0 1 .16-.16l.16-.16h.16v-.16h.16V58h.32v-.16h.16v-.16h.16v-.18h.16l.16-.16h.16v-.16h.16V57h.32v-.3h-.32a.14.14 0 0 0-.16.16h-.48V57h-.32v.16h-.16v.16h-.16a.14.14 0 0 1-.16.16h-.16v.16H93v.16h-.16v.2h-.16v.16h-.32v.16H92v.16h-.16v.16h-.16v.16h-.16v.16h-.16v.16h-.16v.16h-.32v.16h-.16a.14.14 0 0 1-.16.16l-.16.16h-.16v.16h-.16v.16a.14.14 0 0 0-.16.16h-.12v.16h-.16l-.16.16zm1.12 27.63v-.16h.16v.16h.16v-.16h.32v-.32h-.32v-.16h-.32l-.16.16h-.32v-.16H90v.16h-.48v.48zM101 56.54h-.64v.16H100v.16l-.16-.16h-.14v.16h-.32V57h-.16l-.16.16h-.16v.16h-.32v.16h-.16v.16h-.32v.16h-.16c0 .11 0 .16-.08.16s-.08.05-.08.16h-.32v.16h-.16l-.16.16H97v.16h-.16v.16h-.34v.16h-.16v.16h-.16a.14.14 0 0 0-.16.16h-.16v.16h-.16v.16h-.32v.16h-.16v.16h-.16l-.16.16h-.16v.16h-.16v.16h-.16l-.16.16v.16h-.32V61h-.32v.16h-.16v.16h-.16v.16h-.16l-.16.16h-.16v.16c-.11 0-.16 0-.16.08s-.05.08-.16.08a.14.14 0 0 0-.16.16h-.16v.16H92v.16l-.32.32h-.16v.16h-.16v.16a.46.46 0 0 0-.32.16l-.48.48-.16.16v.32h.16a.14.14 0 0 0 .16-.16l.48-.32.16-.16h.16v-.16l.64-.48.16-.16a.47.47 0 0 1 .32-.16v-.16h.16v-.16l.48-.32.32-.32h.16a4.56 4.56 0 0 1 1-.8v-.14h.16v-.16h.32l.32-.32.16-.16h.16v-.16h.32v-.16h.16a.14.14 0 0 1 .16-.16l.16-.16h.16v-.16H97l.16-.16h.16v-.16h.16l.16-.16h.16v-.16h.16v-.16h.32v-.16h.16a.14.14 0 0 1 .16-.16l.16-.16h.16v-.16h.32v-.16h.16v-.16h.16l.16-.16h.16v-.16h.12c.1 0 .16 0 .16-.08s.05-.08.16-.08h.16v-.16h.16v-.16h.36zm-2.1 31.78h-.48v.16h-.16v-.16h-.16v.16h-.32v.16h-.32v.16h-.32v.2a.14.14 0 0 0-.16.16h-.48v.16h-.32v.16h-.48v.16h-.48v.16h-.32l-.16.16h-.32v.16h-.48v.16h-.8v.16h-.48v.16h-.8l-.16.16v.16l.16.16v-.16h1.28l.16-.16h.48a.46.46 0 0 0 .32-.16h.16a.7.7 0 0 0 .32-.08.71.71 0 0 1 .32-.08v-.16h.32a.46.46 0 0 0 .32-.16H96l.16-.16h.32v-.16h.32v-.2h.32v-.16h.32v-.16h.32v-.16h.16a.14.14 0 0 0 .18-.12h.16l.16-.16h.16v-.16h.16v-.16h.16zm-6.71-.64l.16.16.16-.16.16.16a.14.14 0 0 0 .16-.16h.64v-.16h1v-.16h.32a.14.14 0 0 1 .16-.16h.32v-.32h-.32v-.16h-.48v.16h-.32V87h-.8v.16h-.64a.14.14 0 0 1-.16.16h-.32zM96 86.25v.16h-.16v.32h.32a.14.14 0 0 0 .16-.16h.16v-.16l.16.16v-.48h-.14v-.16h-.16v.16h-.16v.16l-.18-.16zm.64-30.34v-.16H97l.16-.16v-.16h.32v-.16h.32v-.16h.16v-.32h-.32v-.16h-.16v.16h-.32v.16H97v.16h-.16v.16h-.16v.16h-.18v.16h-.16v.32zm8.46 12.94c-.11 0-.16 0-.16.08s-.05.08-.16.08h-.16v.16l-.16.16h.16v.16a.46.46 0 0 1 .32-.16.33.33 0 0 0 .24-.08.32.32 0 0 1 .24-.08.46.46 0 0 0 .32-.16 1.24 1.24 0 0 1 .48-.16.46.46 0 0 0 .32-.16.46.46 0 0 1 .32-.16.14.14 0 0 1 .16-.16h.16v-.17h.16V68h.16l.32-.16.32-.32.32-.16.8-.8v-.16h.16v-.16h.16a.14.14 0 0 1 .16-.16l.32-.32v-.16h.16l.16-.16v-.16h.16v-.16h.16l.16-.16c0-.1 0-.16.08-.16s.08-.05.08-.16l.32-.32v-.16h.16V64h.16v-.32h.16v-.16l.16-.16v-.16a.14.14 0 0 0 .16-.16.46.46 0 0 1 .16-.32v-.16a.14.14 0 0 0 .16-.16v-.16l.16-.16v-.32h.16v-.32l.16-.16v-.16a.46.46 0 0 1 .16-.32v-.48h.16v-.16l-.16-.16-.16.16v.16h-.16v.32h-.16V61h-.16v.16l-.16.16v.16l-.16.16V62H112v.32h-.16v.32h-.16v.16a.14.14 0 0 1-.16.16v.32h-.16v.16h-.16v.32h-.2v.16h-.16v.32h-.16v.16h-.16v.16h-.16v.16l-.16.16V65h-.16v.16h-.16v.16h-.16v.16h-.16v.16h-.16v.16h-.16v.2h-.16v.16H109v.16h-.16v.16h-.16v.16h-.16v.16h-.16v.16h-.16v.16h-.2v.16h-.16l-.16.16h-.16v.16h-.16l-.32.16v.16h-.32V68h-.16l-.32.32h-.16l-.16.16a.14.14 0 0 0-.16.16h-.32a.14.14 0 0 0-.16.16zm.8-1.6h.48v-.16h.16v-.16h.32v-.16h.14v-.17h.16v-.16h.16v-.32h-.16L107 66v.16h-.32v.16l-.16.16h-.32v.16h-.16v.16h-.16zm3 1.28h-.48v.16h-.32a.14.14 0 0 1-.16.16V69h-.32v.16h-.16v.16h-.16v.16h-.3v.16h.16v.16h.32v.2l.16-.16h.16v-.16h.2v-.16h.32v-.16h.16v-.16h.16V69h.16v-.16h.2zm-.64-3.19l.16-.16V65h.32v-.16a.14.14 0 0 0 .16-.16v-.16h.32v-.16h.16v-.16h.16V64h.16v-.32h.16v-.16h.16v-.32h-.64v.16h-.16v.32h-.16v.16H109V64h-.16v.16h-.16v.32h-.16v.16h-.32v.16h-.2v.2h-.16v.32zm5-2.24H113v.32h-.16v.32l-.16.16v.1a.14.14 0 0 0-.16.16v.16h-.16v.16h-.16v.32h-.2v.2h-.16v.32h-.16v.16h-.16v.16h-.16v.16a.14.14 0 0 0-.16.16v.16h-.2v.16h-.16v.16l-.16.16v.16h-.16l-.16.16h-.16v.16h-.16v.16l-.16.16v.16h-.16l-.16.16h-.16v.16h-.16v.48h.16v-.16c.21 0 .32-.05.32-.16h.16v-.16a.32.32 0 0 0 .24-.08.33.33 0 0 1 .24-.08v-.16l.16-.16v-.16h.16a.14.14 0 0 0 .16-.16c.1 0 .16 0 .16-.08s.05-.08.16-.08v-.16l.48-.48v-.16l.32-.32v-.16h.16v-.16h.16v-.16h.16v-.16h.16v-.32h.16v-.16l.16-.16v-.16h.16v-.16a.14.14 0 0 1 .16-.16v-.32h.16v-.32a.14.14 0 0 0 .16-.16v-.16a.14.14 0 0 0 .16-.16v-.32h.16v-.16h-.32v.16h-.16v.32h-.16zm-2.56-.48v-.32h.16V62h-.32v-.16h-.16v.32h-.16v.48z"/><path class="cls-1" d="M143.61 75.39q2.71-3 4.23-2.16t-1.2 5a24.39 24.39 0 0 1-4 4.87 31.51 31.51 0 0 1-5.75 4.39 36.81 36.81 0 0 1-6.89 3.23 22.2 22.2 0 0 1-7.31 1.28 14.26 14.26 0 0 1-5-.88 9.81 9.81 0 0 1-4.07-2.79 12.84 12.84 0 0 1-2.55-4.87 16.37 16.37 0 0 1-.24-7.11 22.65 22.65 0 0 1 2.47-7.67 32.82 32.82 0 0 1 5.11-7.19 37.58 37.58 0 0 1 7-5.91 30.72 30.72 0 0 1 8.38-3.83q7-1.92 11.26.88t2.63 9a16.44 16.44 0 0 1-1.68 4.15 15.65 15.65 0 0 1-4.15 4.79 23.65 23.65 0 0 1-7.35 3.75 31.16 31.16 0 0 1-11.26 1.2 4.55 4.55 0 0 1-2.87-1.12q-2.72 5.75-.64 9.1t7.19 2.4a22.16 22.16 0 0 0 8.22-3.67 54.76 54.76 0 0 0 8.47-6.84zm-25.07-7.51h.16v-.16a1.73 1.73 0 0 0 .64-.8 1.29 1.29 0 0 0 .24-.32.87.87 0 0 1 .4-.32l.32-.32 1.44-1.96h.16v-.16l.16-.16a.14.14 0 0 0 .16-.16h.16v-.16h.16v-.16h.16l.48-.64a.14.14 0 0 0 .16-.16h.16l.16-.16.16-.16.32-.32h.16v-.16a.14.14 0 0 0 .16-.16h.16v-.16a.46.46 0 0 0 .32-.16l.48-.48h.16l.16-.16.16-.16a.14.14 0 0 0 .16-.16h.16V60h.16v-.1h.16l.16-.16.16-.16h.14v-.16h.16v-.16h.32v-.16h.16v-.16h.16l.16-.16h.16c0-.1 0-.16.08-.16s.08-.05.08-.16a.46.46 0 0 0 .32-.16h.16l.32-.32c.1 0 .26-.1.48-.32l.16-.16h.16v-.16h.12a.14.14 0 0 0 .16-.16h.32a.14.14 0 0 1 .16-.16.14.14 0 0 0 .16-.16h.2c.21-.21.37-.32.48-.32a.14.14 0 0 0 .16-.16h.36v-.16h.16l.16-.16a.46.46 0 0 0 .32-.16h.32v-.16h.32v-.16h.32v-.16h.32l.16-.16v-.16h-.48v.16h-.32l-.16.16h-.32v.16h-.32v.16h-.64v.16h-.32a.14.14 0 0 1-.16.16h-.16l-.16.16h-.16v.16h-.32v.16h-.32v.16H130a.14.14 0 0 0-.16.16h-.16l-.16.16a.14.14 0 0 0-.16.16h-.16v.16h-.32v.16h-.16v.16h-.32v.16h-.16l-.16.16-.48.32-.16.16h-.16v.16h-.16l-.16.16h-.16v.16h-.16l-.16.16v.16a.47.47 0 0 0-.32.16H126v.16h-.16v.16h-.16v.16h-.16a.14.14 0 0 1-.16.16.14.14 0 0 0-.16.16h-.16v.16h-.16v.16h-.16l-.16.16h-.16v.16h-.16V61a.14.14 0 0 0-.16.16H124v.16h-.16v.16h-.16v.16h-.16v.16h-.16v.2h-.16l-.16.16-.16.16a.14.14 0 0 0-.16.16h-.16v.16l-.16.16h-.16v.16h-.16v.16l-.32.32h-.16v.16l-.48.48v.16h-.16v.16h-.16v.16h-.16v.16l-.16.16V65h-.16v.16h-.16v.16H120v.16l-.16.16a.14.14 0 0 0-.16.16v.2h-.16v.16h-.16v.16l-.16.16-.16.16v.16h-.16v.16a.14.14 0 0 0-.16.16l-.48.48v.16h-.16v.16l-.16.16a.14.14 0 0 1-.16.16v.16a.14.14 0 0 0-.16.16v.16h-.16c0 .21-.05.35-.16.4s-.16.19-.16.4h-.16v.16l-.16.16V70a.14.14 0 0 1-.16.16v.16l-.48.8a.46.46 0 0 0-.16.32v.16h-.16v.32c-.11 0-.16.11-.16.32a.65.65 0 0 0-.16.48v.48h.16V73a.65.65 0 0 0 .16-.48l.32-.48c0-.1.1-.26.32-.48v-.16a.46.46 0 0 1 .16-.32v-.16a.14.14 0 0 0 .16-.16 2.14 2.14 0 0 0 .48-.72 2.12 2.12 0 0 1 .48-.72c0-.1 0-.16.08-.16s.08-.05.08-.16v-.16c.21-.21.32-.37.32-.48a.14.14 0 0 0 .16-.16l.16-.16zm-1.92.32V68h.32v-.16h.16v-.32h.16v-.12a.14.14 0 0 0 .16-.16v-.16h.16v-.16h.16v-.16a.14.14 0 0 0 .16-.16v-.16h.16v-.16l.16-.16V66h.16v-.16h.16v-.32h.16v-.16h.16V65l-.16-.16V65h-.16a73.84 73.84 0 0 0-.32.32h-.16v.16a.14.14 0 0 0-.16.16l-.16.16c0 .11 0 .16-.08.16s-.08.05-.08.16v.16h-.16v.16h-.16v.16h-.16v.16h-.16v.32h-.16v.16a.14.14 0 0 0-.16.16v.16a.14.14 0 0 0-.16.16v.16h-.16v.32zm2.56 1.8v-.2h.16v-.32h.16v-.32h.16V69h.16v-.16h.18v-.32h.16v-.32h.16V68h.16v-.16l.16-.16v-.16h.16v-.12h.16v-.16a.14.14 0 0 1-.16-.16h-.16v.16h-.32v.16h-.16v.32H120a.14.14 0 0 1-.16.16.46.46 0 0 1-.16.32v.16h-.16v.16h-.16v.16h-.16v.16h-.2v.32h-.16v.32h-.16v.32h-.16v.32h.32V70zm17.09 15h-.48v.16h-.16l-.16.16h-.16v.16h-.48v.16h-.32v.16h-.32v.16H134a.14.14 0 0 0-.16.16h-.32v.16h-.16l-.16.16h-.32v.16h-.32v.16h-.16l-.32.32h-.48v.16h-.32l-.16.16h-.32a.14.14 0 0 1-.16.16h-.32v.16h-.48v.16h-.48V88h-.64v.16h-.48a.14.14 0 0 0-.16.16h-.64l-.16.16h-.64l-.16.16h-.32a.14.14 0 0 0-.16.16l-.16-.16h-.16l-.16.16h-4a.66.66 0 0 0-.48-.16h-.32v-.16h-1.12v.16h.16v.16h.32a.72.72 0 0 1 .32.08 1.08 1.08 0 0 0 .48.08.14.14 0 0 0 .16.16h.32a1.8 1.8 0 0 1 .56.08 1.71 1.71 0 0 0 .56.08h2.88L127 89h.32v-.2l.16.16v-.16h.32a.92.92 0 0 0 .64-.16h.64v-.16h.64l.16-.16a.65.65 0 0 0 .48-.16h.32l.16-.16h.32v-.16h.32v-.16h.32a.14.14 0 0 0 .16-.16h.32v-.16h.32l.16-.16h.16l.16-.16a.46.46 0 0 0 .32-.16h.16v-.16h.32v-.16h.12l.16-.16h.16l.48-.32a.14.14 0 0 0 .16-.16h.16v-.16h.32v-.16h.16a.14.14 0 0 0 .16-.16h.16v-.16h.16l.16-.16zM120 63.09h.16v.16h.16v-.16l.32-.16v-.16h.16l.32-.16v-.16a.14.14 0 0 0 .16-.16h.16v-.16a73.84 73.84 0 0 1 .32-.32h.16l.48-.48v-.16h.16l.16-.16.16-.16h.12v-.15h.16v-.16h.16l.16-.16h.16v-.16h.16v-.16h.2v-.16h.16v-.16h.16v-.16h.16a.14.14 0 0 1 .16-.16.14.14 0 0 0 .16-.16h.16v-.16h.16v-.16h.16v-.16h.16v-.16h-.48v.16h-.48v.16h-.16v.16h-.16l-.16.16h-.16v.16a.14.14 0 0 0-.16.16h-.16v.16h-.16v.16h-.16v.16h-.2v.16h-.32v.16h-.16v.16h-.16v.16h-.16v.16h-.16V61h-.16v.16h-.16v.16h-.16v.16h-.16v.16h-.16v.16h-.16a.14.14 0 0 0-.16.16v.16h-.16l-.16.16v.16h-.16l-.16.16v.16h-.16a.14.14 0 0 1-.16.16zm3 1.91v-.16h.16l.16-.16v-.16h.16v-.16h.16L124 64l1.44-1.44v-.16h.16v-.16h.16L126 62h.16v-.16h.32v-.16h.16v-.16h.16l.16-.16.16-.16a.14.14 0 0 1 .16-.16h.16v-.16h.16v-.18h.16l.16-.16h.16v-.16h.16v-.16h.16l.16-.16a.14.14 0 0 0 .16-.16.46.46 0 0 0 .32-.16l.16-.16h.16v-.16h.16l.16-.16h.16v-.16c.1 0 .16 0 .16-.08s.05-.08.16-.08l.16-.16h.16a.14.14 0 0 1 .16-.16h.16v-.16h.2v-.16h.32v-.16a.14.14 0 0 0-.16-.16l-.16.16h-.32v.16h-.48l-.16.16h-.16l-.16.16h-.16v.16h-.16l-.16.16h-.16v.16h-.16a.14.14 0 0 0-.16.16h-.16v.16h-.16v.16h-.16l-.16.16H128v.16h-.16v.16h-.16l-.16.16h-.16v.16h-.16v.16h-.2v.16h-.16a.14.14 0 0 1-.16.16h-.16V61h-.16v.16h-.16v.16h-.2v.16h-.16l-.16.16h-.16v.16h-.16v.2h-.16v.16h-.16v.16h-.16v.16h-.16v.16h-.16v.16a.14.14 0 0 0-.16.16h-.16v.16h-.16v.16H124v.16h-.16v.16h-.16v.16h-.16v.16c-.11 0-.16 0-.16.08s-.05.08-.16.08v.16h-.2v.16h-.16v.16h-.16a.46.46 0 0 1-.16.32h-.16V65l-.16.16v.16c-.11 0-.27.11-.48.32v.16h-.16a.14.14 0 0 1-.16.16c0 .11 0 .16-.08.16s-.08.05-.08.16v.16l.16.16v-.16a.14.14 0 0 0 .16-.16l.48-.32a.14.14 0 0 1 .16-.16v-.16h.16zm1.76 25.39v-.16h-.64l-.16.16h-.32v-.16h-1v.16h-.32v.32h.16v.16h1.6v-.16h.32v.16h.16v-.16h.48v-.31zm16.94-29.53a3.12 3.12 0 0 0-1.6-2 4.25 4.25 0 0 0-3.51.08 19.78 19.78 0 0 0-2 .8 9 9 0 0 0-2 1.28 14.53 14.53 0 0 0-1.92 1.28 4.51 4.51 0 0 1-1 .8 4.52 4.52 0 0 1-1 .8 25.32 25.32 0 0 0-2.06 2.1q-1.2 1.28-2 2.24l-2.08 2.71a9.46 9.46 0 0 1 3.47-.35 17.08 17.08 0 0 0 4.39-.8 29.51 29.51 0 0 0 5.43-2.16 18.93 18.93 0 0 0 4.47-3.11 3.7 3.7 0 0 0 1.41-3.67zM123 87.84V88h1.28v-.16h.8a.14.14 0 0 1 .16-.16v-.16h-.16v-.16h-2.24v.48zm11.82-.32h-.48v.16l-.16-.16v.16h-.64v.16h-.32V88h-.32v.16h-.32v.16a.46.46 0 0 0-.32.16H132l-.16.16h-.32v.16h-.32l-.2.2h-.32l-.16.16h-.32a.14.14 0 0 0-.16.16h-.32a.14.14 0 0 1-.16.16h-.32v.16h-.48v.16h-.64l-.16.16h-.48a.46.46 0 0 0-.32.16h-1v.16h-.32l-.16.16v.16h1a.92.92 0 0 0 .64-.16h.68v-.16h.8l.16-.16a.62.62 0 0 0 .4-.08.63.63 0 0 1 .4-.08v-.16h.48l.32-.16h.44v-.16h.32l.16-.16h.32v-.16h.32l.16-.16h.32v-.2h.32l.16-.16h.16v-.16h.32v-.16h.16a.14.14 0 0 0 .16-.16h.32V88h.32v-.16h.16v-.16h.16zm-7.51-.16v-.16a.14.14 0 0 1 .16.16h.16l.16-.16h.32V87h.16v.16h.16V87h.8v-.16h.48v-.16h.29v-.16h.48v-.16l-.16-.16H130a.14.14 0 0 0-.16-.16v.16h-.48l-.16.16h-.48v.16h-.64v.16h-.48v.16h-.8V87a.14.14 0 0 0-.16-.16h-.16V87h-.16v.32zm-.8-30l.16.16v.16h.33v-.18h.16a.14.14 0 0 0 .16-.16v-.16h.32V57a.14.14 0 0 0 .16.16V57h.2v-.16h.16v-.14h.16v-.16h-.16v-.16h-.48v.16h-.16v.16h-.32v.16c-.11.11-.11.16 0 .16h-.32v.16h-.16v.16zm4.79 28.59h.16v.16h.32v-.16h.32v-.16h.16v-.16h.16v-.16h-.16v-.16h-.48v.16h-.16v.16h-.16v.16a.14.14 0 0 0-.16-.16zm11-20l-.16.16H142v.16a.14.14 0 0 0-.16.16l-.16.16v.16h-.16l-.16.16h-.16v.16a.14.14 0 0 0-.16.16h-.16v.16a.14.14 0 0 0-.16.16h-.16v.16h-.16v.16h-.16V68h-.16v.16h-.16a.14.14 0 0 1-.16.16h-.16v.16h-.16v.16h-.16l-.16.16-.12.2h-.16v.16h-.32l-.16.16-.32.16a.14.14 0 0 0-.16.16h-.32v.16h-.16v.2a.65.65 0 0 0-.48.16h-.16v.16h-.32v.16a.93.93 0 0 0-.64.16h-.32v.16h-.32l-.16.16a.14.14 0 0 0-.16.16h-.16v.16h.48a1.27 1.27 0 0 1 .8-.16.14.14 0 0 1 .16-.16h.16v-.16a1.42 1.42 0 0 0 .64-.16.65.65 0 0 0 .48-.16l.16-.16a.32.32 0 0 0 .24-.08.33.33 0 0 1 .24-.08V70h.32v-.2a.92.92 0 0 0 .64-.32.32.32 0 0 0 .24-.08.33.33 0 0 1 .24-.08l.16-.16 1.12-1 .16-.16v-.16h.16l.16-.16h.16c.21-.21.32-.37.32-.48h.16v-.16h.12v-.16h.16l.16-.16v-.12h.16a.14.14 0 0 1 .16-.16l.16-.16c0-.1 0-.16.08-.16s.08-.05.08-.16l.16-.16.16-.16.16-.16v-.16h.16a.14.14 0 0 1 .16-.16V65l.16-.16v-.16h.16v-.16h.16v-.16l.16-.16V64l.16-.16v-.16a.46.46 0 0 0 .16-.32.14.14 0 0 0 .16-.16v-.16h.16v-.48h.16v-.16a.46.46 0 0 0 .16-.32v-.32h.16v-.48c.1 0 .16 0 .16-.08s-.05-.08-.16-.08h.16v-.8h-.16v.16h-.16v.32c-.11.11-.11.16 0 .16h-.16v.48h-.16v.32h-.16V62h-.16v.48h-.16v.16a.14.14 0 0 1-.16.16v.32h-.16v.16l-.16.16v.32h-.16v.16c-.11 0-.16.11-.16.32h-.16v.16a.14.14 0 0 0-.16.16l-.16.16v.16a.14.14 0 0 0-.16.16l-.16.16a73.84 73.84 0 0 1-.32.32v.16h-.16v.16h-.16zM137.55 68v.16h-.32v.16h-.16v.16h-.32V69h.64v-.16h.16v-.16h.32v-.16h.13v-.16h.16v-.16h.16V68h.32v-.32h-.48a.14.14 0 0 0-.16.16h-.16l-.16.16zm2.56 2.4l-.16-.16h-.48v.16h-.32v.16H139v.16h-.32v.16h-.32v.16h-.16v.16h-.32v.16h-.16v.16h.16v.16h.64v-.16h.16v-.12h.32v-.16h.16v-.16l.16.16v-.16a.14.14 0 0 0 .16-.16h.16a.14.14 0 0 1 .16-.16v-.16h.32zm1.44-5.91h-.16v.32h-.16V65h-.16v.16h-.16v.16h-.16v.16h-.16v.16h-.16v.16h-.16v.2h-.16v.16h-.32v.32h-.32v.16h-.16v.16l.16.16h.32v-.16h.32v-.2h.16v-.16h.16v-.16h.16l.16-.16V66h.16v-.16h.32v-.16h.16v-.16h.16v-.16h.16v-.16a.14.14 0 0 0 .16-.16v-.16h.13v-.16h.16v-.16h.16l-.16-.16h-.64zm4-.64h-.16v.32h-.16v.32h-.16v.32h-.16V65l-.16.16v.16h-.16v.16h-.16v.32h-.16v.2h-.16v.16h-.16v.16l-.16.16v.16h-.16v.16h-.16v.16h-.16v.16h-.16v.16H143v.32h-.16v.16h-.16v.16h-.16V68h-.16v.16h-.16v.16c-.11 0-.16 0-.16.08s-.05.08-.16.08v.16h-.16l-.16.16-.16.16h-.16v.32h-.32l-.16.16-.32.32V70l.16.16a.14.14 0 0 1 .16-.16.46.46 0 0 1 .32-.16.14.14 0 0 0 .16-.16h.16c0-.21.16-.32.48-.32v-.16l.12-.2h.16v-.16h.16c0-.1 0-.16.08-.16s.08-.05.08-.16a.46.46 0 0 0 .32-.16v-.16h.2l.48-.48v-.32h.32a.46.46 0 0 1 .16-.32l.16-.16.16-.16v-.16h.16c0-.1 0-.16.08-.16s.08-.05.08-.16a.14.14 0 0 0 .16-.16h.16v-.32h.16v-.16h.16v-.16a.14.14 0 0 1 .16-.16v-.16l.16-.16v-.16h.16v-.32h.16v-.16a.14.14 0 0 1 .16-.16v-.32a.14.14 0 0 0 .16-.16v-.16h.16v-.48h-.16v.16h-.2v.16h-.16v.32h-.16zm-2.55-.28v-.16h.16l-.16-.16h.16v-.16h.16l-.16-.16h.16v-.16h-.64v.48h-.16v.32zM261.86 24l-.17 1a31.43 31.43 0 0 1-6.58 8.21 57.08 57.08 0 0 1-8.55 6.33 78.94 78.94 0 0 1-9.23 4.79q-4.7 2.05-8.46 3.42a6 6 0 0 1-3.5-.34 7.15 7.15 0 0 1-2.56-1.71 3.23 3.23 0 0 1-.94-2.22q0-1.19 1.54-1.88 1.71-.68 5.64-2.48t8.63-4.19a103 103 0 0 0 9.32-5.37 41 41 0 0 0 7.52-6.07q4.1-4.27 3.42-6.5t-4.1-2.48a25.65 25.65 0 0 0-8.72 1.28 40.74 40.74 0 0 0-10.43 4.79 139.9 139.9 0 0 0-13.93 9.92A122 122 0 0 0 207 43.41a98.41 98.41 0 0 0-11.45 15.22 60.73 60.73 0 0 0-7.18 17 36.48 36.48 0 0 0-1.2 12.22 12.94 12.94 0 0 0 3.59 8.38q3.08 3 9.06 2.82T215 94.61a27.44 27.44 0 0 0 5.81-3.93 51 51 0 0 0 5-5q2.22-2.56 3.93-4.87t2.73-3.5a10.86 10.86 0 0 1 3-2.22 9 9 0 0 1 3.76-1.28 1.62 1.62 0 0 1 1.88 1.54q.26 1.63-2.65 6.07-.35.51-2 2.56t-4.27 5a67.45 67.45 0 0 1-6.41 6.02 52.07 52.07 0 0 1-8.21 5.64 47.74 47.74 0 0 1-9.57 4 28.25 28.25 0 0 1-10.77 1q-9.92-1-14.36-7t-4.45-14.79a54.83 54.83 0 0 1 3.93-19.23 83.88 83.88 0 0 1 10.94-20 145.48 145.48 0 0 1 14.62-16.93 108.42 108.42 0 0 1 15.81-13.08 62.42 62.42 0 0 1 15.9-7.86 30.91 30.91 0 0 1 14.7-1.28 10.83 10.83 0 0 1 8.38 5.39q2.56 4.53-.17 12.22zM183 80.93l-.17-.17.34-.17a.15.15 0 0 1-.17-.17l.34-.34h-.17v-.17H183l-.34.34a.15.15 0 0 1-.17.17.15.15 0 0 0 .17.17l-.17.17-.17.17.34.34v.85a.35.35 0 0 1-.09.26.35.35 0 0 0-.09.26l.17.68c.11 0 .14-.06.08-.17s0-.17.09-.17l.34-.85zm-.34 8.55l.17-.17.17-.17V89l-.17-.17h-.34l.17.17-.17.51-.17.17h.51zm.85 4.27c.11-.23.11-.34 0-.34s-.11-.11 0-.34l-.17-.17v-.34l-.17-.17v.68l.17.17v.51c.11 0 .11.06 0 .17zm.17-16.58c-.12 0-.12.06 0 .17h.17v-.68l.17-1.2zm.68-5.3v.51a.48.48 0 0 0 .34.17v-.17h-.17a.15.15 0 0 0 .17-.17v-.34zm0 24.28c.11 0 .17.17.17.51h.17l.34.85a.28.28 0 0 1 .26.17c.06.11.26.11.6 0l.34.34h.17v-.34h-.34v-.17l-.17-.34h-.34a.15.15 0 0 1-.17-.17l.17-.17h-.17c-.12 0-.2-.09-.26-.26a.4.4 0 0 0-.43-.26V96h-.17zm2.91-30.6l-.17.34.17-.17a1.05 1.05 0 0 0-.26.43q-.09.26-.26.26v.34l.17.17.51-1.2zm1.88-3.93a.17.17 0 1 0-.34 0v.17l-.17.17-.34.51v.17l-.3.36v.17h.34l.34-.51a.15.15 0 0 0 .17-.17l.51-.68zm2.22-3.93l-.34.17a.15.15 0 0 0-.17.17h.34l.34.17h-.17a.15.15 0 0 0 .17.17l.17-.51h-.34zm24.45-29.75c-.12 0-.06-.11.17-.34a3 3 0 0 1-.85.34l-1 1-2.91 2.56-1.71 2.39a4.23 4.23 0 0 1-.77.94 12.1 12.1 0 0 1-1.26 1.17 4 4 0 0 1-1.8 2.22 9.51 9.51 0 0 0-2.48 2.56c0 .12-.23.4-.68.85s-.94 1-1.45 1.54a22.74 22.74 0 0 0-1.45 1.8 2.88 2.88 0 0 0-.68 1.45l-1.2.85-.51.51-1.71 2.39c.11.23 0 .51-.34.85l-.85.85-1 1.2-1.37 2.22a1 1 0 0 0-.34.68v.34h.17V56l.86-1c-.12-.11 0-.34.34-.68l-.17-.17a3.74 3.74 0 0 1 1-1.2l.34-.17q-.17 0 .68-.43a2.12 2.12 0 0 0 1-1.8l.17-.17a1.1 1.1 0 0 0 .51-.68 6.29 6.29 0 0 1 .34-.85l1.2-1.2q.17-.17-.43.94t-.26.94l1.54-2.22v-.17l1.37-1.71 1.54-1.71c.11 0 .17-.11.17-.34l.51-1.2q1-.51 1-.68v-.17a.49.49 0 0 1 .17-.34l1.2-1.2c.34 0 .45-.17.34-.51l2.1-2.28c0-.11 0-.17.09-.17s.09-.06.09-.17l.51-.34c0-.11.11-.28.34-.51l1-1 .86-1.37 1-.68v-.17l.17-.17a.94.94 0 0 0 .34-.6 1.38 1.38 0 0 1 .17-.6l1.37-1c.23 0 .37-.06.43-.17a.92.92 0 0 1 .43-.34zm-21 21.71a2.94 2.94 0 0 1 .43-.34.57.57 0 0 0 .26-.51l.17-.17a.15.15 0 0 0 .17-.17c0-.23.06-.34.17-.34l.86-.85.68-.68q.34-.34.17-.51l.34-.17c.11-.11.09 0-.08.34l-.43.85a.15.15 0 0 0 .17-.17l.51-.68.86-1 .34-.51c.11 0 .17-.17.17-.51q-.86 1.37-1.2.85a21.11 21.11 0 0 1-2.22 2.39l-.51.68v.17l-.17.34-.34.34q0 .17-.34.51zm5.3-2.22c-.12.12-.12.09 0-.09s.06-.26-.17-.26a.15.15 0 0 1-.17.17v.17l-.68 1-.51.34-.17.17.17.17a.15.15 0 0 0-.17.17l-.51.34h-.17l.17.17-.17.17c0 .23.06.34.17.34v-.17a.15.15 0 0 0 .17-.17l.17-.34a3 3 0 0 0 .86-.34v-.51l.17-.17a.15.15 0 0 0 .17-.17zm.51-5.13a2.46 2.46 0 0 1-.83 1.7l.68-.34v-.17c0-.11 0-.17.09-.17s.08-.06.08-.17l.34-.34c0-.23.06-.37.17-.43a.28.28 0 0 0 .17-.26L202 42c0-.23 0-.34.08-.34s0-.11-.08-.34l.17-.17v-.34l.34-.34.17-.17.34-.34.86-.34v-.34a.55.55 0 0 1 .34-.51 2 2 0 0 0 .51-.34l.17-.34a.28.28 0 0 1 .17-.26.27.27 0 0 0 .17-.26l.34-.34a.4.4 0 0 1 .26-.43.77.77 0 0 0 .43-.43l1.2-1.37a4 4 0 0 0 .6-.77 4.06 4.06 0 0 1 .6-.77l-.85.68q-.51.68-.77.68t-1.45 1.71l-2.39 2.74.17.34-.68.34h-.17a.94.94 0 0 0-.34.6 4.76 4.76 0 0 1-.85 1.45zm9.75-7.35c-.12.12-.14.12-.09 0s-.2.06-.77.51l-.51.68a.49.49 0 0 1-.17.34v.17l-.34.34-.34.17-1.71 2.22a3.4 3.4 0 0 0-.94.43 1.77 1.77 0 0 0-.94 1.11h-.17v.68l-.17.17a.61.61 0 0 0-.51.51l-.34.17c0 .34-.12.51-.34.51v.17c-.12 0-.12.06 0 .17v.17c-.23 0-.34.06-.34.17l-1 .51.17.17-.17.34c.34 0 .51-.11.51-.34v-.17l.51-.34h.17l.86-.34a.15.15 0 0 1 .17-.17l-.17-.17.17-.34v-.34l.17-.17a.15.15 0 0 1 .17-.17l1-.68v-.51c.11 0 .26-.14.43-.43a1.5 1.5 0 0 1 .6-.6l.34-.17.17-.34.17-.51.17-.17.68-.34a.45.45 0 0 0 .51-.51v-.17a.15.15 0 0 0 .17-.17c0-.11.11-.17.34-.17v-.17l.68-.85c-.12-.34 0-.54.26-.6s.37-.2.26-.43zm-6.33 67.53h1l.68-.34h.27l.17-.17.17.34c.11-.23.2-.34.26-.34s.2-.11.43-.34a3.51 3.51 0 0 1-1.11.26c-.51.06-.77.2-.77.43l-.17-.17a.15.15 0 0 0-.17.17zm2.56-1.71v.17l.68-.51v-.17l-.34.34zm0 0l.17-.17-.17-.17zm.68.85a1.32 1.32 0 0 0 .51-.17l.51-.34h.34l.51.34a.82.82 0 0 1 .26-.6l.43-.43a.15.15 0 0 1 .17-.17l1.54-.85c0-.11.06-.11.17 0a.21.21 0 0 0 .34 0h.17l.34-.34a1.16 1.16 0 0 1 .85-.34l1-1h.57l1-.51c.23 0 .34 0 .34-.09s.06-.09.17-.09h.34l.34-.68h-.17l.51-.34h.34c.11 0 .17 0 .17-.09s.06-.09.17-.09l.51-.17-.17-.17 1-.51v-.17h.17l.17-.34.51-.51c0-.11.28-.34.86-.68l.68-.34.51-.51.68-.34c.34-.11.4-.4.17-.85v.17l-2.05 1.37c0 .12-.12.2-.34.26s-.34.14-.34.26l-.86.85c-.46.23-.63.34-.51.34l-1.54 1a1.85 1.85 0 0 1-1.2.94c-.57.17-1.14.37-1.71.6l-.85.85-.68.34-1 1a1.82 1.82 0 0 0-1.2.09c-.57.17-.91.37-1 .6l-1.88.85c-.12 0-.34.17-.68.51l-.17-.34.17.51zm.51-1.88a.3.3 0 0 0-.34.34h.17c.11-.11.17-.11.17 0h.51l.86-.34h.17v-.17h.17a.15.15 0 0 1 .17-.17h.34c0-.23.17-.34.51-.34l.51-.34h.17l.17-.34h.17c0-.11.06-.11.17 0s.17.12.17 0h.17a.45.45 0 0 0 .51-.51c.11-.11.17-.11.17 0l.34-.17a.5.5 0 0 0 .17-.34l.17.34h.17l-.17-.51-.85.34v-.17l-.17.17v.17l-.86.17-.17.17h-.17l-.85.51h-.34q-.69 0-.51.26c.11.17-.12.32-.68.43l-.34.17c.23.12.23.17 0 .17s-.29.06-.17.17zm1.2-66.68c.23-.23.4-.34.51-.34s.23-.17.34-.51l.51-.68a.5.5 0 0 0 .17-.34.49.49 0 0 1 .17-.34l-1 1.2a.49.49 0 0 0-.17.34zm.68 67.87h-.17v.17l-.17.17-.17.51-.17.34.34-.51.17-.17h.34v-.51zm7-3.42c-.12 0-.17.11-.17.34h-.17a.49.49 0 0 1-.34.15.15.15 0 0 0-.17.17v.17a2.06 2.06 0 0 0-.68.26.68.68 0 0 1-.86-.09h-.17c.23.23.28.4.17.51h-.17l-.68.51-.34-.34c0 .23-.12.23-.34 0l-.34.85c-.23.23-.43.32-.6.26s-.26 0-.26.26h.68l.68-.51v-.17l.51.17v-.34a.15.15 0 0 1 .17-.17l.34-.17.51-.34-.17.34.51-.17v.17l.17-.17-.17-.17h.51l.51-.51.51-.34.34-.17a1.33 1.33 0 0 0 .17-.51zm-4.79-67.87l.17.17v-.17h.34l.51-.85.17-.17.86-.34c0-.11.17-.34.51-.68h.17l1.88-1.71.17-.17.17-.34h.17c0-.23.06-.37.17-.43s.17-.2.17-.43l.17-.17-.68.17a.15.15 0 0 1-.17.17c-.12 0-.17.11-.17.34v-.17c-.12 0-.23.32-.34.94s-.63.94-1.54.94v.34a.15.15 0 0 0-.17.17l-.51.17-.51.34-.17.34a.61.61 0 0 0-.51.51l-.51.51c-.24.24-.3.41-.3.52zm6-2.74l-.68.34c-.46.23-.68.51-.68.85h-.17a.35.35 0 0 1-.09.26.35.35 0 0 0-.08.26l-.86.68-.17.17-.51.68h-.17l-.17.17a1.53 1.53 0 0 0-.68.17 1.6 1.6 0 0 0-1 .85c0 .11.11.23.34.34-.12-.11 0-.26.43-.43a1.45 1.45 0 0 0 .77-.6l1.37-.85v-.17l.17-.17a.28.28 0 0 0 .26-.17c.06-.11.2-.17.43-.17V29a.49.49 0 0 1 .17-.34 2 2 0 0 0 .34-.51l.34-.34 1-.51.34-.51zm-5.13 70.78c-.12.11-.17.11-.17 0zm.86-.51h.38l.68-.68h-.17a.5.5 0 0 0-.34.17 2 2 0 0 1-.51.34zm1-.68h.68l.17-.17c.11-.11.17-.2.17-.26s.11-.14.34-.26l1.37-.51a3.08 3.08 0 0 0-2 .68c-.29.34-.49.46-.6.34zm1.88-69.24l-.34.34zm1.71 67.19c-.12-.23 0-.26.26-.09s.31.14.09-.09l.17-.17.17-.17 1.2-1h.17v-.17h-.17l.17-.17h-.17a2.61 2.61 0 0 0-.77.68 1.22 1.22 0 0 1-.94.51l-.34.34c0-.11-.12-.06-.34.17zm.51 2.22l.34-.34h-.34l-.34.17.17.17zm2.62-1.66l-.86-.17v-.17l-.17.17-.34.51-.34.17-.51.68.34-.34h.17a2 2 0 0 0 .51-.34.7.7 0 0 1 .51-.17l.85-.34zm2.73-75.22v.17a22.91 22.91 0 0 1-3.07 2.51l-1.71 1.37v.51c.23 0 .54-.2.94-.6a11.81 11.81 0 0 1 1.28-1.11l.17-.34a.15.15 0 0 1 .17-.17l.34-.17 2.22-2.22zM247.67 36a.15.15 0 0 0-.17-.17l-1 .51q-.35.34-.51 0l-1.2.85-1.37.51a5 5 0 0 1-.51.43.61.61 0 0 1-.68.09l-2.91 1.54a.15.15 0 0 1-.17.17h-.17a.61.61 0 0 0-.68.09 1.05 1.05 0 0 1-.51.26h-.51c.11-.11.11-.17 0-.17s-.29.14-.51.43a.71.71 0 0 1-.85.26l-.86.34a2.76 2.76 0 0 0-1.2.34l-1.54.85a1.36 1.36 0 0 0-.86.17h-.17c-.11.11-.2.17-.26.17s-.14.06-.26.17a.7.7 0 0 1-.51.17h-.51a.15.15 0 0 0-.17.17h-.34c0 .12-.12.17-.34.17a.15.15 0 0 0-.17.17c-.11.12-.11.17 0 .17a.5.5 0 0 1 .34-.17h.51l.34-.17h.68a.15.15 0 0 1 .17-.17l.68-.17a1.32 1.32 0 0 0 .51-.17l.51-.17.51-.34h.17l.17-.17h.51a1.51 1.51 0 0 1 .77-.43 1.49 1.49 0 0 0 .77-.43h.51l1.37-.51a.49.49 0 0 1 .34-.17l.51-.34.34.17.34-.17a.83.83 0 0 0 .43-.17.84.84 0 0 1 .43-.17l.17.17.17-.17h.17a.15.15 0 0 1 .17-.17c.11 0 .17-.11.17-.34h.34v.17q0-.17.77-.77a1.69 1.69 0 0 1 1.45-.43v-.17h.51l1.54-.68.51-.51zm-16.58 5.3a.15.15 0 0 0 .17.17h.51v.17l.17-.17h.34l.34-.34.51-.17h.51a.35.35 0 0 0 .26-.09.35.35 0 0 1 .26-.09h.17a.49.49 0 0 1 .34-.17.7.7 0 0 0 .51-.17l.17-.17h.65a.7.7 0 0 0 .51-.17l.34-.17h.17v-.34l.34-.17c.11.12.4.06.86-.17h.17l.34-.34h.17c.23.11.37.09.43-.09s.14-.26.26-.26l.34-.34c.23.23.34.23.34 0h.17l.68-.34a.15.15 0 0 0-.17-.17 2.42 2.42 0 0 1-1.37.34l-.51.34a.49.49 0 0 0-.34.17h-.17a.15.15 0 0 1-.17.17.49.49 0 0 0-.34.17l-.86.34a.49.49 0 0 1-.34.17l-.34.17a.34.34 0 0 0-.51.17.55.55 0 0 1-.51.34l-1.37.17h-.51l-1 .51h-.17a.35.35 0 0 0-.26.09.35.35 0 0 1-.26.09.49.49 0 0 1-.34.17h-.17a.49.49 0 0 0-.33.15zM234 43h-.68a.49.49 0 0 0-.34.17l-.17.17-.17.17h.51l.86-.17zm5.81-2.39l-.17.17h-.34a.15.15 0 0 0-.17.17l-.51.17a.5.5 0 0 1-.34.17h-.34l-1.37.17c0 .23-.06.29-.17.17s-.17-.06-.17.17l.17.17a1.33 1.33 0 0 0-.51.17h-.17c-.12.23-.2.29-.26.17s-.14-.06-.26.17l.68.17v-.17l.68-.34.85-.34.17-.17.51.17.17-.17h.17l.34-.17.34-.17h.17l.51-.34zm1.54-3.42a.15.15 0 0 0 .17.17l.17.17-.17.17a.5.5 0 0 1 .34-.17h.14v-.17h.17c0-.23.11-.23.34 0l.17-.17.34-.17.51-.17c.11-.23.23-.31.34-.26s.23 0 .34-.26l-.34-.17h-.17l-.17.17-.68.34v.17h-.17c0 .11-.12.17-.34.17h-.17zm3.08 1.54h-.17l-.34-.17a.15.15 0 0 1-.17.17l-.17.17a.15.15 0 0 1-.17.17h-.17a.15.15 0 0 1-.17.17h-.17l-.17.17a.15.15 0 0 0-.17.17.3.3 0 0 0-.34.34h-.51v.34q-.35.17.26 0a5.46 5.46 0 0 0 .94-.34l.17-.17a.15.15 0 0 0 .17-.17l.51-.17.17-.17a1 1 0 0 1 .68-.34zm7.85-7.73l-.17.17a.49.49 0 0 0-.34.17l-.68.34a.3.3 0 0 1-.34.34h-.34l-.17.17-.34.17 1-.17.34-.17.17-.34.86-.51zm1.37-1.2a.15.15 0 0 0 .17-.17l.17-.34-.34.34h-.17a.15.15 0 0 0 .17.18zm.68-1v.2l-.34.34.68-.51zm0-17.61v.51h.34l.17-.34zM256 26.74l-.68.68h.17l.51-.51zm1.2-14l.51-.17-.17-.17h-.17l-.17-.34-.17.17-.17.17h.17zm.51-.17l.17-.17zm1.2 9.92l-.17-.17.68-.85a.51.51 0 0 0-.34-.17l-.86.85.17.17h-.17a.15.15 0 0 0 .17.17l-.17.17h-.17v.17l-.17.17.17.17v.17c.11.11.17.11.17 0zm-.51-8.72h.17l.17-.34-.34.17zm1 3.25l.34-.51h-.17l-.34.34zm-.17 2.56a.15.15 0 0 0 .17.17l.17.17v-.34l-.17-.34zm.17-.51a.5.5 0 0 0 .17-.34zm22.19 44.5a13.65 13.65 0 0 1 3.35-2.87q1.28-.64 1.76-.24a1.87 1.87 0 0 1 .4 1.6 6.55 6.55 0 0 1-.72 2.48 4.66 4.66 0 0 1-1 2.08q-.16.32-1.44 2.16a32 32 0 0 1-3.19 3.83 36 36 0 0 1-4.23 3.75 8.48 8.48 0 0 1-4.39 1.92 4.86 4.86 0 0 1-2.08-.16h-.64a.32.32 0 0 1-.24-.08.33.33 0 0 0-.24-.08l-1-.32a3.89 3.89 0 0 1-1.76-1.44 5.27 5.27 0 0 1-1.44-3.83 15 15 0 0 1 1-5l.64-1.12.53-1.25.48-1a.92.92 0 0 0 .32-.64l1.12-2a9 9 0 0 1 .56-.88l.48-.64a9.65 9.65 0 0 0 .72-1.28 4.5 4.5 0 0 0 .4-1c.05-.26-.19-.45-.72-.56a14.88 14.88 0 0 0-6.15 2.55 44 44 0 0 0-6.11 4.82q-2.08 3.68-4.63 8.3l-4.79 8.7q-2.24 4.07-3.75 6.95l-1.68 3.19a.71.71 0 0 1-1.12.4 5.1 5.1 0 0 1-1.68-1.6 7.93 7.93 0 0 1-1.35-2.87 6.51 6.51 0 0 1 .24-3.59 27.75 27.75 0 0 1 1.44-3.51q1.12-2.4 2.4-5t2.47-5q1.2-2.31 1.52-3.11.32-.48 1-1.84t1.52-3q.8-1.68 1.6-3.19t1.28-2.48q1-1.76 1.68-3.11t.88-1.68a2.48 2.48 0 0 1 1.68-1.28 4.11 4.11 0 0 1 2.4.08 6.62 6.62 0 0 1 2.16 1.2 2.42 2.42 0 0 1 1 1.92 28.17 28.17 0 0 1 4.47-2.08 13.23 13.23 0 0 1 4.47-.8l.64.16h.64a5.28 5.28 0 0 1 1.28.32 7.18 7.18 0 0 1 2.24 1l.8.48a5.11 5.11 0 0 1 2.55 3.43 8.51 8.51 0 0 1-.48 4.23 22.51 22.51 0 0 1-2.16 4.39q-1.36 2.16-2.48 3.75-1.28 2.56-.8 2.87t1.92-1.28zm-41.52 21.88v-.32h-.16V85h-.32v.16h-.16v.32h-.16v.48h.16v.16h.32v-.32h.16v-.32zm-.32-1.12h.16l.16.16a.14.14 0 0 1 .16-.16l.32-.16V84h.16v-.32h.16v-.16h.13v-.32h.16l-.16-.16h.16v-.32h-.48v.16h-.16v.32h-.16v.16c-.11.11-.11.16 0 .16h-.16v.32h-.16v.32h-.16zm1.92.64a.14.14 0 0 0 .16-.16l.16-.16v-.32h.16l.16-.16.16-.16v-.16a.14.14 0 0 1 .16-.16v-.32h.16v-.32a.14.14 0 0 0 .16-.16v-.16l.16-.16v-.32h.16v-.48h.16v-.47h.16v-.16h-.32v.16h-.16v.16h-.16v.16h-.16v.32h-.16v.32h-.16v.32a.47.47 0 0 0-.16.32v.16h-.16v.32H242l.16.16H242v.16h-.16v.48h-.16l-.16.32h-.16v.32h-.16v.32h-.2l.16.16H241v.32h-.16v.32h-.16v.32h-.16v.32h-.16v.32h-.16v.1l-.16.16v.16a.14.14 0 0 1-.16.16v.16l.16.16h.16v-.16c.11 0 .16 0 .16-.08s.05-.08.16-.08v-.32l.32-.32v-.16l.16-.16v-.16a.45.45 0 0 0 .16-.32l.16-.16v-.16l.32-.64zm-.48-2.71v.16h.32v-.48h-.16l-.16-.16H241v.48zm1.28 4.31v-.16h-.32v.16H242v.32h-.16v.48h.16v.16h.32v-.32h.16v-.48h.16v-.16zm1.6-3.83v.16h-.32v.32h-.16v.48h-.16v.48h-.16l-.16.32h-.16v.5h-.16v.32h-.16v.32l-.16.16v.16a.14.14 0 0 0-.16.16l.16.16h.16l.16-.16v-.16a.14.14 0 0 0 .16-.16h.16v-.16a.14.14 0 0 1 .16-.16v-.16a.64.64 0 0 0 .16-.48v-.16h.16v-.32h.16l.16-.32h.16v-.32h.16c-.1 0-.1-.05 0-.16v-.32h.16v-.48zM247.73 70v.32a.14.14 0 0 0-.16.16v.48h.16v-.16a.14.14 0 0 0 .16-.16l.48-.64zm1.12-2.4v-.48h.15v-.32h.16v-.2h.16l.16-.48h.16v-.32h.16v-.16l-.16-.16h-.32v.16h-.16V66H249v.32h-.16l-.16.32h-.16v.16a.14.14 0 0 0-.16.16v.32h-.16v.32zm1.76-.64l.32-.48.32-.32.64-1.28v-.32h.11v-.32h.16a.65.65 0 0 0 .16-.48.14.14 0 0 0 .16-.16l.16-.16v-.16l.16-.16v-.16a.14.14 0 0 0 .16-.16v-.16l.16-.16c0-.1 0-.16.08-.16s.08-.05.08-.16a.14.14 0 0 1 .16-.16v-.16l.16-.16v-.32h.16v-.16a.14.14 0 0 1 .24-.2v-.3h.16l.16-.32h.16v-.16l.16-.16v-.16a.46.46 0 0 0 .16-.32c0-.1 0-.16.08-.16s.08-.05.08-.16l.16-.16v-.16l.16-.16v-.32h.16v-.16c0-.1 0-.16.08-.16s.08-.05.08-.16v-.16h.16v-.32a.14.14 0 0 0 .16-.16v-.16h.08v-.32h.16v-.32h.16v-.16H256v.16h-.16v.16h-.16v.3h-.16v.32h-.32v.32h-.16v.16h-.16v.48h-.16v.16h-.16v.32h-.16v.32h-.16v.32h-.16v.32a.46.46 0 0 0-.16.32.14.14 0 0 1-.16.16v.16a.46.46 0 0 0-.32.16v.16l-.16.16V61h-.16v.32l-.16.16v.16h-.16v.48h-.16v.16h-.16v.32h-.16v.32h-.16v.32H252v.16l-.16.16v.32h-.16V64l-.16.16v.16h-.16v.32h-.16V65l-.16.16v.32h-.16v.16l-.16.16v.2a.14.14 0 0 1-.16.16l-.16.32h-.16v.16l-.16.16v.16H250a.65.65 0 0 1-.16.48v.16h-.16v.16h-.16V68l-.32.48v.32h-.2v.32c-.21.21-.32.37-.32.48a.14.14 0 0 0-.16.16.92.92 0 0 0 .64-.16v-.16l.64-1v-.24l.32-.32v-.32h.16zm-.32-2.71l.16-.16v-.16l.16-.16a.14.14 0 0 1 .16-.16v-.16h.16v-.16a.65.65 0 0 0 .16-.48h.16v-.32h.16v-.16h.16v-.16a.14.14 0 0 0 .16-.16v-.16h.16v-.32l.16-.16V61h.16v-.3h-.32v.16h-.32V61h-.16v.48h-.16v.32h-.16v.2h-.16v.32h-.16v.32h-.16v.32h-.16v.32h-.16v.16l-.16.16v.16l-.16.16v.32zm1.76 3a.14.14 0 0 0-.16-.16h-.16a.14.14 0 0 1-.16.16v.16h-.16v.16a.14.14 0 0 0-.16.16V68h-.16v.16h-.16v.32h-.16V69h-.16v.16h.64v-.32h.16v-.32h.16v-.32h.16v-.48h.16v-.32h.11zm4.47-8.14h-.32v.16h-.2v.16h-.16v.16h-.16v.16h-.16v.32h-.16v.32h-.16l-.16.32h-.16V61h-.16v.32h-.16v.48h-.16v.2l-.16.16v.16h-.16v.32a.14.14 0 0 0-.16.16v.16h-.16v.48h-.16v.48h-.16V64h-.16v.32h-.16v.16c0 .11 0 .16-.08.16s-.08.05-.08.16v.2h-.16v.16l-.16.32v.16l-.32.32v.16l-.16.16-.16.32h.32v-.16h.16c.1 0 .16 0 .16-.08s.05-.08.16-.08V66c.21-.21.32-.37.32-.48l.16-.16V65h.16c0-.1 0-.16.08-.16s.08-.05.08-.16 0-.16.08-.16.08-.05.08-.16a2.8 2.8 0 0 0 .32-.8v-.16h.16v-.16a.46.46 0 0 0 .16-.32h.16v-.32h.16v-.32a.14.14 0 0 0 .16-.16l.16-.16v-.16l.16-.16v-.32h.16v-.16a.14.14 0 0 1 .16-.16v-.3l.16-.16.16-.32h.16v-.16a.14.14 0 0 1 .16-.16v-.16l.16-.16v-.32h.16zm-3.83.48l-.16-.16v.16zm0 .16h.31v-.16h.16v-.32h.16v-.48h-.16v-.16h-.32v.32h-.16zm18.21 7v-.15h.1l.16-.32h.16v-.16h.16v-.48h.16v-.32h.16v-.16h-.16l-.16-.16v.16h-.16l-.16.16v.16H271v.32h-.16v.2h-.16v.32h-.16l-.16.32h-.16v.16zm1.76-.32l.32-.32.16-.32a3.43 3.43 0 0 0 .64-1.12v-.16a.14.14 0 0 1 .16-.16v-.16h.16a.32.32 0 0 1 .08-.24.33.33 0 0 0 .08-.24v-.16h.16v-.16a.14.14 0 0 1 .16-.16v-.16l.16-.16a.14.14 0 0 1 .16-.16v-.48h.1v-.16a.14.14 0 0 0 .16-.16v-.32h.16v-.32a.14.14 0 0 0 .16-.16v-.32h.16l.16-.48h.2v-.32l.16-.16v-.32a.14.14 0 0 1 .16-.16v-.8h.16v-.8c.1 0 .1-.05 0-.16h.16v-.13h-.16v-.16h.16v-.16h-.32v.32a.14.14 0 0 1-.16.16v.48H276v.32h-.16v.48a.14.14 0 0 1-.16.16v.48h-.16v.48h-.16l-.16.64h-.2v.3h-.16v.32a.14.14 0 0 0-.16.16v.32h-.16v.32h-.16v.32h-.16v.32h-.16v.32h-.16v.32h-.16v.32h-.16v.16h-.16v.48h-.16v.16a.14.14 0 0 0-.16.16V65H273v.32h-.16v.32h-.16V66h-.16v.16l-.16.16-.32.16a.46.46 0 0 1-.16.32v.16h-.16v.32h-.16v.16c0 .11 0 .16-.08.16s-.08.05-.08.16l-.16.16V68l-.16.16-.32.32v.32h-.16v.2l-.16.16v.16c-.11.11-.11.16 0 .16v.16h.16a.14.14 0 0 1 .16-.16c0-.1.11-.26.32-.48v-.16l.16-.16.16-.16.48-.64a129.8 129.8 0 0 0 .32-.64v-.16h.16v-.16zm-.48-2.4l.16-.16a.14.14 0 0 1 .16-.16v-.32h.16l.16-.16a.46.46 0 0 1 .16-.32v-.32h.16v-.16h.16v-.32h.16V62a.14.14 0 0 1 .16-.16v-.32h.16v-.32l-.18-.2h-.16v.16h-.16v.16h-.16v.16H273v.32a.14.14 0 0 0-.16.16v.16h-.16l.16.16h-.16v.16h-.16v.16l-.16.16h.16v.16h-.16v.16l-.16.16v.16a.14.14 0 0 0-.16.16l-.16.16V64zm1.28 4.15v-.32h.16v-.16h.16v-.3h.16v-.32h.16v-.16h-.16v-.16h-.32v.16h-.16v.16a.14.14 0 0 0-.16.16v.16h-.16v.32H273v.16h-.16v.48h-.16v.16h.64v-.32zm.48-8a.14.14 0 0 1 .16.16h.16l.16-.16v-.28h.16v-.32h-.32v-.16h-.32zm2.4 1v.48h-.16v.48H276v.32h-.16v.32h-.16v.32h-.16v.32h-.16v.48h-.16v.48h-.2v.16h-.16v.32h-.16V65c0 .11 0 .16-.08.16s-.08.05-.08.16v.16a.46.46 0 0 0-.16.32h-.16v.32c-.11.11-.11.16 0 .16l-.16.16h.16l.48-.48v-.16l.32-.32v-.16l.16-.16V65h.16a.46.46 0 0 1 .16-.32v-.16l.16-.16a.69.69 0 0 1 .08-.32.72.72 0 0 0 .08-.32v-.16h.2v-.16l.16-.16v-.32h.16v-.16l.16-.16v-.32h.16V62h.16v-.48h.2V61h.16v-.48a.46.46 0 0 0 .32-.16v-.46h.16v-.32h-.32v.16a.14.14 0 0 0-.16.16v.16H277v.16h-.16l-.16.48h-.16v.48z"/><path class="cls-1" d="M313.29 78.1a15.13 15.13 0 0 1 4-2.16q1.44-.4 1.92.16a1.89 1.89 0 0 1 .16 1.76 7.37 7.37 0 0 1-1.28 2.48A5.53 5.53 0 0 1 317 82.1l-2.71 3.19-2.08 1.92-1.12 1.12-1.92 1.44a13.86 13.86 0 0 1-4.47 2.08 8.55 8.55 0 0 1-4.63 0l-.48-.16c-.21 0-.35 0-.4-.08a.33.33 0 0 0-.24-.08L297.8 91a4.9 4.9 0 0 1-1.76-1.6 2.35 2.35 0 0 1-.64-1.12c-.11-.42-.32-.58-.64-.48a21.33 21.33 0 0 1-5.5 3.2 18.53 18.53 0 0 1-5.27 1.2 13.9 13.9 0 0 1-4.55-.4 6.27 6.27 0 0 1-3.19-1.84L275 88.32q-1.75-2.07-.88-6.71a51.88 51.88 0 0 1 3-9.9 87.67 87.67 0 0 1 5-10.3 91.45 91.45 0 0 1 5-7.91q.64-1 1.44-2.08a9.44 9.44 0 0 1 1.68-1.84 4.65 4.65 0 0 1 2.08-1 6.56 6.56 0 0 1 3 .24 2.18 2.18 0 0 1 1.52 1.6 5.19 5.19 0 0 1-.24 2.64 23.91 23.91 0 0 1-1.44 3.43q-1 1.92-2.08 4-.48 1-1.52 3t-2.24 4.39q-1.2 2.4-2.4 4.87t-2.16 4.39a33.2 33.2 0 0 0-2.55 5.67q-.8 2.48 1.44 3.27a5.21 5.21 0 0 0 3.35-.16 17.63 17.63 0 0 0 3.59-1.84 28.09 28.09 0 0 0 3.41-2.62q1.6-1.44 2.88-2.71a1.25 1.25 0 0 0 .16-.48.46.46 0 0 1 .16-.32l.48-1 .48-.8 13.42-24.59c.32-.64 1.06-.85 2.24-.64a4.93 4.93 0 0 1 1.68.32l1.68.64a5.06 5.06 0 0 0 1.12.56q.32.08.8.88a3.67 3.67 0 0 1 .32 3.35q-.32.48-1 1.84t-1.76 3.19l-2.16 3.83q-1.12 2-2.08 3.59-.8 1.6-1.84 3.27t-2.16 3.43a13.82 13.82 0 0 0-.8 1.44q-.48 1-1 1.92t-1 1.76a3.88 3.88 0 0 0-.4 1q-1.6 2.87-.56 2.71a7.72 7.72 0 0 0 3-1.6q1.92-1.44 3.75-3.11zM277 82.25l-.64.48.32.32-.8.64 1.12-.64h-.32l.32-.48zm-.44 1.75l-.16.32-.32-.32-.16.64.64.64-.32.16.48.48c0-.1.16-.32.48-.64v-.16l-.64-.48v-.32l.48-.48zm0-.16V84l.48-.32v-.16zm.8 3.35v-.64h-.16l-.48 1.28h.28l-.16.64h.32l.32-.48-.16-.32h.48zm1.92-.32l.16.16-.16-.32-.64-1.6v-1l.16-.16-.32-.48v-.32l.16-.8h.48v-.16l-.16-.48.32-.32H279v-.8l.8-.48-.16-.16-.8.32.16.32-.64.16.16.16v.32l-.48.32.64-.16-.8.32.16.48.48.48c-.32-.1-.42-.1-.32 0l-.32.8.48.16-.32.16.16.32-.32.32.16 1.12.16 1.44.48-.16-.32.16h.48zm.8.48a.45.45 0 0 1-.32-.16v.16l-.16-.16-.16.32v.16zm-.32-3.83l.16-.64.64-.32h-.32l-.16-.48.16-.64h-.16v-.14l-.32.16-.16.16.16.64zm0 1.92l.48-1-.32-.48-.16-.48zm.8-.32l-.8.32.16.16.16.48v-.16l.32-.48zm5.91-21.88v-.16h.16v-.48h.16l.16-.48h.16V62l.16-.16v-.16h-.48l-.16.16V62l-.16.16v.16a.14.14 0 0 0-.16.16l-.16.16a.14.14 0 0 0-.16.16v.48zm3.35-4.47v.32h-.16v.32h-.16l-.16.32h-.16v.32H289v.32h-.16v.32a.14.14 0 0 0-.16.16V61h-.16v.48h-.16v.32h-.16v.32h-.16v.32h-.16l-.16.32h-.16v.16l-.16.32a.14.14 0 0 1-.16.16v.32h-.16c0 .21-.05.32-.16.32v.48h-.16a.46.46 0 0 1-.16.32.14.14 0 0 1-.16.16v.16a.14.14 0 0 1-.16.16l-.16.64h.16v-.16l.16-.16.48-.48V65h.16v-.16l.48-.64v-.32l.16-.32v-.16h.16v-.16l.32-.32a.51.51 0 0 1 .32-.48v-.16c.21-.21.32-.37.32-.48a1.23 1.23 0 0 1 .16-.48l.16-.16v-.32h.16v-.14l.16-.32v-.16h.16v-.16l.16-.16v-.16h.2l.16-.32a.46.46 0 0 0 .16-.32h.16v-.32h.16v-.32h.16v-.32h.16v-.32h.16v-.16a.14.14 0 0 1 .16-.16v-.16l.16-.16V57a.14.14 0 0 1 .16-.16l.16-.32h.16v-.32a.46.46 0 0 0 .16-.32h.16v-.32a.14.14 0 0 0 .16-.16v-.16h.16v-.32h.16v-.32h-.16v.16h-.16v.16h-.16v.16h-.16v.16l-.16.16h-.16v.32h-.16v.16h-.16v.32h-.16v.32h-.16l-.16.32h-.16v.32h-.16v.32a.14.14 0 0 0-.16.16v.16h-.16v.32a.14.14 0 0 0-.16.16v.16H290v.32zm-2.71 1.76h.16l.16.16v-.16h.16v-.16a.14.14 0 0 0 .16-.16h.16v-.16l.16-.16a.46.46 0 0 1 .16-.32l.32-.32v-.15h.16v-.16h.16v-.32l.16-.16v-.32h.16v-.32h-.32V58h-.32v.16h-.16v.48h-.16v.32h-.16v.16h-.16l-.16.48h-.16v.16l-.16.16v.32h-.16v.16h-.16zm2.4 2.71a.14.14 0 0 0-.16-.16h-.16v.16H289v.16h-.16v.48h-.16V64h-.16v.48h-.16v.16h.64v-.32h.16V64h.16v-.48h.16zm-.17-6.24l.16.16h.16V57h.16v-.3h.18l.16-.16v-.16h-.32v-.16h-.32l-.16.64h-.16V57zm3.19.16h-.16v.16h-.16v.16h-.16v.32h-.16v.32h-.16v.32h-.16v.32h-.16v.48h-.16v.16h-.16l-.16.32h-.16v.48h-.16v.32h-.16V61h-.16v.16l-.16.16v.16a.14.14 0 0 0-.16.16V62l-.32.32-.16.48h.16l.16-.16.32-.16v-.16l.32-.32v-.32h.16v-.16l.16-.16V61h.16a.7.7 0 0 1 .08-.32.71.71 0 0 0 .08-.32v-.16h.16a.46.46 0 0 1 .16-.32v-.16h.16l.16-.32.16-.16v-.14h.16v-.32h.16v-.32h.16v-.32l.16-.16v-.16l.16-.16v-.16l.16-.16V57h-.32zm11.66 17.57a2.8 2.8 0 0 0 .32-.8l.48-.8.16-.32 1-2.08h.16v-.48a.14.14 0 0 0 .16-.16V70h.16v-.2h.16a2.76 2.76 0 0 1 .32-.8v-.16h.16v-.16a.14.14 0 0 1 .16-.16v-.16a.14.14 0 0 1 .16-.16V68l.16-.16v-.16l.16-.16v-.12l.16-.16.32-.64a.14.14 0 0 1 .16-.16.46.46 0 0 1 .16-.32v-.32h.16v-.32h.13v-.16l.16-.16v-.32h.16v-.32h.16v-.32h.16V64l.16-.16v-.32c.1 0 .16-.1.16-.32h.16a.65.65 0 0 1 .16-.48c0-.1 0-.16.08-.16s.08-.05.08-.16 0-.16.08-.16.08-.05.08-.16V62l.16-.16.16-.16v-.32h.16V61h.16a.63.63 0 0 1 .08-.4.32.32 0 0 0 .08-.24l.16-.16v-.16h.16v-.32l.32-.32v-.3a.14.14 0 0 0 .16-.16v-.16h.16v-.32a.14.14 0 0 0 .16-.16V58h-.16v.16a.14.14 0 0 0-.16.16l-.16.16v.16h-.16v.32h-.16v.16l-.16.16v.16h-.16v.16h-.16v.32h-.16v.32h-.16v.16h-.16v.32h-.16V61l-.16.16v.16h-.16v.32h-.16V62h-.16v.16a.14.14 0 0 1-.16.16v.48h-.16v.16h-.16v.32l-.32.48v.16H309v.32a.14.14 0 0 0-.16.16v.16h-.16v.32h-.16v.32h-.16v.32h-.16v.32h-.2v.32h-.16v.32h-.16v.32h-.16v.16a.14.14 0 0 1-.16.16v.16a.14.14 0 0 1-.16.16v.16l-.16.16V68h-.16v.32h-.16v.16l-.16.16v.16a.14.14 0 0 0-.16.16v.16l-.16.16v.16l-.16.16v.16a.46.46 0 0 0-.16.32l-.16.16v.16a.14.14 0 0 0-.16.16v.16h-.16v.48h-.16v.32h-.16v.32H305V72l-.16.16v.32h-.16v.32h-.16v.32h-.16v.32h-.16v.32h-.2V74l-.16.16a.33.33 0 0 1-.08.24.63.63 0 0 0-.08.4h-.16v.16a.14.14 0 0 0-.16.16v.16h-.16v.32h-.16v.16l-.32.8v.16a.14.14 0 0 0-.16.16V77h-.16v.16a.14.14 0 0 1-.16.16.92.92 0 0 1-.32.64.46.46 0 0 0-.16.32v.16h-.16v.32a.14.14 0 0 0-.16.16.65.65 0 0 0-.16.48.46.46 0 0 0-.16.32l.16.16a.14.14 0 0 0 .16-.16c0-.1 0-.16.08-.16s.08-.05.08-.16a3.7 3.7 0 0 1 .64-1 .32.32 0 0 1 .08-.24.33.33 0 0 0 .08-.24v-.16h.16a6.87 6.87 0 0 1 .8-1.44c0-.21.05-.32.16-.32v-.16l.32-.48v-.32h.16v-.32zm-2.24.48v.16h.16v-.16h.32v-.16l.16-.16v-.32h.16v-.32h.16V74h.16v-.32h.16v-.48h.16V73h.16v-.32l.16-.16v-.32h-.16V72l-.32.32v.16h-.16v.32h-.16v.2h-.16v.48h-.16v.16l-.16.16v.2h-.16v.32h-.16v.32H302v.48h-.16v.16zm2.55-5a.46.46 0 0 1 .16-.32l.16-.16.16-.32a.14.14 0 0 1 .16-.16v-.16l.16-.16c0-.1 0-.16.08-.16s.08-.05.08-.16l.32-.64v-.16h.16v-.32h.16v-.09h.16v-.32h.16v-.32h.16v-.32h.16v-.16a.14.14 0 0 1 .16-.16v-.32h.16v-.32h.16v-.32h.16v-.32h-.32V65h-.16v.16h-.16v.16h-.16v.16h-.16V66h-.16v.16l-.16.16v.16h-.16v.32h-.16v.32h-.16v.32h-.16v.16h-.16v.32h-.16v.48H305v.32h-.16V69h-.16v.16a.14.14 0 0 1-.16.16v.32a.14.14 0 0 0-.16.16h-.16v.48zm.16 6.71v-.16h.16v-.16h.18v-.32h.16V76a.14.14 0 0 0 .16-.16v-.16h.16v-.32h.16v-.48h.16v-.32h.16v-.32h.16V74a.14.14 0 0 0-.16-.16h-.16V74h-.16v.16l-.16.16v.16a.14.14 0 0 0-.16.16v.16h-.16v.32l-.16.16v.16h-.16v.16a.14.14 0 0 1-.16.16V76h-.16v.32a.14.14 0 0 0-.16.16v.32h-.16v.2zM312 61.81V62h-.16l-.16.16v.16h-.16v.32h-.32v.32h-.16v.32h-.16v.32h-.16v.32h-.16v.32h-.16v.32a.14.14 0 0 0-.16.16v.16h-.16v.32a.14.14 0 0 0-.16.16v.16h-.16v.32a.14.14 0 0 0-.16.16v.16h-.16v.32a.14.14 0 0 0-.16.16v.16h-.16v.32H309v.32h-.16v.32h-.16V68h-.16v.32h-.16V69h-.16v.16h-.2v.32h-.16v.32h-.16v.32c-.11 0-.16.11-.16.32h-.16v.16h-.16v.32a.32.32 0 0 1-.08.24.32.32 0 0 0-.08.24l-.16.16v.16l-.32.32v.32h-.16v.32a.14.14 0 0 0-.16.16V73h.16v.16h.16v-.32l.32-.48a.14.14 0 0 0 .16-.16V72l.48-.64a.14.14 0 0 1 .16-.16v-.32l.16-.16v-.12q.32-.32.32-.48a.32.32 0 0 1 .08-.24.32.32 0 0 0 .08-.24l.16-.16.48-1v-.28h.16V68h.16v-.16l.16-.32v-.12l.16-.16v-.16h.16v-.32a.14.14 0 0 0 .16-.16l.16-.32a.14.14 0 0 1 .16-.16v-.32h.16v-.32h.16v-.32h.16v-.32h.16v-.32l.16-.16v-.16l.16-.16v-.16l.16-.16v-.32h.16v-.32h.16v-.32h.16v-.32h.16v-.32h.16v-.32zm-4.15 1.6h.48v-.32a.14.14 0 0 0 .16-.16v-.16h.16v-.48h.16V62h-.64v.48H308v.48h-.16zM340 48.4q5.43-.8 8.3 1.2a6.79 6.79 0 0 1 3.19 4.87 7.85 7.85 0 0 1-.4 3.27 6.87 6.87 0 0 1-1.84 2.87 9.66 9.66 0 0 1-3.11 1.92 8.42 8.42 0 0 1-4.23.4q-3.2-.48-4-1.28l-.32.64a5 5 0 0 0-.64 2.08q-.64 5.91-1.12 9.58t-.88 5.91q-.4 2.24-.72 3.43a7.85 7.85 0 0 1-.8 2 19.56 19.56 0 0 1-3.27 5.11 9.14 9.14 0 0 1-5.19 2.87 7.62 7.62 0 0 1-2.79.16q-1.68-.16-3.75-2.71a4.54 4.54 0 0 1-1-3.51 7.38 7.38 0 0 1 1.52-3.59 13.92 13.92 0 0 1 3.27-3 10 10 0 0 1 4.23-1.68l.48-3.67q0-3 .24-7.35a36.86 36.86 0 0 1 1.44-8.38 19.51 19.51 0 0 1 3.83-7.19A12 12 0 0 1 340 48.4zm-19.21 35.13q-1.59 1.92-.72 2.87t2.48-.48a3 3 0 0 0 1.2-2c.05-.69 0-1-.08-.88.1.21-.11.08-.64-.4s-1.28-.17-2.24.89zm1.28 5.75h-.16a.33.33 0 0 0-.24.08.32.32 0 0 1-.24.08l-.16.16a.14.14 0 0 0 .16.16l.64-.48.32-.32.16.16.16-.32-.32.16v-.16l-.48.16zm.32-1.76v.32l1.28-1 .16-.16.16-.32a.46.46 0 0 1 .16-.32v-.32l-.48 1.12v-.16l-1 .64zm1.92 0l-.64.48-.16.48zm.48-2.4a.62.62 0 0 0 .4-.08.33.33 0 0 1 .24-.08l-.32-.32-.48.48c-.11 0-.16.08-.16.24s-.05.24-.16.24l.16.16zm2.08 1.44l-.32.48h-.48l-.48.16a.47.47 0 0 1 .16.32l-.48.64v.16l-1 1.28h.16l.16-.16.16.16 1.6-1.92-.16-.16.48-.32.16-.16.16-.48v-.16l-.16.16a.65.65 0 0 1 .16-.48v-.32l-.32.32v.16l-.32.16.16.48V87l.16-.48zm-1.6-.16l-.64.64.64-.48.48-.16h.16l.16-.16v-.16l.48-.32v-.16l.32-.48-.16-.48-.16.48-.16.32c-.21 0-.32.05-.32.16h.32l-.48.32h-.16l-.32.32v.16zm.48-2.4v-.64l-.16.48zm0 2.08v.32h.16v-.16l.16-.16v-.16zm.8-3.19v-.32l-.32.32zm.32-1.12c-.32-.1-.48-.05-.48.16l.16.32zm.64 4.15l-.32-.16.64-.16-.32-.16.32-.32h.17v-.48l.48-.48.16-.16v-.32l-.16-.48.32-.32h-.16l.16-.16v-.16l.32-.16-.16-.16h.32l-.32-.16-.16-.16.32-.32.16-.32a.14.14 0 0 0-.16.16l-.8.48v-.48l-.64.32v.8l-.32.32c-.11.11-.11.16 0 .16l-.64.32v1.28l.16-.16h.48l-.16-.16.32-.48-.16-.16h.16l-.16-.16.32-.16-.16-.16h.16l.16-.32.32-.16-.32-.16.48-.16v-.48l.16.16a.16.16 0 0 1 0 .32v.64l-.16.16-.32.64-.16.48V85a.14.14 0 0 1-.16.16c-.11.21-.21.32-.32.32a.14.14 0 0 0-.16.16l-.16.16zm0-6.23c0-.1 0-.16-.08-.16s-.08.05-.08.16zm.16 3.19h.16v-.32l-.16.16a.46.46 0 0 1-.16.32l.16.16zM329.26 68l-.8-.32-.64.64 1.28-.32zm-1.44 14.53l.48-.16-.16-.16.16-.48-.16.16zm1.12-3.51l-.16-.16.16-.16v.16l.16-.48h.16l-.16-.48v-.16l.16-.32-.16.16a.14.14 0 0 1-.16-.16v-.32l-.16.64h.16v.64l-.64.48q-.48 0 .48.48l-.32.32h.16l.32-.16h.16l-.16-.32zm-.8-2.87l.32.32V76l.16-.16-.16-.16h.16l.16-.16-.16-.8.32-.16-.32-.32v-.16l-.32.16v.48l-.16.16h.16l.16.64h-.16l.16.16-.16.32zm.16 5.11l.32-.32-.16-.16v-.64h.16l-.32-.32-.16.32zm.48 3.83l-.16.16-.32.16v.16h.32l-.48.32v.32h.16l.64-.16-.32-.16.32-.16zm-.48-8.62l.16.16v-.16zm.48-10.7l.64-.16v-.48l.16-.16-.32-.16h.16l-.16-.16v-.16h.32l-.32-.16.32-.32a.14.14 0 0 1 .16-.16v-.32h.16l-.16-.16v-.32l.16-.16-.16-.16.16-.16-.16-.48-.16.16h.16l-.32.16v.16h-.16l.32.32h-.16l-.16.16a.46.46 0 0 0-.32.16l.64.16-.32.16v.16h-.16v.16h-.32v.48h-.16l.32.32h-.16l.16.16h-.16l.16.16a.2.2 0 0 0 0 .32v.16h-.16v.16l-.32.32zm0 13.1l.16.64v-.16zm.16 5.91l-.16.32.32-.16zm0-6.07c-.11 0-.05-.1.16-.32l-.16.16zm.32-1.44v-.16c.21 0 .26-.05.16-.16.21 0 .32-.05.32-.16v-.16l-.32-.48V76h-.32l-.16.16.16.32.16.16v.16l-.16.64zm.32-1.92a.46.46 0 0 0 .32-.16v-.16h-.16l-.16-.32.48-.16h-.16l-.16-.16V74l.32-.16-.16-.16-.16-.16.16-.32.16-.16c.1-.21 0-.48-.32-.8a.45.45 0 0 1-.32-.16l-.16-.16v.48l.16.32a2.8 2.8 0 0 1-.32.8l.48 1.92v.32l.16-.16zm0 5.11l-.16-.16.32-.16-.16-.16h.16l-.16-.16.48-.16v-.32h.16l-.32-.32h.16l.16-.32.16-.16h-.16a.46.46 0 0 1 .16-.32v-.32h-.16v-.16l.16-.32v-.12h-.16l.64-.32v-.32l-.16-.16v-.16h-.16l.16-.16V76l.16-.16v-.16l.16-.16-.32.16.16-.16h.14l-.16-.16-.16-.8h.16l-.16-.16.16-.32-.48.48.16 1.12h-.16l.16.16-.64.32.16 1.6-.16.16v.16h.16l-.16.64-.48.16v.8h.16l-.16.32v.16l-.32.16v.16h.16v.8l.32-.16V81h.16l-.16-.16zm.16-10.46l-.48.8q-.16.32 0 .48v.32q.48-.32.16-.48v-.16zm-.48 1.6v.32l.32-.16zm0 11.66c.11.11.16.11.16 0zm1-1.76h-.32l-.32.16h.16v.48l.16.32-.32.32c-.11.11-.11.16 0 .16l-.16.16v.16h.32v-.32h.16l.16-.16v-.16h-.16l.32-.16-.16-.32.32-.32-.32-.16h.16zm-.48-4.79l-.16-.16v.32zm.32 3.51V80l-.32.32zm7.83-28.11a.14.14 0 0 1-.16.16l-.32.32h-.16l-.48.16.32.16-.64.64a.14.14 0 0 0-.16.16l-.32.16v.32h-.48v.16h-.16l-.16.16-.16.32a.28.28 0 0 1-.32.32l-.32.16.32.16h-.16l-.16.16-.32.16.16.16h-.32l.32.16-.48.48v.64h-.48a.46.46 0 0 1-.16.32v.16h-.16c.21.11.26.16.16.16v.32h-.16v.16l-.32.16-.16.48h-.16v.32h-.16v.32H332l.32.16h-.16c.1.11.1.16 0 .16l-.64.32.48.16h-.32l-.16.16v.32a.46.46 0 0 0-.32.16l.16.16c-.11.11-.11.16 0 .16v.32l-.64 1h-.16a.47.47 0 0 1 .16.32c-.11 0-.11.05 0 .16l.16.16h-.16v.16h-.16l.32.16h-.16l-.16.16h-.16a.14.14 0 0 1-.16.16l.16.8V65a.14.14 0 0 0-.16.16v.16l-.16.16a.2.2 0 0 1 0 .32h-.16l.16.32v.16a.72.72 0 0 0 .16.8.46.46 0 0 1-.32.16l.16.16v.16l.16.16c-.11.21-.13.32-.08.32s.08.05.08.16v-1.12l.32-.16-.16-.32a1 1 0 0 0 0-.8l.48-.48-.32-.16V65l.32-.16-.16-.16h.16l-.16-.16.32-.8.16-.64 1.12-2.56v-.16l-.16-.16h.16l.32-.64.32-.16.32-.64c-.21-.1-.27-.16-.16-.16v-.16l.32-.16v-.16l.48-.16v-.32h-.16l.16-.48v-.32l.8-.32a.2.2 0 0 1 0-.32.46.46 0 0 0 .32-.16v-.14l.16-.16-.32-.16.48-.32v-.16h.16v-.32h.16l-.16-.16.64-.16.32-.32.32-.64c.1 0 .16 0 .16-.08s.05-.08.16-.08h.32l-.48-.16.48-.32.64-.32v-.16l.16-.16a.46.46 0 0 0 .16-.32l-.16-.16a.46.46 0 0 0-.16.32zm-7.67 8.3c.11 0 .21-.1.32-.32h.32l-.48-.16.48-.48.16-.16.16-.16v-.32l.16-.16h.16v-.16l.16-.32a.14.14 0 0 1 .16-.16l-.32-.16h.32l.16-.48h.48l-.16-.16h.16l-.16-.16a.46.46 0 0 1 .16-.32h.16v-.16l.32-.16-.16-.16h.16v-.16l.32-.16v-.16a.46.46 0 0 1 .32-.16v-.16a.2.2 0 0 1 0-.32h.16l-.32-.16.48-.16v-.16l.16-.16c-.11-.1-.16-.1-.16 0l-.48.16-.16.16v.32l-.16-.16h-.16l.16.16-.48.16h.32l-.16.16.16.16h-.16l-.48.48h.16l-.16.16h.16l-.32.32v.16h-.48l.16.16-.16.32h-.16c-.11 0-.11.05 0 .16l-.16.32v.16H331l.48.16h-.32l-.16.32-.16.16v.16h-.16l-.16.16.16.16-.16.16v.16a.14.14 0 0 1-.16.16c-.11 0-.11.05 0 .16l-.16.16v.16h-.16l.16.16zm.43 19.59l-.16.16v.32l-.16.16v.16h-.16v.64h.16l.32-.16h-.16v-.48l.16-.16v-.14a.14.14 0 0 0 .16-.16zm-.16-4.15l.16-.16-.32.48zm.16.64h-.16l.16.16zm0 .16l-.16.48.32-.16zm.8 1.6c-.21.21-.37.32-.48.32h-.16v.16h.15c-.32.11-.43.27-.32.48l.16.32a.46.46 0 0 0-.16.32l.48-.48.48.16-.32-.16h.16v-.16l-.32-.16.16-.16zm-.32-.64a.45.45 0 0 0 .16.32h-.16l.32.16-.16-.16h.16l-.32-.48zm.32-12.94V65l.16-.64-.32.16zm.51 10.4l-.16.16h-.32l-.16.16.32.16zm.29-10.07l.16-.16v-.16h.16l-.32-.32h.16l-.32-.16.32-.16-.32-.16h.16v-.16h.16l.48-.32-.48-.16-.16.16.16.16H332l-.16.32V64c.1 0 .1.05 0 .16l.16.16h-.32l.48.32-.16-.16h.16l-.16-.16h.32l-.16.16.16.48-.16.32.32-.16zm-.48-.16l.19.16h-.32v.16h.32V65l.16-.16zm.32.64v.16l.16-.16zm1-4.31a.14.14 0 0 0-.16.16c-.11 0-.05.05.16.16l-.48.32h.16a.46.46 0 0 0-.16.32c.11 0 .05.11-.16.32l.16.32h.16v-.32c.1 0 .1-.05 0-.16l.32-.48c-.11-.1-.11-.16 0-.16zm.32-.8l-.32.32h.32v.64l.48-.64-.32-.16.32-.16.16-.16a.51.51 0 0 1 .32-.48l-.16-.48.8-1.12V58a.14.14 0 0 0 .16-.16l.32-.16v-.18c-.21-.21-.16-.32.16-.32l.32-.32-.16-.16.32-.16v-.16h.16c.1 0 .16 0 .16-.08s.05-.08.16-.08l.16-.32v-.16h.16l-.16-.16h.16l-.16-.16.64-.32v-.48h.16v-.16l.16-.16c-.11 0-.16 0-.16-.08s.05-.08.16-.08l.48-.32-.16-.16h.16l.32-.16a2.6 2.6 0 0 0 .64-.16l.16-.32-.8.48.16-.32.48-.16.16-.16 1-.32 2.55-1.6-1.44.64a.92.92 0 0 1-.64.32l-.8.48-.32.16-.16-.16v.16H339l.32.16h-.16a.14.14 0 0 0-.16.16h-.64V53l-.32.32-.16.32-.48.32v.16l-.64.32h.16v.16h-.16v.16l-.16.16v.16l-.64.64a.46.46 0 0 0-.16.32l-.48.48v.16l.16.16-.32.16h.16l-.32.16v.16l-.32.16.16.16v.16h-.48l-.16.32v.48l.16.16-.48.32-.32.48.32.32-.32-.16-.16.32zm0-.16v-.16a.32.32 0 0 0 .24-.08.33.33 0 0 1 .24-.08l-.16.16zm.8-1.12l-.32.48-.16.16.16-.32h-.16l.16-.16a.14.14 0 0 0 .16-.16h.16zm.32-5.59l.8-.48c-.11 0-.11-.05 0-.16h.16l.32-.16v-.16h.15l-.32-.16.48-.16-.16-.32h-.16v-.16l-.48.16.16.16H335l.16.16-.16.16.16.16-.48.32V53l-.16.16zm1.92 2.24l-1 .8h-.16l.48-.48.16-.32zm-.64 3.67c0 .11.08.16.24.16s.24-.05.24-.16l.16-.64c.1-.1.1-.16 0-.16a.46.46 0 0 0-.32.16v.48a.46.46 0 0 0-.37.17zm.64-4.15l.16.32a.14.14 0 0 0-.16.16l-.16-.16.16-.16zm1.76-3.67v.16a.65.65 0 0 0 .48-.16l.64-.32V51l.64-.16.16-.16 1.6-1 .32-.16v-.16l-.32.32v-.16L338.52 51l.16.16-.48.16-.32.32-.48.32.32.16h-.32v.16l.32-.16zm-.48 4.31a1.1 1.1 0 0 0-.24.56 3.25 3.25 0 0 0-.08.56c0 .11.08.16.24.16s.24-.05.24-.16l-.32-.48.48-.64zm1.28-.8a.46.46 0 0 1-.32.16h-.16l.32.32.32-.32zm5.27-.32q-.16-1.59-2 .08a18.88 18.88 0 0 0-3.59 4.87h1.12a5.41 5.41 0 0 0 3.67-2.24q1.44-1.92 1.28-2.71zm-4.47-2.24l-.32.16-.32.32-.16-.16.32-.16zm-.48 2.56l-.16.16.16.16zm1.23-1.1a1.78 1.78 0 0 0-.56.08 1.28 1.28 0 0 1-.4.08l.16.32 1-.32q.48-.48.64-.48l-.16-.32zm3.83-1.92l-.16-.32-1 .48-.8.48a.76.76 0 0 0-.47.28.66.66 0 0 1-.4.24l.16.32 1.12-.8h-.16l1-.48zm-.32-1.76l-.8.64.64-.48zm.16.16c-.11 0-.08.05.08.16a.77.77 0 0 0 .4.16v-.32zm.8 0h.16q1 .16 1.12 0c.1 0 .1 0 0-.08a.73.73 0 0 0-.32-.08z"/><path class="cls-1" d="M379.24 77.94a12.67 12.67 0 0 1 3.76-2.31c.9-.26 1.52-.24 1.84.08s.37.88.16 1.68a7.17 7.17 0 0 1-1.12 2.32 11 11 0 0 1-1.12 1.92l-2.56 3.19-1.92 1.92-1.12 1.26-1.92 1.6a11.9 11.9 0 0 1-2 1.36 10.74 10.74 0 0 1-2.16.88 4.58 4.58 0 0 1-2.08.48h-1.1a6.78 6.78 0 0 1-1.28-.16h-.48a.66.66 0 0 0-.48-.16 6.78 6.78 0 0 0-1.12-.32 11 11 0 0 0-1.12-.64 2.4 2.4 0 0 1-1-.8 7.19 7.19 0 0 1-1-1.76 5.77 5.77 0 0 1-.4-2.24 12.82 12.82 0 0 1 1-4.79l.48-1.28a1.59 1.59 0 0 0 .4-.56 4.41 4.41 0 0 1 .24-.56l.48-1a2.76 2.76 0 0 1 .32-.8q1.44-3 2.79-5.35a45.84 45.84 0 0 0 2.16-4.07 18.39 18.39 0 0 1 1.28-2.71 39.35 39.35 0 0 0 1.76-3.67 8.86 8.86 0 0 0 1.07-3.07q.16-1.35-2.08-1.36l.16-.16a10 10 0 0 0-4.47 1.52 33.83 33.83 0 0 0-4.31 3.11q-2.08 1.76-3.91 3.59l-3.11 3.11q-2.4 4.47-4.55 8.54T347 84q-1.6 3.2-2.56 5.19a17.6 17.6 0 0 0-1 2.16q-.32.8-1.44.48a4.19 4.19 0 0 1-2-1.51 9.09 9.09 0 0 1-1.52-3 5.81 5.81 0 0 1 .08-3.67 27.74 27.74 0 0 1 1.44-3.47q1.12-2.4 2.47-5t2.53-4.9q1.2-2.23 1.68-3.19L363 32.91l2.55-5.11a2.09 2.09 0 0 1 2.08-1 8.94 8.94 0 0 1 3.35.8 6.53 6.53 0 0 1 2.56 2.24 3.39 3.39 0 0 1 0 3.19l-10.7 20.6h.16a12.08 12.08 0 0 1 2.87-1.44 31.17 31.17 0 0 1 3.35-.8 4.48 4.48 0 0 1 1.68-.32h2.47a1.45 1.45 0 0 1 .64.16 2.69 2.69 0 0 1 .64.08 2.53 2.53 0 0 0 .64.08 10.72 10.72 0 0 1 2.24 1.12l1.12.8a3.85 3.85 0 0 1 1.6 1.6 7.45 7.45 0 0 1 1.2 4.47 18.3 18.3 0 0 1-1 5.35 41.44 41.44 0 0 1-2.56 5.83q-1.6 3-3.35 6.07c-.21.32-.48.77-.8 1.36s-.69 1.2-1.12 1.84a16.27 16.27 0 0 0-1 1.76 3.84 3.84 0 0 0-.4 1q-1.76 2.87-.72 2.56a10.53 10.53 0 0 0 3-1.84q1.92-1.52 3.83-3.35zM354 60.22a.14.14 0 0 0 .16-.16v-.16a3.76 3.76 0 0 0 .64-1l1-1.6 1.44-2.56v-.32l.16-.16v-.16l.16-.16v-.16l.16-.16.16-.16v-.16l.48-.8a145.93 145.93 0 0 1 .32-.64v-.16h.16v-.32h.16v-.32h.16v-.48h.16v-.16l.16-.16a.32.32 0 0 1 .08-.24.32.32 0 0 0 .08-.24l.48-.8.16-.16c0-.21.05-.32.16-.32v-.32h.16v-.32a.14.14 0 0 0 .16-.16v-.1h.16a.46.46 0 0 1 .16-.32v-.16l.16-.16v-.16l.16-.16v-.16l.16-.16v-.16l.16-.16v-.16l.16-.16v-.16c.11 0 .16-.1.16-.32l.32-.48.32-.64a.32.32 0 0 1 .08-.24.33.33 0 0 0 .08-.24.46.46 0 0 0 .16-.32h.16V43l.16-.16.16-.16v-.32l.16-.16V42a.14.14 0 0 0 .16-.16v-.16l.48-.64v-.16c0-.1 0-.16.08-.16s.08-.05.08-.16v-.16h.16v-.32l.32-.48a.14.14 0 0 1 .16-.16v-.14c0-.1 0-.16.08-.16s.08-.05.08-.16v-.16h.16v-.48l.16-.16V38h.16v-.3h-.16v.16h-.16V38h-.16v.16l-.16.16v.48h-.16a.14.14 0 0 1-.16.16v.16l-.16.16v.32h-.16v.16h-.16v.16l-.16.16a.14.14 0 0 1-.16.16v.32a.14.14 0 0 0-.16.16l-.16.16v.16a.14.14 0 0 0-.16.16v.16l-.16.16v.16l-.16.16V42H363v.32h-.16v.32h-.16V43h-.16v.32h-.16v.32h-.16v.32a.14.14 0 0 0-.16.16.14.14 0 0 1-.16.16v.32h-.16v.16a2.76 2.76 0 0 0-.32.8.14.14 0 0 0-.16.16l-.16.16V46l-.16.16v.16l-.16.16v.16l-.16.16v.2a.46.46 0 0 0-.16.32l-.16.16v.16a.14.14 0 0 0-.16.16v.16a.14.14 0 0 0-.16.16v.16l-.16.16v.16l-.16.16v.16a.14.14 0 0 0-.16.16v.16h-.16v.16l-.16.16v.16a.14.14 0 0 1-.16.16v.32a.14.14 0 0 0-.16.16l-.16.16v.16l-.16.32v.16l-.16.16v.16l-.16.16v.16h-.2v.32a.14.14 0 0 0-.16.16v.16a.14.14 0 0 0-.16.16v.16h-.16V53h-.16v.16l-.16.16v.16l-.16.16V54h-.16v.16l-.16.16v.16l-.16.16v.16l-.16.16v.32a.14.14 0 0 0-.16.16l-.16.16v.32h-.16v.32a.14.14 0 0 0-.16.16.46.46 0 0 0-.16.32.14.14 0 0 0-.16.16V57l-.16.16v.16H355v.32h-.16V58l-.16.16v.16h-.16v.32h-.16v.32c-.11 0-.16.11-.16.32l-.48.64v.16h-.16v.32h-.16v.16a.14.14 0 0 1-.16.16v.16a.46.46 0 0 0-.16.32v.16h-.16a2.43 2.43 0 0 0-.32 1 .14.14 0 0 0-.16.16c0 .11 0 .16-.08.16s-.08.05-.08.16l-.16.16v.48l-.16.16-.48 1-.32.32v.32H351v.16l-.32.48a.32.32 0 0 1-.08.24.32.32 0 0 0-.08.24.33.33 0 0 1-.08.24.32.32 0 0 0-.08.24v.16h.16v-.16h.16v-.28a.46.46 0 0 1 .16-.32 1.42 1.42 0 0 0 .4-.64 1.41 1.41 0 0 1 .4-.64v-.16l.32-.48v-.16h.16V64l1.12-1.92a.32.32 0 0 1 .08-.24.32.32 0 0 0 .08-.24v-.16l.48-.64v-.32a.14.14 0 0 0 .16-.16zm-2.24.64V61h.16v-.16h.32v-.14h.16v-.32h.16v-.32h.16v-.32h.16v-.32h.12v-.32h.16v-.32h.16v-.32h.16v-.32l.16-.16v-.16h.16v-.48h.2v-.16h.16v-.32H354v-.16h-.16v.16l-.16.16v.16h-.16a.14.14 0 0 1-.16.16v.32a.14.14 0 0 0-.16.16l-.2.18a.32.32 0 0 1-.08.24.32.32 0 0 0-.08.24v.16h-.16v.16l-.16.16v.16a.14.14 0 0 0-.16.16v.16h-.16v.32h-.16v.32h-.16v.32l-.16.16v.16h-.16v.16zm4.63-2.24v.16h-.32v.32a.14.14 0 0 0-.16.16v.16h-.16a.14.14 0 0 1-.16.16v.32a.46.46 0 0 0-.16.32.14.14 0 0 0-.16.16v.16H355v.32h-.16V61h-.16v.32a.14.14 0 0 0-.16.16v.16l-.16.16v.32h-.16v.32h-.2v.32h.32v-.16h.32v-.16h.16v-.32h.2v-.32h.32v-.48h.16v-.16l.16-.16v-.16h.16v-.32h.16v-.48h.16v-.32h.16v-.16l.16-.16v-.16l.16-.16v-.48zm-1.12-4.15a.14.14 0 0 1 .16-.16c0-.1 0-.16.08-.16s.08-.05.08-.16l.16-.16c0-.1.1-.26.32-.48v-.16l.16-.16v-.16h.16a.46.46 0 0 1 .16-.32l.16-.32.32-.8v-.16h.16v-.16a.14.14 0 0 0 .16-.16v-.32h.16v-.32h.16v-.16a.14.14 0 0 0 .16-.16v-.16h.17v-.32h.16v-.31h.16V49l.16-.16v-.32h.16v-.12l.16-.16v-.16l.16-.16v-.16a.14.14 0 0 1 .16-.16v-.16l.16-.16v-.16H359v.16h-.16v.16h-.32v.32h-.16v.32h-.16v.16h-.2v.32a.14.14 0 0 0-.16.16v.16h-.16v.32a.14.14 0 0 0-.16.16v.16a.14.14 0 0 0-.16.16v.16h-.16v.32h-.2v.16l-.16.16v.16h-.16v.48h-.16v.32l-.16.16v.32h-.16v.32h-.16v.16a.46.46 0 0 0-.16.32h-.16V53a.14.14 0 0 0-.16.16v.16h-.16v.16l-.16.16v.16H355v.64zm7.51-7.67a.46.46 0 0 0 .16-.32l.16-.16a.46.46 0 0 1 .16-.32v-.32a.14.14 0 0 0 .16-.16v-.16h.16v-.16l.16-.16v-.16a.14.14 0 0 1 .16-.16c0-.21.05-.32.16-.32v-.32h.16v-.16c0-.1 0-.16.08-.16s.08-.05.08-.16v-.16h.16v-.16a.14.14 0 0 1 .16-.16V43a.14.14 0 0 1 .16-.16l-.16-.16h-.16v.16h-.16v.32h-.16v.16h-.16v.32h-.16v.16h-.16v.16l-.16.16-.16.16v.16l-.16.16v.16h-.16V45h-.1v.48h-.16v.32h-.16v.2a.14.14 0 0 0-.16.16.46.46 0 0 1-.16.32v.16l-.16.16v.2l-.16.16v.16l-.16.16v.16a.14.14 0 0 1-.16.16v.32h-.16v.16l-.16.16v.16h-.16v.4H361v.16h-.16v.32a.14.14 0 0 0-.16.16v.16h-.16v.32h-.16v.32h-.16v.16c0 .21-.05.32-.16.32v.32h-.16v.16h-.16v.16h.16v.16h-.16v.32h-.16v.16l-.16.16v.32h-.16V53h-.16v.32H359v.16h-.16v.16a.65.65 0 0 0-.16.48h-.16v.32h-.16v.32h-.16v.16a.14.14 0 0 0-.16.16v.32h-.16v.32a.14.14 0 0 0-.16.16l-.32.48v.16a.14.14 0 0 1-.16.16v.16L357 57a.46.46 0 0 1-.16.32v.16a.14.14 0 0 0 .16.16h.16a.46.46 0 0 1 .16-.32l.32-.64a.14.14 0 0 0 .16-.16v-.16l.16-.16.48-.8c0-.1 0-.16.08-.16s.08-.05.08-.16a.32.32 0 0 1 .08-.24.33.33 0 0 0 .08-.24h.24v-.32h.16a.92.92 0 0 1 .32-.64.32.32 0 0 1 .08-.24.33.33 0 0 0 .08-.24l.16-.32a3.47 3.47 0 0 0 .64-1.28v-.16h.16v-.32h.16V51h.16v-.32a.65.65 0 0 1 .16-.48l.16-.16v-.16h.16v-.32h.16v-.36h.16V49l.32-.48v-.12l.16-.16v-.16l.16-.16v-.16l.16-.16v-.16a.14.14 0 0 1 .16-.16v-.16l.16-.16zm-2.55-1.6l.16-.16v-.16h.16v-.16l.16-.16h-.16v-.16h.16v-.16h.16v-.32h.13v-.32h.16v-.16H361v-.16h-.48v.32h-.16v.32a.14.14 0 0 0-.16.16v.48h-.16v.32h-.16v.32zm8.94 32.1a.14.14 0 0 0 .16-.16l.32-.64v-.16h.16v-.16L370 76v-.16l.16-.16v-.16a.14.14 0 0 0 .16-.16c0-.21.05-.32.16-.32v-.32l.32-.48v-.16a.14.14 0 0 0 .16-.16.14.14 0 0 1 .16-.16v-.16a.14.14 0 0 1 .16-.16v-.16c0-.1 0-.16.08-.16s.08-.05.08-.16v-.16h.16v-.32h.16v-.32h.16V72c0-.1 0-.16.08-.16s.08-.05.08-.16l.16-.16v-.12c0-.1 0-.16.08-.16s.08-.05.08-.16 0-.16.08-.16.08-.05.08-.16a.46.46 0 0 1 .16-.32v-.32h.16V70a.14.14 0 0 1 .16-.16v-.16a.14.14 0 0 1 .16-.16.65.65 0 0 1 .16-.48v-.16l.16-.16v-.16l.16-.16.16-.32v-.16l.16-.16v-.36h.16v-.32h.16v-.16H374v.16h-.16v.16l-.16.16v.16a.14.14 0 0 0-.16.16v.16h-.16v.32h-.16v.16h-.2v.32h-.16v.16l-.16.16v.16h-.16v.32l-.16.16v.16l-.16.16v.16l-.16.16v.16l-.16.16v.32h-.16v.32h-.16v.16a.33.33 0 0 1-.08.24.32.32 0 0 0-.08.24l-.16.16v.16h-.16v.32h-.16v.32l-.16.16v.16h-.16v.32h-.16v.32h-.16v.32a.14.14 0 0 0-.16.16v.16H370v.32h-.16v.32h-.16v.48h-.16v.32h-.16v.32a.14.14 0 0 0-.16.16v.16h-.2v.32h-.16v.32h-.16v.32a.14.14 0 0 0-.16.16v.16h-.16v.16l-.16.16v.32l-.16.16v.32a.14.14 0 0 0-.16.16l-.16.16v.32a.14.14 0 0 0-.16.16v.16h-.16v.32h-.32v.32h-.16v.16a.14.14 0 0 1-.16.16.33.33 0 0 1-.08.24.32.32 0 0 0-.08.24v.16h-.16v.32h-.16v.16a.14.14 0 0 1-.16.16v.16a.92.92 0 0 1-.32.64v.32h-.16v.48l-.48.64v.32H365v.16a.46.46 0 0 1-.16.32v.8h.16v-.16a.46.46 0 0 0 .16-.32 3.72 3.72 0 0 1 .48-.8v-.32a.14.14 0 0 1 .16-.16V84l.64-1.12c0-.21.05-.32.16-.32v-.16a.32.32 0 0 1 .08-.24.33.33 0 0 0 .08-.24l.16-.16v-.16l.16-.16.48-.64a2.77 2.77 0 0 0 .32-.8l1-1.92.16-.16v-.32l.16-.16zm-4.31 4.47a.14.14 0 0 0 .16.16h.16v-.16h.32v-.32h.16V81h.16v-.32h.18v-.18a.14.14 0 0 0 .16-.16V80l.16-.16v-.32h.16v-.32l-.16-.16h-.16v.16H366v.32h-.16v.16l-.16.16c0 .21-.05.32-.16.32v.32h-.16v.16h-.16v.48h-.2v.48h-.16zm2.08-4.31v.16h.16v-.16l.32-.16v-.16h.16a.46.46 0 0 1 .16-.32v-.16h.16v-.16l.16-.16v-.16h.16a.65.65 0 0 1 .16-.48v-.16h.16v-.48h.16v-.32h.16v-.16a.14.14 0 0 0 .16-.16v-.16h.16V74h.16v-.32a.14.14 0 0 0 .16-.16v-.32h.16v-.32h.16v-.16h-.32v.16h-.16V73H369v.32h-.16v.32h-.16V74h-.16v.32h-.16v.16l-.16.16v.16h-.16v.32h-.16v.48h-.16v.4h-.16v.16l-.16.16v.16h-.32V77h-.16v.16h-.16v.32zm2.24 3.35H369v-.16h-.16v.16h-.16V81h-.16v.32h-.16v.16h-.16v.48h-.16v.16l-.16.16v.16h-.16v.48h-.16v.48h.48v-.16h.16v-.32l.16-.16v-.32h.16v-.16l.16-.16v-.48h.16v-.34h.16v-.16l.16-.16zm.8-1.6l.32-.64v-.16a.14.14 0 0 0 .16-.16v-.15l.16-.16a145.95 145.95 0 0 0 .32-.64l.16-.16a2.45 2.45 0 0 0 .32-1h.16l-.16-.16h.16v-.32h.16a.46.46 0 0 1 .16-.32v-.32h.16v-.32h.16v-.16l.16-.16v-.32h.16v-.32h.16v-.32h.16v-.32h.14v-.32a.14.14 0 0 0 .16-.16v-.16l.16-.16V72h.16v-.32h.16v-.28h.16v-.32l.16-.16v-.16h.16v-.48H374v.16h-.16v.16h-.16v.16h-.16v.16h-.16v.32h-.16v.16h-.2v.32h-.16V72l-.16.16v.32h-.16v.32h-.16v.32h-.16v.32h-.16v.32h-.16v.32h-.16v.32h-.16v.32l-.16.16v.16h-.16v.48h-.16v.32l-.16.16v.32h-.16v.32h-.16v.48h-.16v.32h-.16a.46.46 0 0 1-.16.32v.16H370v.32a.46.46 0 0 0-.16.32.14.14 0 0 1-.16.16v.16a.46.46 0 0 0-.16.32.14.14 0 0 0-.16.16v.16l-.16.16V80l.16.16h.16V80c0-.1.1-.26.32-.48v-.16h.16zm.16-7.83v.16h.32v-.14a.14.14 0 0 0 .16-.16v-.32h.16v-.32h.16v-.32h-.64v.48h-.16v.48H370v.16z"/></g></g></svg>