<?xml version="1.0" encoding="UTF-8"?>
<!DOCTYPE svg PUBLIC "-//W3C//DTD SVG 1.1//EN" "http://www.w3.org/Graphics/SVG/1.1/DTD/svg11.dtd">
<!-- Creator: CorelDRAW -->
<svg xmlns="http://www.w3.org/2000/svg" xml:space="preserve" width="132.527mm" height="42.0244mm" version="1.1" style="shape-rendering:geometricPrecision; text-rendering:geometricPrecision; image-rendering:optimizeQuality; fill-rule:evenodd; clip-rule:evenodd"
viewBox="0 0 9039.68 2866.49"
 xmlns:xlink="http://www.w3.org/1999/xlink"
 xmlns:xodm="http://www.corel.com/coreldraw/odm/2003">
 <defs>
  <style type="text/css">
   <![CDATA[
    .fil0 {fill:#B7D334;fill-rule:nonzero}
   ]]>
  </style>
 </defs>
 <g id="Layer_x0020_1">
  <metadata id="CorelCorpID_0Corel-Layer"/>
  <path class="fil0" d="M1204.26 178.05c0,37.85 -7.01,67.29 -22.43,91.12 -15.42,23.83 -33.65,42.06 -54.68,56.08 -21.03,14.02 -43.46,23.83 -65.89,30.84 -22.43,7.01 -40.65,14.02 -56.08,18.23 -23.83,8.41 -40.65,9.82 -49.07,5.61 -8.41,-4.2 -16.82,-15.42 -25.23,-32.24 -4.21,-8.41 -5.61,-16.82 -4.21,-23.83 1.41,-7.01 4.21,-14.02 8.41,-19.62 4.21,-7.01 9.82,-12.62 16.83,-18.23 14.02,-4.21 26.64,-11.22 37.85,-19.63 9.82,-7.01 19.63,-15.42 28.04,-25.23 7.01,-9.82 11.21,-22.43 11.21,-35.05 0,-14.02 -7.01,-25.23 -21.03,-32.24 -14.02,-7.01 -32.24,-11.21 -56.08,-14.02 -23.83,-1.41 -50.47,-2.8 -81.31,-1.41 -30.84,1.41 -63.09,2.8 -95.33,4.21 -23.83,1.4 -53.27,5.61 -89.72,9.82 -36.45,4.2 -74.3,11.21 -114.96,19.62 -40.65,8.41 -81.31,18.23 -121.97,28.04 -40.66,11.21 -78.51,23.83 -110.75,36.45 -33.65,12.61 -60.28,26.64 -81.31,40.65 -21.03,15.42 -30.84,29.44 -30.84,44.86 0,12.62 12.62,25.24 37.86,37.85 23.83,12.62 57.47,25.24 98.13,37.86 40.65,12.61 86.92,23.83 138.79,36.45 51.87,12.61 105.15,26.64 159.82,40.65 54.68,15.42 107.95,30.84 159.82,46.27 51.87,16.82 96.73,35.05 137.39,54.67 40.65,19.63 72.9,40.66 96.74,64.49 23.83,23.83 36.44,49.06 35.05,78.51 -1.41,28.03 -12.62,54.67 -35.05,79.91 -23.83,26.64 -54.68,49.06 -93.93,68.69 -39.25,19.62 -85.52,35.05 -138.79,46.26 -54.67,11.22 -112.15,16.83 -175.24,16.83 -61.69,0 -120.57,-2.8 -178.05,-9.82 -57.48,-7.01 -109.35,-15.42 -154.21,-25.23 -46.27,-9.82 -84.12,-21.03 -114.96,-30.84 -30.84,-9.82 -50.47,-18.23 -60.28,-25.24 -7.01,-4.2 -12.62,-9.81 -19.62,-15.42 -7.01,-4.2 -14.02,-9.81 -18.23,-16.82 -5.61,-5.61 -9.82,-12.62 -11.21,-19.62 -1.41,-7.01 -1.41,-16.83 2.8,-26.64 4.2,-9.81 9.81,-16.82 18.23,-21.02 7.01,-4.21 16.82,-7.01 26.64,-8.42 9.81,-1.4 19.62,0 29.44,1.41 9.82,1.4 19.62,4.2 26.64,8.41 7.01,2.8 22.43,7.01 46.27,12.62 23.83,7.01 53.27,12.62 89.72,18.23 35.05,5.61 77.1,9.81 123.36,14.02 46.27,4.21 95.34,7.01 148.61,8.41 5.61,0 15.42,0 30.84,-1.4 14.02,0 30.84,-1.41 50.48,-2.8 18.23,-1.41 37.85,-2.8 58.88,-7.01 21.03,-2.8 39.25,-7.01 57.48,-12.62 16.82,-4.2 30.84,-11.21 42.06,-18.23 11.21,-7.01 16.82,-16.82 16.82,-26.64 0,-23.83 -21.03,-44.86 -63.09,-63.09 -42.06,-16.82 -95.33,-33.65 -158.42,-49.06 -64.49,-15.42 -133.18,-30.84 -207.49,-46.27 -74.3,-15.42 -143,-32.24 -206.08,-51.87 -64.49,-18.23 -117.76,-40.65 -159.82,-65.89 -42.05,-25.23 -63.08,-56.08 -63.08,-91.12 0,-43.46 15.42,-84.12 47.67,-120.57 30.84,-36.45 71.5,-68.69 120.56,-96.74 49.07,-28.03 105.15,-51.87 166.84,-72.9 61.68,-21.03 123.37,-37.86 185.05,-50.47 61.68,-12.62 120.57,-22.43 175.24,-29.45 54.68,-5.61 99.54,-8.41 135.99,-8.41 50.47,0 98.13,2.8 144.4,7.01 44.86,4.2 84.12,14.02 119.16,26.64 33.65,12.62 60.28,30.84 79.91,53.27 19.63,23.83 29.45,53.27 29.45,91.13z"/>
  <path id="_1" class="fil0" d="M1362.68 262.17c0,4.2 -1.41,11.21 -2.8,21.03 -1.41,9.81 -7.01,21.03 -14.02,30.84 -7.01,11.22 -18.23,21.03 -32.25,28.04 -15.42,8.41 -35.05,11.21 -61.68,9.82 -26.64,-1.41 -47.67,-7.01 -63.09,-15.42 -15.42,-7.01 -28.04,-16.83 -36.45,-28.04 -8.41,-9.82 -14.02,-21.03 -16.82,-33.65 -2.8,-11.21 -4.21,-21.03 -4.21,-30.84 0,-8.41 1.41,-18.23 2.8,-29.44 1.41,-9.82 5.61,-21.03 12.62,-30.84 7.01,-9.82 15.42,-16.83 28.04,-23.83 12.61,-7.01 28.03,-9.82 49.06,-9.82 30.84,0 56.08,5.61 74.3,15.42 18.23,9.82 32.25,22.43 42.06,35.05 9.82,12.62 15.42,25.24 18.23,37.86 2.8,12.61 4.21,19.62 4.21,23.83zm182.25 454.23c-1.4,4.21 -5.61,16.82 -11.21,36.45 -5.61,21.03 -15.42,42.06 -30.84,63.09 -15.42,21.03 -37.85,40.65 -64.49,57.48 -28.04,16.82 -64.49,25.23 -109.35,23.83 -39.25,-1.41 -71.5,-7.01 -96.74,-18.23 -25.23,-11.22 -44.86,-25.24 -58.88,-43.46 -15.42,-18.23 -25.23,-37.85 -30.84,-58.88 -7.01,-21.03 -9.81,-43.46 -11.21,-64.49 -1.4,-21.03 -1.4,-42.06 0,-61.68 1.41,-18.23 1.41,-35.05 1.41,-49.07 0,-40.65 7.01,-67.29 21.03,-79.91 12.61,-12.62 33.64,-18.23 60.28,-18.23 11.21,0 21.02,2.8 29.44,7.01 8.41,4.2 15.42,9.82 22.43,16.82 7.01,7.01 11.21,12.62 15.42,19.63 2.8,7.01 4.21,12.61 4.21,16.82 0,9.82 0,22.43 -1.41,37.85 -1.4,15.42 -4.2,33.65 -5.61,54.68 -1.41,9.82 -1.41,22.43 0,36.45 0,15.42 1.41,29.44 5.61,42.06 4.21,14.02 9.82,26.64 18.23,36.45 8.41,9.81 19.62,16.82 35.05,18.23 16.83,1.4 32.25,-1.41 46.27,-9.82 12.62,-7.01 25.23,-16.82 35.05,-29.44 9.82,-11.21 16.83,-22.43 23.83,-33.65 5.61,-11.21 8.41,-19.62 9.82,-23.83 7.01,-28.04 16.82,-46.27 28.04,-56.08 9.81,-8.42 25.23,-9.82 46.26,-5.61 9.82,1.4 16.83,11.21 21.03,26.64 2.8,16.82 1.41,36.45 -2.8,57.47l0 1.41z"/>
  <path id="_2" class="fil0" d="M2150.57 714.99c-14.02,30.84 -29.44,57.48 -46.27,81.31 -18.23,23.83 -36.44,46.27 -54.67,64.49 -19.63,19.62 -39.25,37.85 -60.28,53.27 -21.03,15.42 -40.66,29.44 -60.28,42.06 -11.21,7.01 -21.03,14.02 -30.84,21.03 -9.82,7.01 -21.03,12.62 -30.84,16.82 -1.4,21.03 -4.2,46.27 -5.61,72.9 -2.8,26.64 -7.01,51.87 -12.61,78.51 -5.61,25.23 -12.62,49.06 -21.03,71.5 -9.82,21.03 -21.03,39.25 -36.45,51.87 -32.24,28.03 -64.49,46.26 -96.74,54.67 -32.24,7.01 -58.88,11.22 -78.51,12.62 -9.81,0 -23.83,-2.8 -44.86,-7.01 -21.03,-5.61 -40.65,-15.42 -61.68,-28.03 -21.03,-12.62 -37.86,-30.84 -53.27,-51.87 -16.83,-22.43 -23.83,-50.47 -23.83,-82.71 0,-26.64 5.61,-49.07 15.42,-70.1 11.22,-21.03 23.83,-37.85 39.25,-53.27 15.42,-15.42 30.84,-26.64 46.27,-36.45 15.42,-9.82 29.44,-16.82 39.25,-21.03 9.81,-4.2 29.44,-11.21 60.28,-21.03 30.84,-11.21 65.89,-25.23 105.15,-40.65 0,-7.01 0,-11.22 1.4,-12.62 1.41,-8.41 1.41,-19.62 2.8,-32.24 0,-12.62 1.41,-28.04 2.8,-43.46 -35.05,21.03 -68.69,35.05 -100.94,44.86 -32.24,9.82 -56.08,14.02 -71.5,14.02 -11.22,0 -26.64,-2.8 -47.67,-7.01 -21.03,-5.61 -42.06,-15.42 -61.69,-29.44 -21.03,-12.62 -39.25,-30.84 -54.67,-54.68 -15.42,-22.43 -22.43,-51.87 -22.43,-86.92 0,-35.05 8.41,-64.49 25.24,-91.13 16.82,-25.23 37.85,-46.26 64.49,-63.09 26.64,-16.82 54.68,-29.44 86.92,-37.85 32.24,-7.01 61.68,-11.21 91.13,-9.82 26.64,1.41 51.87,2.8 72.9,7.01 21.03,4.21 40.66,9.82 56.08,16.82 4.2,-16.82 9.81,-29.44 15.42,-39.25 5.61,-8.42 15.42,-14.02 28.04,-15.42 21.03,-2.8 40.65,0 57.48,8.41 16.82,8.41 29.44,18.23 36.45,30.84 7.01,12.61 8.41,25.23 4.2,39.25 -5.61,15.42 -12.62,37.86 -19.62,68.7 0,4.2 -1.41,9.81 -4.21,18.22 -4.2,15.42 -9.81,29.45 -14.02,39.25 -4.21,18.23 -7.01,43.46 -8.41,75.71 -1.41,32.24 -4.21,64.49 -5.61,99.54 26.64,-12.62 51.87,-26.64 74.3,-42.06 21.03,-14.02 37.85,-28.04 49.06,-40.66 9.82,-12.61 21.03,-25.23 32.25,-37.85 11.21,-12.62 22.43,-29.44 33.64,-50.47 7.01,-12.62 12.62,-23.83 16.83,-33.65 4.2,-8.41 9.82,-15.42 14.02,-21.03 4.21,-4.2 9.82,-8.41 16.83,-9.82 7.01,-1.4 15.42,0 25.23,2.81 4.21,1.4 8.41,4.2 12.62,9.81 4.2,5.61 7.01,12.62 8.41,21.03 1.41,8.41 2.8,16.83 2.8,26.64 -1.4,9.82 -2.8,18.23 -7.01,26.64l-1.4 0zm-399.55 -57.47c-9.81,-4.21 -21.03,-7.01 -33.64,-11.22 -12.62,-2.8 -26.64,-4.2 -42.06,-4.2 -23.83,0 -43.46,4.2 -61.69,12.62 -18.23,8.41 -33.65,18.23 -44.86,30.84 -11.21,12.62 -18.23,23.83 -21.03,36.45 -4.2,12.62 -1.4,23.83 5.61,32.24 7.01,8.42 18.23,12.62 35.05,14.02 16.82,1.4 35.05,-1.41 53.27,-5.61 18.23,-4.21 35.05,-12.62 51.87,-23.83 15.42,-9.82 28.03,-22.43 35.05,-37.86 4.2,-7.01 7.01,-15.42 11.21,-22.43 4.21,-7.01 7.01,-12.62 9.82,-19.63l1.4 -1.4zm-19.62 399.55c-16.83,7.01 -35.05,12.62 -53.27,19.63 -19.63,7.01 -42.06,14.02 -65.89,22.43 -14.02,4.21 -25.24,11.22 -35.05,21.03 -9.81,9.82 -15.42,19.63 -19.62,29.44 -4.21,9.82 -4.21,21.03 0,32.25 4.2,9.81 12.62,19.62 25.23,28.03 11.22,7.01 21.03,11.22 30.84,11.22 9.82,0 18.23,-1.41 26.64,-4.21 7.01,-2.8 14.02,-7.01 21.03,-11.21 7.01,-5.61 12.62,-11.22 16.83,-15.42 15.42,-15.42 28.03,-33.65 36.44,-57.48 7.01,-23.83 12.62,-49.07 16.83,-75.71z"/>
  <path id="_3" class="fil0" d="M2726.76 716.39c-7.01,16.82 -15.42,33.65 -25.23,51.87 -11.22,18.23 -25.24,33.64 -40.66,47.67 -15.42,15.42 -35.05,26.64 -57.48,36.45 -23.83,9.81 -50.47,14.02 -79.91,14.02 -30.84,0 -56.08,-5.61 -77.1,-16.82 -21.03,-11.22 -37.86,-23.83 -50.47,-39.25 -12.62,-15.42 -22.43,-30.84 -29.45,-46.27 -7.01,-15.42 -11.21,-26.64 -14.02,-33.65 -2.8,-7.01 -5.61,-16.82 -7.01,-26.64 -2.8,-9.81 -5.61,-21.03 -7.01,-30.84 -1.41,-9.82 -4.21,-18.23 -5.61,-25.24 -1.41,-7.01 -4.21,-11.21 -7.01,-12.62 -2.8,-1.4 -7.01,1.41 -11.21,5.61 -4.21,5.61 -9.82,12.62 -14.02,21.03 -5.61,8.41 -11.21,16.83 -15.42,25.24 -5.61,9.82 -9.82,16.82 -12.62,21.03 -2.8,4.2 -7.01,11.21 -11.21,21.03 -5.61,9.82 -9.82,21.03 -14.02,32.24 -4.2,11.21 -8.41,21.03 -12.62,30.84 -4.2,9.81 -5.61,18.23 -5.61,22.43 -1.4,9.82 -7.01,19.63 -15.42,26.64 -9.81,8.42 -16.82,12.62 -21.03,14.02 -4.2,1.4 -12.61,1.4 -25.23,0 -12.62,-1.41 -30.84,-8.42 -54.68,-22.43 -11.21,-7.01 -19.62,-23.83 -25.23,-50.47 -7.01,-26.64 -11.22,-54.68 -14.02,-86.92 -4.2,-30.84 -5.61,-60.28 -7.01,-89.72 -1.41,-29.44 -1.41,-49.07 -1.41,-61.68 -1.4,-47.67 23.83,-67.3 78.51,-58.89 14.02,2.8 25.23,7.01 33.65,14.02 8.41,7.01 15.42,14.02 19.62,22.43 4.21,8.41 8.41,16.82 9.82,23.83 1.4,8.41 1.4,15.42 1.4,19.63 1.41,21.03 5.61,30.84 9.82,30.84 1.41,0 4.21,-2.8 9.82,-9.81 4.2,-5.61 11.21,-12.62 18.23,-22.43 7.01,-8.41 15.42,-18.23 25.23,-29.44 9.82,-9.82 18.23,-19.63 28.04,-28.04 9.82,-8.41 21.03,-15.42 33.65,-19.62 12.61,-4.21 25.23,-5.61 39.25,-7.01 12.61,-1.4 26.64,-1.4 39.25,0 12.62,1.41 22.43,4.21 32.25,7.01 9.81,4.2 16.82,9.81 22.43,19.62 4.21,9.82 8.41,21.03 11.21,33.65 1.41,14.02 2.81,29.44 4.21,44.86 0,16.82 0,33.65 0,50.47 0,16.83 0,32.24 1.41,47.67 1.4,15.42 2.8,28.04 7.01,37.86 4.21,11.21 9.82,19.62 18.23,26.64 7.01,7.01 18.23,9.81 30.84,9.81 26.64,0 49.06,-7.01 65.89,-19.62 15.42,-12.62 26.64,-28.04 32.24,-46.27 9.82,-26.64 18.23,-44.86 28.04,-54.67 9.81,-8.42 23.83,-9.82 44.86,-5.61 4.2,1.4 8.41,4.2 12.62,11.21 4.2,7.01 7.01,14.02 8.41,22.43 1.4,8.42 1.4,16.83 1.4,26.64 -1.4,9.82 -2.8,16.83 -5.61,23.83l0 1.41z"/>
  <path id="_4" class="fil0" d="M3364.64 629.47c8.41,1.41 14.02,8.41 18.23,21.03 4.21,12.62 4.21,28.04 2.8,46.27 -2.8,18.22 -8.41,36.44 -16.82,56.08 -8.41,21.03 -21.03,39.25 -36.45,56.08 -15.42,16.83 -35.05,30.84 -58.88,42.06 -23.84,11.21 -51.87,16.82 -84.12,15.42 -30.84,-1.41 -56.08,-5.61 -77.11,-12.62 -21.03,-7.01 -37.85,-16.82 -50.47,-26.64 -15.42,-9.82 -26.64,-22.43 -36.45,-37.85 -18.23,15.42 -36.44,28.03 -57.47,39.25 -18.23,9.81 -37.86,19.62 -60.28,26.64 -23.83,8.41 -47.67,12.61 -72.9,12.61 -7.01,0 -19.62,-1.4 -40.65,-5.61 -21.03,-4.2 -43.46,-11.21 -65.89,-23.83 -23.83,-11.21 -43.46,-28.03 -60.28,-50.47 -18.23,-22.43 -26.64,-51.87 -26.64,-88.32 0,-36.45 8.41,-68.69 26.64,-98.14 18.23,-28.03 39.25,-51.87 65.89,-71.5 26.64,-18.23 54.67,-32.24 85.52,-42.06 29.44,-9.81 57.48,-14.02 82.72,-14.02 15.42,0 30.84,1.41 44.86,2.8 12.61,2.8 25.23,5.61 35.05,8.41 11.21,4.21 21.03,7.01 30.84,11.21 1.4,1.41 2.8,1.41 4.2,0 1.41,0 5.61,-1.4 11.21,-5.61 1.41,-1.4 5.61,-2.8 11.22,-5.61 4.2,-2.8 11.21,-4.2 19.62,-5.61 7.01,0 16.83,1.41 26.64,2.8 9.82,1.41 19.63,7.01 32.24,14.02 12.62,7.01 21.03,15.42 26.64,22.43 5.61,8.41 9.81,15.42 11.21,22.43 1.4,7.01 2.8,14.02 1.4,19.62 -1.4,5.61 -1.4,9.82 -1.4,12.62 0,2.8 -1.41,8.41 -4.21,16.82 -2.8,9.82 -5.61,19.63 -8.41,30.84 -2.8,11.21 -5.61,23.83 -7.01,36.45 -1.4,12.61 -2.8,25.23 -1.4,37.85 1.4,23.83 7.01,40.65 14.02,47.67 7.01,7.01 19.63,12.62 35.05,16.83 7.01,1.4 16.83,1.4 28.04,0 9.82,-1.41 21.03,-4.21 32.24,-9.82 9.82,-5.61 19.63,-12.62 28.04,-22.43 8.41,-9.81 14.02,-21.03 16.82,-35.05 4.21,-18.23 9.82,-30.84 16.83,-40.65 7.01,-9.82 14.02,-15.42 21.03,-19.63 7.01,-4.21 14.02,-5.61 21.03,-5.61 7.01,1.4 12.62,1.4 16.82,2.8zm-370.11 9.82c-1.41,0 -4.21,0 -5.61,-1.41 -4.21,-2.8 -7.01,-5.61 -8.42,-7.01 -1.4,-4.21 -2.8,-8.42 -4.2,-9.82 -1.41,-1.41 -2.8,-4.21 -7.01,-5.61 -11.21,-2.8 -23.83,-4.21 -39.25,-5.61 -15.42,0 -30.84,2.8 -46.26,7.01 -15.42,4.21 -29.45,12.62 -42.06,22.43 -12.62,11.21 -22.43,26.64 -28.04,47.67 -4.21,12.62 -4.21,23.83 0,32.24 2.8,8.41 8.41,15.42 15.42,19.63 7.01,4.2 16.82,7.01 26.64,8.41 9.82,1.4 19.62,0 29.44,-2.8 23.83,-5.61 43.46,-14.02 58.89,-25.24 14.02,-11.21 25.23,-22.43 32.24,-35.05 9.81,-14.02 15.42,-29.44 18.23,-44.86z"/>
  <path id="_5" class="fil0" d="M3702.51 713.59c-2.8,8.41 -8.41,21.03 -18.23,37.85 -9.82,16.83 -23.83,33.65 -40.65,50.47 -16.83,16.83 -37.86,30.84 -61.69,43.46 -23.83,12.62 -51.87,19.62 -84.12,19.62 -40.65,0 -72.9,-7.01 -99.54,-22.43 -26.64,-15.42 -46.26,-35.05 -61.68,-58.88 -15.42,-23.83 -26.64,-50.48 -32.24,-79.92 -5.61,-29.44 -8.41,-57.48 -8.41,-85.52 0,-23.83 1.4,-53.27 2.8,-86.92 1.4,-32.24 4.2,-65.89 5.61,-98.13 -29.44,0 -56.08,0 -81.31,0 -25.24,0 -42.06,-1.41 -50.47,-2.81 -7.01,-1.4 -12.62,-4.2 -18.23,-8.41 -4.21,-4.2 -7.01,-11.21 -8.41,-21.03 0,-4.2 1.4,-11.21 4.2,-19.62 2.8,-8.41 7.01,-14.02 11.22,-18.23 5.61,-5.61 14.02,-11.21 26.64,-16.82 12.61,-5.61 28.03,-8.42 43.46,-9.82l81.31 -2.8c1.41,-12.62 2.8,-23.83 4.21,-32.24 0,-8.42 0,-14.02 1.4,-16.83 1.41,-7.01 1.41,-15.42 2.8,-25.23 0,-9.82 0,-21.03 1.41,-32.25 1.4,-11.21 2.8,-22.43 4.2,-32.24 1.41,-9.82 2.8,-18.23 5.61,-25.23 5.61,-15.42 14.02,-28.04 26.64,-37.86 12.61,-9.82 26.64,-14.02 42.06,-15.42 15.42,0 28.03,4.21 36.44,14.02 7.01,9.81 14.02,16.82 18.23,21.03 4.21,4.2 9.82,11.21 16.83,23.83 5.61,12.61 5.61,30.84 1.4,54.67 -1.4,8.42 -4.2,21.03 -5.61,39.25 -2.8,18.23 -5.61,37.86 -9.82,60.28 29.45,-1.4 50.48,-1.4 60.28,0 18.23,0 33.65,0 44.86,-1.4 9.82,0 21.03,2.8 32.25,7.01 9.81,4.21 15.42,9.82 15.42,15.42 0,5.61 -1.4,11.21 -2.8,18.23 -1.4,5.61 -5.61,14.02 -14.02,26.64 -9.82,12.62 -23.83,21.03 -42.06,22.43 -9.82,1.4 -25.24,2.8 -43.46,5.61 -19.63,2.8 -40.66,5.61 -61.69,7.01 -2.8,25.24 -5.61,49.07 -7.01,70.1 -2.8,21.03 -5.61,39.25 -7.01,51.87 -1.41,16.82 -2.8,36.45 -2.8,60.28 -1.41,23.83 1.4,47.67 5.61,68.69 4.2,22.43 11.21,40.65 22.43,56.08 9.82,15.42 26.64,23.83 47.67,23.83 21.03,0 39.25,-2.8 53.28,-9.82 12.61,-7.01 23.83,-14.02 30.84,-22.43 7.01,-8.41 12.62,-16.83 15.42,-23.83 2.8,-7.01 4.21,-12.62 5.61,-14.02 12.62,-29.44 22.43,-47.67 30.84,-56.08 8.41,-7.01 22.43,-8.41 43.46,-4.2 9.81,2.8 18.22,12.61 23.83,28.03 4.2,16.83 2.8,35.05 -5.61,56.08l-1.4 -1.4z"/>
  <path id="_6" class="fil0" d="M4323.56 716.39c-1.4,5.61 -7.01,16.82 -16.82,32.24 -9.82,15.42 -22.43,32.24 -40.66,47.67 -18.22,16.83 -40.65,30.84 -67.29,43.46 -28.04,12.62 -60.28,19.62 -98.13,19.62 -26.64,0 -50.47,-4.2 -71.5,-11.21 -21.03,-7.01 -39.25,-16.82 -53.28,-26.64 -16.82,-9.82 -30.84,-22.43 -43.46,-37.85 -12.62,15.42 -28.04,29.44 -44.86,42.06 -14.02,9.81 -30.84,19.62 -50.47,28.03 -21.03,8.41 -43.46,12.62 -67.3,12.62 -23.83,0 -46.26,-4.21 -64.49,-14.02 -19.63,-9.82 -36.45,-22.43 -49.07,-37.86 -14.02,-15.42 -25.24,-32.24 -32.24,-50.47 -7.01,-18.23 -11.21,-36.45 -11.21,-54.68 0,-18.23 0,-37.85 1.4,-60.28 1.41,-21.03 2.8,-42.05 5.61,-63.08 1.41,-19.63 5.61,-36.45 9.82,-51.87 4.21,-15.42 8.41,-25.24 15.42,-29.44 12.62,-7.01 25.23,-11.22 35.05,-12.62 9.82,-1.41 18.23,-1.41 23.83,0 2.8,0 8.41,0 15.42,0 7.01,1.4 14.02,2.8 21.03,7.01 7.01,4.2 14.02,9.81 19.62,18.22 4.21,9.82 5.61,22.43 4.21,39.25 -4.21,35.05 -8.41,60.28 -11.21,77.11 -4.21,16.82 -5.61,30.84 -5.61,43.46 0,5.61 1.4,11.21 5.61,18.23 2.8,7.01 7.01,14.02 12.62,21.03 5.61,7.01 12.61,14.02 22.43,18.23 8.41,4.21 18.23,7.01 29.44,7.01 23.83,-1.41 44.86,-14.02 64.49,-37.86 19.62,-23.83 32.24,-56.08 36.45,-95.33 1.4,-7.01 2.8,-15.42 4.2,-28.04 1.41,-11.21 2.8,-22.43 4.21,-35.05 1.4,-11.21 4.2,-21.03 7.01,-30.84 2.8,-8.41 5.61,-14.02 8.42,-16.82 5.61,-4.21 16.82,-8.41 32.24,-11.21 15.42,-2.8 28.03,-2.8 39.25,0 12.61,2.8 25.23,11.21 37.85,25.23 12.62,14.02 18.23,30.84 15.42,49.07 -1.41,9.82 -4.21,21.03 -5.61,36.45 -2.8,15.42 -4.21,29.44 -5.61,44.86 -1.41,15.42 -1.41,30.84 0,44.86 1.4,14.02 4.2,25.23 8.41,32.24 9.82,15.42 23.83,26.64 39.25,33.65 15.42,8.41 37.85,5.61 68.69,-8.41 18.23,-8.42 32.24,-18.23 42.06,-28.04 8.41,-9.82 14.02,-18.23 18.23,-26.64 7.01,-12.62 12.61,-22.43 18.23,-32.24 4.2,-8.42 9.81,-15.42 14.02,-19.63 4.21,-4.2 9.82,-8.41 16.82,-9.82 7.01,-1.4 15.42,0 25.24,2.81 9.82,2.8 18.23,12.61 23.83,28.03 4.21,16.83 2.8,35.05 -5.61,56.08l-1.41 1.41z"/>
  <path id="_7" class="fil0" d="M4850.7 714.99c-1.41,5.61 -7.01,14.02 -14.02,26.64 -8.41,12.61 -19.62,26.64 -32.24,40.65 -14.02,15.42 -29.44,29.44 -47.67,42.06 -18.23,14.02 -39.25,23.83 -61.68,30.84 -23.83,7.01 -49.07,9.81 -75.71,8.41 -26.64,-1.41 -56.08,-11.21 -86.92,-26.64 -26.64,-14.02 -46.27,-30.84 -58.88,-51.87 -12.62,-19.62 -22.43,-39.25 -26.64,-60.28 -4.2,-21.03 -7.01,-39.25 -5.61,-56.08 0,-16.82 0,-29.44 -1.4,-37.85 -1.41,-7.01 -5.61,-12.62 -14.02,-16.83 -9.81,-2.8 -19.62,-4.2 -29.44,-5.61 -11.21,0 -21.03,0 -29.44,1.41 -8.41,1.4 -12.62,1.4 -12.62,1.4 -4.2,15.42 -7.01,30.84 -11.21,46.27 -4.21,12.61 -8.41,26.64 -12.62,42.06 -4.2,15.42 -9.81,28.03 -16.82,37.85 -12.62,21.03 -23.83,32.24 -35.05,33.65 -11.22,1.4 -23.83,-2.8 -36.45,-12.62 -7.01,-4.21 -12.62,-11.21 -14.02,-19.62 -1.4,-8.42 -1.4,-16.83 0,-26.64 1.41,-9.81 4.21,-18.22 7.01,-26.64 2.8,-7.01 5.61,-14.02 7.01,-18.23 1.4,-5.61 5.61,-12.61 9.81,-22.43 4.21,-9.82 7.01,-19.63 11.22,-32.24 4.2,-12.62 7.01,-25.24 11.21,-37.86 2.8,-12.62 4.21,-25.23 5.61,-36.45 1.41,-12.61 1.41,-28.03 1.41,-43.46 0,-15.42 -1.41,-28.04 -4.21,-37.85 -1.41,-4.21 1.41,-9.82 5.61,-16.83 4.21,-7.01 9.82,-12.62 16.83,-19.62 7.01,-5.61 15.42,-11.21 25.23,-15.42 9.82,-4.21 18.23,-5.61 28.04,-4.21 18.23,1.41 32.24,8.42 43.46,18.23 9.82,9.82 18.23,28.04 22.43,54.68 1.4,9.82 8.41,15.42 19.62,14.02 11.21,-1.4 21.03,-1.4 28.04,-1.4 15.42,0 28.03,1.4 37.85,2.8 9.82,1.4 19.63,4.2 26.64,7.01 7.01,4.21 15.42,8.42 22.43,12.62 7.01,4.21 14.02,9.82 21.03,15.42 15.42,11.21 21.03,26.64 19.62,47.67 -1.4,21.03 -4.2,37.86 -8.41,53.27 -1.4,7.01 -4.21,18.23 -5.61,30.84 -1.41,14.02 -1.41,28.04 1.4,40.66 1.41,12.61 7.01,25.23 16.83,35.05 9.82,9.82 25.23,15.42 46.26,15.42 21.03,0 39.25,-2.8 54.68,-8.41 14.02,-4.21 25.24,-9.82 33.65,-16.83 8.41,-7.01 15.42,-12.62 19.62,-19.62 4.21,-5.61 5.61,-9.82 5.61,-11.22 9.82,-28.03 21.03,-46.26 30.84,-56.08 9.82,-8.41 23.83,-9.82 44.86,-5.61 9.82,1.41 18.23,11.21 22.43,28.04 4.2,16.82 1.4,36.45 -5.61,57.47z"/>
  <path id="_8" class="fil0" d="M5411.47 714.99c-7.01,18.23 -21.03,36.45 -40.65,57.48 -19.62,21.03 -44.86,40.66 -75.71,58.89 -32.24,18.23 -68.69,33.64 -112.15,46.26 -43.46,12.62 -92.53,18.23 -145.81,18.23 -54.67,0 -99.53,-5.61 -137.39,-16.82 -37.85,-12.62 -67.29,-28.04 -89.72,-49.07 -23.83,-21.03 -39.25,-44.86 -46.26,-72.9 -8.42,-26.64 -9.82,-57.47 -5.61,-89.72 5.61,-37.85 19.63,-70.09 43.46,-93.93 22.43,-23.83 47.67,-43.46 75.71,-57.48 28.03,-14.02 56.08,-23.83 84.12,-29.44 28.03,-4.21 50.47,-7.01 67.29,-7.01 16.83,0 35.05,1.41 56.08,5.61 21.03,4.21 40.66,9.82 58.89,18.23 18.23,8.41 32.24,19.63 44.86,33.65 12.62,14.02 18.23,32.24 18.23,53.27 0,21.03 -4.21,40.66 -14.02,58.88 -9.81,18.23 -22.43,35.05 -37.85,49.07 -15.42,15.42 -33.65,26.64 -54.68,36.45 -21.03,9.82 -42.06,18.23 -64.49,22.43 -32.24,7.01 -60.28,11.22 -81.31,11.22 9.82,9.81 23.83,18.23 39.25,25.23 15.42,7.01 32.24,11.22 51.87,11.22 43.46,0 81.31,-4.21 114.95,-14.02 33.65,-9.82 61.69,-21.03 85.52,-33.65 22.43,-12.61 40.65,-25.23 53.27,-37.85 12.62,-12.62 21.03,-22.43 22.43,-28.04 9.82,-26.64 19.63,-44.86 29.45,-54.67 8.41,-8.42 22.43,-9.82 43.46,-5.61 9.82,1.4 18.23,11.21 22.43,28.03 4.2,16.83 1.4,35.05 -5.61,56.08zm-353.29 -100.94c-4.2,-8.41 -11.21,-14.02 -22.43,-15.42 -11.21,-1.4 -28.04,0 -49.07,5.61 -18.23,4.21 -33.65,12.62 -43.46,25.24 -9.82,12.62 -16.83,28.04 -19.63,43.46 12.62,1.4 28.04,2.8 44.86,2.8 15.42,1.4 32.25,-2.8 50.47,-9.82 18.23,-7.01 29.45,-15.42 36.45,-25.24 7.01,-9.81 7.01,-18.23 2.8,-26.64z"/>
  <path id="_9" class="fil0" d="M1204.26 1749.62c0,37.85 -7.01,67.29 -22.43,91.12 -15.42,23.83 -33.65,42.06 -54.68,56.08 -21.03,14.02 -43.46,23.83 -65.89,30.84 -22.43,7.01 -40.65,14.02 -56.08,18.23 -23.83,8.41 -40.65,9.82 -49.07,5.61 -8.41,-4.2 -16.82,-15.42 -25.23,-32.24 -4.21,-8.41 -5.61,-16.82 -4.21,-23.83 1.41,-7.01 4.21,-14.02 8.41,-19.62 4.21,-7.01 9.82,-12.62 16.83,-18.23 14.02,-4.21 26.64,-11.22 37.85,-19.63 9.82,-7.01 19.63,-15.42 28.04,-25.23 7.01,-9.82 11.21,-22.43 11.21,-35.05 0,-14.02 -7.01,-25.23 -21.03,-32.24 -14.02,-7.01 -32.24,-11.21 -56.08,-14.02 -23.83,-1.41 -50.47,-2.8 -81.31,-1.41 -30.84,1.41 -63.09,2.8 -95.33,4.21 -23.83,1.4 -53.27,5.61 -89.72,9.82 -36.45,4.2 -74.3,11.21 -114.96,19.62 -40.65,8.41 -81.31,18.23 -121.97,28.04 -40.66,11.21 -78.51,23.83 -110.75,36.45 -33.65,12.61 -60.28,26.64 -81.31,40.65 -21.03,15.42 -30.84,29.44 -30.84,44.86 0,12.62 12.62,25.24 37.86,37.85 23.83,12.62 57.47,25.24 98.13,37.86 40.65,12.61 86.92,23.83 138.79,36.45 51.87,12.61 105.15,26.64 159.82,40.65 54.68,15.42 107.95,30.84 159.82,46.27 51.87,16.82 96.73,35.05 137.39,54.67 40.65,19.63 72.9,40.66 96.74,64.49 23.83,23.83 36.44,49.06 35.05,78.51 -1.41,28.03 -12.62,54.67 -35.05,79.91 -23.83,26.64 -54.68,49.06 -93.93,68.69 -39.25,19.62 -85.52,35.05 -138.79,46.26 -54.67,11.22 -112.15,16.83 -175.24,16.83 -61.69,0 -120.57,-2.8 -178.05,-9.82 -57.48,-7.01 -109.35,-15.42 -154.21,-25.23 -46.27,-9.82 -84.12,-21.03 -114.96,-30.84 -30.84,-9.82 -50.47,-18.23 -60.28,-25.24 -7.01,-4.2 -12.62,-9.81 -19.62,-15.42 -7.01,-4.2 -14.02,-9.81 -18.23,-16.82 -5.61,-5.61 -9.82,-12.62 -11.21,-19.62 -1.41,-7.01 -1.41,-16.83 2.8,-26.64 4.2,-9.81 9.81,-16.82 18.23,-21.02 7.01,-4.21 16.82,-7.01 26.64,-8.42 9.81,-1.4 19.62,0 29.44,1.41 9.82,1.4 19.62,4.2 26.64,8.41 7.01,2.8 22.43,7.01 46.27,12.62 23.83,7.01 53.27,12.62 89.72,18.23 35.05,5.61 77.1,9.81 123.36,14.02 46.27,4.21 95.34,7.01 148.61,8.41 5.61,0 15.42,0 30.84,-1.4 14.02,0 30.84,-1.41 50.48,-2.8 18.23,-1.41 37.85,-2.8 58.88,-7.01 21.03,-2.8 39.25,-7.01 57.48,-12.62 16.82,-4.2 30.84,-11.21 42.06,-18.23 11.21,-7.01 16.82,-16.82 16.82,-26.64 0,-23.83 -21.03,-44.86 -63.09,-63.09 -42.06,-16.82 -95.33,-33.65 -158.42,-49.06 -64.49,-15.42 -133.18,-30.84 -207.49,-46.27 -74.3,-15.42 -143,-32.24 -206.08,-51.87 -64.49,-18.23 -117.76,-40.65 -159.82,-65.89 -42.05,-25.23 -63.08,-56.08 -63.08,-91.12 0,-43.46 15.42,-84.12 47.67,-120.57 30.84,-36.45 71.5,-68.69 120.56,-96.74 49.07,-28.03 105.15,-51.87 166.84,-72.9 61.68,-21.03 123.37,-37.86 185.05,-50.47 61.68,-12.62 120.57,-22.43 175.24,-29.45 54.68,-5.61 99.54,-8.41 135.99,-8.41 50.47,0 98.13,2.8 144.4,7.01 44.86,4.2 84.12,14.02 119.16,26.64 33.65,12.62 60.28,30.84 79.91,53.27 19.63,23.83 29.45,53.27 29.45,91.13z"/>
  <path id="_10" class="fil0" d="M1669.7 2202.45c0,46.26 -9.81,85.52 -28.03,114.95 -19.63,29.44 -43.46,53.27 -70.1,70.1 -28.03,18.23 -57.48,29.44 -86.92,36.45 -29.44,7.01 -56.08,9.81 -78.51,9.81 -23.83,0 -47.67,-1.4 -68.69,-2.8 -22.43,-1.4 -42.06,-5.61 -60.28,-9.81 -1.4,9.81 -2.8,14.02 -2.8,15.42 -4.2,15.42 -8.41,35.05 -14.02,61.69 -7.01,26.64 -11.21,50.47 -14.02,72.9 -1.41,11.22 -4.21,25.24 -5.61,42.06 -2.8,15.42 -4.21,33.65 -5.61,51.87 -1.4,18.23 -2.8,35.05 -2.8,53.27 0,16.83 1.41,32.25 4.21,46.27 1.41,12.62 0,23.83 -5.61,32.24 -5.61,7.01 -14.02,12.62 -23.83,15.42 -11.21,1.41 -23.83,1.41 -36.45,-2.8 -14.02,-4.21 -28.04,-11.21 -42.06,-22.43 -14.02,-11.21 -23.83,-28.03 -28.04,-49.06 -4.2,-22.43 -7.01,-46.27 -5.61,-72.9 1.41,-26.64 4.21,-54.68 8.41,-82.71 5.61,-28.04 11.22,-53.27 15.42,-75.71 4.21,-22.43 8.42,-49.07 12.62,-82.71 4.21,-32.25 7.01,-64.49 8.41,-99.54 1.41,-35.05 2.8,-67.3 2.8,-99.54 -1.4,-32.24 -2.8,-58.88 -5.61,-79.91 -2.8,-21.03 -1.4,-37.86 2.8,-50.47 4.21,-12.62 9.82,-21.03 16.83,-28.04 7.01,-7.01 16.82,-11.21 26.64,-12.62 9.82,-1.4 18.23,-2.8 26.64,-2.8 7.01,0 15.42,1.41 25.23,2.8 8.42,1.41 16.83,5.61 23.84,12.62 7.01,7.01 14.02,15.42 21.03,28.04 7.01,12.61 11.21,29.44 15.42,50.47 9.82,-15.42 23.83,-28.04 42.06,-40.66 18.23,-11.21 36.45,-21.03 56.08,-28.03 19.62,-7.01 37.85,-12.62 54.67,-16.83 15.42,-4.2 28.04,-5.61 35.05,-5.61 7.01,0 21.03,1.41 42.06,4.21 21.03,2.8 42.06,8.41 63.09,18.23 21.03,9.81 40.65,25.23 57.47,44.86 16.83,21.03 25.24,47.67 25.24,82.71l-1.41 -1.4zm-155.61 26.64c0,-2.8 0,-7.01 0,-14.02 0,-7.01 -1.4,-12.61 -5.61,-19.62 -4.2,-5.61 -12.62,-9.82 -22.43,-14.02 -9.82,-2.8 -26.64,-2.8 -47.67,0 -37.86,5.61 -67.3,19.62 -88.33,43.46 -21.03,23.83 -37.85,50.47 -47.67,78.51 2.8,1.4 11.21,4.2 23.83,5.61 12.62,1.41 33.65,2.8 60.28,2.8 21.03,0 40.65,-4.21 56.08,-11.21 15.42,-7.01 29.44,-15.42 39.25,-25.24 9.82,-9.81 18.23,-18.23 23.83,-28.03 4.21,-9.82 7.01,-15.42 7.01,-18.23l1.4 0z"/>
  <path id="_11" class="fil0" d="M2339.83 2286.56c-7.01,18.23 -21.03,36.45 -40.65,57.48 -19.62,21.03 -44.86,40.66 -75.71,58.89 -32.24,18.23 -68.69,33.64 -112.15,46.26 -43.46,12.62 -92.53,18.23 -145.81,18.23 -54.67,0 -99.53,-5.61 -137.39,-16.82 -37.85,-12.62 -67.29,-28.04 -89.72,-49.07 -23.83,-21.03 -39.25,-44.86 -46.26,-72.9 -8.42,-26.64 -9.82,-57.47 -5.61,-89.72 5.61,-37.85 19.63,-70.09 43.46,-93.93 22.43,-23.83 47.67,-43.46 75.71,-57.48 28.03,-14.02 56.08,-23.83 84.12,-29.44 28.03,-4.21 50.47,-7.01 67.29,-7.01 16.83,0 35.05,1.41 56.08,5.61 21.03,4.21 40.66,9.82 58.89,18.23 18.23,8.41 32.24,19.63 44.86,33.65 12.62,14.02 18.23,32.24 18.23,53.27 0,21.03 -4.21,40.66 -14.02,58.88 -9.81,18.23 -22.43,35.05 -37.85,49.07 -15.42,15.42 -33.65,26.64 -54.68,36.45 -21.03,9.82 -42.06,18.23 -64.49,22.43 -32.24,7.01 -60.28,11.22 -81.31,11.22 9.82,9.81 23.83,18.23 39.25,25.23 15.42,7.01 32.24,11.22 51.87,11.22 43.46,0 81.31,-4.21 114.95,-14.02 33.65,-9.82 61.69,-21.03 85.52,-33.65 22.43,-12.61 40.65,-25.23 53.27,-37.85 12.62,-12.62 21.03,-22.43 22.43,-28.04 9.82,-26.64 19.63,-44.86 29.45,-54.67 8.41,-8.42 22.43,-9.82 43.46,-5.61 9.82,1.4 18.23,11.21 22.43,28.03 4.2,16.83 1.4,35.05 -5.61,56.08zm-353.29 -100.94c-4.2,-8.41 -11.21,-14.02 -22.43,-15.42 -11.21,-1.4 -28.04,0 -49.07,5.61 -18.23,4.21 -33.65,12.62 -43.46,25.24 -9.82,12.62 -16.83,28.04 -19.63,43.46 12.62,1.4 28.04,2.8 44.86,2.8 15.42,1.4 32.25,-2.8 50.47,-9.82 18.23,-7.01 29.45,-15.42 36.45,-25.24 7.01,-9.81 7.01,-18.23 2.8,-26.64z"/>
  <path id="_12" class="fil0" d="M2900.6 2287.96c-4.21,11.21 -9.82,22.43 -16.83,33.65 -7.01,11.21 -14.02,19.62 -19.62,23.83 -29.44,26.64 -63.09,47.67 -99.54,61.68 -36.45,14.02 -71.5,23.83 -105.15,30.84 -33.64,8.41 -63.09,11.21 -88.32,12.62 -26.64,1.4 -43.46,1.4 -51.87,1.4 -5.61,0 -16.82,0 -32.24,0 -15.42,0 -33.65,-1.4 -54.68,-4.2 -21.03,-2.8 -42.06,-7.01 -64.49,-14.02 -23.83,-7.01 -44.86,-16.82 -63.09,-29.44 -18.23,-12.62 -33.65,-28.03 -46.27,-47.67 -12.62,-19.62 -18.23,-44.86 -16.82,-74.3 1.4,-49.07 11.21,-88.33 30.84,-119.16 19.62,-29.45 43.46,-53.28 71.5,-71.5 28.03,-18.23 57.47,-29.45 88.32,-36.45 30.84,-7.01 57.48,-9.82 81.31,-9.82 39.25,0 70.1,4.21 92.53,12.62 22.43,9.81 39.25,19.62 51.87,32.24 11.21,12.62 18.23,25.24 22.43,37.85 4.21,12.62 5.61,23.83 5.61,33.65 0,8.41 -1.4,19.63 -4.2,32.24 -2.8,12.62 -7.01,25.24 -14.02,37.86 -7.01,12.62 -14.02,23.83 -23.84,32.24 -9.81,9.82 -22.43,14.02 -36.44,14.02 -14.02,0 -25.24,-2.8 -32.25,-8.41 -7.01,-4.2 -12.61,-9.82 -15.42,-16.82 -4.21,-5.61 -5.61,-11.22 -7.01,-18.23 -1.41,-7.01 -1.41,-11.21 -1.41,-14.02 0,-2.8 0,-7.01 0,-12.61 0,-5.61 -1.4,-11.22 -2.8,-15.42 -1.4,-4.21 -5.61,-8.41 -9.81,-12.62 -5.61,-4.21 -12.62,-5.61 -22.43,-5.61 -19.62,0 -36.45,4.21 -50.47,12.62 -14.02,8.41 -25.24,18.23 -35.05,29.44 -9.82,11.21 -15.42,22.43 -19.63,32.24 -4.2,9.82 -7.01,16.83 -7.01,21.03 0,4.21 0,12.62 1.4,22.43 0,9.81 4.21,21.03 14.02,30.84 8.42,9.82 22.43,19.63 43.46,28.04 19.62,8.41 49.06,12.62 88.32,12.62 43.46,0 81.31,-4.21 113.56,-12.62 30.84,-7.01 56.08,-16.82 77.11,-28.04 21.03,-11.21 36.45,-22.43 47.67,-33.64 9.82,-11.22 16.82,-19.63 19.62,-26.64 9.82,-26.64 18.23,-44.86 28.04,-54.67 9.82,-8.42 25.23,-9.82 46.26,-5.61 9.82,1.4 18.23,11.21 22.43,28.03 4.21,16.83 1.41,35.05 -5.61,56.08l0 1.41z"/>
  <path id="_13" class="fil0" d="M3046.4 1833.74c0,4.2 -1.41,11.21 -2.8,21.03 -1.41,9.81 -7.01,21.03 -14.02,30.84 -7.01,11.22 -18.23,21.03 -32.25,28.04 -15.42,8.41 -35.05,11.21 -61.68,9.82 -26.64,-1.41 -47.67,-7.01 -63.09,-15.42 -15.42,-7.01 -28.04,-16.83 -36.45,-28.04 -8.41,-9.82 -14.02,-21.03 -16.82,-33.65 -2.8,-11.21 -4.21,-21.03 -4.21,-30.84 0,-8.41 1.41,-18.23 2.8,-29.44 1.41,-9.82 5.61,-21.03 12.62,-30.84 7.01,-9.82 15.42,-16.83 28.04,-23.83 12.61,-7.01 28.03,-9.82 49.06,-9.82 30.84,0 56.08,5.61 74.3,15.42 18.23,9.82 32.25,22.43 42.06,35.05 9.82,12.62 15.42,25.24 18.23,37.86 2.8,12.61 4.21,19.62 4.21,23.83zm182.25 454.23c-1.4,4.21 -5.61,16.82 -11.21,36.45 -5.61,21.03 -15.42,42.06 -30.84,63.09 -15.42,21.03 -37.85,40.65 -64.49,57.48 -28.04,16.82 -64.49,25.23 -109.35,23.83 -39.25,-1.41 -71.5,-7.01 -96.74,-18.23 -25.23,-11.22 -44.86,-25.24 -58.88,-43.46 -15.42,-18.23 -25.23,-37.85 -30.84,-58.88 -7.01,-21.03 -9.81,-43.46 -11.21,-64.49 -1.4,-21.03 -1.4,-42.06 0,-61.68 1.41,-18.23 1.41,-35.05 1.41,-49.07 0,-40.65 7.01,-67.29 21.03,-79.91 12.61,-12.62 33.64,-18.23 60.28,-18.23 11.21,0 21.02,2.8 29.44,7.01 8.41,4.2 15.42,9.82 22.43,16.82 7.01,7.01 11.21,12.62 15.42,19.63 2.8,7.01 4.21,12.61 4.21,16.82 0,9.82 0,22.43 -1.41,37.85 -1.4,15.42 -4.2,33.65 -5.61,54.68 -1.41,9.82 -1.41,22.43 0,36.45 0,15.42 1.41,29.44 5.61,42.06 4.21,14.02 9.82,26.64 18.23,36.45 8.41,9.81 19.62,16.82 35.05,18.23 16.83,1.4 32.25,-1.41 46.27,-9.82 12.62,-7.01 25.23,-16.82 35.05,-29.44 9.82,-11.21 16.83,-22.43 23.83,-33.65 5.61,-11.21 8.41,-19.62 9.82,-23.83 7.01,-28.04 16.82,-46.27 28.04,-56.08 9.81,-8.42 25.23,-9.82 46.26,-5.61 9.82,1.4 16.83,11.21 21.03,26.64 2.8,16.82 1.41,36.45 -2.8,57.47l0 1.41z"/>
  <path id="_14" class="fil0" d="M3863.73 2201.04c8.41,1.41 14.02,8.41 18.23,21.03 4.21,12.62 4.21,28.04 2.8,46.27 -2.8,18.22 -8.41,36.44 -16.82,56.08 -8.41,21.03 -21.03,39.25 -36.45,56.08 -15.42,16.83 -35.05,30.84 -58.88,42.06 -23.84,11.21 -51.87,16.82 -84.12,15.42 -30.84,-1.41 -56.08,-5.61 -77.11,-12.62 -21.03,-7.01 -37.85,-16.82 -50.47,-26.64 -15.42,-9.82 -26.64,-22.43 -36.45,-37.85 -18.23,15.42 -36.44,28.03 -57.47,39.25 -18.23,9.81 -37.86,19.62 -60.28,26.64 -23.83,8.41 -47.67,12.61 -72.9,12.61 -7.01,0 -19.62,-1.4 -40.65,-5.61 -21.03,-4.2 -43.46,-11.21 -65.89,-23.83 -23.83,-11.21 -43.46,-28.03 -60.28,-50.47 -18.23,-22.43 -26.64,-51.87 -26.64,-88.32 0,-36.45 8.41,-68.69 26.64,-98.14 18.23,-28.03 39.25,-51.87 65.89,-71.5 26.64,-18.23 54.67,-32.24 85.52,-42.06 29.44,-9.81 57.48,-14.02 82.72,-14.02 15.42,0 30.84,1.41 44.86,2.8 12.61,2.8 25.23,5.61 35.05,8.41 11.21,4.21 21.03,7.01 30.84,11.21 1.4,1.41 2.8,1.41 4.2,0 1.41,0 5.61,-1.4 11.21,-5.61 1.41,-1.4 5.61,-2.8 11.22,-5.61 4.2,-2.8 11.21,-4.2 19.62,-5.61 7.01,0 16.83,1.41 26.64,2.8 9.82,1.41 19.63,7.01 32.24,14.02 12.62,7.01 21.03,15.42 26.64,22.43 5.61,8.41 9.81,15.42 11.21,22.43 1.4,7.01 2.8,14.02 1.4,19.62 -1.4,5.61 -1.4,9.82 -1.4,12.62 0,2.8 -1.41,8.41 -4.21,16.82 -2.8,9.82 -5.61,19.63 -8.41,30.84 -2.8,11.21 -5.61,23.83 -7.01,36.45 -1.4,12.61 -2.8,25.23 -1.4,37.85 1.4,23.83 7.01,40.65 14.02,47.67 7.01,7.01 19.63,12.62 35.05,16.83 7.01,1.4 16.83,1.4 28.04,0 9.82,-1.41 21.03,-4.21 32.24,-9.82 9.82,-5.61 19.63,-12.62 28.04,-22.43 8.41,-9.81 14.02,-21.03 16.82,-35.05 4.21,-18.23 9.82,-30.84 16.83,-40.65 7.01,-9.82 14.02,-15.42 21.03,-19.63 7.01,-4.21 14.02,-5.61 21.03,-5.61 7.01,1.4 12.62,1.4 16.82,2.8zm-370.11 9.82c-1.41,0 -4.21,0 -5.61,-1.41 -4.21,-2.8 -7.01,-5.61 -8.42,-7.01 -1.4,-4.21 -2.8,-8.42 -4.2,-9.82 -1.41,-1.41 -2.8,-4.21 -7.01,-5.61 -11.21,-2.8 -23.83,-4.21 -39.25,-5.61 -15.42,0 -30.84,2.8 -46.26,7.01 -15.42,4.21 -29.45,12.62 -42.06,22.43 -12.62,11.21 -22.43,26.64 -28.04,47.67 -4.21,12.62 -4.21,23.83 0,32.24 2.8,8.41 8.41,15.42 15.42,19.63 7.01,4.2 16.82,7.01 26.64,8.41 9.82,1.4 19.62,0 29.44,-2.8 23.83,-5.61 43.46,-14.02 58.89,-25.24 14.02,-11.21 25.23,-22.43 32.24,-35.05 9.81,-14.02 15.42,-29.44 18.23,-44.86z"/>
  <path id="_15" class="fil0" d="M4317.96 2287.96c-1.4,4.21 -7.01,14.02 -16.82,32.24 -9.82,18.23 -26.64,37.86 -47.67,58.89 -21.03,21.03 -49.07,39.25 -82.72,54.67 -35.05,16.83 -77.1,25.24 -126.18,25.24 -49.06,0 -91.12,-9.82 -123.36,-30.84 -32.25,-19.62 -58.89,-46.26 -77.11,-78.51 -19.62,-32.24 -33.64,-67.29 -40.65,-107.95 -8.41,-39.25 -12.62,-78.5 -12.62,-117.76 0,-26.64 1.41,-56.08 5.61,-91.13 2.8,-33.65 8.41,-68.69 15.42,-105.15 7.01,-36.45 16.82,-72.9 29.44,-107.95 12.62,-35.05 28.04,-65.89 46.27,-93.93 18.23,-28.04 40.65,-50.47 67.29,-67.3 25.24,-16.82 54.68,-25.23 88.33,-25.23 29.44,0 51.87,5.61 70.09,18.22 18.23,12.62 30.84,28.04 40.66,46.27 8.41,18.23 14.02,36.45 16.82,54.68 2.8,19.62 4.21,35.05 4.21,47.67 0,40.65 -8.41,84.12 -26.64,130.38 -18.23,46.27 -39.25,91.13 -63.09,134.59 -25.24,43.46 -50.47,84.12 -75.71,119.17 -25.24,36.44 -44.86,64.49 -58.88,84.12 8.41,26.64 21.03,47.67 39.25,63.09 18.23,15.42 42.06,22.43 72.9,22.43 28.04,0 51.87,-4.21 71.5,-12.62 19.63,-8.41 36.45,-18.23 49.07,-28.03 12.62,-9.82 22.43,-21.03 29.44,-30.84 7.01,-9.82 11.21,-16.82 12.62,-19.63 9.82,-26.64 19.62,-44.86 29.44,-54.67 9.82,-8.42 23.83,-9.82 44.86,-5.61 9.82,1.4 18.23,11.21 22.43,26.64 4.2,16.82 1.4,36.45 -5.61,57.47l1.4 1.41zm-276.18 -521.52c-7.01,0 -15.42,1.41 -23.83,5.61 -8.41,4.21 -16.82,14.02 -23.83,28.04 -8.41,15.42 -15.42,36.45 -22.43,63.09 -7.01,26.64 -14.02,63.09 -19.63,109.35 -2.8,23.83 -5.61,47.67 -7.01,71.5 -1.41,23.83 -2.8,47.67 -4.21,68.7 8.41,-12.62 18.23,-26.64 28.04,-44.87 9.81,-18.22 19.62,-36.44 29.44,-54.67 9.82,-18.23 18.23,-35.05 25.23,-50.47 7.01,-15.42 12.62,-28.04 15.42,-36.45 4.21,-9.82 7.01,-23.83 11.21,-42.06 4.21,-18.23 7.01,-35.05 8.42,-53.27 1.4,-18.23 0,-33.65 -1.41,-46.27 -1.4,-12.62 -7.01,-18.23 -14.02,-18.23l-1.41 0z"/>
  <path id="_16" class="fil0" d="M4639 2285.16c-2.8,8.41 -8.41,21.03 -18.23,37.85 -9.82,16.83 -23.83,33.65 -40.65,50.47 -16.83,16.83 -37.86,30.84 -61.69,43.46 -23.83,12.62 -51.87,19.62 -84.12,19.62 -40.65,0 -72.9,-7.01 -99.54,-22.43 -26.64,-15.42 -46.26,-35.05 -61.68,-58.88 -15.42,-23.83 -26.64,-50.48 -32.24,-79.92 -5.61,-29.44 -8.41,-57.48 -8.41,-85.52 0,-23.83 1.4,-53.27 2.8,-86.92 1.4,-32.24 4.2,-65.89 5.61,-98.13 -29.44,0 -56.08,0 -81.31,0 -25.24,0 -42.06,-1.41 -50.47,-2.81 -7.01,-1.4 -12.62,-4.2 -18.23,-8.41 -4.21,-4.2 -7.01,-11.21 -8.41,-21.03 0,-4.2 1.4,-11.21 4.2,-19.62 2.8,-8.41 7.01,-14.02 11.22,-18.23 5.61,-5.61 14.02,-11.21 26.64,-16.82 12.61,-5.61 28.03,-8.42 43.46,-9.82l81.31 -2.8c1.41,-12.62 2.8,-23.83 4.21,-32.24 0,-8.42 0,-14.02 1.4,-16.83 1.41,-7.01 1.41,-15.42 2.8,-25.23 0,-9.82 0,-21.03 1.41,-32.25 1.4,-11.21 2.8,-22.43 4.2,-32.24 1.41,-9.82 2.8,-18.23 5.61,-25.23 5.61,-15.42 14.02,-28.04 26.64,-37.86 12.61,-9.82 26.64,-14.02 42.06,-15.42 15.42,0 28.03,4.21 36.44,14.02 7.01,9.81 14.02,16.82 18.23,21.03 4.21,4.2 9.82,11.21 16.83,23.83 5.61,12.61 5.61,30.84 1.4,54.67 -1.4,8.42 -4.2,21.03 -5.61,39.25 -2.8,18.23 -5.61,37.86 -9.82,60.28 29.45,-1.4 50.48,-1.4 60.28,0 18.23,0 33.65,0 44.86,-1.4 9.82,0 21.03,2.8 32.25,7.01 9.81,4.21 15.42,9.82 15.42,15.42 0,5.61 -1.4,11.21 -2.8,18.23 -1.4,5.61 -5.61,14.02 -14.02,26.64 -9.82,12.62 -23.83,21.03 -42.06,22.43 -9.82,1.4 -25.24,2.8 -43.46,5.61 -19.63,2.8 -40.66,5.61 -61.69,7.01 -2.8,25.24 -5.61,49.07 -7.01,70.1 -2.8,21.03 -5.61,39.25 -7.01,51.87 -1.41,16.82 -2.8,36.45 -2.8,60.28 -1.41,23.83 1.4,47.67 5.61,68.69 4.2,22.43 11.21,40.65 22.43,56.08 9.82,15.42 26.64,23.83 47.67,23.83 21.03,0 39.25,-2.8 53.28,-9.82 12.61,-7.01 23.83,-14.02 30.84,-22.43 7.01,-8.41 12.62,-16.83 15.42,-23.83 2.8,-7.01 4.21,-12.62 5.61,-14.02 12.62,-29.44 22.43,-47.67 30.84,-56.08 8.41,-7.01 22.43,-8.41 43.46,-4.2 9.81,2.8 18.22,12.61 23.83,28.03 4.2,16.83 2.8,35.05 -5.61,56.08l-1.4 -1.4z"/>
  <path id="_17" class="fil0" d="M5188.56 2286.56c-4.2,12.62 -12.62,26.64 -23.83,39.25 -11.21,14.02 -22.43,26.64 -35.05,39.25 -12.62,12.62 -25.24,25.24 -37.86,35.05 -12.61,11.21 -22.43,19.62 -30.84,26.64 -15.42,12.61 -30.84,25.23 -47.67,37.85 -16.83,12.62 -36.45,25.24 -57.48,37.85 -1.41,23.83 -2.8,47.67 -5.61,72.9 -2.8,25.24 -7.01,50.47 -12.62,75.71 -5.61,23.83 -12.62,47.67 -22.43,70.09 -9.81,22.43 -21.03,42.06 -35.05,60.28 -43.46,54.68 -93.93,82.72 -150.01,84.12 -57.48,1.41 -110.75,-26.64 -161.22,-84.12 -12.62,-14.02 -18.23,-29.44 -19.62,-46.26 -2.81,-18.23 0,-35.05 5.61,-53.27 4.2,-18.23 12.61,-35.05 22.43,-51.87 9.82,-18.23 19.63,-33.65 30.84,-47.67 9.82,-14.02 21.03,-26.64 30.84,-36.45 9.81,-9.82 16.82,-16.82 22.43,-21.03 22.43,-15.42 49.07,-30.84 78.51,-46.27 29.44,-15.42 58.88,-30.84 91.12,-46.26 -1.4,-16.83 -1.4,-33.65 -2.8,-50.47 -1.4,-15.42 -1.4,-30.84 -2.8,-43.46 -7.01,7.01 -14.02,12.62 -23.83,19.63 -9.81,7.01 -19.62,14.02 -32.24,18.23 -12.62,4.2 -28.04,7.01 -44.86,8.41 -16.82,1.4 -35.05,0 -56.08,-4.21 -29.44,-5.61 -53.27,-16.82 -70.1,-33.65 -16.82,-15.42 -29.44,-35.05 -36.45,-57.47 -8.41,-21.03 -12.61,-44.86 -12.61,-70.1 -1.41,-23.83 0,-47.67 4.2,-70.1 2.8,-21.03 7.01,-40.65 11.21,-57.47 4.21,-16.83 7.01,-28.04 9.82,-35.05 2.8,-9.81 7.01,-15.42 14.02,-19.62 7.01,-2.8 14.02,-4.21 21.03,-4.21 7.01,1.41 15.42,2.8 22.43,5.61 7.01,2.8 14.02,5.61 18.23,8.42 9.82,5.61 21.03,14.02 30.84,23.83 9.81,11.21 14.02,25.23 11.21,43.46 -1.41,12.62 -4.21,26.64 -7.01,44.86 -2.8,18.23 -4.2,36.45 -2.8,53.27 0,16.83 2.8,30.84 9.82,43.46 5.61,12.62 16.82,18.23 32.24,19.62 15.42,1.41 28.04,-2.8 40.65,-12.62 12.62,-9.81 22.43,-21.03 32.25,-36.44 8.41,-14.02 15.42,-29.45 22.43,-46.27 7.01,-16.82 12.62,-32.24 16.83,-44.86 4.2,-12.62 9.81,-25.24 14.02,-40.65 4.21,-14.02 11.21,-26.64 18.23,-37.86 7.01,-9.81 15.42,-18.23 25.23,-22.43 9.82,-4.21 23.83,-2.8 39.25,4.2 14.02,7.01 25.24,14.02 32.25,23.83 7.01,9.82 11.21,21.03 12.61,30.84 1.41,11.21 2.8,21.03 1.41,29.44 -1.41,9.82 -2.8,16.83 -4.21,22.43 -1.4,5.61 -4.2,18.23 -7.01,36.45 -4.21,18.22 -7.01,39.25 -9.82,61.68 -2.8,23.83 -5.61,46.27 -7.01,70.1 -1.4,23.83 -1.4,44.86 0,61.68 35.05,-18.23 67.3,-37.85 93.93,-56.08 26.64,-18.23 44.86,-36.45 53.27,-56.08 5.61,-12.61 11.21,-23.83 15.42,-33.64 4.21,-9.82 9.82,-16.83 15.42,-21.03 4.2,-4.21 11.21,-8.42 18.23,-9.82 7.01,-1.41 15.42,0 25.23,2.8 9.82,1.41 18.23,11.21 22.43,28.04 4.2,16.82 2.8,36.45 -5.61,57.47l-1.41 0zm-360.3 276.18c-29.44,14.02 -57.47,29.44 -84.12,44.86 -26.64,15.42 -49.06,30.84 -64.49,47.67 -7.01,8.42 -11.21,19.63 -12.62,32.25 -1.4,12.61 1.41,25.23 5.61,37.85 4.21,11.21 12.62,19.62 23.83,26.64 9.82,7.01 23.83,7.01 39.25,2.8 15.42,-4.2 28.04,-14.02 39.25,-26.64 9.82,-14.02 19.63,-29.44 26.64,-47.67 7.01,-18.23 12.62,-37.85 16.83,-58.88 4.2,-21.03 7.01,-40.66 9.81,-58.89z"/>
  <path id="_18" class="fil0" d="M6622.74 1849.15c-1.4,75.71 -18.23,143 -53.27,201.88 -35.05,60.28 -82.71,116.36 -140.19,169.63 -46.27,42.06 -99.54,79.92 -157.02,113.56 -57.48,35.05 -117.76,64.49 -178.04,88.32 -61.69,25.24 -121.97,44.86 -180.85,58.88 -60.28,12.62 -113.56,19.63 -162.63,19.63 -26.64,0 -49.06,-4.21 -68.69,-14.02 -21.03,-9.82 -37.85,-22.43 -50.47,-35.05 -14.02,-12.62 -25.24,-26.64 -32.24,-40.65 -7.01,-14.02 -11.21,-25.24 -12.62,-32.24 -1.4,-12.62 -1.4,-32.25 0,-58.89 0,-26.64 1.41,-56.08 2.8,-91.12 1.41,-35.05 4.21,-71.5 8.41,-112.16 4.21,-40.65 8.41,-79.91 12.62,-119.16 4.21,-39.25 8.41,-77.1 12.62,-112.16 4.2,-35.05 9.82,-65.89 15.42,-92.53 -56.08,15.42 -103.75,30.84 -143,46.27 -37.85,15.42 -64.49,28.03 -77.1,35.05 -4.2,2.8 -9.82,2.8 -16.82,1.41 -7.01,-1.41 -12.62,-5.61 -19.63,-11.22 -7.01,-4.2 -12.61,-11.21 -16.82,-19.62 -4.21,-7.01 -7.01,-15.42 -7.01,-23.83 -1.4,-29.44 1.41,-51.87 8.42,-68.69 7.01,-16.83 15.42,-30.84 28.03,-40.66 23.83,-12.61 56.08,-28.03 98.13,-43.46 43.46,-15.42 92.53,-29.44 147.2,-44.86 54.68,-14.02 112.16,-26.64 175.25,-39.25 63.09,-12.62 124.77,-21.03 187.86,-26.64 109.35,-9.82 203.28,-7.01 281.79,11.21 78.51,18.23 143,43.46 193.46,75.71 49.07,32.24 85.52,65.89 109.35,103.74 22.43,37.86 33.65,71.5 33.65,100.94l1.4 0zm-193.46 32.25c-2.8,-25.24 -8.41,-47.67 -15.42,-68.69 -8.41,-21.03 -23.83,-37.86 -46.27,-53.28 -22.43,-14.02 -54.67,-25.23 -95.33,-33.64 -40.65,-7.01 -96.74,-11.22 -165.43,-11.22 -46.26,0 -92.53,2.8 -140.19,8.42 -47.67,5.61 -95.33,12.61 -141.6,22.43 -5.61,21.03 -11.21,47.67 -18.22,79.91 -7.01,33.65 -12.62,70.1 -18.23,110.75 -7.01,40.66 -12.62,84.12 -18.23,130.38 -7.01,46.27 -12.62,92.53 -16.83,138.79 -2.8,29.44 -4.2,51.87 -2.8,68.69 0,18.23 2.8,30.84 8.41,40.65 5.61,9.82 15.42,15.42 28.04,18.23 12.62,2.8 28.04,4.21 49.07,2.8 65.89,-4.2 126.18,-15.42 182.25,-33.65 54.68,-18.23 105.15,-40.65 150.01,-67.29 43.46,-26.64 82.71,-57.48 116.36,-89.72 33.65,-32.24 61.68,-65.89 84.12,-98.13 21.03,-32.25 37.85,-61.69 47.67,-91.13 9.82,-29.44 12.62,-53.27 11.21,-74.3l1.41 0z"/>
  <path id="_19" class="fil0" d="M7191.93 2286.56c-1.41,5.61 -7.01,14.02 -14.02,26.64 -8.41,12.61 -19.62,26.64 -32.24,40.65 -14.02,15.42 -29.44,29.44 -47.67,42.06 -18.23,14.02 -39.25,23.83 -61.68,30.84 -23.83,7.01 -49.07,9.81 -75.71,8.41 -26.64,-1.41 -56.08,-11.21 -86.92,-26.64 -26.64,-14.02 -46.27,-30.84 -58.88,-51.87 -12.62,-19.62 -22.43,-39.25 -26.64,-60.28 -4.2,-21.03 -7.01,-39.25 -5.61,-56.08 0,-16.82 0,-29.44 -1.4,-37.85 -1.41,-7.01 -5.61,-12.62 -14.02,-16.83 -9.81,-2.8 -19.62,-4.2 -29.44,-5.61 -11.21,0 -21.03,0 -29.44,1.41 -8.41,1.4 -12.62,1.4 -12.62,1.4 -4.2,15.42 -7.01,30.84 -11.21,46.27 -4.21,12.61 -8.41,26.64 -12.62,42.06 -4.2,15.42 -9.81,28.03 -16.82,37.85 -12.62,21.03 -23.83,32.24 -35.05,33.65 -11.22,1.4 -23.83,-2.8 -36.45,-12.62 -7.01,-4.21 -12.62,-11.21 -14.02,-19.62 -1.4,-8.42 -1.4,-16.83 0,-26.64 1.41,-9.81 4.21,-18.22 7.01,-26.64 2.8,-7.01 5.61,-14.02 7.01,-18.23 1.4,-5.61 5.61,-12.61 9.81,-22.43 4.21,-9.82 7.01,-19.63 11.22,-32.24 4.2,-12.62 7.01,-25.24 11.21,-37.86 2.8,-12.62 4.21,-25.23 5.61,-36.45 1.41,-12.61 1.41,-28.03 1.41,-43.46 0,-15.42 -1.41,-28.04 -4.21,-37.85 -1.41,-4.21 1.41,-9.82 5.61,-16.83 4.21,-7.01 9.82,-12.62 16.83,-19.62 7.01,-5.61 15.42,-11.21 25.23,-15.42 9.82,-4.21 18.23,-5.61 28.04,-4.21 18.23,1.41 32.24,8.42 43.46,18.23 9.82,9.82 18.23,28.04 22.43,54.68 1.4,9.82 8.41,15.42 19.62,14.02 11.21,-1.4 21.03,-1.4 28.04,-1.4 15.42,0 28.03,1.4 37.85,2.8 9.82,1.4 19.63,4.2 26.64,7.01 7.01,4.21 15.42,8.42 22.43,12.62 7.01,4.21 14.02,9.82 21.03,15.42 15.42,11.21 21.03,26.64 19.62,47.67 -1.4,21.03 -4.2,37.86 -8.41,53.27 -1.4,7.01 -4.21,18.23 -5.61,30.84 -1.41,14.02 -1.41,28.04 1.4,40.66 1.41,12.61 7.01,25.23 16.83,35.05 9.82,9.82 25.23,15.42 46.26,15.42 21.03,0 39.25,-2.8 54.68,-8.41 14.02,-4.21 25.24,-9.82 33.65,-16.83 8.41,-7.01 15.42,-12.62 19.62,-19.62 4.21,-5.61 5.61,-9.82 5.61,-11.22 9.82,-28.03 21.03,-46.26 30.84,-56.08 9.82,-8.41 23.83,-9.82 44.86,-5.61 9.82,1.41 18.23,11.21 22.43,28.04 4.2,16.82 1.4,36.45 -5.61,57.47z"/>
  <path id="_20" class="fil0" d="M7337.73 1833.74c0,4.2 -1.41,11.21 -2.8,21.03 -1.41,9.81 -7.01,21.03 -14.02,30.84 -7.01,11.22 -18.23,21.03 -32.25,28.04 -15.42,8.41 -35.05,11.21 -61.68,9.82 -26.64,-1.41 -47.67,-7.01 -63.09,-15.42 -15.42,-7.01 -28.04,-16.83 -36.45,-28.04 -8.41,-9.82 -14.02,-21.03 -16.82,-33.65 -2.8,-11.21 -4.21,-21.03 -4.21,-30.84 0,-8.41 1.41,-18.23 2.8,-29.44 1.41,-9.82 5.61,-21.03 12.62,-30.84 7.01,-9.82 15.42,-16.83 28.04,-23.83 12.61,-7.01 28.03,-9.82 49.06,-9.82 30.84,0 56.08,5.61 74.3,15.42 18.23,9.82 32.25,22.43 42.06,35.05 9.82,12.62 15.42,25.24 18.23,37.86 2.8,12.61 4.21,19.62 4.21,23.83zm182.25 454.23c-1.4,4.21 -5.61,16.82 -11.21,36.45 -5.61,21.03 -15.42,42.06 -30.84,63.09 -15.42,21.03 -37.85,40.65 -64.49,57.48 -28.04,16.82 -64.49,25.23 -109.35,23.83 -39.25,-1.41 -71.5,-7.01 -96.74,-18.23 -25.23,-11.22 -44.86,-25.24 -58.88,-43.46 -15.42,-18.23 -25.23,-37.85 -30.84,-58.88 -7.01,-21.03 -9.81,-43.46 -11.21,-64.49 -1.4,-21.03 -1.4,-42.06 0,-61.68 1.41,-18.23 1.41,-35.05 1.41,-49.07 0,-40.65 7.01,-67.29 21.03,-79.91 12.61,-12.62 33.64,-18.23 60.28,-18.23 11.21,0 21.02,2.8 29.44,7.01 8.41,4.2 15.42,9.82 22.43,16.82 7.01,7.01 11.21,12.62 15.42,19.63 2.8,7.01 4.21,12.61 4.21,16.82 0,9.82 0,22.43 -1.41,37.85 -1.4,15.42 -4.2,33.65 -5.61,54.68 -1.41,9.82 -1.41,22.43 0,36.45 0,15.42 1.41,29.44 5.61,42.06 4.21,14.02 9.82,26.64 18.23,36.45 8.41,9.81 19.62,16.82 35.05,18.23 16.83,1.4 32.25,-1.41 46.27,-9.82 12.62,-7.01 25.23,-16.82 35.05,-29.44 9.82,-11.21 16.83,-22.43 23.83,-33.65 5.61,-11.21 8.41,-19.62 9.82,-23.83 7.01,-28.04 16.82,-46.27 28.04,-56.08 9.81,-8.42 25.23,-9.82 46.26,-5.61 9.82,1.4 16.83,11.21 21.03,26.64 2.8,16.82 1.41,36.45 -2.8,57.47l0 1.41z"/>
  <path id="_21" class="fil0" d="M8091.97 2287.96c-7.01,16.82 -15.42,33.65 -25.23,51.87 -11.22,18.23 -25.24,33.64 -40.66,47.67 -15.42,15.42 -35.05,26.64 -57.48,36.45 -23.83,9.81 -50.47,14.02 -79.91,14.02 -30.84,0 -56.08,-5.61 -77.1,-16.82 -21.03,-11.22 -37.86,-23.83 -50.47,-39.25 -12.62,-15.42 -22.43,-30.84 -29.45,-46.27 -7.01,-15.42 -11.21,-26.64 -14.02,-33.65 -2.8,-7.01 -5.61,-16.82 -7.01,-26.64 -2.8,-9.81 -5.61,-21.03 -7.01,-30.84 -1.41,-9.82 -4.21,-18.23 -5.61,-25.24 -1.41,-7.01 -4.21,-11.21 -7.01,-12.62 -2.8,-1.4 -7.01,1.41 -11.21,5.61 -4.21,5.61 -9.82,12.62 -14.02,21.03 -5.61,8.41 -11.21,16.83 -15.42,25.24 -5.61,9.82 -9.82,16.82 -12.62,21.03 -2.8,4.2 -7.01,11.21 -11.21,21.03 -5.61,9.82 -9.82,21.03 -14.02,32.24 -4.2,11.21 -8.41,21.03 -12.62,30.84 -4.2,9.81 -5.61,18.23 -5.61,22.43 -1.4,9.82 -7.01,19.63 -15.42,26.64 -9.81,8.42 -16.82,12.62 -21.03,14.02 -4.2,1.4 -12.61,1.4 -25.23,0 -12.62,-1.41 -30.84,-8.42 -54.68,-22.43 -11.21,-7.01 -19.62,-23.83 -25.23,-50.47 -7.01,-26.64 -11.22,-54.68 -14.02,-86.92 -4.2,-30.84 -5.61,-60.28 -7.01,-89.72 -1.41,-29.44 -1.41,-49.07 -1.41,-61.68 -1.4,-47.67 23.83,-67.3 78.51,-58.89 14.02,2.8 25.23,7.01 33.65,14.02 8.41,7.01 15.42,14.02 19.62,22.43 4.21,8.41 8.41,16.82 9.82,23.83 1.4,8.41 1.4,15.42 1.4,19.63 1.41,21.03 5.61,30.84 9.82,30.84 1.41,0 4.21,-2.8 9.82,-9.81 4.2,-5.61 11.21,-12.62 18.23,-22.43 7.01,-8.41 15.42,-18.23 25.23,-29.44 9.82,-9.82 18.23,-19.63 28.04,-28.04 9.82,-8.41 21.03,-15.42 33.65,-19.62 12.61,-4.21 25.23,-5.61 39.25,-7.01 12.61,-1.4 26.64,-1.4 39.25,0 12.62,1.41 22.43,4.21 32.25,7.01 9.81,4.2 16.82,9.81 22.43,19.62 4.21,9.82 8.41,21.03 11.21,33.65 1.41,14.02 2.81,29.44 4.21,44.86 0,16.82 0,33.65 0,50.47 0,16.83 0,32.24 1.41,47.67 1.4,15.42 2.8,28.04 7.01,37.86 4.21,11.21 9.82,19.62 18.23,26.64 7.01,7.01 18.23,9.81 30.84,9.81 26.64,0 49.06,-7.01 65.89,-19.62 15.42,-12.62 26.64,-28.04 32.24,-46.27 9.82,-26.64 18.23,-44.86 28.04,-54.67 9.81,-8.42 23.83,-9.82 44.86,-5.61 4.2,1.4 8.41,4.2 12.62,11.21 4.2,7.01 7.01,14.02 8.41,22.43 1.4,8.42 1.4,16.83 1.4,26.64 -1.4,9.82 -2.8,16.83 -5.61,23.83l0 1.41z"/>
  <path id="_22" class="fil0" d="M8717.23 2287.96c-5.61,19.62 -12.61,37.85 -21.03,53.27 -8.41,15.42 -19.62,29.44 -35.05,42.06 -28.04,23.83 -60.28,40.66 -96.74,53.27 -36.45,14.02 -85.52,19.63 -148.6,21.03 -22.43,0 -46.27,-4.2 -70.1,-11.21 -25.23,-7.01 -49.06,-16.82 -72.9,-28.04 -23.83,-9.81 -44.86,-21.02 -64.49,-33.64 -21.03,-12.62 -36.45,-23.83 -47.67,-33.65l-8.41 72.9c-1.41,5.61 -4.21,11.21 -11.21,15.42 -7.01,4.21 -15.42,8.42 -25.24,11.22 -9.82,1.4 -21.03,2.8 -33.65,2.8 -12.61,-1.41 -25.23,-4.21 -36.45,-9.82 -12.61,-5.61 -21.02,-15.42 -26.64,-29.44 -7.01,-12.62 -11.21,-28.04 -12.61,-44.86 -1.41,-16.83 -2.8,-33.65 -1.41,-50.47 0,-16.83 0,-30.84 1.41,-42.06 1.4,-7.01 2.8,-25.24 5.61,-54.68 1.4,-29.44 4.2,-63.09 8.41,-102.34 2.8,-39.25 5.61,-81.31 9.82,-124.77 4.2,-43.46 7.01,-85.52 11.21,-124.78 4.2,-39.25 7.01,-72.9 9.82,-100.94 2.8,-28.03 4.2,-46.26 5.61,-53.27 4.2,-21.03 12.62,-39.25 22.43,-54.68 9.82,-14.02 21.03,-22.43 33.65,-25.23 12.62,-2.8 23.83,-2.8 33.65,-1.41 9.82,1.41 23.83,8.41 42.06,21.03 9.81,5.61 15.42,11.21 19.62,16.82 4.21,5.61 5.61,11.22 5.61,16.83 0,7.01 -1.4,14.02 -2.8,21.03 -1.4,7.01 -2.8,16.82 -4.2,26.64 -1.41,5.61 -1.41,15.42 -2.8,28.04 -1.41,14.02 -4.21,30.84 -5.61,49.06 -2.8,19.63 -5.61,40.66 -7.01,63.09 -2.8,22.43 -5.61,44.86 -7.01,68.69 -5.61,54.68 -11.21,113.56 -16.82,179.45 23.83,-18.23 49.06,-33.64 72.9,-47.67 21.03,-12.62 44.86,-23.83 68.7,-33.65 23.83,-9.81 47.67,-12.61 71.5,-11.21 22.43,1.41 42.06,5.61 57.47,12.62 15.42,7.01 29.45,16.82 39.25,26.64 9.82,9.82 18.23,21.03 23.83,32.24 4.21,12.62 7.01,23.83 7.01,33.65 1.41,16.82 -4.21,35.05 -14.02,53.27 -9.82,19.63 -22.43,37.86 -36.45,56.08 -15.42,18.23 -30.84,33.64 -47.67,46.26 -16.83,14.02 -30.84,23.83 -43.46,29.44 14.02,15.42 32.25,25.24 56.08,26.64 23.83,1.41 44.86,1.41 65.89,-1.4 9.81,-1.41 22.43,-2.8 36.44,-5.61 14.02,-2.8 28.04,-7.01 42.06,-14.02 12.62,-5.61 25.24,-14.02 36.45,-23.83 11.21,-9.81 19.63,-23.83 23.83,-40.65 8.41,-28.04 18.23,-46.27 28.04,-56.08 9.82,-8.42 23.83,-9.82 44.86,-5.61 9.82,1.4 18.23,11.21 22.43,26.64 4.21,16.82 2.81,36.45 -4.2,57.47l-1.41 1.41zm-379.92 -116.36c0,-9.82 -2.8,-16.83 -8.41,-19.63 -5.61,-1.4 -12.62,-1.4 -19.62,0 -8.42,2.8 -16.83,7.01 -26.64,11.22 -9.81,5.61 -18.23,11.21 -25.23,15.42 -7.01,4.2 -16.83,14.02 -26.64,26.64 -9.82,12.61 -21.03,28.03 -30.84,43.46 8.41,4.21 16.82,5.61 23.83,5.61 7.01,1.41 14.02,1.41 23.83,0 5.61,0 14.02,-2.8 23.83,-8.41 9.82,-4.21 21.03,-11.21 30.84,-18.23 9.82,-7.01 18.23,-16.82 25.23,-26.64 7.01,-9.82 11.22,-19.62 11.22,-29.44l-1.41 0z"/>
  <path id="_23" class="fil0" d="M9039.68 2287.96l-1.4 -1.41c0,33.65 -7.01,60.28 -21.03,81.31 -15.42,21.03 -30.84,36.45 -49.07,47.67 -18.23,11.22 -36.45,18.23 -53.27,22.43 -16.82,5.61 -28.04,7.01 -33.65,7.01 -5.61,0 -15.42,0 -30.84,1.4 -15.42,1.41 -33.65,0 -54.68,-2.8 -21.03,-2.8 -43.46,-8.41 -67.3,-18.23 -25.23,-8.41 -49.06,-22.43 -72.9,-42.06 -9.82,-7.01 -15.42,-16.82 -15.42,-28.03 -4.21,-1.41 -9.82,-4.21 -14.02,-8.42 -9.81,-9.81 -12.61,-22.43 -11.21,-40.65 1.41,-18.23 8.41,-37.85 18.23,-60.28 7.01,-15.42 12.62,-26.64 16.83,-36.45 4.2,-8.41 8.41,-16.82 12.61,-23.83 2.8,-7.01 5.61,-14.02 8.41,-21.03 2.81,-7.01 5.61,-15.42 8.42,-28.03 -9.82,-12.62 -15.42,-26.64 -15.42,-39.25 -1.41,-12.62 -1.41,-23.83 -1.41,-30.84 0,-5.61 1.41,-12.62 5.61,-21.03 2.8,-8.41 7.01,-16.82 14.02,-25.24 7.01,-7.01 14.02,-14.02 22.43,-21.03 7.01,-5.61 16.83,-8.41 26.64,-8.41 9.82,0 19.63,1.41 26.64,5.61 7.01,4.21 12.62,8.42 18.23,14.02 4.21,5.61 8.42,11.21 11.22,15.42 1.4,5.61 2.8,9.81 4.2,12.61 1.41,5.61 5.61,12.62 9.82,19.63 4.21,8.41 11.21,15.42 21.03,21.03 2.8,1.4 9.82,5.61 22.43,9.81 12.62,4.21 26.64,11.22 43.46,19.63 15.42,8.41 32.24,18.23 50.47,29.44 18.23,11.21 33.65,23.83 49.07,39.25 15.42,15.42 28.03,30.84 37.85,49.07 9.82,18.23 14.02,39.25 14.02,61.68zm-155.61 -1.41l0 -1.4c2.8,-12.62 1.41,-22.43 -5.61,-32.24 -7.01,-9.82 -16.82,-18.23 -29.44,-26.64 -12.62,-7.01 -28.04,-14.02 -43.46,-21.03 -15.42,-7.01 -32.25,-12.62 -47.67,-18.23 -4.2,25.23 -9.81,49.06 -15.42,71.5 -7.01,22.43 -15.42,39.25 -25.24,51.87l-2.8 5.61c4.21,1.4 9.82,1.4 14.02,2.8 4.21,1.4 9.82,4.2 15.42,5.61 14.02,4.2 28.04,7.01 43.46,8.41 15.42,1.41 29.44,1.41 43.46,0 12.62,-1.4 25.24,-7.01 35.05,-14.02 9.82,-7.01 15.42,-18.23 18.23,-32.25z"/>
 </g>
</svg>
