<svg xmlns="http://www.w3.org/2000/svg" viewBox="0 0 434.61 114.3"><defs><style>.cls-1{fill:#b7d435}</style></defs><title>slush-title</title><g id="Layer_2" data-name="Layer 2"><g id="Layer_1-2" data-name="Layer 1"><path class="cls-1" d="M130.15 16a5.23 5.23 0 0 1 .19 1.41q0 5.46-4.7 6.21a27.28 27.28 0 0 1-3.39-.19 1.53 1.53 0 0 1-1.5-1.69 2.61 2.61 0 0 1 .19-1.13l.38-1.32a7.3 7.3 0 0 1 .75-1.69c0-.38-.35-.69-1-.94a12 12 0 0 0-2.54-.56q-1.51-.19-3.1-.28t-2.73-.09h-4.33q-2.26 0-4.33.19l-7 .38q-3.57.19-7.05.19a67.57 67.57 0 0 0-7.05.38L56.24 18a.75.75 0 0 0-.47.09.73.73 0 0 1-.47.09l-1.13.94a.38.38 0 0 1-.09.28.38.38 0 0 0-.09.28L39.69 48.1h3.57A4.82 4.82 0 0 1 48 52.8a3.47 3.47 0 0 1-1.41 2.82 4.63 4.63 0 0 1-2.92 1.13h-2.48a6.3 6.3 0 0 0-1.5-.19h-4.14q-2.45 4.51-3.86 7.15T29.34 68q-.94 1.69-1.6 2.82t-1.41 2.63L8.46 109.41q-.94 1.51-2 3.2a3.1 3.1 0 0 1-2.73 1.69q-1.88 0-2.82-3a19.45 19.45 0 0 1-.91-5.84v-1.32l.94-1.32L17.87 70.1q1.5-3.2 3.48-7t3.29-7l-1.88.19h-.38a3.53 3.53 0 0 1-1.13-.19l-15-.38H4.51a10.91 10.91 0 0 1-2.63-.56A2.26 2.26 0 0 1 0 53a5.82 5.82 0 0 1 .75-2.07 5.17 5.17 0 0 1 1.32-1.5l1.32-.56a1.5 1.5 0 0 1 .94-.19h3.48a17.83 17.83 0 0 0 2.54-.19l18.43-.19v.19c.12 0 .22-.16.28-.47s.22-.47.47-.47q4.7-9.21 7.24-14.39t3.95-7.9q1.41-2.72 2-3.95T44 18.57a60.91 60.91 0 0 0-7.52.47 57.57 57.57 0 0 1-7.15.47q-3.2 0-3.2-2.63a5 5 0 0 1 .56-1.79 12.94 12.94 0 0 1 1.41-2.35 18.31 18.31 0 0 1 1.69-2 2.37 2.37 0 0 1 1.6-.85H34q3.19-.37 6.86-.56t6.86-.19h1.88c0 .25.12.31.38.19a8.83 8.83 0 0 0 1.69-1.69Q55.11 5 58 5.59t2.92 2.82c0 .63.12.72.38.28s.31-.47.19-.09a18.38 18.38 0 0 0 1.88-.09q.94-.09 2.07-.09L78.62 8 89 7.66q5.26-.19 10.53-.19l13.92-.38a36.11 36.11 0 0 1 5.08.38 25.39 25.39 0 0 1 5 1.22 13.47 13.47 0 0 1 4.09 2.31 7.05 7.05 0 0 1 2.38 3.62 5.06 5.06 0 0 0 .15 1.38zM3.76 108.47h-.19a.17.17 0 0 1-.19.19v.19c0 .38.12.56.38.56a.54.54 0 0 0 .38-.19v-.38zm.38-.75l.19-.19c-.13 0-.19 0-.19-.09s-.06-.09-.19-.09v.38l-.19-.19v.19l.38.19zm.38-1.13h-.38l.38.19zm.38-1.88h-.2l-.19.19h.19v.19c-.13 0-.16 0-.09.09s0 .09-.09.09l.56.19v-.56zm.19-.94v.23a.17.17 0 0 0 .19.19V104l.19-.19zm.75-.75h-.39l.38.19zm.56-1.13l-.19.19.38.19v-.19a.17.17 0 0 0-.19-.19zm.56-.94l-.19-.19v.19h-.19l.38.56.38-.38zm.56-.94l-.19-.19v.18a.17.17 0 0 0 .19.19l.19-.19zm1.32-47.78L9 52l-.56-.19a.17.17 0 0 0-.19.19zm11.85 20.5l-.38.38a1.08 1.08 0 0 0-.38.75l-.38.56A1.22 1.22 0 0 0 19 75l-.38.75v.38c0 .13-.13.31-.38.56v.38a.93.93 0 0 1-.19.47.92.92 0 0 0-.19.47v.19c-.13 0-.22.22-.28.66s-.22.66-.47.66v.19a.54.54 0 0 0-.19.38l-.56.94a.58.58 0 0 1-.47.66c-.31.06-.47.53-.47 1.41v.19a1.63 1.63 0 0 0-.56 1.13v.38c-.25 0-.38.19-.38.56s-.13.56-.38.56l-.38.94a.54.54 0 0 0-.19.38l-.19.56-.38.94c-.25 0-.38.25-.38.75l-.38.38a1.08 1.08 0 0 1-.38.75 1.72 1.72 0 0 0-.94.94 5.68 5.68 0 0 0-.88 3.37l-.19.19c0 .13 0 .19-.09.19s-.09.06-.09.19l-.94 1.88v.19a.17.17 0 0 0 .19.19l.34-.76a2.9 2.9 0 0 1 .56-.75l1.88-3.39v-.75c.12 0 .19-.12.19-.38l2.26-4.33.56-1.13.33-1.12c0-.12.12-.31.38-.56v-.38c.25 0 .31-.06.19-.19s-.06-.19.19-.19l.56-1.13a1 1 0 0 1 .47-.75 1.88 1.88 0 0 0 .47-1.5l.19-.19a.38.38 0 0 1 .09-.28.39.39 0 0 0 .09-.28l.56-1.13a1.11 1.11 0 0 1 .47-1c.31-.19.47-.59.47-1.22l.75-1.5a1.08 1.08 0 0 1 .38-.75v-.38c.38 0 .56-.25.56-.75zM9.22 92.67h.38a.17.17 0 0 0 .19-.19H10c.12 0 .19-.09.19-.28a1 1 0 0 1 .38-.66l.19-.56a.17.17 0 0 1 .19-.19v-.38l.19-.19V90a.54.54 0 0 1 .19-.38c0-.12 0-.19.09-.19s.09-.06.09-.19a.17.17 0 0 0-.19-.19h-.22l-.19.19c0 .13 0 .19-.09.19s-.09.06-.09.19v.19c-.13 0-.19 0-.19.09s-.06.09-.19.09v.56a.17.17 0 0 0-.19.19L10 91a.17.17 0 0 1-.19.19v.38a.76.76 0 0 0-.19.56.54.54 0 0 1-.19.38zm2.07-40.81v.75a.17.17 0 0 0 .19-.19l.38.19.19-.75zm.56 34.8l-.19.19c-.13.13 0 .09.47-.09a1 1 0 0 0 .66-1l.19-.19a1.08 1.08 0 0 0 .38-.75l.19-.56.19-.19v-.19c.12 0 .19-.09.19-.28s.12-.28.38-.28v-.19l.19-.19.19-.38a.77.77 0 0 1 .19-.56v-.56A.54.54 0 0 0 15 81l.19-.19-.19-.18-.75.75h.19a.17.17 0 0 0-.19.19l-.19.56c0 .13-.13.31-.38.56l-.19.56a.17.17 0 0 0-.19.19.17.17 0 0 1-.19.19v.19A.17.17 0 0 1 13 84v.19h-.19l.19.19a.17.17 0 0 0-.19.19H13l-.4.43v.19l-.38.94zm2.07 4.14l-.19.19v.19a.17.17 0 0 0-.19.19.17.17 0 0 1-.19.19l-.38.94a.17.17 0 0 1-.19.19.17.17 0 0 0-.19.19v.38a.33.33 0 0 0-.38.38l-.19.75v.19l.19-.19v.19l.19-.19.38-.56.75-1.13v-.19a.17.17 0 0 1 .19-.19v-.38l.19-.19v-.19c.12 0 .16-.06.09-.19s0-.19.28-.19a.33.33 0 0 0-.36-.39zm.19-38.37l.19-.19-.57-.24-.19.38h.38l.19.19zm6.39 24.82l-.19-.19h-.19a.55.55 0 0 1-.19.38l-.19.38a.17.17 0 0 1-.19.19l-.19.38c-.13 0-.19.13-.19.38l-.38.75-.19.19v.38h-.19l-.19.38a1.09 1.09 0 0 1-.19.75.77.77 0 0 0-.19.56l-.19.56a1 1 0 0 1-.38.85.81.81 0 0 0-.38.66l-.19.56a.54.54 0 0 0-.38.19v.75l-.32.55-.19.56c-.25 0-.31.06-.19.19s.06.19-.19.19l-.19.56c-.25.25-.31.38-.19.38s.06.13-.19.38v.19c0 .5-.13.75-.38.75v.19c0 .13 0 .19-.09.19s-.09.06-.09.19v.19l.19.19c.25-.5.4-.75.47-.75s.09-.06.09-.19l.56-.94c0-.63.12-.94.38-.94l.38-.75c0-.12 0-.19.09-.19s.09-.06.09-.19l.75-1.88.19-.19v-.19c0-.12 0-.19.09-.19s.09-.06.09-.19l.38-.56a.77.77 0 0 0 .19-.56l.19-.38v-.38l.38-.75a.77.77 0 0 0 .19-.56l.38-.75c-.13 0 0-.19.38-.56v-.19a1.08 1.08 0 0 0 .38-.75v-.19h.19zm-5.27-25h.38l-.19-.25a.17.17 0 0 0-.19.23zm.38 26.9l.19.19c0-.25.06-.31.19-.19s.19.06.19-.19l.19-.38h-.19l.38-.38v-.75H16V78l-.38.94zM19 52.8h.38v-.19l-.38-.19zm2.91 0c.06 0 .09-.06.09-.19h-.38v-.19l-.19.38.19.19a.17.17 0 0 1 .19-.19v.2c.01-.14.04-.2.1-.2zm3.29.2l.19-.19-.19-.19-1.13-.19-.19.19v-.19l-.38.19a.17.17 0 0 0-.19-.19v.38a.17.17 0 0 0 .19.19zm8.28-39.12h-.19l.19.38zm1.69 0l-.17-.2h-.2l-.19.19v.19l-.19.19.75.19zm11.66 8.46l-.18-.34-.19.19a.33.33 0 0 0 .38.38c0 .13-.13.28-.38.47a.81.81 0 0 0-.38.66l-.38.56a.3.3 0 0 1-.19.28.3.3 0 0 0-.19.28v.38h-.19c-.13 0-.19.13-.19.38a1.08 1.08 0 0 1-.38.75l-.19.19a.55.55 0 0 1-.19.38v.38a.17.17 0 0 0-.19.19.17.17 0 0 1-.19.19V28a.17.17 0 0 0-.19.19l-.38.94c-.25 0-.38.19-.38.56h.38a.76.76 0 0 0-.19.56v.38l-.19.19a.55.55 0 0 1-.19.38l-.38.38v.38c.12 0 0 .16-.38.47a1.73 1.73 0 0 0-.56 1.41l-.38.56-.19.19-.19.56c-.13 0-.19.13-.19.38a.33.33 0 0 1-.38.38v.19a.56.56 0 0 0-.09.56.78.78 0 0 1-.28.75l-.19.19-.19.38-.38.56a.54.54 0 0 1-.19.38v.19a.54.54 0 0 0-.19.38l-.56.94a.17.17 0 0 1-.19.19l-.94 1.69a1.68 1.68 0 0 1-.19.75l-.38.75-.56.75c-.13.25-.19.35-.19.28v.28c0 .25.06.38.19.38l.19-.38.38-.56a.77.77 0 0 0 .19-.56l1.88-3.2c0-.12 0-.19.09-.19s.09-.06.09-.19l1.13-1.88a5.75 5.75 0 0 1 .94-2.26 3.9 3.9 0 0 0 .75-1.5l.56-.75c0-.63.19-.94.56-.94v-.38l.19-.19.38-1.32.38-.38a2.73 2.73 0 0 1 .28-1.5 3.25 3.25 0 0 1 .66-.66 2.59 2.59 0 0 0 .66-.75 3.84 3.84 0 0 0 .28-1.79c.12 0 .28-.41.47-1.22s.47-1.22.85-1.22v-.38c.25-.25.38-.44.38-.56l-.19-.19zM36.3 13.86h-.38v.38h.38zm-.38 27.08h.56a3.3 3.3 0 0 0 .38-.94h.19a.55.55 0 0 1 .19-.38l.19-.56a.55.55 0 0 1 .19-.38v-.18l.38-.75a.17.17 0 0 0-.19-.19l-.19.19c-.13 0-.19 0-.19.09s-.06.09-.19.09v.38c-.25 0-.38.19-.38.56s-.13.56-.38.56l-.18.57a1.28 1.28 0 0 1-.38.95zm1.88-27.08v.38l.19-.38zm.94 21.63c-.13 0 .19-.38.94-1.13l.19-.19a.77.77 0 0 1 .19-.56.77.77 0 0 0 .19-.56v-.19c-.13 0 .12-.31.75-.94v-.19l.19-.19.19-.56h.19l.19-.19-.19-.19h.19v-.19a.17.17 0 0 1 .19-.19l.38-.75h-.38l-.38.19c-.13 0-.16 0-.09.09s0 .09-.09.09L40.81 31a.17.17 0 0 0-.19.19l-.38.56-.19.38v.19a.17.17 0 0 0-.19.19v.75c-.13 0-.19.13-.19.38a.17.17 0 0 1-.19.19l-.38.38a.55.55 0 0 1-.19.38l-.19.38-.19.19a.53.53 0 0 0 .22.33zm2 4.23q.09-.28-.28-.28a.17.17 0 0 1-.19.19v.19a.54.54 0 0 0-.38.19v.38a.17.17 0 0 1-.19.19v.38c-.38 0-.56.31-.56.94l-.38.75c-.13 0-.19.13-.19.38l.75-.19c0-.38.12-.59.38-.66s.38-.47.38-1.22l.19-.19c0-.12 0-.19.09-.19s.09-.06.09-.19l.19-.56c-.01.12.02.08.08-.1zm-1.81-25.86v.38h.38l.19-.19v-.19zm2.26-.38l-.75.19a.17.17 0 0 0-.19.19.56.56 0 0 1 .19.38.17.17 0 0 0 .19.19v-.19h.19v.19l.38-.19zM46.46 27l-.19-.19V27a.17.17 0 0 0-.19.19.17.17 0 0 1-.19.19l-.19.19-.38.56v.38l-.19.19-.38.94c-.25 0-.22.19.09.56s.22.56-.28.56l-.56.94c0 .5-.13.75-.38.75l-.38.75-.19.19.19.19-.19.38v.19a.3.3 0 0 1-.19.28c-.13.06-.19.22-.19.47l-.56 1.13a2.19 2.19 0 0 1-.38.56 3.25 3.25 0 0 0-.38.94l-.19.19c-.25.25-.38.44-.38.56a.53.53 0 0 0 .19.38q-.19 0 .56-.75l.38-.56a1.08 1.08 0 0 0 .38-.75l.38-.75.19-.19.75-1.5a.82.82 0 0 1 .09-.38.84.84 0 0 0 .09-.38l.38-.56a.76.76 0 0 1 .19-.56c.25-.25.38-.44.38-.56l.19-.19a2.15 2.15 0 0 1 .19-.66c.12-.31.25-.47.38-.47l.56-.94c0-.12-.09-.09-.28.09l-.47.47v-.56l.19-.75c.25 0 .38-.19.38-.56h.19a.54.54 0 0 1 .19-.38l.19-.56zm-4.33 1.69v-.19l.38-.75.19-.19v-.38l-.19-.18h-.38l-.19.94-.19.75zm.94-14.86v.38l.19-.38zm1.5.38v-.38H44v.38zm1.88 0v-.38l-.94.19-.19.19h.19l.19.19h.38a.54.54 0 0 0 .38-.16zm.38 7.52h-.19a.17.17 0 0 0 .19.19l.19.19V22zm.66-.38c-.06 0-.09-.06-.09-.19l-.38.19a.76.76 0 0 0 .56.19c.01-.09-.03-.15-.09-.15zm.28-.19l-.18-.16h-.19zm0-.38l-.19-.19v.19h.19L48 21a.17.17 0 0 0-.23-.18zm0 0l-.19-.19v.19zm.75-.38a.53.53 0 0 1-.19-.38H48l.38.38zm-.38 0H48a.17.17 0 0 1 .19.19h.19zm.38-.56h-.19l.38.19a.17.17 0 0 0-.18-.15zm68.65-9h-.56a4.17 4.17 0 0 1-2 .28q-1-.09-1.79-.09h-4.42a5.91 5.91 0 0 0-1.41.19H105a9.82 9.82 0 0 0-2.45.19h-2.87a7.06 7.06 0 0 0-1.69.19h-6.58q-1.51 0-2.54.09c-.69.06-1.54.09-2.54.09h-2.82a1.31 1.31 0 0 0-.56.09 1.29 1.29 0 0 1-.56.09h-2.83a6 6 0 0 0-.94.09 6.65 6.65 0 0 1-1.13.09h-4.32a4.66 4.66 0 0 1-1.69.19h-1.14v.19h.56a.53.53 0 0 0 .38.19h3.2l.19.19a.38.38 0 0 0 .28-.09.38.38 0 0 1 .28-.09.39.39 0 0 1 .28.09.37.37 0 0 0 .28.09l.19-.19c.12 0 .19 0 .19.09s.06.09.19.09v-.19H79a5.36 5.36 0 0 1 1 .09.89.89 0 0 0 .85-.28h.19l.19.19c.12 0 .19 0 .19-.09s.06-.09.19-.09h3.2a4.87 4.87 0 0 0 1.5-.19h3.59a.38.38 0 0 0 .28-.09.38.38 0 0 1 .28-.09c.12 0 .19 0 .19.09s.06.09.19.09.19 0 .19-.09.06-.09.19-.09h4.7a.17.17 0 0 0 .19-.19H98a.39.39 0 0 1 .28.09.37.37 0 0 0 .28.09.54.54 0 0 0 .38-.19v-.15c.12 0 .19 0 .19.09s.06.09.19.09l.19-.19h2.07a3.9 3.9 0 0 0 1.5-.19h7.15a4.66 4.66 0 0 0 1.69-.19h4.7a.64.64 0 0 1 .47-.19.64.64 0 0 0 .47-.19c-.01-.11-.13-.17-.38-.17zm-39.69 0a.53.53 0 0 0 .38.19h1.32a.76.76 0 0 0 .56.19l5.84-.22a.77.77 0 0 0 .56-.19h3.76a1.29 1.29 0 0 0 .56-.09.84.84 0 0 1 .38-.09h.75l.19.19.19-.19h.56l.19-.19h.19a.17.17 0 0 0 .19.19.38.38 0 0 0 .28-.09.38.38 0 0 1 .28-.09h3.39a2 2 0 0 0 .66-.09 2.11 2.11 0 0 1 .66-.09h2.07c.75 0 1.13-.12 1.13-.38l-.19-.19h-.19a.39.39 0 0 0-.28.09.38.38 0 0 1-.28.09c-.25 0-.41 0-.47-.09a.75.75 0 0 0-.47-.09h-2.26a2.08 2.08 0 0 1-.94.19h-3.58a.17.17 0 0 1-.19.19H91l-.19.19-.19-.19h-.72c-.25.13-.41.16-.47.09s-.22 0-.47.09h-5.64a.54.54 0 0 1-.38.19h-2.82a.77.77 0 0 1-.56.19h-1.69c-.38 0-.56.06-.56.19zm6.21 2.82l-1.13.19h-1.87v.38h1.88v.19l.19-.19h.94zm14.48-.38h-4.5a.17.17 0 0 1-.19.19h-.19l-.19-.19a.17.17 0 0 0-.19.19h-.56a.78.78 0 0 0-.56-.19c-.13 0-.19 0-.19.09s-.06.09-.19.09L91 13.3v.19a.17.17 0 0 1-.19-.19.77.77 0 0 1-.56.19h-3.2l-.19.19v-.19l-.19.19.38.19v.19a.17.17 0 0 0 .19-.19l.38.19.19.19v-.19a.17.17 0 0 1 .19.19h.38l.19-.19.38.19c.25-.25.38-.31.38-.19h.19l.19.19.19-.19h3.95l.19-.19v.19l.38-.19.19.19H95a.17.17 0 0 0 .19-.19H98c.5 0 .75-.12.75-.38a.76.76 0 0 1-.57-.19zm8.65-.75a.39.39 0 0 0-.28.09.38.38 0 0 1-.28.09h-.19c-.25 0-.32 0-.19-.09s.06-.09-.19-.09v.19h-1.88c-.13 0-.19 0-.19.09s-.06.09-.19.09l-.38-.19a.17.17 0 0 0-.19.19h-.19l-.19.38h.56c.12 0 .19 0 .19.09s.06.09.19.09l.19-.19h4.14a.77.77 0 0 0 .56-.19h.94v-.38zm-3.76-2.45l.19-.19a.56.56 0 0 1 .38.19h2.82a4.87 4.87 0 0 0 1.5-.19h1.69l.19-.19c0-.12 0-.16-.09-.09s-.09 0-.09-.28h-.38a.17.17 0 0 0-.19-.19.75.75 0 0 0-.47.09.38.38 0 0 1-.28.09h-2.45a.17.17 0 0 1-.19.19h-2.07c-.38 0-.56.13-.56.38z"/><path class="cls-1" d="M83.19 57.68a14 14 0 0 1 3.43-2.94q1.31-.65 1.8-.25a1.92 1.92 0 0 1 .41 1.63 6.72 6.72 0 0 1-.73 2.53 4.76 4.76 0 0 1-1 2.12q-.16.33-1.47 2.21a32.79 32.79 0 0 1-3.27 3.92A36.79 36.79 0 0 1 78 70.75a8.67 8.67 0 0 1-4.49 2 5 5 0 0 1-2.12-.16h-.65a.32.32 0 0 1-.25-.08.34.34 0 0 0-.24-.08l-1-.33a4 4 0 0 1-1.8-1.47A5.39 5.39 0 0 1 66 66.67a15.36 15.36 0 0 1 1-5.06l.65-1.14.49-1.31.49-1a.94.94 0 0 0 .33-.65l1.14-2a9 9 0 0 1 .57-.9l.49-.65a9.87 9.87 0 0 0 .74-1.31 4.6 4.6 0 0 0 .41-1.06q.08-.41-.73-.57a15.23 15.23 0 0 0-6.28 2.58 45 45 0 0 0-6.3 4.9q-2.11 3.76-4.72 8.5l-4.9 8.9q-2.29 4.16-3.84 7.1l-1.72 3.27a.72.72 0 0 1-1.14.41A5.22 5.22 0 0 1 41 85a8.11 8.11 0 0 1-1.31-2.94 6.66 6.66 0 0 1 .24-3.68 28.51 28.51 0 0 1 1.47-3.59q1.15-2.45 2.45-5.15t2.53-5.06q1.22-2.37 1.55-3.19.3-.39 1.07-1.83t1.55-3.1q.82-1.72 1.63-3.27t1.31-2.53q1-1.8 1.71-3.19t.9-1.72a2.53 2.53 0 0 1 1.71-1.31 4.2 4.2 0 0 1 2.45.08 6.77 6.77 0 0 1 2.21 1.23 2.48 2.48 0 0 1 1 2A28.78 28.78 0 0 1 68 45.6a13.53 13.53 0 0 1 4.57-.82l.65.16h.65a5.39 5.39 0 0 1 1.31.33 7.35 7.35 0 0 1 2.29 1l.82.49a5.22 5.22 0 0 1 2.61 3.51 8.7 8.7 0 0 1-.49 4.33 23 23 0 0 1-2.21 4.49q-1.39 2.21-2.53 3.84-1.31 2.61-.82 2.94t2-1.31zM40.72 80.06v-.33h-.16v-.16h-.33v.16h-.16v.33h-.17v.49h.16v.16h.33v-.33h.16v-.33zm-.33-1.14h.16l.16.16a.15.15 0 0 1 .16-.16l.33-.16v-.16h.16v-.33h.16v-.17h.16v-.33h.16l-.16-.16h.16v-.33h-.49v.16h-.16v.33H41v.16c-.11.11-.11.16 0 .16h-.16v.33h-.16v.33h-.16zm2 .65a.14.14 0 0 0 .16-.16l.16-.16v-.33h.16l.16-.16.16-.16v-.16a.15.15 0 0 1 .16-.16v-.33h.16v-.33a.14.14 0 0 0 .16-.16v-.16l.16-.16v-.34H44v-.49h.16v-.49h.16v-.16H44v.16h-.16V76h-.16v.16h-.16v.33h-.16v.33h-.16v.33a.48.48 0 0 0-.16.33v.16h-.16v.33h-.16l.16.16h-.16v.16h-.16v.49h-.16l-.16.33H42v.33h-.16v.33h-.14l.16.16h-.16v.33h-.16v.33h-.16v.33h-.16v.33H41v.33h-.16v.16l-.16.16v.1a.14.14 0 0 1-.16.16v.16l.16.16h.16v-.16c.11 0 .16 0 .16-.08s.06-.08.16-.08v-.33l.33-.33v-.16l.16-.16V81a.46.46 0 0 0 .16-.33l.16-.16v-.16l.33-.65zm-.49-2.78V77h.33v-.49H42l-.16-.16h-.14v.49zm1.31 4.41V81h-.33v.16h-.16v.33h-.16V82h.16v.16H43v-.33h.16v-.49h.16v-.16zm1.63-3.92v.16h-.33v.33h-.16v.49h-.16v.49H44l-.16.33h-.16v.49h-.16v.33h-.16v.33l-.16.16v.16a.15.15 0 0 0-.16.16l.16.16h.16l.16-.16v-.16a.14.14 0 0 0 .16-.16h.16v-.16a.15.15 0 0 1 .16-.16v-.17a.66.66 0 0 0 .16-.49v-.16h.16v-.33h.16l.16-.33h.16v-.33h.2c-.11 0-.11-.05 0-.16v-.33h.16v-.49zm3.76-13.07v.33a.14.14 0 0 0-.16.16v.49h.16V65a.14.14 0 0 0 .16-.16l.49-.65zm1.14-2.45v-.49h.16V61h.1v-.16h.16l.16-.49h.16V60h.16v-.16l-.16-.16h-.33v.16H50v.33h-.16v.33h-.14l-.16.33h-.16V61a.14.14 0 0 0-.16.16v.33H49v.33zm1.8-.65l.33-.49.33-.33.61-1.29v-.33H53v-.33h.16a.67.67 0 0 0 .16-.49.14.14 0 0 0 .16-.16l.16-.16v-.16l.16-.16V57a.14.14 0 0 0 .16-.16v-.14l.16-.16c0-.11 0-.16.08-.16s.08-.05.08-.16a.14.14 0 0 1 .16-.16v-.16l.16-.16v-.34h.16v-.16a.14.14 0 0 1 .16-.16v-.33h.16l.16-.33h.16v-.16l.16-.16v-.16a.47.47 0 0 0 .16-.33c0-.11 0-.16.08-.16s.08-.05.08-.16l.16-.16v-.16l.16-.16v-.33h.16v-.16c0-.11 0-.16.08-.16s.08-.05.08-.16v-.2h.16v-.33a.14.14 0 0 0 .16-.16v-.16H57v-.33h.16v-.32h.16v-.16h-.33v.16h-.16v.16h-.16V51h-.16v.33h-.33v.33h-.16v.16h-.16v.49h-.16v.16h-.16v.33h-.16v.33h-.16v.33h-.16v.33a.47.47 0 0 0-.16.33.14.14 0 0 1-.16.16v.16a.48.48 0 0 0-.33.16v.16l-.16.16v.16h-.16v.33l-.16.16v.16h-.16v.49h-.16v.16h-.16v.33h-.15V57h-.16v.33H53v.16l-.16.16V58h-.16v.16l-.16.16v.16h-.16v.33h-.16v.33l-.16.16v.33h-.16v.16l-.16.16v.16a.14.14 0 0 1-.16.16l-.16.33h-.16v.16L51 61v.16h-.16a.67.67 0 0 1-.16.49v.16h-.16v.16h-.16v.33l-.33.49v.33h-.16v.33c-.22.22-.33.38-.33.49a.14.14 0 0 0-.16.16.94.94 0 0 0 .65-.16v-.16l.65-1v-.33l.33-.33v-.33h.16zm-.33-2.78l.16-.16V58l.16-.16a.14.14 0 0 1 .16-.16v-.16h.16v-.16a.67.67 0 0 0 .16-.49h.16v-.33h.16v-.16h.16v-.16a.14.14 0 0 0 .16-.16v-.16h.16v-.33l.19-.17v-.33h.16v-.33h-.33v.16h-.33v.16h-.16v.49h-.16v.33H52v.16h-.16v.33h-.16v.33h-.18v.3h-.16v.33h-.16v.16l-.16.16v.16l-.16.16v.33zm1.8 3.1a.15.15 0 0 0-.16-.16h-.16a.14.14 0 0 1-.16.16v.16h-.16v.16a.14.14 0 0 0-.16.16v.33H52v.16h-.16v.33h-.16v.49h-.18v.16h.65v-.33h.16v-.33h.16v-.33h.16v-.49h.16v-.3H53zm4.57-8.33h-.33v.16h-.16v.16h-.16v.16h-.16v.16h-.16v.33h-.21v.33h-.16l-.16.33h-.16v.33h-.16v.33h-.16v.49h-.16v.16l-.16.16v.16h-.16v.33a.14.14 0 0 0-.16.16V57h-.16v.49h-.2V58h-.16v.16h-.16v.33h-.16v.16c0 .11 0 .16-.08.16s-.08.06-.08.16v.16h-.16v.16l-.16.33v.16l-.33.33v.16l-.16.16-.16.33h.33v-.16h.16c.11 0 .16 0 .16-.08s.05-.08.16-.08v-.33c.22-.22.33-.38.33-.49l.16-.16v-.33h.16c0-.11 0-.16.08-.16s.08-.05.08-.16 0-.16.08-.16.08-.05.08-.16a2.84 2.84 0 0 0 .33-.82v-.16h.16v-.16a.47.47 0 0 0 .16-.33h.16v-.32h.16v-.33a.14.14 0 0 0 .16-.16l.16-.16v-.16l.16-.16v-.33h.16v-.16a.14.14 0 0 1 .16-.16v-.33l.16-.16.16-.33h.16v-.16a.14.14 0 0 1 .16-.16v-.16l.16-.16v-.33h.16zm-3.92.49l-.16-.16v.16zm0 .16h.33v-.15h.16v-.33h.16v-.49h-.16v-.16h-.33v.33h-.16zM72.24 61v-.16h.16l.16-.33h.16v-.21h.16v-.49h.16v-.33h.16v-.16h-.16l-.16-.16v.16h-.16l-.16.16v.16h-.16V60h-.16v.16h-.16v.33h-.16l-.16.33h-.16V61zm1.8-.33l.33-.33.16-.33a3.52 3.52 0 0 0 .65-1.14v-.16a.14.14 0 0 1 .16-.16v-.16h.16a.33.33 0 0 1 .08-.24.34.34 0 0 0 .08-.25v-.16h.16v-.16a.14.14 0 0 1 .16-.16v-.16l.16-.16a.14.14 0 0 1 .16-.16v-.49h.16v-.16a.14.14 0 0 0 .16-.16v-.33h.16v-.4a.14.14 0 0 0 .16-.16v-.33h.16l.16-.49h.16v-.33l.16-.16v-.33a.14.14 0 0 1 .16-.16v-.82H78v-.82c.11 0 .11-.05 0-.16h.16v-.16H78v-.16h.16v-.16h-.36v.33a.14.14 0 0 1-.16.16v.49h-.16v.33h-.16v.49a.14.14 0 0 1-.16.16v.49H77v.49h-.16l-.16.65h-.16v.33h-.16v.33a.14.14 0 0 0-.16.16v.33H76v.33h-.16v.33h-.16v.33h-.16v.33h-.16v.33h-.16v.33H75V58h-.16v.49h-.16v.16a.14.14 0 0 0-.16.16v.33h-.16v.33h-.16v.33H74v.33h-.16v.16l-.16.16-.33.16a.47.47 0 0 1-.16.33v.16h-.16v.33h-.13v.16c0 .11 0 .16-.08.16s-.08.06-.08.16l-.16.16v.16l-.16.16-.33.33v.33h-.16v.16l-.16.16v.16c-.11.11-.11.16 0 .16v.16h.16a.14.14 0 0 1 .16-.16c0-.11.11-.27.33-.49v-.16l.16-.16.16-.16.49-.65a3063.89 3063.89 0 0 0 .33-.65v-.16h.16v-.16zm-.49-2.45l.16-.16a.14.14 0 0 1 .16-.16v-.33H74l.16-.16a.47.47 0 0 1 .16-.33v-.38h.16v-.16h.16v-.33h.16v-.16a.14.14 0 0 1 .16-.16v-.33h.16v-.33l-.12-.16h-.16v.16h-.16v.16h-.16v.16h-.16v.33a.14.14 0 0 0-.16.16v.16H74l.16.16H74v.16h-.16v.16l-.16.16h.16V57h-.16v.16l-.16.16v.16a.14.14 0 0 0-.16.16l-.16.16v.33zm1.31 4.25v-.33H75v-.16h.16v-.38h.16v-.33h.16v-.16h-.16V61H75v.16h-.16v.16a.14.14 0 0 0-.16.16v.16h-.16v.33h-.16v.16h-.16v.49H74v.16h.65v-.33zm.49-8.17a.15.15 0 0 1 .16.16h.16l.16-.16v-.33H76v-.37h-.33v-.16h-.33zm2.45 1v.49h-.16v.49h-.16v.33h-.16v.33h-.16v.33H77v.33h-.16v.4h-.16v.49h-.16v.16h-.16V59h-.16v.16c0 .11 0 .16-.08.16s-.08.06-.08.16v.16a.47.47 0 0 0-.16.33h-.16v.33c-.11.11-.11.16 0 .16l-.16.16h.16l.49-.49V60l.33-.33v-.16l.16-.16v-.16h.16a.47.47 0 0 1 .16-.33v-.16l.16-.16a.71.71 0 0 1 .08-.33.73.73 0 0 0 .08-.33v-.16h.16v-.16l.16-.16V57h.16v-.16l.18-.14v-.33h.16v-.33h.16v-.49h.16v-.49h.16v-.49a.47.47 0 0 0 .33-.16v-.49h.16v-.32h-.33v.16a.14.14 0 0 0-.16.16v.16h-.16v.16h-.16l-.16.49H78v.49z"/><path class="cls-1" d="M118.36 72.55a15.47 15.47 0 0 1 4.08-2.21q1.47-.41 2 .16a1.94 1.94 0 0 1 .16 1.8 7.54 7.54 0 0 1-1.31 2.53 5.65 5.65 0 0 1-1.14 1.8l-2.78 3.27-2.12 2-1.18 1.1-2 1.47a14.17 14.17 0 0 1-4.57 2.12 13.62 13.62 0 0 1-2.45.33 13.54 13.54 0 0 1-2.29-.33l-.49-.16c-.22 0-.35 0-.41-.08a.34.34 0 0 0-.25-.08l-1.14-.49a5 5 0 0 1-1.8-1.63 2.41 2.41 0 0 1-.65-1.14q-.16-.65-.65-.49a21.81 21.81 0 0 1-5.64 3.19 19 19 0 0 1-5.39 1.23 14.22 14.22 0 0 1-4.66-.41 6.41 6.41 0 0 1-3.27-1.88L79.16 83q-1.8-2.12-.9-6.86A53.12 53.12 0 0 1 81.36 66a89.52 89.52 0 0 1 5.15-10.54 93.6 93.6 0 0 1 5.06-8.09q.65-1 1.47-2.12a9.68 9.68 0 0 1 1.72-1.88 4.76 4.76 0 0 1 2.12-1 6.71 6.71 0 0 1 3 .24 2.23 2.23 0 0 1 1.55 1.63 5.33 5.33 0 0 1-.24 2.7 24.45 24.45 0 0 1-1.47 3.51q-1 2-2.12 4.08-.49 1-1.55 3t-2.29 4.49q-1.22 2.45-2.45 5t-2.21 4.49a33.92 33.92 0 0 0-2.61 5.8q-.8 2.59 1.51 3.41a5.33 5.33 0 0 0 3.43-.16 18 18 0 0 0 3.68-1.88A28.75 28.75 0 0 0 98.59 76q1.63-1.47 2.94-2.78a1.27 1.27 0 0 0 .16-.49.47.47 0 0 1 .16-.33l.49-1 .49-.82 13.72-25.16q.49-1 2.29-.65a5 5 0 0 1 1.72.33l1.71.65a5.19 5.19 0 0 0 1.14.57q.33.08.82.9a3.76 3.76 0 0 1 .33 3.43c-.22.33-.57 1-1.06 1.88s-1.09 2-1.8 3.27l-2.21 3.92q-1.14 2-2.12 3.68-.82 1.63-1.88 3.35t-2.2 3.51a14.12 14.12 0 0 0-.82 1.47q-.49 1-1.06 2t-1 1.8a4 4 0 0 0-.41 1q-1.63 2.94-.57 2.78a7.89 7.89 0 0 0 3-1.63q2-1.47 3.84-3.19zM81.28 76.8l-.65.49.33.33-.82.65 1.14-.65H81l.33-.49zm-.49 1.8l-.16.33-.33-.33-.16.65.65.65-.33.16.49.49c0-.11.16-.33.49-.65v-.16l-.65-.49v-.33l.49-.49zm0-.16v.16l.49-.33v-.17zm.82 3.43v-.65h-.16L81 82.51h.33l-.16.65h.33l.33-.49-.16-.33h.49zm2-.33l.16.16-.16-.33-.65-1.63v-1l.16-.16-.33-.49v-.33l.16-.82h.49v-.14l-.16-.49.33-.33h-.33v-.82l.82-.49-.16-.16-.82.33.16.33-.65.16.16.16v.33l-.49.33.65-.16-.82.33.16.49.49.49c-.33-.11-.43-.11-.33 0l-.33.82.49.16-.33.16.16.33-.33.33.16 1.14.16 1.47.49-.16-.33.16h.49zm.82.49a.46.46 0 0 1-.33-.16V82l-.16-.16-.16.33v.16zm-.33-3.92l.16-.65.65-.33h-.33l-.16-.49.16-.65h-.16v-.16l-.33.16-.16.16.16.65zm0 2l.49-1-.33-.49-.16-.49zm.82-.33l-.82.33.16.16.16.49v-.16l.33-.49zm6-22.38v-.16h.16v-.54h.16l.16-.49h.16v-.16l.16-.16v-.16h-.49l-.16.16v.16l-.16.16v.16a.14.14 0 0 0-.16.16l-.16.16a.14.14 0 0 0-.16.16v.49zm3.43-4.57v.33h-.16v.33H94l-.16.33h-.16v.33h-.16v.33h-.16v.33a.14.14 0 0 0-.16.16v.16H93v.49h-.16v.33h-.16v.33h-.16v.33h-.16l-.16.33h-.16V57l-.16.33a.14.14 0 0 1-.16.16v.33h-.16c0 .22-.06.33-.16.33v.49h-.16a.47.47 0 0 1-.16.33.14.14 0 0 1-.16.16v.16a.14.14 0 0 1-.16.16l-.16.65h.16V60l.16-.16.49-.49v-.16h.16V59l.49-.65V58l.16-.33v-.16h.16v-.16l.33-.33a.52.52 0 0 1 .33-.49v-.16q.33-.33.33-.49a1.25 1.25 0 0 1 .16-.49l.16-.16v-.33h.16v-.16l.16-.33v-.16h.16v-.16l.16-.16v-.16h.16l.16-.33a.47.47 0 0 0 .16-.33H95v-.33h.16v-.33h.16v-.33h.16v-.32h.16v-.16a.14.14 0 0 1 .16-.16v-.16l.16-.16V51a.14.14 0 0 1 .16-.16l.16-.33h.16v-.33a.47.47 0 0 0 .16-.33h.16v-.33a.14.14 0 0 0 .16-.16v-.16h.16v-.33h.16v-.33h-.16v.16H97v.16h-.2V49h-.16v.16l-.16.16h-.16v.33h-.16v.16H96v.33h-.16v.33h-.16l-.16.33h-.16v.33h-.16v.33a.14.14 0 0 0-.16.16v.16h-.16v.33a.14.14 0 0 0-.16.16v.16h-.16v.33zm-2.78 1.8h.16l.16.16v-.16h.16v-.16a.14.14 0 0 0 .16-.16h.16v-.16l.16-.16a.47.47 0 0 1 .16-.33l.33-.33v-.16h.16v-.16h.16v-.33l.16-.16v-.33h.16v-.39h-.33v.2H93v.16h-.16v.49h-.16v.33h-.16v.16h-.16l-.16.49h-.16v.16l-.16.16v.33h-.16v.16h-.16zM94 57.36a.15.15 0 0 0-.16-.16h-.16v.16h-.16v.16h-.16V58h-.16v.16H93v.49h-.16v.16h.65v-.31h.16v-.33h.16v-.49H94zM93.86 51l.16.16h.16V51h.16v-.33h.16l.16-.16v-.16h-.33v-.16H94l-.16.65h-.16V51zm3.27.16H97v.16h-.2v.16h-.16v.33h-.16v.33h-.16v.33h-.16v.33H96v.49h-.16v.16h-.16l-.16.33h-.16v.49h-.16v.33H95v.49h-.16v.16l-.16.16v.16a.14.14 0 0 0-.16.16v.33l-.33.33-.16.49h.16l.16-.16.33-.16v-.16l.33-.33v-.33h.16v-.16l.16-.16v-.33h.16a.71.71 0 0 1 .08-.33.73.73 0 0 0 .08-.33v-.16h.16a.47.47 0 0 1 .16-.33v-.16h.16l.16-.33.16-.16v-.16h.16v-.33h.16v-.33H97v-.33l.16-.16v-.18l.16-.16v-.16l.16-.16V51h-.33zm11.92 18a2.87 2.87 0 0 0 .33-.82l.49-.82.16-.33L111 65h.16v-.49a.14.14 0 0 0 .16-.16v-.16h.16v-.16h.16a2.85 2.85 0 0 1 .33-.82v-.16h.16v-.16a.14.14 0 0 1 .16-.16v-.16a.14.14 0 0 1 .16-.16v-.16l.16-.16v-.16l.16-.16v-.17l.16-.16.33-.65a.14.14 0 0 1 .16-.16.47.47 0 0 1 .16-.33V60h.16v-.33h.16v-.16l.16-.16V59h.16v-.33h.16v-.33h.16v-.16l.16-.16v-.33c.11 0 .16-.11.16-.33h.16a.67.67 0 0 1 .16-.49c0-.11 0-.16.08-.16s.08-.05.08-.16 0-.16.08-.16.08-.05.08-.16v-.16l.16-.16.16-.16v-.35h.16v-.33h.16a.64.64 0 0 1 .08-.41.34.34 0 0 0 .08-.25l.16-.16v-.16h.16v-.33l.33-.33v-.33a.14.14 0 0 0 .16-.16v-.16h.16v-.33a.14.14 0 0 0 .16-.16V52h-.16v.16a.14.14 0 0 0-.16.16l-.16.16v.16h-.16v.33h-.16v.16l-.16.16v.16h-.16v.16h-.16v.33h-.16v.33h-.16v.16h-.16v.33h-.16v.33l-.16.16v.16h-.16v.33h-.16v.33h-.16v.16a.14.14 0 0 1-.16.16v.49h-.16V57h-.16v.33l-.33.49V58h-.16v.33a.14.14 0 0 0-.16.16v.16h-.16V59h-.16v.33h-.16v.33h-.16V60h-.1v.33h-.16v.33h-.16V61h-.16v.16a.14.14 0 0 1-.16.16v.16a.14.14 0 0 1-.16.16v.16l-.16.16v.33h-.16v.33h-.16v.16l-.16.16v.16a.14.14 0 0 0-.16.16v.16l-.16.16v.16l-.16.16v.16a.47.47 0 0 0-.16.33l-.16.16v.16a.14.14 0 0 0-.16.16V65h-.16v.49h-.16v.33H110v.33h-.16v.16l-.16.16v.33h-.16v.33h-.16v.33h-.16v.33h-.2v.33h-.16v.16l-.16.16a.33.33 0 0 1-.08.25.64.64 0 0 0-.08.41h-.16v.16a.14.14 0 0 0-.16.16v.16h-.16v.33h-.16v.16l-.33.82v.16a.14.14 0 0 0-.16.16v.16h-.16v.16a.14.14 0 0 1-.16.16.94.94 0 0 1-.33.65.47.47 0 0 0-.16.33v.16h-.16v.33a.14.14 0 0 0-.16.16.66.66 0 0 0-.16.49.47.47 0 0 0-.16.33l.16.16a.14.14 0 0 0 .16-.16c0-.11 0-.16.08-.16s.08-.05.08-.16a3.8 3.8 0 0 1 .65-1 .33.33 0 0 1 .08-.24.33.33 0 0 0 .08-.25v-.16h.16a7.08 7.08 0 0 1 .82-1.47c0-.22.05-.33.16-.33v-.16l.33-.49v-.33h.16v-.33zm-2.29.49v.16h.16v-.16h.33v-.16l.16-.16V69h.16v-.33h.16v-.37h.16V68h.16v-.49h.16v-.16h.16V67l.16-.16v-.34h-.16v-.16l-.33.33v.16h-.16v.33h-.16v.16h-.16v.49h-.16V68l-.16.16v.16h-.16v.33h-.16V69h-.16v.49h-.16v.16zm2.61-5.06a.47.47 0 0 1 .16-.33l.16-.16.16-.33a.14.14 0 0 1 .16-.16v-.21l.16-.16c0-.11 0-.16.08-.16s.08-.05.08-.16l.33-.65v-.16h.16v-.33h.18v-.18h.16v-.33h.16V61h.16v-.33h.16v-.16a.14.14 0 0 1 .16-.16V60h.2v-.33h.16v-.33h.16V59H112v.16h-.16v.16h-.16v.16h-.16v.16h-.16v.49h-.16v.16l-.16.16v.16h-.16V61h-.16v.33h-.16v.33h-.16v.16h-.16v.33H110v.49h-.16v.33h-.16v.33h-.16v.16a.14.14 0 0 1-.16.16v.33a.14.14 0 0 0-.16.16h-.2v.49zm.16 6.86v-.16h.16v-.16h.16v-.33h.15v-.33a.14.14 0 0 0 .16-.16v-.21h.16v-.33h.16v-.49h.16V69h.16v-.33h.2v-.37a.15.15 0 0 0-.16-.16h-.16v.16h-.16v.16l-.16.16v.16a.14.14 0 0 0-.16.16v.16h-.2v.33l-.16.16v.16h-.16v.16a.14.14 0 0 1-.16.16v.33h-.16v.33a.14.14 0 0 0-.16.16v.33h-.2v.16zm7.51-15.52v.16h-.16l-.16.16v.16h-.16v.33h-.33V57h-.16v.33h-.16v.33h-.16V58h-.16v.33h-.16v.33a.14.14 0 0 0-.16.16V59h-.16v.33a.14.14 0 0 0-.16.16v.16h-.16V60a.14.14 0 0 0-.16.16v.16h-.16v.33a.14.14 0 0 0-.16.16V61h-.16v.33h-.16v.33h-.16v.33h-.16v.33h-.16v.33h-.16v.65h-.16v.16H113v.33h-.16v.33h-.16v.33c-.11 0-.16.11-.16.33h-.16v.16h-.16v.33a.34.34 0 0 1-.08.25.33.33 0 0 0-.08.25l-.16.16V66l-.33.33v.33h-.16V67a.14.14 0 0 0-.16.16v.16h.16v.16h.16v-.33l.33-.49a.14.14 0 0 0 .16-.16v-.16l.49-.65a.14.14 0 0 1 .16-.16v-.33l.16-.16v-.16q.33-.33.33-.49a.33.33 0 0 1 .08-.25.33.33 0 0 0 .08-.24l.16-.16.49-1v-.33h.16v-.16h.16v-.16l.16-.33v-.16l.16-.16v-.16h.16V61a.14.14 0 0 0 .16-.16l.16-.33a.14.14 0 0 1 .16-.16V60h.16v-.33h.16v-.33h.16V59h.16v-.33l.16-.16v-.16l.16-.16V58l.16-.16v-.33h.16v-.33h.16v-.33h.16v-.33h.16v-.33h.16v-.33zm-4.25 1.63h.49v-.33a.14.14 0 0 0 .16-.16v-.16h.16v-.49h.16v-.33h-.65v.49H113V57h-.16zm30.54 13.19a12.6 12.6 0 0 1 3.76-2.12q1.31-.33 1.8.25a1.94 1.94 0 0 1 .16 1.8 7.34 7.34 0 0 1-1.14 2.32 5.65 5.65 0 0 1-1.14 1.8q-1.31 1.8-3 3.76a21.56 21.56 0 0 1-3.51 3.27L139.09 83l-1.8 1.47A12.89 12.89 0 0 1 133 86.6a5 5 0 0 1-1.23.16h-1.06a6.33 6.33 0 0 1-2.29-.33l-.49-.16a.66.66 0 0 1-.49-.16l-1.14-.49a6.69 6.69 0 0 1-1.63-1.47 4.19 4.19 0 0 1-1-2 14.74 14.74 0 0 1-.16-2.21 9.83 9.83 0 0 1 .33-2.53q.33-1.23.82-2.53l.49-1.14.49-1.31.49-1 .49-.65q1.47-2.94 2.78-5.39t2.12-4.25a10.61 10.61 0 0 1 .82-1.63l1.44-2.51q.74-1.31 1.47-2.7t1.22-2.3l2.61-5.23q.49-1 2.29-.65a12.25 12.25 0 0 1 3.92.74 2.78 2.78 0 0 1 1.63 1.47 3.28 3.28 0 0 1 0 2 10.41 10.41 0 0 1-1 2.29 17.57 17.57 0 0 1-.82 1.8q-.66 1.31-1.55 3T141.7 61q-1 1.8-2 3.43a64.39 64.39 0 0 0-3.92 6.7 14.11 14.11 0 0 0-.82 1.47q-.49 1-1.06 2t-1.39 2.61q-1 2-.65 2.29t1.47-.33a22.73 22.73 0 0 0 2.86-2q1.71-1.39 3.19-2.78T142 71.9q1.17-.98 1.33-1.15zm-15 14v-.16h-.16v-.16h-.33v-.33h-.16V84h-.16v-.16h-.16v-.16h-.16v.16h-.2V84a.15.15 0 0 0-.16.16h.16v.16h.16v.16h.16v.16h.16v.16h.16v.2h.16v.16h.33v.16h.16v-.16h.16v-.36zm7-2.45H135v.16h-.33v.16h-.49v.16H134l-.16.16h-.16v.16h-.16l-.16.16h-.16v.16h-.33v.16h-.16l-.16.16h-.33V84h-.49v.16h-1.47V84h-.49v-.16h-.33v-.16h-.16v-.16h-.16l-.16-.16v-.16h-.16V83h-.16v-.16a.14.14 0 0 1-.16-.16h-.16v-.16h-.16v-.16l-.16-.16v-.33a.14.14 0 0 1-.16-.16h-.16v-.16h-.33v.16a.14.14 0 0 1 .16.16c0 .11 0 .16.08.16s.08.06.08.16v.16l.16.16.33.65h.16a.47.47 0 0 0 .16.33h.16v.16l.16.16V84a.48.48 0 0 1 .33.16.14.14 0 0 1 .16.16.33.33 0 0 1 .24.08.33.33 0 0 0 .24.08.68.68 0 0 1 .49.16h1.63a.47.47 0 0 0 .33-.16h.33v-.16h.33v-.16h.33V84h.16a.14.14 0 0 0 .16-.16h.16l.16-.16h.15v-.16h.16v-.16h.16l.16-.16h.16V83h.16l.16-.16v-.16h.16a.14.14 0 0 0 .16-.16zm-.33 2.17l-.16-.16h-.16v.16h-.49v.16l-.16-.16v.16h-.16v.16h-.16a.14.14 0 0 0-.16.16h-.16l-.16.16H133a.14.14 0 0 0-.16.16h-.33v.16h-.65v.16h-.65v.16h-.82v-.16h-.82a.14.14 0 0 0-.16-.16h-.16v-.16h-.49v.33a.47.47 0 0 1 .33.16h.16v.16h.16c.11 0 .16 0 .16.08s.11.08.33.08h.49a.46.46 0 0 0 .33.16h.49a.33.33 0 0 0 .24-.08.65.65 0 0 1 .41-.08v-.16h.16v.16h.16a.14.14 0 0 1 .16-.16h.49v-.16h.33v-.16h.33v-.16h.33v-.16h.18l.16-.16h.16V85h.16l.16-.16h.16v-.16h.2zm-5.39-2v.33h.33v.2h.16v-.16h.16v-.49h-.16a.15.15 0 0 0-.16-.16h-.16V82h-.16v.16h-.16v.16h-.16v.16zm1.31.49v.16h.65V83h.33v-.33l-.16-.16h-1v.16h-.16V83zm1.31-.65h.16l-.16-.16zm.16.33h.16l.16-.16h.16v-.33h-.16V82h-.33zM134 67.16a.47.47 0 0 0-.16.33h.33a.47.47 0 0 1 .16-.33l.49-.82.18-.34.16-.16a4.93 4.93 0 0 1 .33-.57 5.72 5.72 0 0 0 .33-.57c0-.11 0-.16.08-.16s.08-.05.08-.16a.33.33 0 0 1 .08-.25.34.34 0 0 0 .08-.24l.16-.16v-.16h.16v-.17l.49-.65a.94.94 0 0 1 .33-.65l1-2V60l.16-.16v-.16h.16v-.16l.16-.16a.71.71 0 0 1 .08-.33.73.73 0 0 0 .08-.33h.16v-.2l.16-.16v-.16h.16V58l.16-.16v-.16h.16v-.16c0-.11 0-.16.08-.16s.08-.05.08-.16a.33.33 0 0 1 .08-.24.33.33 0 0 0 .08-.25.14.14 0 0 0 .16-.16l.16-.16v-.16l.16-.16v-.16h.16v-.33h.16v-.33l.16-.16v-.16h.16v-.33h.16v-.33a.14.14 0 0 0 .16-.16v-.16h.16v-.35c.11 0 .16-.11.16-.33a.14.14 0 0 0 .16-.16.14.14 0 0 1 .16-.16v-.16l.16-.16v-.33h.16v-.16l.33-.49v-.16l.16-.16v-.16a.47.47 0 0 0 .16-.33h.16v-.34h.16v-.33l.16-.16v-.16h.16v-.16h-.33v.16h-.16V50l-.16.16v.16H143v.16a.14.14 0 0 0-.16.16v.16h-.16v.2h-.16v.33h-.16v.16h-.16v.16l-.16.16v.33h-.16v.16a.14.14 0 0 0-.16.16v.16h-.16v.33l-.16.16v.16h-.16v.33H141v.33a.67.67 0 0 0-.16.49h-.16v.16h-.16v.33h-.16v.33h-.16v.33h-.16v.33h-.16v.33h-.16v.16l-.16.16v.16l-.16.16V57a.14.14 0 0 0-.16.16.14.14 0 0 1-.16.16v.33h-.16v.16l-.16.16v.16h-.16v.33h-.16v.33a.14.14 0 0 0-.16.16l-.16.16v.16l-.16.16v.33h-.16V60h-.16v.33a.14.14 0 0 1-.16.16v.33a.14.14 0 0 0-.16.16v.16h-.16v.33H137v.16l-.16.16v.33h-.16v.16h-.16v.33h-.16v.16l-.33.49v.16h-.16v.33h-.16v.33h-.16v.16c0 .11-.11.27-.33.49v.16L135 65v.33a.14.14 0 0 0-.16.16c0 .11-.11.27-.33.49 0 .11 0 .16-.08.16s-.08.06-.08.16a.14.14 0 0 1-.16.16.47.47 0 0 1-.16.33zm.33-3.43h.16l.16-.16h.16v-.17h.19v-.33h.16v-.33h.16v-.33h.16v-.49h.16v-.16h.16v-.33h.2v-.33h-.49v.16a.14.14 0 0 0-.16.16v.16h-.16v.16a.47.47 0 0 0-.16.33v.16h-.16v.16h-.16v.33h-.16v.33h-.16zm2.12-4.08a.14.14 0 0 1 .16-.16l.16-.16v-.16c.11 0 .16 0 .16-.08s.05-.08.16-.08v-.33h.16v-.18l.16-.16v-.16l.33-.33h-.16v-.16h.16v-.16h.16v-.16l.16-.16V57h.16v-.16a.14.14 0 0 0 .16-.16v-.16h.16v-.33a.14.14 0 0 0 .16-.16v-.16h.16v-.33l.16-.16v-.33h-.16l-.16.16h-.16v.16h-.16v.16h-.16v.33h-.16v.33h-.16v.33h-.16v.16h-.16V57h-.16v.33h-.16v.16h-.16V58h-.1v.16l-.16.16v.16h-.16v.33h-.16V59l-.16.16v.33zm2 3.27a.14.14 0 0 1-.16-.16h-.16v.16h-.16v.16h-.16v.16l-.16.16v.16a.14.14 0 0 0-.16.16v.33h-.16v.16h-.16v.16l-.16.16v.33h-.16v.33h-.16v.16h.65v-.15h.16v-.33h.16v-.33h.16v-.33h.16v-.49h.16v-.16h.16v-.33h.16zm5.23-10h-.33v.16h-.16v.16H143v.33h-.16v.16h-.16v.16h-.16v.33h-.16v.33h-.16v.33h-.2v.16c0 .11 0 .16-.08.16s-.08.06-.08.16v.16h-.16v.33h-.16v.33h-.16v.33h-.16v.33h-.2v.33h-.16v.16l-.16.16v.16h-.16V58h-.16v.49h-.16v.33h-.16v.33h-.16v.33h-.16v.16h-.16V60h-.16v.33h-.16v.16l-.16.33v.33h-.16l-.16.33-.16.16v.16l-.16.16a.14.14 0 0 0 .16.16v.16h.16v-.16l.33-.49.16-.16a.94.94 0 0 0 .33-.65.14.14 0 0 0 .16-.16l.16-.16v-.33l.33-.33a.47.47 0 0 1 .16-.33v-.16l.49-.82v-.33h.12V58a.47.47 0 0 0 .16-.33h.16v-.33h.16v-.16l.16-.16v-.16l.16-.16v-.16h.2v-.33h.16v-.33h.16v-.33a.14.14 0 0 0 .16-.16v-.16a.14.14 0 0 0 .16-.16v-.16l.16-.16v-.16h.2v-.33l.16-.16v-.33h.16v-.17l.16-.16v-.33h.16zm-4.08 1l.16.16v-.16h.16v-.16h.16v-.33h.16v-.65h-.49v.33h-.16v.49h-.16v.33zm.82-1v-.16h-.16zm15.36-21.56q1.14 1.47-.16 3.84a23.82 23.82 0 0 1-3.43 4.66 29.14 29.14 0 0 1-4.41 3.92q-2.29 1.63-3.1 1.47-1.47 0-1.47-2.21a23.73 23.73 0 0 1 .57-4.9 34.84 34.84 0 0 1 1.39-4.9 15.18 15.18 0 0 1 1-2.37 1.31 1.31 0 0 1 1.06-.9 17.72 17.72 0 0 1 2-.41 8.8 8.8 0 0 1 2-.08 7 7 0 0 1 1.47.24 6.66 6.66 0 0 1 3.05 1.67zM144 42.17l-.16-.49.16.65zm0 0h.33l.16-.33-.33-.33-.16.33zm.49-.33h.16v.33h.16l.49-.33-.49-.16-.16-.16v.16zm1-.33l.16-.16h-.33v.16zm2-8.82c0-.11.11-.16.33-.16l-.33-.16-.49-.49.49.65zm0-.33h1l-.16-.16.16-.33-1.14-.33.16.65zm1-.49h.16l.16-.16h-.16zm.33-.16l.16.49.02-.2 1.31.33-.33-.49v-.16l-1-.16h-.16zm1.63-.49v-.16l.16-.16h-.33l-.33.16v.16zm57.9 2.13a3.42 3.42 0 0 1 2.53 1.65 4.36 4.36 0 0 1 .57 2.7 4.08 4.08 0 0 1-1.23 2.45 3.65 3.65 0 0 1-2.7 1.06l-3-.16q-2.86-.16-7.11-.24t-9.56-.25l-10.37-.33-8.17 15.35a.67.67 0 0 1-.16.49q-.33.82-1.55 3.19t-3 5.31l-.82 1.63q-2 3.59-3.59 6.7t-2.94 5.72q-.65 2 .74 1.31a20.23 20.23 0 0 0 3.35-2.12 41 41 0 0 0 3.68-3.1l1.88-1.8a14.88 14.88 0 0 1 3.76-2.21q1.31-.41 1.8.16a1.93 1.93 0 0 1 .24 1.72 7.77 7.77 0 0 1-1.1 2.42c-.11.22-.24.46-.41.74a12.66 12.66 0 0 1-.73 1.06c-.33.44-.71.93-1.14 1.47a19.71 19.71 0 0 1-1.47 1.63l-1.8 2-.82.82v.16l-.33.16-1.8 1.47a12.88 12.88 0 0 1-4.25 2.12 1.87 1.87 0 0 1-1.06.33h-1.06a5.82 5.82 0 0 1-2.29-.16l-.44-.2a.64.64 0 0 1-.41-.08.33.33 0 0 0-.24-.08l-1-.49a3.53 3.53 0 0 1-1.63-1.31 8.67 8.67 0 0 1-1.88-3 5.37 5.37 0 0 1 .08-4 22 22 0 0 1 1.55-3.51q1.22-2.37 2.53-5t2.53-4.9q1.22-2.29 1.71-3.27L167.35 40h-1.8a3.18 3.18 0 0 1-2.7-1 3.07 3.07 0 0 1-.65-2.12 3.46 3.46 0 0 1 1-2.12 4.42 4.42 0 0 1 2.37-1.31h5.06q1.63-3.27 2.7-5.47t1.39-2.7l2.61-5.23q.49-.82 2.12-.82a8.91 8.91 0 0 1 3.27.82 5.81 5.81 0 0 1 2.61 2.12 3.47 3.47 0 0 1 0 3.27l-4.25 7.84h27.28zM150 80.88v-.49l-.33-.33-.16.33zm-.16-.65h.16l-.16-.16zm.82 2.78l.16-.16.49-.16-.16-.16.16-.33h-.16l-.33-.33h-.16l.16-.16-.16-.33v-.16l-.46-.22-.33.33.33.33-.16.16.16.16v.16h.49l-.16.49.33.16h-.16zm1.8-1.8l-.16-.16.16-.16-.16-.33-.33-.33v-.16l-.16-.33.16-.16h-.33l.16-.49h-.49c.11-.11.11-.16 0-.16l-.16-.16.16-.16h-.16l-.33-.49-.33-.33v-.33l-.16-.16-.16.65.16.16v.49l.16-.33-.16.49h.16v.16l.16.16.16.33.33.16v.16l.16.33-.16.16.33.16-.16.16h.49l-.16.49h.36l-.16.16.33.49H152l.49.33v.16l.16.33v.16l.16.16v.49l.16.16h.16c.11 0 .11.06 0 .16l.33.33a.21.21 0 0 0 0 .33l.65.65.16-.16-.16-.33v-.16l-.16-.16.16-.16c-.11 0-.16-.08-.16-.24s-.11-.25-.33-.25a.47.47 0 0 1-.16-.33l-.16-.33a.47.47 0 0 0-.16-.33v-.33l-.49-.49-.16-.33zm-.82 2.12v.16l-.16-.16-.16.33h.16v.49h.16l-.16.16.33.16.16-.16.33-.16-.16-.16.16-.33-.33-.16.16-.16zm.49-5.23l.16.16h-.16l.16.49.33.65h.16v.16l.33.16-.16.33.33.33h-.16l.49.49h-.16l.49.33h-.33l.33.49.16-.49.16.16.16-.16a.47.47 0 0 1-.16-.33v-.16l-.16-.16-.16-.16v-.16h-.33v-.16l-.16-.33.16-.16-.33-.16.16-.33-.49-.16.16-.16-.33-.49h.22l-.33-.16v-.16l-.33-.16zm2.29 3.27l-.16.65.16.16v.33l.33.16h.16l.33-.49h-.33l.16-.16-.65-.33zm15-34.79a.88.88 0 0 1 .33-.41.26.26 0 0 0 .16-.25c0-.33.11-.49.33-.49v-.49a2.61 2.61 0 0 0 .82-1.47v-.33h.16l.16-.33v-.16h.16a1.12 1.12 0 0 1 .08-.49.73.73 0 0 0 .08-.33h.16v-.16h.16V41h.16l.16-.49h.16a.14.14 0 0 1 .16-.16l.16-.16v-.33c.11 0 .16-.11.16-.33v-.16h.33l-.16-.16v-.16l.16-.49h.33v-.65h.16v-.16l.16-.16v-.49l.16-.33.16-.49h.16c0-.22.11-.27.33-.16v-.82l.33-.33v-.16h.16l.16-.65.16-.16v-.82l.16-.16v-.16h-.16l-.33.33v.16h-.16v.33H175V34c-.11 0-.11.06 0 .16v.33h-.16l-.16.16h-.16l-.16.49h-.16v.33l-.16.16v.82l-.16-.16v.33h-.33l-.16.49v.49h-.33v1h-.33l-.16.49-.16-.16v.49l-.16.33h-.16v.82h-.33l-.16.49h-.16v.65a.14.14 0 0 0-.16.16h-.16v.49h-.16v.49h-.33l-.16.16h-.16v.49h-.16l-.16.82.16.33h-.33l-.16.49h-.16v.65l-.16-.16v.16a1.82 1.82 0 0 0-.16.82H169v.33h-.33l-.16.49v.16a.14.14 0 0 1-.16.16v.65h-.16l-.16.33q-.33 0-.49.49l.16.49h-.16v.49a.14.14 0 0 0-.16.16v.49h.33v-.35c0-.22.05-.35.16-.41s.16-.19.16-.41h.16l-.16-.49h.16a2.16 2.16 0 0 1 .41-.57 1.87 1.87 0 0 0 .41-.74v-.16l.16-.49.16-.16zm-1.63-.16h.21v-.65h.33v-.49h.16l.16-.65h.16l-.16-.33v-.16l-.33-.16v.16H168v.16h-.16l.16.49-.16.16v.33h-.16v.49h-.33v1h.49zm1.47-4.08h.16c0-.22.05-.33.16-.33v-.33h.42v-.16l.33-.33a.66.66 0 0 1 .16-.49v-.33h.16V40l.16.16V40h.33l.16-.65h.16l-.16-.33.16-.49.33-.16v-.33h-.49v.33h-.33v.16h-.16l-.16.49-.16-.16v1h-.33V40H170v.65l-.16-.16-.16.49h-.16v.33h-.16v.33l-.33.16v.33zm2.12 4.08a.14.14 0 0 1-.16-.16h-.16v.16h-.16v.33h-.16l-.16.49c-.11-.11-.16-.05-.16.16h-.33v1.3h-.33l-.16.16h.82l.16-.16h.16V48h.16v-.49h.16v-.49l.08-.16c-.06.11 0 .06.24-.16zm4.25-10l-.16.33v.16h-.16v.33H175v.49h-.16v.33h-.16v.49l-.16.49h-.33l.16.33a.14.14 0 0 0-.16.16L174 40a.47.47 0 0 1-.16.33v.33h-.33l-.16.49h-.33v1l-.16.33-.16.49h-.16v.33c-.22-.11-.33-.05-.33.16h-.16V44l-.16.33.16.33c-.22 0-.33.06-.33.16l-.33.33v.82h.16l.33-.33v-.49l.33-.33a.14.14 0 0 1 .16-.16.14.14 0 0 0 .16-.16h.16v-.7h.16v-.49l.33-.33a1.05 1.05 0 0 0 .24-.49c.05-.22.13-.33.24-.33l-.16-.16h.33v-.65h.17l.16-.65h.33l.16-.33v-.49l.16-.33h.19v-.16c0-.11.11-.16.33-.16v-.49l.16-.33v-.82h.16v-.65h.35l.16-.49zm-3.59.16v.33h.16l.16-.33h.16v-.49l.16.16v-.45l-.49-.16v.16h-.16v.65h-.16v.16zm5.23-10.29a.15.15 0 0 0-.16-.16H177v.16h-.16v.16h-.16V27h.16v.16h.33v-.33h.16zm.16-.65v-.14h.16v-.16h.16V25h.25v-.16h.16v-.33h.16v-.31h-.65v.33h-.16v.33h-.16l.16.16h-.16v.16h-.16v.49zm1.63.49l.16-.16v-.16a.14.14 0 0 1 .16-.16v-.15h.16v-.33h.16v-.33h.16v-.33h.16v-.31l.16-.16v-.33a.14.14 0 0 0 .16-.16v-.16h.16v-.33h.16v-.16h-.33l-.16.16v.16h-.16v.16h-.16l-.16.16v.16l-.16.16v.33h-.16v.33h-.16v.33h-.16v.33h-.16v.33h-.16v.33h-.16v.33h-.16v.49h-.16V27h-.16v.16l-.16.16v.16h-.16V28h-.16v.16l-.16.16v.16c-.11 0-.16 0-.16.08s.05.08.16.08v.16h.16l.33-.33v-.16l.33-.33v-.33h.16v-.16l.16-.16v-.16l.16-.16a.33.33 0 0 1 .08-.25.33.33 0 0 0 .08-.25v-.16h.16zm-1-2.45h.16v.16h.33v-.49h-.33v-.16h-.16zm1.63 4.08v-.16h-.16v.16h-.16V28h-.16v.33h-.16v.33h.65v-.49h.16v-.33zm1.47-2.29V25h.16v-.33h.16l-.16-.16v-.16h-.16v.16h-.33v.16h-.16v.49h-.16v.33h-.16v.33h-.16v.49h-.16v.33h-.16v.49h-.16v.33h.16v.16l.16-.16.16-.16.16-.16v-.33h.16v-.16a.47.47 0 0 0 .16-.33V26h.16v-.16a.14.14 0 0 0 .16-.16v-.18zM209 36.12a.14.14 0 0 0-.16.16 1.44 1.44 0 0 1-.65-.16l-.33.16-2.94-.16a1.7 1.7 0 0 1-1 .16l-7.19-.16V36l-.16.16v.16h.16v.16h1v.16h1v.16l.49.16.16-.16v.16h.49v-.16h.13v.16a.14.14 0 0 0 .16-.16c.22 0 .33.06.33.16v-.16h1.14v.16c0-.11.11-.16.33-.16l.16.16h.49v-.16l.16.16h.65v-.16h1l.33-.16v.16h.16v-.16l2 .16h.09l.33-.16h1.14c.22 0 .33-.05.33-.16h.2zM198.71 35v.16l.49.16v.16h.8l.16-.16v.16l.33-.16v.16l.16-.16h1v.16h.35v-.16h.16v.16h.16v-.16h1.31l.33-.16h.16l.16.16.16-.16h.33v-.33h-2.61L202 35v-.16l-3.43-.16V35zm1.14 2.78v.16h-.65v.49h.65v-.16l.16.16v-.49zm4.25.33a.14.14 0 0 1-.16-.16h-2v-.16a.47.47 0 0 0-.33.16h-.82v.33h.33v.16h1.47l.16.16v-.16h1.31zm1-3.1c0 .11.11.16.33.16l1.31.16v-.16h.16v-.49h-.49v.16l-.82-.16v.16l-.16-.16a.47.47 0 0 0-.33.16zm2 2.94h-.16v-.16h-.16l-1.14-.16v.16h-.16l-.33-.16v.49h.33l.16.16h.16l.33-.16.82.16a.14.14 0 0 0 .16-.16zM306.43.19a15.28 15.28 0 0 1 8.17 2.94A13.61 13.61 0 0 1 319 9a16.56 16.56 0 0 1 1 7.35 18.35 18.35 0 0 1-2.21 7.35 19.61 19.61 0 0 1-5.23 6 16.23 16.23 0 0 1-7.77 3.3 2.53 2.53 0 0 1-2.21-.33q-.9-.65-.41-1a19.15 19.15 0 0 0 3.43-3.19 38.3 38.3 0 0 0 3.68-4.9 32.28 32.28 0 0 0 2.86-5.58 10.71 10.71 0 0 0 .82-5.31 5.72 5.72 0 0 0-2.45-3.92q-2.12-1.55-6.7-1.55a38.43 38.43 0 0 0-6.78.57 46.37 46.37 0 0 0-6.94 1.88L286.17 11q-9.64 5.39-12.41 9.72a9.49 9.49 0 0 0-1.31 8.58 24.54 24.54 0 0 0 5.8 8.74q4.33 4.49 9.07 10.21a26.25 26.25 0 0 1 4.9 7.51 22.89 22.89 0 0 1 1.31 10 36.18 36.18 0 0 1-5 16.82 38.28 38.28 0 0 1-10.62 11.43 42.8 42.8 0 0 1-13.64 6.37 48.61 48.61 0 0 1-13.72 1.8 39.84 39.84 0 0 1-7.51-1.06 20.59 20.59 0 0 1-6.7-2.86 13.45 13.45 0 0 1-6-12.9 21 21 0 0 1 3.43-10.21 34.16 34.16 0 0 1 7.68-8.41 43.09 43.09 0 0 1 10-5.88A36.74 36.74 0 0 1 262.32 58a7.38 7.38 0 0 1 1.39-.16h1.39a6.1 6.1 0 0 1 3.1.49.8.8 0 0 1 .16 1.23 6.77 6.77 0 0 1-1.8 1.63q-1.31.9-2.78 1.72-3.27 1.8-7.43 3.68a62.94 62.94 0 0 0-8 4.33 28.3 28.3 0 0 0-6.62 5.8 13.79 13.79 0 0 0-3.1 8.09 12 12 0 0 0 .24 3.68 6.65 6.65 0 0 0 2 3.43 10.66 10.66 0 0 0 4.66 2.37 26.44 26.44 0 0 0 8.25.49 29.24 29.24 0 0 0 11-2.86 39.57 39.57 0 0 0 9.56-6.37 37.93 37.93 0 0 0 7.18-8.55 25 25 0 0 0 3.48-9.76 19 19 0 0 0-1.14-9.56 18.52 18.52 0 0 0-6.86-8.16l-1.47-1.63q-1.8-1.63-3.84-3.51a31.81 31.81 0 0 1-3.84-4.25 21.66 21.66 0 0 1-2.94-5.31 15.27 15.27 0 0 1-.82-6.86 22.4 22.4 0 0 1 4.66-12.41 36.73 36.73 0 0 1 10.29-9.07 45 45 0 0 1 13.39-5.31 44.07 44.07 0 0 1 14-.98zm-68.28 74l.49-.16a.47.47 0 0 1 .33-.16l.16-.49a.94.94 0 0 0 .65-.33.47.47 0 0 0 .16-.33v-.16c.11 0 .13 0 .08-.08s0-.08.08-.08h.16l.82-.65.65-.33.49-.65a.14.14 0 0 1 .16-.16c.11 0 .16-.11.16-.33v-.18a.14.14 0 0 0 .16-.16.14.14 0 0 1 .16-.16l.16-.16.33-.49a.47.47 0 0 0 .33-.16l.82-.49h.16l.49-.33.16-.16.49-.33.65-.33.33-.33.49-.33a.14.14 0 0 0 .16-.16h.16l.16-.16.82-.49h.49l.33-.16.33-.16v-.34h.49c.33-.33.49-.43.49-.33l.65-.16.65-.49a6.6 6.6 0 0 0 .73-.08c.38-.05.57-.19.57-.41h.16l.82-.33a.27.27 0 0 1 .33-.08c.11.06.16 0 .16-.25l1.14-.49h.16c.11 0 .16 0 .16-.08s.05-.08.16-.08h.16a.14.14 0 0 0 .16-.16h.33a2.73 2.73 0 0 1 .82-.16 1.29 1.29 0 0 0 .82-.16h.16l.33-.16 1-.33a.14.14 0 0 1 .16-.16c.22 0 .33-.05.33-.16h-.33a.33.33 0 0 0-.24.08.33.33 0 0 1-.24.08l-1.31.33a1.44 1.44 0 0 1-.65.16l-.65.16c0 .11-.27.16-.82.16l-1.14.33a.14.14 0 0 1-.16.16h-.49l-.82.49-.16.16h-.16l-.65.33a.78.78 0 0 0-.57.25.78.78 0 0 1-.57.25l-2 1a7.64 7.64 0 0 0-1 .41l-.82.41-1.63 1c0 .22 0 .27-.08.16s-.08-.05-.08.16l-.49.33a1.06 1.06 0 0 0-.9.33 6 6 0 0 1-.57.65l-1.14.33V69l-.33.16v.49h-.16v.16l-1.31 1.14c-.22 0-.33.08-.33.24s-.22.35-.65.57l-.16.33a.14.14 0 0 0-.16.16l-.82.65-.82.82-.16.16-.49.49v.49l-.65 1a2 2 0 0 1-.41.74 1.77 1.77 0 0 0-.41.9v.16H236v.16l-.16.16-.49 1.14a1.1 1.1 0 0 0-.33.82l-.65 2.45.16.16-.16.65a.15.15 0 0 1 .16.16v.16l.33-1.47v-.35l.49-2 .82-1H236a.14.14 0 0 0 .16-.16v-.33h.16l.33-.82.16-.16.16-.16.16-.16.16-1v-.33l.33-.49a.47.47 0 0 1 .16-.33.47.47 0 0 0 .16-.33h.16zM236 75.82l.33-.33.33-.49.49-.82.49-.33v-.49l.16-.33.33-.49a.14.14 0 0 0 .16-.16l.33-.16.33-.49.82-.33.33-.49a.47.47 0 0 0 .33-.16l.33-.33.33-.49a.47.47 0 0 0 .33-.16l.33-.16.16-.49a.47.47 0 0 0 .33-.16l.49-.16.33-.49.65-.65.65-.16.16-.16v-.16l.16-.16c.11-.11.19-.16.24-.16s.19-.11.41-.33h.16a.14.14 0 0 1 .16-.16l.49-.33c.22 0 .33-.05.33-.16l.49-.16.65-.49.65-.33a.66.66 0 0 1 .16-.49.47.47 0 0 1 .33-.16l-.16-.16a.14.14 0 0 1-.16.16l-.82.49-.16.16-1.31 1a1.33 1.33 0 0 0-1 .33L242.88 68a.43.43 0 0 1-.49.49l-.16.16-.16.16h-.33l-.82.82h-.16c.11 0 .05.11-.16.33l-.16.16-.16.16-.16.16q0-.16-.73.49a6 6 0 0 1-1.06.82v.16c0 .11-.11.16-.33.16v.16l-.16.16-.49 1v.33c-.11 0-.38.22-.82.65l-.16.33-.33.82c-.44.22-.57.35-.41.41s.13.08-.08.08l-.33 1a.34.34 0 0 1-.08.24.33.33 0 0 0-.08.25l-.16.49a.47.47 0 0 0-.33.16v.16l.33-.16.33-.16v-.65l.33-.16.49-1zm2.61.33l-.16-.16.16-.33.65-.49V75l.33-.16a.14.14 0 0 1-.16-.16l-.65.33-.49.65-.63 1.34h.49l.33-.82zm1.31 19.77h-.16l.16-.16-.33-.16-.16.33v.16h.49zm7.84-28.42l-.33.16-.16.16-.65.49a1.26 1.26 0 0 1-.49.16.47.47 0 0 0-.33.16l-.33.16h-.16l-.82.82h-.33v.16l-.33.16-.33.33a.47.47 0 0 0-.16.33H243l-.33.82-.65.33-.16.16v.33a.47.47 0 0 0-.33.16h-.16a.14.14 0 0 0-.16.16l-.33.33.65.16.16-.49.82-.82h.16l.49-.49v-.33h.16l.49-.33.65-.65.65-.33.33-.49.49-.33a.66.66 0 0 0 .49-.16v-.16h.33l.33-.16.16-.16.16-.33h.16zm-5.69 30.2l-.65-.16.33-.16h-.16c-.11 0-.16 0-.16.08s-.06.08-.16.08h-.16l.16.16 1 .33v-.33zm2.12 1l-.16-.33h-.16v.33h-.33l.82.33v-.33zm3.43 1.14v-.16h-.49l.16.16-.29.16h.16l.65-.16zm2 0l-.65.16.16.16 1.14-.33zm.49-36.1l.33-.16 1-.33.82-.33.33-.16.82-.33a.14.14 0 0 1 .16-.16l.33-.16h.65l.82-.33.16-.16a.15.15 0 0 0-.16-.16h-1l-.49.33-.65.33h-.49l-.33.33-.82.33-.49.33-.65.33zm4.9.33h-.65l-.65.33-.49.33-.82.33-.65.16-.49.49a.47.47 0 0 1-.33.16h-.16l-.16.16 1-.16.65-.16a.14.14 0 0 0 .16-.16v-.35h.82l.16-.16.49-.16.49-.33a.14.14 0 0 0 .16-.16l.49-.16zm-.82 35.77l-.16-.16-2 .16h-.16l-.33.16a.14.14 0 0 0 .16.16l2.12-.16zm3.59-.65v.49l.33.16v-.16h.33v-.49zm2.94-1l-.82.82h.65v-.16l.49-.65zm3.92-1.31v.16l-.49.33-1.47.49 1.14-.16.65-.16.33-.65zm19.28-14l-1.47 1c0 .11 0 .16-.08.16s-.08.06-.08.16v.33l-1.31.82a.47.47 0 0 1-.16.33l-.33.33-.33.49-2.97 2.5v.33l-1.31.65a.14.14 0 0 0-.16.16h-.16l-.16.33a.14.14 0 0 0-.16.16h-.16c-.11.22-.22.27-.33.16s-.44.11-1 .65h-.33c0 .22-.06.33-.16.33l-.33.16c.11.22.11.27 0 .16s-.11-.05 0 .16h-.33a.47.47 0 0 0-.33.16l-.33.33a.14.14 0 0 0-.16.16l-.82.65a.47.47 0 0 0-.33.16.47.47 0 0 1-.33.16l-.16.33a.47.47 0 0 0-.33.16h-.16a1 1 0 0 0-.65.16l-.49.49a.67.67 0 0 0-.49.16l-.16.49a.14.14 0 0 0-.16.16h-.16l-.65.49h.49v-.16h.33l.65-.33.49-.82.82-.16.65-.65.65-.16h.33l.33-.49c.11 0 .27-.11.49-.33a.47.47 0 0 1 .33-.16l.33-.16a.14.14 0 0 0 .16-.16h.16a.66.66 0 0 1 .16-.49.47.47 0 0 1 .33-.16l.65-.33.49-.33.65-.33.33-.49.33-.16.49-.49.16-.16h.16c0-.22.05-.27.16-.16s.16.06.16-.16l.33-.16c.11 0 .16-.11.16-.33l.33-.65h.33l.33-.33.65-.49.65-.65.82-.65.16-.33.65-.65a.14.14 0 0 0 .16-.16l1-.65c0-.22 0-.33.08-.33s.08-.05.08-.16h.16c0-.11 0-.16.08-.16s.08-.11.08-.33h.33a.14.14 0 0 0 .16-.16v-.16A.47.47 0 0 0 284 83v-.16zm-16-55.21v-.49l-.33.33h-.16a.14.14 0 0 0 .16.16l-.16.16h.33zm.16 2.29v-1h-.49v.82h.16l-.16.49.65-.33zm0-3.76l.16-1-.49.33.16.65zm.65 6.53l-.49-.16-.33.33h.65zm0-9.8l-.33.16h.33l.33-.33zm.49 11.27L269 34h-.33v.49h.33v.33l.16-.33-.16-.16zm.65-12.41v-.33l.33-.33a.14.14 0 0 1-.16-.16h-.33v.33l-.33.33.33.16zm-.49 13.72l.16.49-.16.16h.16l.65.49-.16-.49V36l-.65-.65zm.33-13.72l-.16-.16h.16zm-.16 71.71h.45l.65-.49v-.33l1-.16-.16-.33.51-.19 1-.65.33-.16.49-.49.65-.16 1-.82.16-.49.49-.49.49-.33.33-.33.65-.16.16-.16-.16-.33a.47.47 0 0 0 .16-.33l.16-.33-.49.65-1.14.65-.49.49-.16.16-1.22 1.28h-.33a.47.47 0 0 0-.33.16l-.49.33-.49.49-.33.16h-.33l-.16.16-.65.49a.14.14 0 0 1-.16.16l-.16.16-.49.16a.14.14 0 0 1-.16.16l-.49.33-.33.49zm1.8-74l-.16-.16-.16.33-.33.16h.16zm1.8 74.49l-.82.16-.65.33v.49l.33-.33.33-.16h.16v-.16l.49-.16zm5.18-3.99l-.33-.16a.14.14 0 0 1-.16.16l-.16.33h-.33v.16a.34.34 0 0 0-.25.08.33.33 0 0 1-.24.08v.16c-.11 0-.27.11-.49.33l-.33.16-.16.16-.49.16-.16.33h-.16l-.49.33v.33l-.49.33h-.16l-.16.16h1l.49-.49.33-.49.33-.33.82-.33.33-.33.49-.33a.14.14 0 0 1 .16-.16l.16-.16v-.33h.33zm32.51-86.55l-1-.16h-.16V3H309l-1.63-.33h-5.06a2.3 2.3 0 0 0-1 .16h-1.14a.14.14 0 0 0-.16.16h-.65a.26.26 0 0 0-.24.16.26.26 0 0 1-.25.16h-.49a.14.14 0 0 0-.16.16l-1.22.15h-.82v.33h-.49a.33.33 0 0 0-.24.08.33.33 0 0 1-.24.08h-.33l-1 .33a.14.14 0 0 0-.16.16h-.49l-.82.16h-.16l-.65.16a.14.14 0 0 0-.16.16l-.49.16-1.63.65a.47.47 0 0 1-.33.16h-.16l-1.14.33-.16.16h-.16l-.33.16-.49.16h-.16a.14.14 0 0 0-.16.16l-.49.16v.16l-.49.33-.65.16a1.41 1.41 0 0 0-.57.25c-.27.16-.52.3-.74.41h-.16c-.11 0-.16.11-.16.33V9h-.16v.16l-.65.33-.49.33-.65.33a.52.52 0 0 0-.33.49h-.16a.47.47 0 0 1-.33.16c-.11 0-.16.11-.16.33v.16l-2 1.31a.14.14 0 0 0-.16.16.14.14 0 0 1-.16.16l-1 .49a.64.64 0 0 1-.49.65l-.65.82 3.1-2.29a.47.47 0 0 1 .33-.16l1.31-1 .16-.33a.14.14 0 0 1 .16-.16l1.8-1.31c.11 0 .16 0 .16-.08s.05-.08.16-.08l1-.49c.11-.43.27-.65.49-.65l4.57-1.8a1 1 0 0 1 .73-.33 1.65 1.65 0 0 0 .9-.33h.16l.16-.16h.16v-.13l1-.33a3.06 3.06 0 0 0 1-.16c.33-.11.49-.22.49-.33h.82l1.14-.16.16-.16 2.29-.33a.47.47 0 0 1 .33-.16h.49l.16-.33h.82l2.37-.17c.22 0 .33-.05.33-.16l.16.16a.14.14 0 0 0 .16-.16h5.39a1.85 1.85 0 0 1 .82.16h.82l-.16.16h1.14zM278 44.29l.33.33 1 .65-.16.49.65.16.49.33-.16.16h.16l.82.65.33.33a.43.43 0 0 0 .49.49l.16.16-.16.33v.33h.16l.16.16a.15.15 0 0 1 .16.16h.16l.65.49-.16.16h.16l.16.49.16.16.16.16q-.16.33.24.24c.27-.05.35 0 .24.08l.33.33a.15.15 0 0 1 .16.16l-.16.16 1.31 1.31h.16a.14.14 0 0 1-.16.16l.16.16c.11 0 .13 0 .08.08s0 .08.08.08v.33h.16v.16l.33.49v.33l.49.65c0 .22 0 .3.08.25s.08 0 .08.08l.16.33v.33l.49.65-.16.16.33.16.33.33c0 .55.16.82.49.82v.16l-.33.16h.16l.16.16c0 .33.11.49.33.49l-.16.49.33-.65a.46.46 0 0 1-.16-.33l-.16-.65c0-.11 0-.16-.08-.16s-.08-.05-.08-.16l.16-.16-1-1.31c.11-.33.11-.43 0-.33s-.16.06-.16-.16l-.16-.33a.14.14 0 0 1-.16-.16l-.49-1-.33-.65-.16-.16-.65-1.43-.16-.16h-.16l-.33-.33a1.34 1.34 0 0 0-.49-.82l-.16-.33h-.16l-.16-.16-.49-.33a.48.48 0 0 0-.16-.33.46.46 0 0 1-.16-.33l-.16-.33h-.16v-.16h-.16l-.33-.16c0-.11 0-.16-.08-.16s-.08-.05-.08-.16v-.16h-.16l.16-.16v-.16h-.16l-.33-.65-.16-.16-.33-.33-.33-.16c-.22 0-.33-.05-.33-.16v-.33c-.22 0-.33-.05-.33-.16l-.33-.16v-.18l-.33-.33h-.33l-.16-.33h-.33l-.16-.16a.14.14 0 0 1-.16-.16c-.11 0-.16 0-.16-.08s-.06-.08-.16-.08l-.49-.33zm.33 42v.16a.15.15 0 0 1 .16.16h.33v-.16l.33-.16.16-.33.16-.33.49-.33.49-.16.33-.49-.65.16-.65.33-.33.49-.65.65zm2.78.33l-.33.82-.65.49a.14.14 0 0 0-.16.16h-.33l-.49.49.49.16v-.33a.47.47 0 0 0 .33-.16h.33a.14.14 0 0 1 .16-.16l1.63-1.63zm-.49-37.9v-.49h-.33l.33-.16-.33-.16-.33.82a.15.15 0 0 1 .16.16.14.14 0 0 0 .16-.16l.33.16V49l.33-.16zm.65-39.53l.49-.16.49-.65.33-.16.32-.22.33-.33.82-.33.33-.33.65-.16a.47.47 0 0 0 .33-.16l.33-.16.49-.33h-.82l-.16.16-.82.33a.33.33 0 0 0-.24.08.33.33 0 0 1-.24.08h-.16a.14.14 0 0 1-.16.16l-.16.16-.82.33-.33.33a.14.14 0 0 0-.16.16l-.33.16a.47.47 0 0 1-.33.16h-.16l-.33.82zm0 35.94l.33.33-.16.33h.16l.16.16.49.33v.33l.49.16a.15.15 0 0 1 .16.16h.16v.33h.16l.33.49.16.16h.16l-.16.49.33.49h.49a.14.14 0 0 1-.16.16h.16l.33.16a.14.14 0 0 0 .16.16v.33l.33.16c0 .22.05.33.16.33l.33.16-.16.16h.16l.33.49.16.33c.22 0 .27.08.16.25s-.06.24.16.24l.16.16.16.16h.16l-.16.16h.33v.16l.16-.16h-.16v-.5h-.16q-.65-1-.49-1.14l-.33-.33-.16-.33-.82-.82v-.33h-.49v-.15h-.16v-.33h-.16l.16-.33-.49-.16a.46.46 0 0 1-.16-.33.48.48 0 0 0-.16-.33v-.32l-.49-.16-.33-.16h-.16l-.33-.65c0-.11-.08-.14-.24-.08s-.24 0-.24-.08l.16-.16-.16-.16a.14.14 0 0 1-.16-.16h-.33a.15.15 0 0 0-.16-.16v-.16l-.33.16zm5.06-36.75h-.49l-.16.16-.33.49c0 .11-.22.22-.65.33l-.16.16a.33.33 0 0 0-.24.08.33.33 0 0 1-.25.08h-.16l-.49.33-.65.16-.33.33-.16.16-.16.16-.33.49-.49.33 1-.16q0-.33.25-.24c.16.06.24-.08.24-.41l.49-.16.33-.33.65-.16 1-.65.33-.16h.16l.49-.33c.11 0 .16-.16.16-.49zm-1.8 45.25l.16-.16c-.33 0-.38-.11-.16-.33v-.49l-.16-.33H284l.16-.16h-.33c0-.11-.11-.16-.33-.16l-.49-.33v-.49l-.11-.18v-.16l-.16-.33h-.33l.16-.16h-.16a.15.15 0 0 0-.16-.16l-.49-.49v.65l-.16.16h.16l.33.16.65.65v.33l.33.33v.33h.33l.33.33.16.16-.16.16.49.16zm2.29 2.94l-.16-.16v-.33h-.16v-.49h-.33l.16-.16-.33-.33-.33-.49-.16.16.16.33v.49c.11 0 .16 0 .16.08s.11.08.33.08v.65l.16.33V57l.49.16.16-.65zM286.33 75l-.33 1h.33l.16-1zm.65-1.14l-.16.16-.16.33.49-.49zm.49-1.14h-.33V73l.33-.16zm18.14-68.29l-1.8-.16.16-.16-.49.16.16-.16-1 .16v-.16l-1.8.16v.16h-1.14l-.16.16-3.54.33-1.14.33-.82.33-.16.16-.88.16-.82.33h-.49l-.16.16-1.63.49h-.33c0 .22-.22.33-.65.33l-1.14.33-.33.33h-.16l.16.16c.11 0 .16 0 .16-.08s.05-.08.16-.08l1-.16 1.65-.71a2.64 2.64 0 0 1 1.14-.33l1.14-.33h.16c.11 0 .16 0 .16-.08s.05-.08.16-.08h.33l2.49-.6a.67.67 0 0 1 .49-.16l1.47-.33c.22 0 .33-.05.33-.16l2-.16h1.14c.22 0 .33-.05.33-.16h3.92zm-18 48.84l.49.33-.16.16v.16a.14.14 0 0 0 .16.16v.16c.11 0 .16 0 .16.08s.05.08.16.08l-.16.16h.16l.33.65v.33h.16l.65.16v-.49l-.49-.49v-.33h-.16l-.33-.33-.16-.49-.33-.33h.16c.11-.11.11-.16 0-.16h-.49zm.39 16.67v.16a.14.14 0 0 0-.16.16l.16.33-.33.33.16.33.49-.33v-1zm.49-1.31l-.16.16-.16.33h.33l.33-.49zm0-1v.16l.33-.16zm.65-2.94h-.16l.16.16-.33.33.82-.16h-.16l.16-.16-.49-.33zm-.19 1.31v.16l.33-.16zm.16-2.45l.65-.16a.15.15 0 0 0-.16-.16h-.33zm.33-58.81a.14.14 0 0 0 .16-.16zm.16-.16h.49a.71.71 0 0 0 .33-.08 1.14 1.14 0 0 1 .49-.08h.16l.82-.33h.16c.11 0 .16 0 .16-.08s.05-.08.16-.08l1.63-.48a.47.47 0 0 0 .33-.16h.67v-.16l.16-.16h.33l1.51-.33h.33a.14.14 0 0 0 .16-.16l.82-.16h.49l-.54-.32h-1l-.16.16h-.49a.14.14 0 0 1-.16.16l-1.14.33-1.8.16-.33.49h-.49l-1 .33h-.49v.33a1.28 1.28 0 0 0-.49.16l-1 .16v.16zm11.76-2.78l-.16.2c.11.11.16.11.16 0s.11-.16.33-.16l-.16.16h.16a.47.47 0 0 1 .33-.16l1.47-.33v-.18h-1.31l-.33.16.16-.16-.33.16H301v.33zM313.45 66q-2 3.59-3.59 6.7t-2.94 5.72q-.66 2 .82 1.14a26.59 26.59 0 0 0 3.58-2.56q2.12-1.72 4-3.51l2-2a14.88 14.88 0 0 1 3.76-2.21q1.31-.41 1.8.16a1.93 1.93 0 0 1 .24 1.72 7.77 7.77 0 0 1-1.06 2.45q-.16.33-.41.74a12.88 12.88 0 0 1-.74 1.06l-1.55 2a22.63 22.63 0 0 1-1.88 2.21l-1.8 2-1.14 1.14-1.8 1.47a12.87 12.87 0 0 1-4.25 2.12 1.87 1.87 0 0 1-1.06.33h-1.06a5.82 5.82 0 0 1-2.29-.16l-.49-.16c-.22 0-.35 0-.41-.08a.34.34 0 0 0-.24-.08l-1-.49a5.06 5.06 0 0 1-1.8-1.31 10.47 10.47 0 0 1-1.72-3 5.37 5.37 0 0 1 .08-4 22.09 22.09 0 0 1 1.55-3.51q1.22-2.37 2.53-5t2.53-4.9q1.23-2.29 1.72-3.27l1.47-2.94q1.31-2.61 3.1-6.37t3.92-8.09l4-8.17q1.88-3.84 3.27-6.62l1.71-3.43L327 20q.49-.82 2.12-.82a8.92 8.92 0 0 1 3.27.82 6.86 6.86 0 0 1 2.61 2.07 3.47 3.47 0 0 1 0 3.27L319 55.4a.67.67 0 0 1-.16.49q-.33.82-1.55 3.19t-3 5.47a7.08 7.08 0 0 0-.84 1.45zm-5.06-3.27a.15.15 0 0 0-.16-.16h-.16v.16h-.16v.16h-.16v.49h.16v.16h.33v-.33h.16zm.16-.65v-.16h.16v-.16h.16v-.33h.13v-.16h.16V61h.16v-.33h-.65V61h-.16v.33h-.16v.33h-.16v.49zm1.63.49l.16-.16v-.33h.16v-.16h.16v-.32h.16v-.33h.18V61h.16v-.33l.16-.16v-.33a.14.14 0 0 0 .16-.16v-.16h.16v-.33h.16v-.16h-.33l-.16.16v.16h-.16v.16H311a.14.14 0 0 0-.16.16v.16h-.16v.49h-.16V61h-.16v.33h-.16v.33h-.2v.33h-.16v.33h-.16v.33h-.16v.49h-.16v.33h-.16v.16l-.16.16v.16h-.16v.49h-.16v.16l-.16.16v.16c-.11 0-.16 0-.16.08s.05.08.16.08v.16h.16l.33-.33v-.16l.33-.33v-.33h.16v-.16l.16-.16v-.16l.16-.16a.33.33 0 0 1 .08-.25.34.34 0 0 0 .08-.24v-.16h.16zm-1.47-1.47l-.16-.16h.16zM312 81.21V81l.16-.16h.33l-.16-.16h.33v-.16l.16.16.33-.49v.16l.16-.16h.33v-.29l.16-.33v-.16h.49v-.33l.16.16.16-.33.16.16.16-.16-.33-.16-.49.16v.33l-.16-.16-.16-.16-.33.33h-.33l-.16.49v.33l-.33-.33v.16h-.16v.33h-.33l-.33.33-.16.33-.16-.16-.16.33v-.16l-.33.49-.33.16h-.33v.16l-.16.33-.19-.34-.16.49h-.16l-.33.33-.16.16-.16.16h.16l.65-.33h.65v-.16l.16-.16.35-.19-.16-.16.33-.16c.11 0 .27-.11.49-.33h.16zm-2.8-21.08h.16v.16h.33v-.49h-.33v-.16h-.16zm1 20.26a.14.14 0 0 1-.16-.16h-.16v.16h-.33l.16.16-.33-.16V81h.16l-.16.16h.33v-.33h.29zm.65-16.17v-.16h-.16v.16h-.16v.16h-.16v.33h-.16V65h.65v-.49h.14v-.33zm0 15l-.33.16-.16.16v.33l.33.16v-.13l.16.16v-.16l.16-.16.33-.16v-.16l.33.33v-.33l.16-.33-.33-.33-.33.16v.33zm1.63-18.46h-.16V61H312v.16h-.16v.49h-.16v.33h-.16v.33h-.16v.49h-.16v.33h-.2v.49h-.16v.33h.16v.16l.16-.16.16-.16.16-.16v-.23a.14.14 0 0 1 .16-.16v-.16c0-.11 0-.16.08-.16s.08-.05.08-.16v-.33h.2v-.16a.14.14 0 0 0 .16-.16v-.16h.16v-.49h.16v-.33h.16l-.16-.16zm-.82 22.05h.16l-.33-.16v.16h-.16V83l-.16.16-.33-.16v.33l.65.49v-.33l.16-.33.16.16V83zm.33-4.25h.16v.16l.33.16.16-.49-.49-.16.16-.16h-.16zm2.45 2.12l-.16-.33-.16.33-.16-.16-.33.33V81l-.16.16h-.16v.33h-.16l-.33.33-.16-.16-.16.33v-.16l-.16.49H312v.16l.16.16-.16.16h.16l.16-.33.33.16.16-.16.16-.16h.16c-.11-.11-.11-.16 0-.16s.11-.11 0-.33l.16-.16h.33c.11.22.11.16 0-.16h.49l.16-.49h.16zm.33-.33l-.33.16v.16h.16v-.16zm2-29.89a.47.47 0 0 1 .16-.33l.49-.82a.47.47 0 0 1 .16-.33v-.16l.65-1.14c0-.11 0-.16.08-.16s.08-.05.08-.16a.33.33 0 0 1 .08-.25.34.34 0 0 0 .08-.25l.16-.16v-.33h.16l.82-1.63c.11-.33.22-.63.33-.9s.22-.52.33-.74V43h.16v-.33a.14.14 0 0 0 .16-.16.14.14 0 0 1 .16-.16.64.64 0 0 1 .08-.41.34.34 0 0 0 .08-.25l.16-.16v-.16a.14.14 0 0 0 .16-.16V41a.14.14 0 0 0 .16-.16v-.14a.14.14 0 0 0 .16-.16v-.16a.14.14 0 0 0 .16-.16.67.67 0 0 0 .16-.49.14.14 0 0 0 .16-.16l.16-.16v-.33h.16v-.33l.16-.16v-.33h.16v-.33h.16v-.33h.16v-.16l.16-.16v-.33h.16v-.33a.47.47 0 0 0 .16-.33l.16-.16v-.33h.16v-.33a.14.14 0 0 0 .16-.16v-.16h.16a.66.66 0 0 1 .16-.49v-.33h.16v-.16a.47.47 0 0 0 .16-.33l.16-.16v-.33h.17V33h.16v-.33H325v.16h-.16l-.16.16v.16a.14.14 0 0 0-.16.16v.16h-.16v.33h-.16v.2h-.16v.33h-.16v.16h-.16v.33h-.16v.33h-.16v.33h-.16v.33l-.16.16v.16l-.16.16v.16a.14.14 0 0 1-.16.16v.33a.47.47 0 0 0-.16.33v.16h-.16v.16l-.16.16v.16l-.16.16v.16l-.16.16v.33h-.16v.33h-.16v.33h-.16v.33h-.16V40l-.16.16v.16H321v.33h-.16v.49h-.16v.16l-.16.16v.33h-.16V42l-.16.16v.16l-.16.16v.33h-.16V43l-.16.16v.49h-.16V44l-.16.16v.16h-.16v.33l-.16.16v.33h-.16v.33h-.16v.16a.14.14 0 0 1-.16.16.34.34 0 0 1-.08.24.33.33 0 0 0-.08.25l-.16.16v.16l-.16.16v.33h-.16v.16a.33.33 0 0 1-.08.24.33.33 0 0 0-.08.25l-.16.16v.33h-.16v.33c-.22.22-.33.38-.33.49s-.16.11-.16.33a.14.14 0 0 1-.16.16.47.47 0 0 1-.16.33v.65zm.33-3.76v-.16h.16v-.16h.16v-.49h.16v-.29h.16v-.49h.16v-.33h.1v-.33h.16v-.16H318v-.16h-.16a.14.14 0 0 1-.16.16v.16h-.16v.16a.14.14 0 0 0-.16.16v.16a.14.14 0 0 0-.16.16v.33h-.2v.16h-.16v.33h-.16v.49h-.16v.33zm1.63-4.08v-.16l.16-.16a.47.47 0 0 0 .11-.3h.16v-.33a.14.14 0 0 0 .16-.16l.16-.16a.33.33 0 0 1 .08-.25.33.33 0 0 0 .08-.24v-.16h.16v-.33h.2v-.16h.16v-.33h.16v-.33h.16v-.49h.16v-.33h.16v-.33h.2v-.16h-.16a.15.15 0 0 0-.16-.16v.16h-.16v.16h-.33v.33H320v.49h-.16v.33h-.16v.33h-.16v.33h-.16v.16a.14.14 0 0 1-.16.16v.33h-.2v.33h-.16v.33h-.16v.33l-.16.16-.16.16v.49zm1.63 3.1v.16h-.16v.16h-.2v.33h-.16v.33h-.16v.33h-.16v.33h-.16v.49h-.16v.33h.16v.16h.16v-.16h.33v-.49h.15v-.33h.16v-.33h.16v-.49h.16v-.33h.16v-.49zm4.57-9.8v.16c-.11 0-.16 0-.16.08s.05.08.16.08h-.16v.16h-.16v.16h-.16v.16h-.16v.33a.14.14 0 0 0-.16.16v.33h-.16v.33h-.16v.33h-.16v.33l-.16.16v.33h-.16v.33h-.16v.33a.14.14 0 0 0-.16.16V40h-.16v.33h-.16v.33h-.16V41l-.16.16v.49h-.16V42h-.16v.33h-.16v.33a.14.14 0 0 0-.16.16V43h-.16v.33a.47.47 0 0 0-.16.33.14.14 0 0 1-.16.16V44c0 .11 0 .16-.08.16s-.08.06-.08.16v.16h-.16v.65h.07v-.16l.33-.33a.14.14 0 0 1 .16-.16v-.16l.33-.65v-.16a.14.14 0 0 0 .16-.16v-.16a.14.14 0 0 1 .16-.16l.16-.33c0-.11 0-.16.08-.16s.08-.05.08-.16v-.16l.49-.82V41a.14.14 0 0 0 .16-.16l.16-.33v-.16h.16V40h.16v-.16c0-.11 0-.16.08-.16s.08-.05.08-.16v-.16h.16v-.33l.16-.16v-.33h.16v-.33h.16v-.33l.16-.16v-.16l.16-.16v-.16c0-.11 0-.16.08-.16s.08-.05.08-.16v-.16l.16-.16v-.16a.14.14 0 0 0 .16-.16V36zm-3.59 1v.16h.16v-.16h.16v-.16h.16v-.33h.16v-.63h-.49v.33h-.16v.49h-.16v.33zm5.23-10.13V27h.33v-.33h.1v-.49a.15.15 0 0 0-.16-.16h-.16v.16h-.16v.16h-.16v.49zm.33-1.31h.33v-.16h.16v-.16h.16v-.33h.16v-.16h.16v-.33h.13V24h-.65v.33h-.16l.16.16h-.16v.16H327V25h-.16zm1.47.49h-.16v.33l-.16.16v.33h-.16V27l-.16.16v.16h-.16v.49h-.16V28l-.16.16v.16a.14.14 0 0 0-.16.16l.16.16h.16l.33-.33v-.16l.33-.33v-.33a.14.14 0 0 0 .16-.16l.16-.16V27l.16-.16a.33.33 0 0 1 .08-.25.33.33 0 0 0 .08-.24v-.16h.16V26l.16-.16v-.34h.16v-.16l.16-.16V25h.16v-.33h.16v-.33a.14.14 0 0 0 .16-.16V24l.16-.16v-.33a.14.14 0 0 0 .16-.16v-.16h.16v-.33h.16v-.16h-.33l-.16.16v.16h-.33v.16h-.16v.33h-.16V24h-.16v.33H329v.33h-.16V25h-.16v.33h-.16v.33h-.16zm-.49-2.45h.12v.16h.33v-.49H328v-.16h-.16zm1.63 4.08v-.16h-.16v.16h-.16v.16H329v.33h-.16v.33h.65V28h.16v-.33zm.82-2.61v.33h-.16v.33h-.16v.49h-.16v.33h-.16V27h-.16v.33h.33v-.16h.16l.16-.16v-.16a.14.14 0 0 1 .16-.16v-.16c0-.11 0-.16.08-.16s.08-.05.08-.16v-.33h.16v-.16a.14.14 0 0 0 .16-.16v-.16h.16v-.49h.16v-.71h-.16v.16h-.33v.16h-.16V25z"/><path class="cls-1" d="M361.2 72.55a15.47 15.47 0 0 1 4.08-2.21q1.47-.41 2 .16a1.94 1.94 0 0 1 .16 1.8 7.54 7.54 0 0 1-1.31 2.53 5.65 5.65 0 0 1-1.14 1.8l-2.78 3.27-2.12 2-1.18 1.1-2 1.47a14.17 14.17 0 0 1-4.57 2.12 8.74 8.74 0 0 1-4.74 0l-.49-.16c-.22 0-.35 0-.41-.08a.34.34 0 0 0-.25-.08l-1.14-.49a5 5 0 0 1-1.8-1.63 2.41 2.41 0 0 1-.65-1.14q-.16-.65-.65-.49a21.81 21.81 0 0 1-5.64 3.19 19 19 0 0 1-5.39 1.23 14.22 14.22 0 0 1-4.66-.41 6.41 6.41 0 0 1-3.27-1.88L322 83q-1.8-2.12-.9-6.86A53.12 53.12 0 0 1 324.2 66a89.52 89.52 0 0 1 5.15-10.54 93.6 93.6 0 0 1 5.06-8.09q.65-1 1.47-2.12a9.68 9.68 0 0 1 1.72-1.88 4.76 4.76 0 0 1 2.12-1 6.71 6.71 0 0 1 3 .24 2.23 2.23 0 0 1 1.55 1.63 5.33 5.33 0 0 1-.24 2.7 24.45 24.45 0 0 1-1.47 3.51q-1 2-2.12 4.08-.49 1-1.55 3t-2.29 4.49q-1.22 2.45-2.45 5T332 71.57a33.92 33.92 0 0 0-2.61 5.8q-.82 2.53 1.47 3.35a5.33 5.33 0 0 0 3.43-.16 18 18 0 0 0 3.68-1.88 28.75 28.75 0 0 0 3.51-2.7q1.63-1.47 2.94-2.78a1.27 1.27 0 0 0 .16-.49.47.47 0 0 1 .16-.33l.49-1 .49-.82 13.68-25.13q.49-1 2.29-.65a5 5 0 0 1 1.72.33l1.71.65a5.19 5.19 0 0 0 1.14.57q.33.08.82.9a3.76 3.76 0 0 1 .33 3.43c-.22.33-.57 1-1.06 1.88s-1.09 2-1.8 3.27l-2.21 3.92q-1.14 2-2.12 3.68-.82 1.63-1.88 3.35t-2.2 3.51a14.12 14.12 0 0 0-.82 1.47q-.49 1-1.06 2t-1 1.8a4 4 0 0 0-.41 1q-1.63 2.94-.57 2.78a7.89 7.89 0 0 0 3-1.63q2-1.47 3.84-3.19zm-37.08 4.25l-.65.49.33.33-.82.65 1.14-.65h-.33l.33-.49zm-.49 1.8l-.16.33-.33-.33-.16.65.65.65-.33.16.49.49c0-.11.16-.33.49-.65v-.16l-.65-.49v-.33l.49-.49zm0-.16v.16l.49-.33v-.17zm.82 3.43v-.65h-.16l-.49 1.31h.33l-.16.65h.33l.33-.49-.16-.33h.49zm2-.33l.16.16-.16-.33-.65-1.63v-1l.16-.16-.33-.49v-.33l.16-.82h.49v-.14l-.16-.49.33-.33h-.33v-.82l.82-.49-.16-.16-.82.33.16.33-.65.16.16.16v.33l-.49.33.65-.16-.82.33.16.49.49.49c-.33-.11-.43-.11-.33 0l-.33.82.49.16-.33.16.16.33-.33.33.16 1.14.16 1.47.49-.16-.33.16h.49zm.82.49a.46.46 0 0 1-.33-.16V82l-.16-.16-.16.33v.16zm-.33-3.92l.16-.65.65-.33h-.33l-.16-.49.16-.65h-.16v-.16l-.33.16-.16.16.16.65zm0 2l.49-1-.33-.49-.16-.49zm.82-.33l-.82.33.16.16.16.49v-.16l.33-.49zm6-22.38v-.16h.16v-.54h.16l.16-.49h.16v-.16l.16-.16v-.16h-.49l-.16.16v.16l-.16.16v.16a.14.14 0 0 0-.16.16l-.16.16a.14.14 0 0 0-.16.16v.49zm3.43-4.57v.33H337v.33h-.16l-.16.33h-.16v.33h-.16v.33h-.16v.33a.14.14 0 0 0-.16.16v.16h-.16v.49h-.16v.33h-.16v.33h-.16v.33h-.16l-.16.33h-.16V57l-.16.33a.14.14 0 0 1-.16.16v.33h-.16c0 .22-.06.33-.16.33v.49h-.16a.47.47 0 0 1-.16.33.14.14 0 0 1-.16.16v.16a.14.14 0 0 1-.16.16l-.16.65h.16V60l.16-.16.49-.49v-.16h.16V59l.49-.65V58l.16-.33v-.16h.16v-.16l.33-.33a.52.52 0 0 1 .33-.49v-.16q.33-.33.33-.49a1.25 1.25 0 0 1 .16-.49l.16-.16v-.33h.16v-.16l.16-.33v-.16h.11v-.16l.16-.16v-.16h.16l.16-.33a.47.47 0 0 0 .16-.33h.16v-.33h.2v-.33h.16v-.33h.16v-.32h.16v-.16a.14.14 0 0 1 .16-.16v-.16l.16-.16V51a.14.14 0 0 1 .16-.16l.16-.33h.16v-.33a.47.47 0 0 0 .16-.33h.16v-.33a.14.14 0 0 0 .16-.16v-.16h.24v-.33h.16v-.33H340v.16h-.16v.16h-.16V49h-.16v.16l-.16.16h-.16v.33h-.2v.16h-.16v.33h-.16v.33h-.16l-.16.33h-.16v.33h-.2v.33a.14.14 0 0 0-.16.16v.16h-.16v.33a.14.14 0 0 0-.16.16v.16h-.16v.33zm-2.78 1.8h.16l.16.16v-.16h.16v-.16a.14.14 0 0 0 .16-.16h.16v-.16l.16-.16a.47.47 0 0 1 .16-.33l.33-.33v-.16h.14v-.16h.16v-.33l.16-.16v-.33h.16v-.39h-.33v.2h-.33v.16h-.16v.49h-.16v.33h-.16v.16h-.16l-.16.49h-.16v.16l-.16.16v.33h-.16v.16h-.16zm2.45 2.78a.15.15 0 0 0-.16-.16h-.16v.16h-.16v.16h-.16V58H336v.16h-.16v.49h-.16v.16h.65v-.31h.16v-.33h.16v-.49h.16zM336.7 51l.16.16h.14V51h.16v-.33h.16l.16-.16v-.16h-.33v-.16h-.33l-.16.65h-.16V51zm3.27.16h-.16v.16h-.16v.16h-.16v.33h-.16v.33h-.16v.33H339v.33h-.16v.49h-.16v.16h-.16l-.16.33h-.16v.49h-.2v.33h-.16v.49h-.16v.16l-.16.16v.16a.14.14 0 0 0-.16.16v.33l-.33.33-.16.49h.13l.16-.16.33-.16v-.16l.33-.33v-.33h.18v-.16l.16-.16v-.33h.16a.71.71 0 0 1 .08-.33.73.73 0 0 0 .08-.33v-.16h.16a.47.47 0 0 1 .16-.33v-.16h.2l.16-.33.16-.16v-.16h.16v-.33h.16v-.33h.16v-.33l.2-.14v-.2l.16-.16v-.16l.16-.16V51H340zm11.92 18a2.87 2.87 0 0 0 .33-.82l.49-.82.16-.33 1-2.12h.13v-.49a.14.14 0 0 0 .16-.16v-.16h.16v-.16h.16a2.85 2.85 0 0 1 .33-.82v-.16h.19v-.16a.14.14 0 0 1 .16-.16v-.16a.14.14 0 0 1 .16-.16v-.16l.16-.16V62l.16-.16v-.24l.16-.16.33-.65a.14.14 0 0 1 .16-.16.47.47 0 0 1 .16-.33V60h.16v-.33h.16v-.16l.16-.16V59h.16v-.33h.16v-.33h.16v-.16l.16-.16v-.33c.11 0 .16-.11.16-.33h.16a.67.67 0 0 1 .16-.49c0-.11 0-.16.08-.16s.08-.05.08-.16 0-.16.08-.16.08-.05.08-.16v-.16l.16-.16.16-.16v-.35h.16v-.33h.16a.64.64 0 0 1 .08-.41.34.34 0 0 0 .08-.25l.16-.16v-.16h.16v-.33l.33-.33v-.33a.14.14 0 0 0 .16-.16v-.16h.16v-.33a.14.14 0 0 0 .16-.16V52h-.16v.16a.14.14 0 0 0-.16.16l-.16.16v.16h-.16v.33h-.16v.16l-.16.16v.16h-.16v.16h-.16v.33h-.16v.33h-.16v.16h-.16v.33h-.16v.33l-.16.16v.16h-.16v.33h-.16v.33h-.16v.16a.14.14 0 0 1-.16.16v.49h-.16V57h-.16v.33l-.33.49V58h-.16v.33a.14.14 0 0 0-.16.16v.16h-.16V59h-.16v.33h-.16v.33H356V60h-.16v.33h-.16v.33h-.16V61h-.16v.16a.14.14 0 0 1-.16.16v.16a.14.14 0 0 1-.16.16v.16l-.16.16v.33h-.16v.33h-.16v.16l-.16.16v.16a.14.14 0 0 0-.16.16v.16l-.16.16v.16l-.16.16v.16a.47.47 0 0 0-.16.33l-.16.16v.16a.14.14 0 0 0-.16.16V65h-.16v.49H353v.33h-.16v.33h-.16v.16l-.16.16v.33h-.16v.33h-.16v.33h-.16v.33h-.16v.33h-.16v.16l-.16.16a.33.33 0 0 1-.08.25.64.64 0 0 0-.08.41h-.16v.16a.14.14 0 0 0-.16.16v.16h-.16v.33h-.16v.16l-.33.82v.16a.14.14 0 0 0-.16.16v.16h-.16v.16a.14.14 0 0 1-.16.16.94.94 0 0 1-.33.65.47.47 0 0 0-.16.33v.16h-.16v.33a.14.14 0 0 0-.16.16.66.66 0 0 0-.16.49.47.47 0 0 0-.16.33l.16.16a.14.14 0 0 0 .16-.16c0-.11 0-.16.08-.16s.08-.05.08-.16a3.8 3.8 0 0 1 .65-1 .33.33 0 0 1 .08-.24.33.33 0 0 0 .08-.25v-.16h.16a7.08 7.08 0 0 1 .82-1.47c0-.22.05-.33.16-.33v-.16l.33-.49v-.33h.16v-.33zm-2.29.49v.16h.16v-.16h.33v-.16l.16-.16V69h.16v-.33h.16v-.37h.16V68h.16v-.49h.16v-.16h.16V67l.16-.16v-.34h-.16v-.16l-.33.33v.16h-.16v.33h-.16v.16h-.16v.49h-.16V68l-.16.16v.16h-.16v.33h-.16V69h-.16v.49h-.16v.16zm2.61-5.06a.47.47 0 0 1 .16-.33l.16-.16.16-.33a.14.14 0 0 1 .16-.16v-.21l.16-.16c0-.11 0-.16.08-.16s.08-.05.08-.16l.33-.65v-.16h.16v-.33h.16v-.18h.18v-.33h.16V61h.16v-.33h.16v-.16a.14.14 0 0 1 .16-.16V60h.16v-.33h.2v-.33h.16V59h-.33v.16h-.16v.16h-.16v.16h-.16v.16h-.16v.49H354v.16l-.16.16v.16h-.16V61h-.16v.33h-.16v.33h-.16v.16h-.2v.33h-.16v.49h-.16v.33h-.16v.33h-.16v.16a.14.14 0 0 1-.16.16v.33a.14.14 0 0 0-.16.16h-.16v.49zm.16 6.86v-.16h.16v-.16h.16v-.33h.16v-.33a.14.14 0 0 0 .16-.16v-.21h.16v-.33h.16v-.49h.16V69h.16v-.33h.16v-.37a.15.15 0 0 0-.16-.16h-.16v.16h-.16v.16l-.16.16v.16a.14.14 0 0 0-.17.22v.16h-.16v.33l-.16.16v.16h-.16v.16a.14.14 0 0 1-.16.16v.33h-.16v.33a.14.14 0 0 0-.16.16v.33h-.16v.16zm7.51-15.52v.16h-.16l-.16.16v.16h-.16v.33h-.33V57h-.16v.33h-.16v.33h-.16V58h-.16v.33h-.16v.33a.14.14 0 0 0-.16.16V59h-.16v.33a.14.14 0 0 0-.16.16v.16h-.16V60a.14.14 0 0 0-.16.16v.16h-.16v.33a.14.14 0 0 0-.16.16V61H357v.33h-.16v.33h-.16v.33h-.16v.33h-.16v.33h-.16v.65h-.2v.16h-.16v.33h-.16v.33h-.16v.33c-.11 0-.16.11-.16.33h-.16v.16h-.2v.33a.34.34 0 0 1-.08.25.33.33 0 0 0-.08.25l-.16.16V66l-.33.33v.33h-.16V67a.14.14 0 0 0-.16.16v.16h.16v.16h.16v-.33l.33-.49a.14.14 0 0 0 .16-.16v-.16l.49-.65a.14.14 0 0 1 .16-.16v-.33l.16-.16v-.16q.33-.33.33-.49a.33.33 0 0 1 .08-.25.33.33 0 0 0 .08-.24l.16-.16.49-1v-.33h.21v-.16h.16v-.16l.16-.33v-.16l.16-.16v-.16h.16V61a.14.14 0 0 0 .16-.16l.16-.33a.14.14 0 0 1 .16-.16V60h.16v-.33h.16v-.33h.16V59h.16v-.33l.16-.16v-.16l.16-.16V58l.16-.16v-.33h.16v-.33h.16v-.33h.16v-.33h.16v-.33h.16v-.33zm-4.25 1.63h.49v-.33a.14.14 0 0 0 .16-.16v-.16h.16v-.49h.16v-.33h-.6v.49h-.16V57h-.16zm31.53-15.39q5.55-.82 8.49 1.23a7 7 0 0 1 3.27 5 8 8 0 0 1-.41 3.35 7 7 0 0 1-1.88 2.94 9.87 9.87 0 0 1-3.18 2 8.61 8.61 0 0 1-4.33.41q-3.27-.49-4.08-1.31l-.33.65a5.08 5.08 0 0 0-.65 2.12q-.66 6-1.14 9.8t-.9 6q-.41 2.29-.73 3.51a8 8 0 0 1-.82 2 20 20 0 0 1-3.35 5.23 9.34 9.34 0 0 1-5.31 2.94 7.8 7.8 0 0 1-2.86.16q-1.71-.16-3.84-2.78a4.64 4.64 0 0 1-1.06-3.59 7.55 7.55 0 0 1 1.55-3.68 14.26 14.26 0 0 1 3.35-3.1 10.23 10.23 0 0 1 4.33-1.72l.49-3.76q0-3.1.24-7.51a37.69 37.69 0 0 1 1.47-8.58 20 20 0 0 1 3.92-7.35 12.31 12.31 0 0 1 7.76-3.96zm-19.6 35.93q-1.63 2-.74 2.94t2.53-.49a3.08 3.08 0 0 0 1.23-2c.05-.71 0-1-.08-.9.11.22-.11.08-.65-.41s-1.31-.24-2.29.86zm1.31 5.9h-.16a.34.34 0 0 0-.24.08.32.32 0 0 1-.24.08l-.16.16a.14.14 0 0 0 .16.16l.65-.49.33-.33.16.16.16-.33-.33.16v-.16l-.49.16zm.33-1.8v.33l1.31-1 .16-.16.16-.33a.47.47 0 0 1 .16-.33v-.33l-.49 1.14v-.16l-1 .65zm2 0l-.65.49-.16.49zm.49-2.45a.64.64 0 0 0 .41-.08.33.33 0 0 1 .24-.08l-.33-.33-.49.49c-.11 0-.16.08-.16.25s-.06.24-.16.24l.16.16zm2.12 1.47l-.33.49H373l-.49.16a.48.48 0 0 1 .16.33l-.49.65V83l-1 1.31h.16l.16-.16.16.16 1.63-2-.16-.16.49-.33.16-.16.16-.49V81l-.16.16a.66.66 0 0 1 .16-.49v-.33l-.33.33v.16l-.33.16.16.49v.16l.16-.49zm-1.67-.22l-.65.65.65-.49.49-.16h.16l.16-.16v-.16l.49-.33v-.16l.33-.49-.16-.49-.16.49-.16.33c-.22 0-.33.06-.33.16h.33l-.49.33h-.16l-.33.33V81zm.49-2.45v-.65l-.16.49zm0 2.12V81h.16v-.16l.16-.16v-.16zm.82-3.27v-.33l-.33.33zm.33-1.14c-.33-.11-.49-.05-.49.16l.16.33zm.65 4.25l-.33-.16.65-.16-.33-.16.33-.33h.16v-.49l.49-.49.16-.16v-.33l-.16-.49.33-.33h-.16l.16-.16v-.16l.33-.16-.16-.16h.33l-.33-.16-.16-.16.33-.33.16-.33a.14.14 0 0 0-.16.16l-.82.49V76l-.65.33v.82l-.33.33c-.11.11-.11.16 0 .16l-.65.33v1.31l.16-.16h.49l-.16-.16.33-.49-.16-.16h.16l-.16-.16.33-.16-.16-.16h.16l.16-.33.33-.16-.33-.16.49-.16v-.49l.16.16a.16.16 0 1 1 0 .33v.65l-.16.16-.33.65-.16.49v.65a.14.14 0 0 1-.16.16c-.11.22-.22.33-.33.33a.14.14 0 0 0-.16.16l-.16.16zm0-6.37c0-.11 0-.16-.08-.16s-.08.06-.08.16zm.16 3.27h.16v-.33l-.16.16a.47.47 0 0 1-.16.33l.16.16zm1.63-15.19l-.82-.33-.65.65 1.31-.33zm-1.47 14.86l.49-.16-.16-.16.16-.49-.16.16zm.33-6.53l.33.33v-.49l.16-.16-.16-.16h.16l.16-.16-.16-.82.33-.16-.33-.33v-.16l-.33.16v.49l-.16.16h.16l.16.65h-.16l.16.16-.16.33zm.16 5.23l.33-.33-.16-.16v-.65h.16l-.33-.33-.16.33zm.49 3.92l-.16.16-.33.16v.16h.33l-.49.33v.33h.16l.65-.16-.33-.16.33-.16zm.16-6.21l-.16-.16.16-.16v.16l.16-.49h.16l-.16-.49v-.16l.16-.33-.16.16a.14.14 0 0 1-.16-.16v-.33l-.16.65h.16v.65l-.65.49q-.49 0 .49.49l-.33.33h.16l.33-.16h.16l-.16-.33zm-.65-2.61l.16.16v-.16zm.49-10.88l.65-.16v-.49l.16-.16-.33-.16h.16l-.16-.16v-.16h.33l-.33-.16.33-.33a.14.14 0 0 1 .16-.16v-.33h.16l-.16-.16v-.33l.16-.16-.16-.16.16-.16-.16-.49-.16.16h.16l-.33.16v.16h-.16l.33.33h-.16l-.16.16a.47.47 0 0 0-.33.16l.65.16-.33.16v.16h-.16V58h-.33v.49h-.16l.33.33h-.16l.16.16h-.16l.16.16a.2.2 0 0 0 0 .33v.16h-.16v.16l-.33.33zm0 13.39l.16.65v-.16zm.16 6l-.16.33.33-.16zm0-6.21c-.11 0-.06-.11.16-.33l-.16.16zm.33-1.47v-.16c.22 0 .27-.05.16-.16.22 0 .33-.05.33-.16v-.16l-.33-.49v-.16h-.33l-.16.16.16.33.16.16v.16l-.16.65zm.33-2a.47.47 0 0 0 .33-.16v-.16h-.16l-.16-.33.44-.06h-.16l-.16-.16v-.54l.33-.16-.16-.16-.16-.16.16-.33.16-.16c.11-.22 0-.49-.33-.82a.46.46 0 0 1-.33-.16l-.16-.16v.49l.16.33a2.87 2.87 0 0 1-.33.82l.49 2v.33l.16-.16zm0 5.23l-.16-.16.33-.16-.16-.16h.16l-.16-.16.49-.16v-.33h.16l-.33-.33h.12l.16-.33.16-.16h-.16a.47.47 0 0 1 .16-.33v-.33h-.16v-.16l.16-.33v-.16h-.16l.65-.33v-.33l-.16-.16v-.16h-.16l.16-.16v-.16l.16-.16v-.12l.16-.16-.33.16.16-.16h.2l-.16-.16-.16-.82h.16l-.16-.16.16-.33-.49.49.16 1.14h-.16l.16.16-.65.33.16 1.63-.16.16v.16h.14l-.16.65-.49.16v.82h.16l-.16.33v.16l-.33.16V75h.16v.82l.33-.16v-.16h.16l-.16-.16zm.16-10.78l-.49.82q-.16.33 0 .49v.33c.33-.22.38-.38.16-.49v-.11zm-.49 1.63v.33l.33-.16zm0 11.92c.11.11.16.11.16 0zm1-1.8h-.33l-.33.16h.16v.49l.16.33-.33.33c-.11.11-.11.16 0 .16l-.16.16v.16h.33v-.33h.16l.16-.16v-.16h-.16l.33-.16-.16-.33.33-.33-.33-.16h.16zm-.49-4.9l-.16-.16v.33zm.33 3.59v-.16l-.33.33zm8-28.75a.14.14 0 0 1-.16.16l-.33.33h-.16l-.49.16.33.16-.65.65a.14.14 0 0 0-.16.16l-.33.16V48h-.49v.16h-.16l-.16.16-.16.33a.29.29 0 0 1-.33.33l-.33.16.33.16h-.16l-.16.16-.33.16.16.16H381l.33.16-.49.49v.65h-.49a.47.47 0 0 1-.16.33v.16H380c.22.11.27.16.16.16v.33H380v.16l-.33.16-.16.49h-.16v.33h-.16v.33H379l.33.16h-.16c.11.11.11.16 0 .16l-.65.33.49.16h-.33l-.16.16v.33a.47.47 0 0 0-.33.16l.16.16c-.11.11-.11.16 0 .16v.33l-.65 1h-.16a.48.48 0 0 1 .16.33c-.11 0-.11.06 0 .16l.16.16h-.16v.16h-.16l.33.16h-.16l-.16.16h-.16a.14.14 0 0 1-.16.16l.16.82v.33a.14.14 0 0 0-.16.16v.16l-.16.16a.21.21 0 0 1 0 .33h-.16l.16.33v.16a.74.74 0 0 0 .16.82.47.47 0 0 1-.33.16l.16.16v.16l.16.16c-.11.22-.14.33-.08.33s.08.06.08.16v-1.05l.33-.16-.16-.33a1.07 1.07 0 0 0 0-.82l.49-.49-.33-.16v-.16l.33-.16-.16-.16h.16l-.16-.16.33-.82.16-.65 1.14-2.61v-.16l-.16-.16h.16l.33-.65.33-.16.33-.65c-.22-.11-.27-.16-.16-.16v-.16l.33-.16v-.16L381 52v-.33h-.16l.16-.49v-.33l.82-.33a.2.2 0 0 1 0-.33.47.47 0 0 0 .33-.16v-.16l.16-.16-.33-.16.49-.33V49h.16v-.3h.16l-.16-.16.65-.16.33-.33.33-.65c.11 0 .16 0 .16-.08s.05-.08.16-.08h.33l-.49-.16.49-.33.65-.33v-.16l.16-.16a.47.47 0 0 0 .16-.33l-.16-.16a.47.47 0 0 0-.16.33zm-7.84 8.49c.11 0 .22-.11.33-.33h.33l-.49-.16.49-.49.16-.16.16-.16v-.33l.16-.16h.16v-.16l.16-.33a.14.14 0 0 1 .16-.16l-.33-.16h.33l.16-.49h.49l-.16-.16h.16l-.16-.16a.47.47 0 0 1 .16-.33h.16v-.1l.33-.16-.16-.16h.18V50l.33-.16v-.16a.47.47 0 0 1 .33-.16v-.16a.2.2 0 0 1 0-.33h.16l-.33-.16.49-.16v-.16l.16-.16c-.11-.11-.16-.11-.16 0l-.49.16-.16.16V49l-.16-.16H380l.16.16-.49.16h.33l-.16.16.16.16h-.16l-.49.49h.16l-.16.16h.16l-.33.33v.16h-.49l.16.16-.16.33h-.16c-.11 0-.11.06 0 .16l-.16.33v.16H378l.49.16h-.33l-.16.33-.16.16v.16h-.16l-.16.16.16.16-.16.16v.16a.14.14 0 0 1-.16.16c-.11 0-.11.06 0 .16l-.16.16v.16h-.2l.16.16zm.49 20.09l-.16.16V75l-.16.16v.16h-.16V76h.16l.33-.16h-.16v-.49l.16-.16V75a.14.14 0 0 0 .16-.16zm-.16-4.25l.16-.16-.33.49zm.16.65h-.16l.16.16zm0 .16l-.16.49.33-.16zm.82 1.63c-.22.22-.38.33-.49.33h-.16v.16h.12c-.33.11-.44.27-.33.49l.16.33a.47.47 0 0 0-.16.33l.49-.49.49.16-.33-.16h.16v-.16l-.33-.16.16-.16zm-.33-.65a.46.46 0 0 0 .16.33h-.16l.33.16-.16-.16h.16l-.33-.49zm.33-13.23v.33l.16-.65-.33.16zm.47 10.71l-.16.16h-.33l-.16.16.33.16zm.33-10.29l.16-.16v-.16h.16l-.33-.33h.16l-.33-.16.33-.16-.33-.16h.16v-.16h.16l.49-.33-.49-.16-.16.16.16.16H379l-.16.33v.16c.11 0 .11.06 0 .16l.16.16h-.33l.49.33-.16-.16h.16l-.16-.18h.33l-.16.16.16.49-.16.33.33-.16zm-.49-.16l.16.16h-.33v.16h.33v-.16l.16-.16zm.33.65v.16l.16-.16zm1-4.41a.14.14 0 0 0-.16.16c-.11 0-.06.06.16.16l-.49.33h.16a.47.47 0 0 0-.16.33c.11 0 .05.11-.16.33l.16.33h.16v-.33c.11 0 .11-.05 0-.16l.33-.49c-.11-.11-.11-.16 0-.16zm.33-.82l-.33.33h.33v.65l.49-.65-.33-.16.33-.16.16-.16a.52.52 0 0 1 .33-.49l-.16-.49.82-1.14V52a.14.14 0 0 0 .16-.16l.33-.16v-.16c-.22-.22-.16-.33.16-.33l.33-.33-.16-.16.33-.16v-.16h.16c.11 0 .16 0 .16-.08s.05-.08.16-.08l.16-.33v-.16h.16l-.16-.16h.16l-.16-.16.65-.33v-.49h.16v-.16l.16-.16c-.11 0-.16 0-.16-.08s.05-.08.16-.08l.49-.33-.16-.16h.16l.33-.16a2.65 2.65 0 0 0 .65-.16l.16-.33-.82.49.16-.33.49-.16.16-.16 1-.33 2.61-1.63-1.47.65a.94.94 0 0 1-.65.33l-.82.49-.33.16-.16-.16v.16h-.49l.33.16h-.16a.14.14 0 0 0-.16.16h-.65v.16l-.33.33-.16.33-.49.33V48l-.65.33h.16v.16h-.16v.16l-.16.16V49l-.65.65a.47.47 0 0 0-.16.33l-.49.49v.16l.16.16-.33.16h.16l-.33.16v.16l-.33.16.16.16v.16h-.49l-.16.33v.49l.16.16-.49.33-.33.49.33.33-.33-.16-.16.33zm0-.16v-.16a.33.33 0 0 0 .25-.08.33.33 0 0 1 .24-.08l-.16.16zm.82-1.14l-.33.49-.16.16.16-.33h-.16l.16-.16a.14.14 0 0 0 .16-.16h.16zm.33-5.72l.82-.49c-.11 0-.11-.05 0-.16h.16l.33-.16v-.16h.16l-.33-.16.49-.16-.16-.33h-.16v-.18l-.49.16.16.16h-.49l.16.16-.16.16.16.16-.49.33v.16l-.16.16zm2 2.29l-1 .82h-.16l.49-.49.16-.33zm-.65 3.76c0 .11.08.16.25.16s.24-.05.24-.16l.16-.65c.11-.11.11-.16 0-.16a.47.47 0 0 0-.33.16v.49a.47.47 0 0 0-.4.15zm.65-4.25l.16.33a.14.14 0 0 0-.16.16l-.16-.16.16-.16zm1.8-3.76v.16a.67.67 0 0 0 .49-.16l.65-.33v-.33l.65-.16.16-.16 1.63-1 .33-.16v-.16l-.33.33v-.16l-3.27 1.47.16.16-.49.16-.33.33-.49.33.33.16h-.33v.16l.33-.16zm-.49 4.41a1.12 1.12 0 0 0-.24.57 3.3 3.3 0 0 0-.08.57c0 .11.08.16.24.16s.24-.05.24-.16l-.33-.49.49-.65zm1.31-.82a.47.47 0 0 1-.33.16h-.16l.33.33.33-.33zm5.39-.33q-.16-1.63-2 .08a19.34 19.34 0 0 0-3.68 5H387a5.54 5.54 0 0 0 3.76-2.29q1.47-2 1.31-2.78zM387 46.41l-.33.16-.33.33-.16-.16.33-.16zm-.49 2.59l-.16.16.16.16zm1.31-1.14a1.83 1.83 0 0 0-.57.08 1.3 1.3 0 0 1-.41.08l.16.33 1-.33c.33-.33.54-.49.65-.49l-.16-.33zm3.92-2l-.16-.33-1 .49-.82.49a.78.78 0 0 0-.57.25.67.67 0 0 1-.41.24l.16.33 1.14-.82h-.16l1-.49zm-.33-1.8l-.82.65.65-.49zm.16.16c-.11 0-.08.06.08.16a.78.78 0 0 0 .41.16v-.33zm.82 0h.16c.65.11 1 .11 1.14 0s.11 0 0-.08a.75.75 0 0 0-.33-.08zm36.21 28.17a13 13 0 0 1 3.84-2.39c.92-.27 1.55-.24 1.88.08s.38.9.16 1.72a7.34 7.34 0 0 1-1.14 2.37 11.35 11.35 0 0 1-1.14 2l-2.61 3.27-2 2-1.14 1.31-2 1.63a12.2 12.2 0 0 1-2 1.39 11 11 0 0 1-2.21.9 4.69 4.69 0 0 1-2.12.49H417a7 7 0 0 1-1.31-.16h-.49a.67.67 0 0 0-.49-.16 7 7 0 0 0-1.14-.33 11.35 11.35 0 0 0-1.14-.65 2.45 2.45 0 0 1-1-.82 7.34 7.34 0 0 1-1.06-1.8 5.9 5.9 0 0 1-.41-2.29 13.12 13.12 0 0 1 1-4.9l.49-1.31a1.63 1.63 0 0 0 .41-.57 4.36 4.36 0 0 1 .25-.57l.49-1a2.85 2.85 0 0 1 .33-.82q1.47-3.1 2.86-5.47a46.89 46.89 0 0 0 2.2-4.17 18.82 18.82 0 0 1 1.31-2.78 40 40 0 0 0 1.8-3.76 9.06 9.06 0 0 0 1.14-3.19q.16-1.39-2.12-1.39l.16-.16a10.2 10.2 0 0 0-4.57 1.55 34.73 34.73 0 0 0-4.41 3.19q-2.12 1.8-4 3.68l-3.19 3.19q-2.45 4.57-4.66 8.74t-3.84 7.43Q394 81.86 393 83.9a18 18 0 0 0-1 2.21q-.33.82-1.47.49a4.29 4.29 0 0 1-2.11-1.6 9.31 9.31 0 0 1-1.55-3 5.94 5.94 0 0 1 .08-3.76 28.27 28.27 0 0 1 1.47-3.59q1.14-2.45 2.53-5.15t2.61-5q1.22-2.29 1.71-3.27l16.66-35 2.61-5.23a2.14 2.14 0 0 1 2.12-1 9.15 9.15 0 0 1 3.43.82 6.68 6.68 0 0 1 2.61 2.29 3.47 3.47 0 0 1 0 3.27l-10.92 21.18h.16a12.37 12.37 0 0 1 2.94-1.47 31.81 31.81 0 0 1 3.43-.82 4.58 4.58 0 0 1 1.72-.33h2.53a1.48 1.48 0 0 1 .65.16 2.75 2.75 0 0 1 .65.08 2.59 2.59 0 0 0 .65.08 10.94 10.94 0 0 1 2.29 1.14l1.14.82a3.94 3.94 0 0 1 1.63 1.63 7.62 7.62 0 0 1 1.23 4.57 18.74 18.74 0 0 1-1.06 5.47 42.48 42.48 0 0 1-2.61 6q-1.63 3.1-3.43 6.21c-.22.33-.49.79-.82 1.39s-.71 1.23-1.14 1.88a16.61 16.61 0 0 0-1.06 1.8 3.94 3.94 0 0 0-.41 1q-1.8 2.94-.74 2.61a10.76 10.76 0 0 0 3-1.88q2-1.55 3.92-3.43zm-25.81-18.14a.14.14 0 0 0 .16-.16v-.16a3.85 3.85 0 0 0 .65-1l1-1.63 1.47-2.61v-.33l.16-.16V48l.16-.16v-.16l.16-.16.16-.16v-.16l.49-.82a191.24 191.24 0 0 1 .33-.65v-.13h.16v-.33h.16v-.33h.15v-.49h.16v-.16l.16-.16a.33.33 0 0 1 .08-.25.33.33 0 0 0 .08-.24l.49-.82.16-.16c0-.22.05-.33.16-.33V42h.16v-.33a.14.14 0 0 0 .16-.16v-.16h.16A.47.47 0 0 1 410 41v-.16l.16-.16v-.16l.16-.16v-.16l.16-.16v-.16l.16-.16v-.16l.16-.16v-.16c.11 0 .16-.11.16-.33l.33-.49.33-.65a.33.33 0 0 1 .08-.25.33.33 0 0 0 .08-.25.47.47 0 0 0 .16-.33h.16v-.33l.16-.16.16-.16V36l.16-.16v-.16a.14.14 0 0 0 .16-.16v-.16l.49-.65v-.16c0-.11 0-.16.08-.16s.08-.05.08-.16V34h.16v-.33l.33-.49a.14.14 0 0 1 .16-.16v-.16c0-.11 0-.16.08-.16s.08-.05.08-.16v-.16h.16v-.49l.16-.16v-.16h.16v-.33h-.16v.16h-.16v.16h-.16v.16l-.16.16v.49h-.16a.14.14 0 0 1-.16.16v.16l-.16.16v.33h-.16v.16h-.16v.16l-.16.16a.14.14 0 0 1-.16.16v.33a.14.14 0 0 0-.16.16l-.16.16v.16a.14.14 0 0 0-.16.16V35l-.16.16v.16l-.16.16v.16h-.16V36h-.16v.33h-.16v.33h-.16v.33h-.16v.33h-.16v.33a.14.14 0 0 0-.16.16.14.14 0 0 1-.16.16v.33h-.16v.16a2.83 2.83 0 0 0-.33.82.14.14 0 0 0-.16.16l-.16.16v.16l-.16.16V40l-.16.16v.16l-.16.16v.16a.47.47 0 0 0-.16.33l-.16.16v.16a.14.14 0 0 0-.16.16v.16a.14.14 0 0 0-.16.16V42l-.16.16v.16l-.16.16v.16a.14.14 0 0 0-.16.16v.2h-.16v.16l-.16.16v.16a.14.14 0 0 1-.16.16V44a.14.14 0 0 0-.16.16l-.16.16v.16l-.16.33v.16l-.16.16v.16l-.16.16v.16h-.16v.33a.14.14 0 0 0-.16.16v.16a.14.14 0 0 0-.16.16v.16h-.16v.33h-.16v.16l-.16.16v.16l-.16.16v.33h-.16V48l-.16.16v.16l-.16.16v.16l-.16.16v.33a.14.14 0 0 0-.16.16l-.16.16v.33h-.16v.33a.14.14 0 0 0-.16.16.47.47 0 0 0-.16.33.14.14 0 0 0-.16.16V51l-.16.16v.16h-.33v.33h-.16V52l-.16.16v.16h-.16v.33h-.16v.33c-.11 0-.16.11-.16.33l-.49.65v.16h-.16v.33h-.16v.16a.14.14 0 0 1-.16.16v.16a.47.47 0 0 0-.16.33v.16h-.16a2.49 2.49 0 0 0-.33 1 .14.14 0 0 0-.16.16c0 .11 0 .16-.08.16s-.08.06-.08.16l-.16.16v.49l-.16.16-.49 1-.33.33v.33h-.16v.16l-.33.49a.33.33 0 0 1-.08.25.33.33 0 0 0-.08.24.33.33 0 0 1-.08.25.33.33 0 0 0-.33.24v.16h.16V61h.16v-.16a.47.47 0 0 1 .16-.33 1.46 1.46 0 0 0 .41-.65 1.43 1.43 0 0 1 .41-.65V59l.33-.49v-.16h.16v-.16l1.14-2a.33.33 0 0 1 .08-.24.34.34 0 0 0 .08-.25v-.16l.49-.65v-.33a.14.14 0 0 0 .16-.16zm-2.29.65v.16h.16v-.16h.34v-.16h.16v-.33h.16v-.33h.16v-.33h.16v-.33h.16v-.33h.2v-.33h.16v-.33h.16v-.33l.16-.16v-.14h.16v-.49h.16v-.16h.2v-.33h-.16v-.16h-.16v.16l-.16.16v.16h-.16a.14.14 0 0 1-.16.16v.33a.14.14 0 0 0-.16.16l-.16.16a.33.33 0 0 1-.08.25.33.33 0 0 0-.08.24v.16h-.16v.16l-.16.16v.16a.14.14 0 0 0-.16.16v.16H401v.33h-.16v.33h-.16v.33l-.16.16v.16h-.16v.16zm4.74-2.29v.16h-.33v.33a.14.14 0 0 0-.16.16v.16h-.16a.14.14 0 0 1-.16.16v.33a.47.47 0 0 0-.16.33.14.14 0 0 0-.16.16v.16h-.33v.33h-.16v.16h-.16v.33a.14.14 0 0 0-.16.16v.16l-.16.16v.33H403v.33h-.16v.33h.33v-.15h.33v-.16h.16v-.33h.16v-.33h.33v-.48h.16v-.16l.16-.16v-.16h.16v-.33h.16v-.49h.16v-.33h.16v-.17l.16-.16v-.16l.16-.16v-.49zm-1.14-4.25a.14.14 0 0 1 .16-.16c0-.11 0-.16.08-.16s.08-.05.08-.16l.16-.16c0-.11.11-.27.33-.49v-.16l.16-.16v-.16h.16a.47.47 0 0 1 .16-.33l.16-.33.33-.82v-.16h.16v-.16a.14.14 0 0 0 .16-.16v-.33h.16v-.33h.16V44a.14.14 0 0 0 .16-.16v-.16h.16v-.33h.16V43h.16v-.16l.16-.16v-.33h.16v-.16l.16-.16v-.16l.16-.16v-.16a.14.14 0 0 1 .16-.16v-.16l.16-.16v-.16h-.33V41h-.16v.16h-.33v.33h-.16v.33H407V42h-.16v.33a.14.14 0 0 0-.16.16v.16h-.16V43a.14.14 0 0 0-.16.16v.16a.14.14 0 0 0-.16.16v.16h-.16V44h-.16v.16l-.16.16v.16h-.16v.49h-.16v.33l-.16.16v.33h-.16v.33h-.16v.16a.47.47 0 0 0-.16.33h-.16v.33a.14.14 0 0 0-.16.16v.16h-.16v.16l-.16.16v.16h-.33v.65zm7.68-7.84a.47.47 0 0 0 .16-.33l.16-.16a.47.47 0 0 1 .16-.33v-.33a.14.14 0 0 0 .16-.16v-.16h.16v-.15l.16-.16v-.16a.14.14 0 0 1 .16-.16c0-.22.05-.33.16-.33v-.33h.16v-.16c0-.11 0-.16.08-.16s.08-.05.08-.16v-.18h.16v-.16a.14.14 0 0 1 .16-.16v-.16a.14.14 0 0 1 .16-.16l-.16-.16h-.16v.16h-.16v.33h-.16v.16h-.16v.33h-.16v.16h-.16v.16l-.16.16-.16.16v.16l-.16.16v.16h-.16v.33h-.16v.49h-.16v.33h-.16v.16a.14.14 0 0 0-.16.16.47.47 0 0 1-.16.33v.16l-.16.16v.16l-.16.16V41l-.16.16v.16a.14.14 0 0 1-.16.16v.33h-.16V42l-.16.16v.16h-.16v.49H410V43h-.16v.33a.14.14 0 0 0-.16.16v.16h-.16V44h-.16v.33h-.16v.16c0 .22-.06.33-.16.33v.33h-.16v.16h-.16v.16h.16v.16h-.16v.33h-.16v.16l-.16.16v.33h-.16v.33H408v.33h-.16v.16h-.16v.16a.66.66 0 0 0-.16.49h-.16v.33h-.16v.33h-.2v.16a.14.14 0 0 0-.16.16v.33h-.16v.33a.14.14 0 0 0-.16.16l-.33.49v.16a.14.14 0 0 1-.16.16v.16l-.16.16a.47.47 0 0 1-.16.33v.16a.14.14 0 0 0 .16.16h.16a.47.47 0 0 1 .16-.33l.33-.65a.14.14 0 0 0 .16-.16v-.16l.16-.16.49-.82c0-.11 0-.16.08-.16s.08-.05.08-.16a.33.33 0 0 1 .08-.25.33.33 0 0 0 .08-.25h.16v-.33h.19a.94.94 0 0 1 .33-.65.33.33 0 0 1 .08-.24.33.33 0 0 0 .08-.25l.16-.33a3.59 3.59 0 0 0 .65-1.31v-.16h.16v-.33h.16v-.16h.16v-.33A.66.66 0 0 1 410 44l.16-.16v-.16h.16v-.33h.16V43h.16v-.16l.33-.49v-.16l.16-.16v-.16l.16-.16v-.16l.16-.16v-.16a.14.14 0 0 1 .16-.16v-.16l.16-.16zm-2.61-1.63l.16-.16v-.16h.16v-.16l.16-.16h-.16v-.16h.16v-.16h.16v-.33h.19v-.33h.16v-.17H410v-.16h-.49v.33h-.16v.33a.14.14 0 0 0-.16.16v.49H409v.33h-.16v.33zm9.15 32.83a.14.14 0 0 0 .16-.16l.33-.65v-.16h.19v-.16l.16-.16v-.16l.16-.16v-.16a.14.14 0 0 0 .16-.16c0-.22.05-.33.16-.33v-.33l.33-.49v-.16a.14.14 0 0 0 .16-.16.14.14 0 0 1 .16-.16V68a.14.14 0 0 1 .16-.16v-.16c0-.11 0-.16.08-.16s.08-.05.08-.16v-.16h.16v-.33h.16v-.37h.16v-.16c0-.11 0-.16.08-.16s.08-.05.08-.16l.16-.16v-.16c0-.11 0-.16.08-.16s.08-.05.08-.16 0-.16.08-.16.08-.05.08-.16a.47.47 0 0 1 .16-.33v-.33h.16v-.16a.14.14 0 0 1 .16-.16v-.16a.14.14 0 0 1 .16-.16.67.67 0 0 1 .16-.49v-.16l.16-.16v-.16l.16-.16.16-.33v-.16l.16-.16v-.38h.16v-.33h.16v-.16h-.33v.16H423v.16l-.16.16v.16a.14.14 0 0 0-.16.16v.16h-.16v.33h-.16v.16h-.16v.33h-.16v.16l-.16.16v.16h-.16v.33l-.16.16v.16l-.16.16v.16l-.16.16v.16l-.16.16v.33h-.16v.33h-.16v.16a.33.33 0 0 1-.08.24.33.33 0 0 0-.08.25l-.16.16v.16h-.16v.33h-.16v.33l-.16.16v.16h-.16v.33h-.16v.33h-.16v.33a.14.14 0 0 0-.16.16v.16h-.16v.33H419v.33h-.16v.49h-.16v.33h-.16v.33a.14.14 0 0 0-.16.16v.16h-.16v.33h-.2v.33h-.16v.33a.14.14 0 0 0-.16.16v.16h-.16v.16l-.16.16v.33l-.16.16v.33a.14.14 0 0 0-.16.16l-.16.16V74a.14.14 0 0 0-.16.16v.16h-.16v.33h-.33V75H416v.16a.14.14 0 0 1-.16.16.34.34 0 0 1-.08.24.33.33 0 0 0-.08.25V76h-.16v.33h-.16v.16a.14.14 0 0 1-.16.16v.16a.94.94 0 0 1-.33.65v.33h-.16v.49l-.49.65v.33h-.16v.16a.47.47 0 0 1-.16.33v.82h.16v-.16a.47.47 0 0 0 .16-.33 3.77 3.77 0 0 1 .49-.82v-.33a.14.14 0 0 1 .16-.16v-.16l.65-1.14c0-.22.05-.33.16-.33V77a.33.33 0 0 1 .08-.25.34.34 0 0 0 .08-.25l.16-.16v-.16l.16-.16.49-.65a2.87 2.87 0 0 0 .33-.82l1-2 .16-.16v-.33l.16-.16zm-4.41 4.57a.14.14 0 0 0 .16.16h.16v-.16h.33V76h.16v-.49h.16v-.33h.12V75a.14.14 0 0 0 .16-.16v-.33l.16-.16V74h.16v-.33l-.16-.16h-.16v.16H415V74h-.16v.16l-.16.16c0 .22-.06.33-.16.33V75h-.16v.16h-.16v.49h-.16v.49h-.16zM416 71.9v.16h.16v-.16l.33-.16v-.16h.16a.47.47 0 0 1 .16-.33v-.16h.19v-.16l.16-.16v-.16h.16a.66.66 0 0 1 .16-.49v-.16h.16v-.49h.16v-.33h.2V69a.14.14 0 0 0 .16-.16v-.16h.16v-.38h.16V68a.14.14 0 0 0 .16-.16v-.33h.16v-.33h.2V67h-.33v.16h-.16v.16h-.33v.33H418V68h-.16v.33h-.16v.33h-.16v.16l-.16.16v.16h-.16v.33h-.2v.49h-.16v.49h-.16v.16l-.16.16v.16h-.33v.49H416v.16h-.16v.33zm2.29 3.43h-.16v-.16H418v.16h-.16v.16h-.16v.33h-.16V76h-.16v.49h-.16v.16l-.16.16V77h-.16v.49h-.16v.49h.49v-.16h.16v-.33l.16-.16V77h.16v-.2l.16-.16v-.49h.15v-.33h.16v-.16l.16-.16zm.82-1.63l.33-.65v-.16a.14.14 0 0 0 .16-.16v-.16l.16-.16a180.05 180.05 0 0 0 .33-.65l.16-.16a2.51 2.51 0 0 0 .33-1h.16l-.16-.16h.16v-.34h.16a.47.47 0 0 1 .16-.33v-.33h.16v-.33h.16V69l.16-.16v-.33h.16v-.33h.16v-.33h.16v-.33h.16v-.33a.14.14 0 0 0 .16-.16v-.16l.16-.16v-.33h.16V66h.16v-.33h.16v-.33l.16-.16V65h.16v-.49h-.16v.16h-.16v.16h-.16V65h-.16v.16h-.16v.33h-.16v.16h-.16V66h-.16v.33l-.16.16v.33h-.16v.33h-.16v.33h-.16v.33h-.16v.33h-.16v.33h-.16v.33h-.16v.33l-.16.16v.16h-.16v.49h-.16v.33l-.16.16v.33h-.16v.33h-.16v.49h-.16v.33h-.16a.47.47 0 0 1-.16.33v.16h-.16v.33a.47.47 0 0 0-.14.27.14.14 0 0 1-.16.16v.16a.47.47 0 0 0-.16.33.14.14 0 0 0-.16.16V74l-.16.16v.33l.16.16h.16v-.16c0-.11.11-.27.33-.49v-.16h.16zm.16-8v.16h.33v-.16a.14.14 0 0 0 .16-.16v-.34h.16v-.33h.16v-.33h-.65V65h-.16v.49h-.16v.16z"/></g></g></svg>