<svg xmlns="http://www.w3.org/2000/svg" viewBox="0 0 401.27 115.92"><defs><style>.cls-1{fill:#b7d435}</style></defs><title>milk-tea-title</title><g id="Layer_2" data-name="Layer 2"><g id="Layer_1-2" data-name="Layer 1"><path class="cls-1" d="M122.15.4a9.12 9.12 0 0 1 6 2 12.46 12.46 0 0 1 3.62 5 19.24 19.24 0 0 1 1.31 6.64 20.88 20.88 0 0 1-.91 6.84 98.19 98.19 0 0 1-4.33 11.77q-3.12 7.35-7.14 15.9t-8.35 17.51q-4.33 9-8 16.6T98.11 96q-2.52 5.64-2.72 7.24a8.15 8.15 0 0 0 0 2.62 1.27 1.27 0 0 0 .8 1 3.91 3.91 0 0 0 1.61.1q1-.1 2.62-.1 3.22-.2 3.62 2.82.2 1.21-1.81 3.32a6.65 6.65 0 0 1-4 2.31q-6.24.6-10.26-2.11t-3.62-6.74a29.71 29.71 0 0 1 2.21-9.36q2-5.13 5.74-13t9.23-19.1q5.53-11.27 12.78-28 1.81-4 3.32-8.15t3.32-9.76q1.81-7.85.91-9.26t-7.14 2.62a48.19 48.19 0 0 0-6.72 5.86q-3.32 3.42-6.44 7.35t-6 7.95L90 41.25l-7.49 10.47a60.46 60.46 0 0 1-3.42 5.33q-1.81 2.52-3.62 5.13l-.4 1.61a6.59 6.59 0 0 1-.4 1.61l-2.21 9.66q-.81 2.62-2.11 6.14a41.66 41.66 0 0 1-3.22 6.74 23.76 23.76 0 0 1-4.33 5.43 7.61 7.61 0 0 1-5.23 2.21 4 4 0 0 1-2.62-.81 5.9 5.9 0 0 1-1.61-2 8.44 8.44 0 0 1-.81-2.42 12.56 12.56 0 0 1-.2-2 19.48 19.48 0 0 1 1.11-6.14 51.14 51.14 0 0 1 2.82-6.74Q58 72 59.77 69T63 63.79l2-3.62a54.56 54.56 0 0 0 1.81-11q.4-5.93.4-11.57 0-11.27-4.43-11.27-2.82 0-6.84 4a95.61 95.61 0 0 0-8.25 9.56q-4.23 5.54-7.95 11.27t-5.94 9.36q-3 5-5 8.55t-3.42 5.94q-1.43 2.47-2.38 4.18t-1.51 3.12l-11.03 26.76a19 19 0 0 0-2 3.92q-1 2.52-2.82 2.52a2.88 2.88 0 0 1-1.81-.91A9.86 9.86 0 0 1 2 112.39a20.65 20.65 0 0 1-1.4-2.71 6.32 6.32 0 0 1-.6-2.42 3.85 3.85 0 0 1 .3-1.21q.3-.8 2.31-5.23 5.43-13.28 8.65-21.13l5-12.28Q18.11 63 18.92 61t1.41-3.62L30.39 34l10.06-22.13a40.33 40.33 0 0 1 3.42-6.34 18.8 18.8 0 0 1 3-3.52A8.61 8.61 0 0 1 49.41.4a6.19 6.19 0 0 1 2.11-.4 4.36 4.36 0 0 1 3.62 1.51 5.78 5.78 0 0 1 1.21 3.72A11.3 11.3 0 0 1 54.64 11a7.77 7.77 0 0 1-4.13 3.72h-.4a.58.58 0 0 0-.2.4.41.41 0 0 1-.1.3.41.41 0 0 0-.1.3l-3.22 6.44L41.46 34l4.93-6.14a54.26 54.26 0 0 1 5.33-5.74 26.85 26.85 0 0 1 5.94-4.23 14.49 14.49 0 0 1 6.74-1.59 8.63 8.63 0 0 1 5.84 1.91 11.72 11.72 0 0 1 3.32 4.93 28.57 28.57 0 0 1 1.51 6.64 64 64 0 0 1 .4 7q0 2.62-.1 4.73t-.1 3.72q1.61-2.82 3.32-5.23a48.49 48.49 0 0 1 3.72-4.63L90 25q1.61-2.21 3.52-4.43t3.88-4.67l4.43-4.43a63.94 63.94 0 0 1 5.84-5.13 36.25 36.25 0 0 1 6.84-4.23A17.72 17.72 0 0 1 122.15.4zM14.49 87.34c0-.27-.07-.4-.2-.4l-.2 1.21a.18.18 0 0 0-.2.2.18.18 0 0 1-.2.2v.2a.18.18 0 0 0-.2.2h-.4l-.4.81h.2V90a.18.18 0 0 1-.2.2l-.2 1.21a.18.18 0 0 0-.2.2l-.2.6-.2.2v.4a.87.87 0 0 1-.4.7c-.27.2-.4.37-.4.5l-.4 1.21h.2a.58.58 0 0 0-.2.4l-.4 1.61-.2.4.2.2-.2.2v.2c-.13 0-.2.13-.2.4a.35.35 0 0 1-.4.4l-.4.2-.2.2v.2l-.6 1.61-.2.2v.6h-.2c-.27 0-.34.07-.2.2s.07.2-.2.2v1.21a.58.58 0 0 1-.2.4l-.6.6v.4a.18.18 0 0 0-.2.2l-.2.2a.2.2 0 1 1 0 .4.58.58 0 0 0-.2.4v.2a.18.18 0 0 0-.2.2v.2l-.2.2a.89.89 0 0 1-.1.4.89.89 0 0 0-.1.4.81.81 0 0 0 .2.6l.4-1.41a.68.68 0 0 1 .3-.6c.2-.13.3-.27.3-.4l.8-1.81v-.4h.2a.18.18 0 0 1 .2-.2l.6-1.61a.58.58 0 0 1 .2-.4l1-1.41h-.2a1.16 1.16 0 0 1 .4-.81l.6-1.81V97l.2-.2v-.4a.53.53 0 0 1 .6-.6v-.2c0-.13 0-.2.1-.2s.1-.07.1-.2h-.2a1.11 1.11 0 0 0 .4-.7 1.1 1.1 0 0 1 .4-.7c.13 0 .23-.13.3-.4a3.37 3.37 0 0 0 .1-.8v-.4c0-.27.07-.43.2-.5a.32.32 0 0 0 .2-.3v-.81l.4-.2a.35.35 0 0 1 .4-.4l-.2-.2.4-.6a.18.18 0 0 1 .2-.2v-.4a.18.18 0 0 1 .2-.2zM6 103.84c.27 0 .33-.07.2-.2s-.07-.2.2-.2l.2-.6-.2-.2a.18.18 0 0 0 .2-.2l.6-.8v-.8a.18.18 0 0 0-.2.2l-.6.6-.2.4-.4.6v1.21zm1.61-4.63L8 99v-.2l.2-.4a.18.18 0 0 0 .2-.2v-1a.18.18 0 0 0 .2-.2l.2-.4h.4v-.2l.4-.4a.58.58 0 0 0 .2-.4l.2-.2.2-.2-.2-.4.4-1-.6.2c0 .27-.07.4-.2.4l-.4.81h.2l-.6.6q-.41 0-.3.3t-.3.3L8 98l-.2.2-.2.6a.18.18 0 0 0-.2.2zm2.45 3.79a.36.36 0 0 0-.4-.4h-.4l-.2.6a.58.58 0 0 0-.2.4l-.4.8a.18.18 0 0 0-.2.2L8 105v.81h.2l.2-.2h.4l-.2-.4a.18.18 0 0 0 .2-.2l.2-.6 1-1.21zm4.23-11.87v.2l-.6.6-.6.4-.2 1.41a.18.18 0 0 0-.2.2v.6a.41.41 0 0 1-.1.3.41.41 0 0 0-.1.3v.4a.18.18 0 0 0-.2.2l-.2.4-.2.2-.4.6-.2.2.2.81a.18.18 0 0 1-.2.2v.2l-.2.4-.4.4a.58.58 0 0 1-.2.4v1.21l-.2.6-.2.2.2.4c.13 0 .2-.2.2-.6l.2-1a2.06 2.06 0 0 1 .4-.81l.4-.4a.82.82 0 0 1 .2-.6l.2-.2a1.37 1.37 0 0 1 .1-.6 1.41 1.41 0 0 0 .1-.6V97a.18.18 0 0 0 .2-.2l.2-.2v-.2a1.64 1.64 0 0 0 .4-1.21V95l.2-.2.2-.4V94l.2-.2.6-.8a.18.18 0 0 1 .2-.2l-.2-.4.4-1 .2-.2zm-3.82 1.21l.4.2-.2-.4.4-1h-.4l-.2 1zm10.86-24.72l-.4.6-.2.2a.18.18 0 0 0-.2.2h-.2l.2.4h-.2l.6.2c.13 0 .2-.13.2-.4l.4-.8zm.8-1V66a.18.18 0 0 0-.2-.2zm.6-2.62l-.2.4a.18.18 0 0 0 .2.2l.2-.6zM25 60l-.6.4a.18.18 0 0 1-.2.2v1a.18.18 0 0 0 .2.2v-1l.6-.6zm.6-2l-.4.2c0 .14.13.2.4.2l-.2.2.4.2V58zm1-1.61a.2.2 0 0 0 0 .4l.2.2v-.6zm1-2.62l.2.2v-.4zm.6-2.62c0 .27 0 .34-.1.2s-.1-.07-.1.2v.81l.2-.2h.4a.18.18 0 0 0-.2-.2l.2-.4zm1-2a.18.18 0 0 0-.2.2v.2a.18.18 0 0 0 .2.2l.2-.2h-.2l.2-.2zm10.65-21.78l.4-.2v-1l.6-1.21c.13 0 .2-.13.2-.4l.2-.4.8-1.41c0-.13.13-.33.4-.6v-.81l.4-.4.2-.4v-.6l.6-1a1.16 1.16 0 0 1 .4-.81v-.2a.18.18 0 0 1 .2-.2v-.4a.18.18 0 0 1 .2-.2l.2-.2v-.4a.58.58 0 0 1 .2-.4l.2-.4a.41.41 0 0 1 .1-.3.8.8 0 0 0 .1-.5v-.4a.58.58 0 0 0 .4-.2l-.2-.2c.13 0 .2 0 .2-.1s.07-.1.2-.1v-.6a.18.18 0 0 0 .2-.2l-.4.2c-.27 0-.4.2-.4.6l-1 1.81v1a.18.18 0 0 0-.2.2.18.18 0 0 1-.2.2h-.2c0 .27-.07.4-.2.4s-.2.14-.2.4l-.2.2v.81l-.2 1c-.27 0-.37.13-.3.4s0 .4-.3.4v.2c-.54.54-.74.81-.6.81l.2.4h-.4l-.2 1c-.13 0-.2.14-.2.4a.58.58 0 0 1-.2.4l-.4.4a.18.18 0 0 0 .2.2l-.4.4v.6l-.2.2-.6.6-.61 2.64a.18.18 0 0 0-.2.2.58.58 0 0 0-.2.4v.2l-.4.8c-.27.27-.4.47-.4.6l-.2.4v.6l-.2.2v.2l-.2.2v.4l-.6.81a.18.18 0 0 0-.2.2l-.2.6v.81l-.4.4-.4.4L35 37c.27 0 .37 0 .3-.1s0-.1.3-.1v-.2l.6-.81.2-1 .81-.8.2-.81.2-.6-.2-.2a.18.18 0 0 1 .2-.2l.2-.2 1.41-2.62zM36 32.4l.4-1a.18.18 0 0 0 .2-.2l.4-.6h.2l.2-1.21v-.8h-.2a.58.58 0 0 1-.2.4l-.2.6a.18.18 0 0 1-.2.2.18.18 0 0 0 .2.2c0 .14 0 .2-.1.2s-.1.07-.1.2l-.4.2-.2.2v.81l-.2.8zm2-6l.2.4c0-.13.13-.3.4-.5a.87.87 0 0 0 .4-.7l.2-.2v-1l.2-.2.2-.2a.18.18 0 0 1 .2-.2l.2-.8a.18.18 0 0 1 .2-.2v-.2l.2-.2.2-1a.18.18 0 0 0 .2-.2l.4-.2a.18.18 0 0 0-.2-.2l-.6.2-.2.2v.2l-.2.2v.6a.58.58 0 0 0-.2.4l-.4.2a.58.58 0 0 1-.2.4v.8l-.4.4a.18.18 0 0 0 .2.2l-.2.2-.2.81-.4.6H38zm1.81 4.83A.18.18 0 0 0 40 31l-.2-.4c-.27 0-.4.07-.4.2l-.2.2v1l-.2.6-.6.6-.2.81a.18.18 0 0 0-.2.2l1.21-.6V32.2a.18.18 0 0 0 .2-.2zm.8-2.42c.13 0 .2-.1.2-.3a1.1 1.1 0 0 1 .4-.7l.4-.4.2-.6a2.26 2.26 0 0 1 .3-.5.8.8 0 0 0 .1-.5l.4-.6c0-.27.07-.4.2-.4v-.2a.18.18 0 0 1-.2-.2l.4-.2v-.2c0-.53.07-.8.2-.8v-.2c0-.13.1-.27.3-.4s.3-.27.3-.4l.2-.4c0-.27.07-.4.2-.4s.2-.13.2-.4v-.2a.58.58 0 0 1 .2-.4.58.58 0 0 0 .2-.4v-.2a.18.18 0 0 1 .2-.2v-.2l-.2-.2a.83.83 0 0 1 .3-.5 1 1 0 0 0 .3-.7l.2-.6-.4.2-.2.4a.18.18 0 0 0-.2.2v.6l-.6.4a.18.18 0 0 0 .2.2v.4c0 .13 0 .17-.1.1s-.1 0-.1.1l-.2.6a.18.18 0 0 0-.2.2.18.18 0 0 1-.2.2l-.6 1.21v.2l-.4 1.21a.18.18 0 0 1-.2.2v.4c-.14 0-.2 0-.2.1s-.07.1-.2.1l-.4 1.81c-.13 0-.2 0-.2.1s-.07.1-.2.1l-.2.81-.6 1.61a.58.58 0 0 1-.2.4.82.82 0 0 0-.2.6l.4.4.2-.2-.2-.6c.17-.08.24-.28.24-.68zm1-10.46c-.13 0-.2.2-.2.6h-.2l.2.2.81-.4-.2-.4.4-.4v-.6zM47.29 36l-.4-.2-.2.4a.18.18 0 0 0 .2.2l.4-.2zm2-2.42l-.2-.4-.2.4h-.4a.18.18 0 0 0-.2.2l-.2.2h1.41v-.4zm1.21-2.21h-.4l-.2.6a.18.18 0 0 0 .2.2l.2.2.2-.8zm2-2.82h-.2V29l.2-.2zm2-1.61h-.2l-.2.4h.4l.2-.2zm-.2.2v.2h.2v-.2zm3-2.62l-.6-.2-.2.6-.81.4.2.6.4-.2.4-.4H57l.2-.2.2-.4zm3-2.21a.18.18 0 0 1-.2.2l-.2.2h.4a.18.18 0 0 0 .2-.2h.2zm2-1l-.2.2-.2-.2-.4.4a.18.18 0 0 0 .2.2h.6v-.4a.18.18 0 0 0 .2.2v-.4zm1.81-.4h.2l-.2.2zm.6 64.4h-.6v1c.27 0 .33-.1.2-.3s-.07-.3.2-.3l.2-.2zm-.4-64.4l.2.2v-.2zm.81 62.59h-.4a.18.18 0 0 0-.2.2l.2.6.2-.4.2-.2zm.4-1.41l-.2.4.2.4.2-.6zm1.21-2.62c-.13-.27-.27-.4-.4-.4h-.2l.2.4-.2 1 .4-.2zm0-1.81l-.2.2.2.2h-.2l.2.4c.27 0 .4-.07.4-.2v-.6zm1.41-3.42a.18.18 0 0 0-.2-.2l-.4-.2.2.2h-.2a.18.18 0 0 0 .2.2l.2.4v-.4zm.4-1.21a.18.18 0 0 0-.2-.2v-.4h-.6v.6zm0-2.42c0-.13-.07-.17-.2-.1s-.2 0-.2-.3l-.2.4a.18.18 0 0 0 .2.2l.2-.2zM70.44 33a.18.18 0 0 0-.2.2h.6v-.4zm0 1.21v.6H71v-.6zm.4 9.66l-.4.2a.18.18 0 0 0 .2.2l.2.2zm.2-6.64h-.4l.2.2.4.2-.2-.2h.2zm.2 1.81a.18.18 0 0 0-.2-.2l-.4-.2a.18.18 0 0 0 .2.2l.2.2zm-.4 1.21v.2h-.2l.6.6v-.81zm0 2.82H71a.18.18 0 0 1-.2-.2h-.2a.57.57 0 0 0 .2.4zm-.2 2.62v.8h.2v-.8zM71 36a.18.18 0 0 0 .2-.2h-.4v.2zm9.86 7.85h-.2a.18.18 0 0 0-.2.2c0 .14 0 .2.1.2s.1.07.1.2h.2a.18.18 0 0 0 .2-.2v-.2zm1.61-1.61h-.4a.18.18 0 0 0-.2.2l.6.6zm-.6.2l.2.2zm1-1.41l.6.2v-.2zm2-2.21a.18.18 0 0 0-.2.2l-.2.2.2.2h.2zm1-1.61h-.2l.2.2-.4.6h.6v-.4l.2-.2zm1.21-1.41l-.4 1a.18.18 0 0 0 .2-.2l.2-.2zm2.41-2.21c0-.27-.07-.4-.2-.4l-.4.4a.18.18 0 0 1 .2.2zm.2-1.41l2.62.2-2-1zm2.31-2.4a.18.18 0 0 0-.2-.2v-.2a.18.18 0 0 0-.2.2.18.18 0 0 1-.2.2l-.4.8.8-.2.2-.2V30l-.2-.2zm.2 72h-.4c0 .54.07.81.2.81a.18.18 0 0 0 .2-.2zm1.21-2.42l-.2.2a.18.18 0 0 1-.2-.2c-.14 0-.2 0-.2.1s-.07.1-.2.1a.58.58 0 0 1-.4.2h.4v.2h.6l.4-.6zm17.47-91.71a.58.58 0 0 0 .4-.2l1-.6a.18.18 0 0 1 .2-.2h.2v-.2l.2-.4c.13 0 .2 0 .2-.1s.07-.1.2-.1v-.2l.2-.2h-.8a.53.53 0 0 1-.6.6v.2l-.6.4a.18.18 0 0 0-.2.2l-.4.2c-.27 0-.4.07-.4.2l-.2.2c-.14.27-.3.37-.5.3s-.3 0-.3.3v.2l.6-.2h.6a5.21 5.21 0 0 0 1.61-.2l-4.23 3.42-.8.8q0 .2-.3.3a.47.47 0 0 0-.3.5l-1.41 1.41c0 .27-.13.37-.4.3s-.4 0-.4.1l-1 1c-.27 0-.44.07-.5.2a.32.32 0 0 1-.3.2l-.4 1c-.13 0-.2 0-.2.1s-.07.1-.2.1h-.4l-.4.2c0 .14 0 .2-.1.2s-.1.07-.1.2l-1.21 1.21c-.13 0-.2.14-.2.4l-.4.4a.18.18 0 0 0-.2.2v.2l-.81.6-.4.2a.18.18 0 0 0-.2.2l-.2.2c0 .14 0 .2-.1.2s-.1.07-.1.2h-.2a.18.18 0 0 1-.2.2l-.6.6c0 .27-.07.4-.2.4l-.4.8c-.14 0-.34.14-.6.4l-1.21 1.81.2-.2.4-.4.6-.4A.18.18 0 0 1 95 25l.2-.4.2-.2a.18.18 0 0 1 .2-.2h.2l.4-.4.2-.6V23l.4-.4a.58.58 0 0 0 .4-.2.41.41 0 0 0 .3-.1.41.41 0 0 1 .3-.1l.2-.2-.2-.2.4-.4.2-.2.2-.2h.2l.2-.4.4-.2.2-.2V20l.4-.2.4-.4.4-.4a.18.18 0 0 0 .2-.2l1-1a.18.18 0 0 1 .2-.2l.6-.4c.13 0 .27-.13.4-.4l.2-.4c-.13 0-.13-.07 0-.2s.27-.4.81-.4l1-.8a.18.18 0 0 1 .2-.2h.2a.18.18 0 0 1 .2-.2l.81-.4.4-1 .2-.4.4-.2a.18.18 0 0 0 .2-.2l.2-.2.2-.2.6-.4-.2-.2c0-.27.1-.33.3-.2s.3.07.3-.2h.2a2.05 2.05 0 0 0 .8-.4A20 20 0 0 0 112.7 8l.4-.2a12.42 12.42 0 0 0 3-.4 6 6 0 0 1 1.41-.2l-4 .4 1.81-1.21c.4 0 .6-.13.6-.4h.2c0-.27.07-.33.2-.2s.2.07.2-.2h.2a.18.18 0 0 1 .2-.2h.4l.4-.6.2-.2.8-.4h-.4l-1.6.81-.2.4-2 1c0 .14-.07.17-.2.1s-.2 0-.2.1l-.6.4q-.2 0-.8.6zM93.78 97.4l-.2.6c.13 0 .27-.13.4-.4v-.2zm1.61-2.62a.2.2 0 0 0-.4 0l-.2.4zM96 21.13l.2-.2 1.21-.6v-.4h.2l.2-.2a.36.36 0 0 0 .4-.4v-.2l.2-.2 1.81-1.61c.13 0 .2 0 .2-.1s.13-.1.4-.1l.2-.4-.2-.2.4-.4.2-.2h.2a.18.18 0 0 1 .2-.2l.4-.2v-.4l.4-.2.2-.2.6-.2v-.2h.2l-.2-.2h.4a.18.18 0 0 1 .2-.2l.2-.4c0-.4.27-.6.8-.6l1.21-1 .4-.2.4-.81c.13 0 .33-.13.6-.4l.4-.4.2-.6a.58.58 0 0 0 .4-.2v-.4l-.6.6h-.4l-.6 1-1.21 1a.58.58 0 0 1-.4.2l-1.21 1a.18.18 0 0 0-.2.2l-1 1.21a.18.18 0 0 1-.2.2l-.2.2c-.27 0-.4.07-.4.2l-.4.4a.18.18 0 0 0-.2.2.18.18 0 0 1-.2.2l-1.21.81-.2.2-.6.6-.2.2-.6.6c-.27.27-.47.4-.6.4v.4a.18.18 0 0 0-.2.2l-1.4 1.4-.2.2-.2.2-.2.4zm2 66.21v-.4c-.27.27-.4.47-.4.6l-.2.2v.2l-.2.2a.18.18 0 0 0 .2.2l-.2.2h.6l-.2-.4.4.2a.59.59 0 0 0-.2-.4h.2l-.2-.2h.2l.2-.2zm1.21-2.82l-.2-.2-.2.8-.4.6h.2l.4.2-.2-.4H99a.18.18 0 0 0-.2-.2zM101 20.33l-.2.2a.18.18 0 0 0-.2.2l-.6.2a.18.18 0 0 1-.2.2l-.6.6 1 .4v-.4l.81-.81v-.2l.2-.2zm0 61h-.2l.2.2zm0 0c.13-.13.13-.2 0-.2zm1.21-2.21H102l-.2.2h.2l-.6.6.4.2.4-.81zm6.84-65.6a.18.18 0 0 0-.2-.2v-.2h-.4c-.13 0-.2.17-.2.5s-.13.5-.4.5h-.2l.2.2-.8.4a.18.18 0 0 0-.2.2l-1.41 1a.58.58 0 0 0-.2.4l-.4.2-.2.2c0 .27-.2.4-.6.4l-1 .8c0 .14-.1.27-.3.4s-.3.27-.3.4l.6.2a.18.18 0 0 0 .2-.2h.2v-.4l.2-.2a.18.18 0 0 1 .2-.2l.2-.2 1-.4a.18.18 0 0 1 .2-.2h.2c.13 0 .2-.13.2-.4h.2l-.2-.2.81-.6a.58.58 0 0 0 .4-.2l.6-.8 1.21-1c.13 0 .2-.13.2-.4zm-6.24 63.39l-.4 1 .4.2-.2-.2h.4v-.4a.18.18 0 0 1 .2-.2l.2-.8zM114.91 8h-.2l-.2.2-.2-.2-.4.6a.58.58 0 0 1-.4.2l-.4.4-.2.2a.58.58 0 0 0-.4.2l-.2.4v.2a.18.18 0 0 1-.2.2h-.2l-.2.2-.4.2c-.27 0-.37 0-.3.1s0 .1-.1.1h-.2l.6.2a.18.18 0 0 0 .2-.2h.6l.6-.6V10h.2c0-.27.17-.4.5-.4s.5-.13.5-.4l.4-.2.2-.2h.4l.2-.6zm-2.62-.2h.8l.4-.2h-1zm16.3 8.45a1.18 1.18 0 0 0-.2-.81v-.4c-.13 0-.24.17-.3.5a4.52 4.52 0 0 0-.1.91.4.4 0 0 0 .1.3.42.42 0 0 1 .1.3l-.6 2.21a.82.82 0 0 1-.2.6l-1.61 4.43h.2c0 .14-.17.34-.5.6a1.71 1.71 0 0 0-.5 1.41l-1.42 4.7-.81 1.41.2.6-.4.81-.6.8-.8 1.81-.81.8a.58.58 0 0 0-.2.4V38l-.6 2.21a1.09 1.09 0 0 0-.5.4 1.64 1.64 0 0 1-.3.4l-.2 1.21-.6.6a.93.93 0 0 1-.6 1l-1 3.42a.18.18 0 0 0-.2.2l-.6 1.41c-.4 0-.6.47-.6 1.41h-.2a.18.18 0 0 1-.2.2l-1.41 3-.4.4a1.16 1.16 0 0 0-.2.8v.2c-.14 0-.2.2-.2.6l.2-.2.2-.2v-.2c0-.13 0-.2.1-.2s.1-.13.1-.4l.2-.4c0-.27 0-.37.1-.3s.23-.17.5-.7l.2-.2a.18.18 0 0 1 .2-.2l.6-1h.2l.2-1.21.4-.2c0-.53.17-.87.5-1s.5-.33.5-.6l-.2-.6c.27-.27.4-.47.4-.6h.2l.4-.81v-.6a.18.18 0 0 0 .2-.2v-.4a.82.82 0 0 0 .2-.6l.6-1c.27 0 .4-.33.4-1l.6-1v-.4l.2-.2.2-.2c0-.27 0-.4.1-.4s.1-.07.1-.2l.81-1.81a1.65 1.65 0 0 1 .6-1l-.2-.2a.18.18 0 0 0 .2-.2l.2-.4.6-.81.2-.4-.2-.2a.18.18 0 0 1 .2-.2v-.2c.27 0 .4-.2.4-.6l.2-.4a.58.58 0 0 1 .2-.4c0-.13 0-.2.1-.2s.1-.07.1-.2l.2-.2a.18.18 0 0 1 .2-.2l-.2-.4.6-1.41c.13 0 .17 0 .1-.1s0-.1.1-.1v-1.23l.4-.8v-.4a.58.58 0 0 1 .2-.4l.4-.4-.2-.4.2-.2.6-1.41.2-.2.6-1.21.4-2.21c0-.53.13-.81.4-.81l.2-.4a.87.87 0 0 1 .1-.4.89.89 0 0 0 .1-.4l.2-1a1.59 1.59 0 0 1 .2-1v-.2a.41.41 0 0 1 .1-.3.8.8 0 0 0 .1-.5l-.2-.2zM113.7 49.1l.4-.2h.2a.18.18 0 0 1 .2-.2l.2-1 .2-.2.2-.2a.18.18 0 0 1 .2-.2l.2-.6c.4 0 .6-.27.6-.8h.2l-.2-.6c.13-.4.27-.6.4-.6v-.2a.82.82 0 0 0 .2-.6h.4c.13 0 .2-.13.2-.4v-1.24l.2-.2v-.4l.2-.2v-.2h.2l.2-.4a.58.58 0 0 1 .2-.4.41.41 0 0 1 .1-.3.41.41 0 0 0 .1-.3v-.4l.2-.4.4-.4.2-.4v-.2a.18.18 0 0 1 .2-.2l.2-.6v-.2l.2-.4.6-.81.2-1a.82.82 0 0 0 .2-.6l.4-.81.2-.2.2-.4.4-1.21V31l.2-.2a.18.18 0 0 1 .2-.2l.2-2-.2.8a3.52 3.52 0 0 1-.4 1v.2a4.68 4.68 0 0 0-.8 1.21 3.22 3.22 0 0 0-.4 1.41v.4a.18.18 0 0 0-.2.2l-1 1.21.2.4-1 1.61a.2.2 0 1 0 0 .4l-.2.2a.18.18 0 0 1-.2.2v.81l-.4.4-.2.4-.2.4-.2.6a3.28 3.28 0 0 0-.2.81l-.8 1.81a.58.58 0 0 0-.2.4v.2l-.8 1.41a.58.58 0 0 1-.2.4l.2.2-.4.2v.6a.18.18 0 0 0-.2.2.18.18 0 0 1-.2.2v.4a.18.18 0 0 0-.2.2h-.2a.18.18 0 0 1-.2.2v.2a.57.57 0 0 0 .2.4l-.6.6zm4.83-3.42v.4l-.2.4a.18.18 0 0 0-.2.2v.2l-.4.2v.6l.4-.2a.18.18 0 0 0 .2-.2h.2l.2-.2a.18.18 0 0 0-.2-.2l.2-.4.2-.2.2-.6zm-.4 2.21h-.4v-.2zm1-44.07a.36.36 0 0 0-.4.4.35.35 0 0 0 .41-.4zm5.63 29.38l-.2-.2-.2.2v.8l-.4.4a.58.58 0 0 0-.2.4.18.18 0 0 1-.2.2.57.57 0 0 0 .2.4l-.2.2a.18.18 0 0 1-.2.2l-.2.4-.4.4a.58.58 0 0 0-.2.4l-.2.2a.58.58 0 0 0-.2.4l-.4 1.41c-.27 0-.34.07-.2.2s.07.2-.2.2l-.2 1a.36.36 0 0 0-.4.4l-.2.2-.2.2v.81a.18.18 0 0 0-.2.2l-.2.2c0 .13 0 .2-.1.2s-.1.07-.1.2l.2.2.81-.8.4-1 .2-.2.6-.81c0-.13 0-.2-.1-.2s-.1-.07-.1-.2a.58.58 0 0 0 .2-.4c0-.27.07-.4.2-.4l.6-1a.18.18 0 0 0 .2-.2l.2-.4-.2-.2.2-.4q.2 0 .3-.3t.3-.3V36a.18.18 0 0 1 .2-.2l.4-.4v-1l.2-.6a.82.82 0 0 0 .2-.59zm-1-5.84l.2-.4a.18.18 0 0 0 .2-.2v-.6h.2v-.8a.18.18 0 0 0 .2-.2V25a.18.18 0 0 1 .2-.2v-.81a.18.18 0 0 0 .2-.2v-.2c0-.4.07-.6.2-.6v-.4c.27 0 .33-.07.2-.2s-.07-.2.2-.2v-.2l-.2-.2h-.6l-.2 1.41v.2a.58.58 0 0 1-.2.4v1.41a.18.18 0 0 0-.2.2v.2l-.2.2v.4h-.2l-.2.2-.2.4h.2a.18.18 0 0 1-.2.2.18.18 0 0 0 .2.2zm4.24-3.81l-.8.81v1c-.14 0-.2.13-.2.4V26l-.2.2v1h-.2v.2c-.27 0-.34 0-.2.1s.07.1-.2.1l-.2.81a.18.18 0 0 0-.2.2h-.2c0 .14 0 .2-.1.2s-.1.07-.1.2l.2.6.2-.2a.18.18 0 0 0 .2-.2.18.18 0 0 1 .2-.2v-.2a.58.58 0 0 1 .4-.2V28l.6-.6-.2-.4a.18.18 0 0 0 .2-.2v-.6l.2-.4a.18.18 0 0 0 .2-.2l.4-1.41v.2a1.58 1.58 0 0 0 .1.5 2.25 2.25 0 0 1 .1.7v.8l.2-2.82zm8.24 56.54a15.52 15.52 0 0 1 4.63-2.62q1.61-.4 2.21.3a2.38 2.38 0 0 1 .2 2.21 9 9 0 0 1-1.41 2.92 7 7 0 0 1-1.41 2.21q-1.61 2.22-3.72 4.63a26.56 26.56 0 0 1-4.33 4L131 95.19 128.79 97a15.88 15.88 0 0 1-5.23 2.62 6.18 6.18 0 0 1-1.51.2h-1.31a7.8 7.8 0 0 1-2.82-.4l-.6-.2a.82.82 0 0 1-.6-.2l-1.41-.6a8.23 8.23 0 0 1-2-1.81 5.16 5.16 0 0 1-1.21-2.52 18.14 18.14 0 0 1-.2-2.72 12.14 12.14 0 0 1 .4-3.12q.41-1.51 1-3.12l.6-1.41.6-1.61.6-1.21.6-.8q1.81-3.62 3.42-6.64t2.62-5.23a13.16 13.16 0 0 1 1-2q.8-1.41 1.71-3t1.81-3.32q.91-1.71 1.51-2.92l3.23-6.48q.6-1.21 2.82-.81a15.09 15.09 0 0 1 4.83.91 3.43 3.43 0 0 1 2 1.81 4 4 0 0 1 0 2.52 12.85 12.85 0 0 1-1.21 2.82 21.5 21.5 0 0 1-1 2.21q-.81 1.61-1.91 3.72t-2.3 4.31q-1.21 2.22-2.42 4.23A79.56 79.56 0 0 0 127 80.5a17.63 17.63 0 0 0-1 1.81q-.6 1.21-1.31 2.42T123 87.94q-1.21 2.42-.8 2.82t1.81-.4a28.07 28.07 0 0 0 3.52-2.52q2.11-1.71 3.92-3.42t3.22-2.92q1.33-1.2 1.57-1.41zM117.73 97.4v-.2h-.2V97h-.4v-.4h-.2v-.2h-.2v-.2h-.2V96h-.2v.2h-.2v.2a.18.18 0 0 0-.2.2h.2v.2h.2v.2h.2v.2h.2v.2h.2v.2h.2v.2h.4v.2h.2v-.2h.2v-.4zm8.65-3H126v.2h-.4v.2h-.6v.2h-.2l-.2.2h-.2v.2h-.2l-.2.2h-.2v.2h-.4v.2h-.2l-.2.2h-.4v.2h-.6v.2h-1.81v-.2h-.6v-.2h-.4V96h-.2v-.2h-.2l-.2-.2v-.2h-.2v-.2h-.2V95a.18.18 0 0 1-.2-.2h-.2v-.2h-.2v-.2l-.2-.2v-.4a.18.18 0 0 1-.2-.2h-.2v-.2h-.4v.2a.18.18 0 0 1 .2.2c0 .14 0 .2.1.2s.1.07.1.2v.2l.2.2.4.81h.2a.58.58 0 0 0 .2.4h.2V96l.2.2v.2a.58.58 0 0 1 .4.2.18.18 0 0 1 .2.2.41.41 0 0 1 .3.1.4.4 0 0 0 .3.1.83.83 0 0 1 .6.2h2a.58.58 0 0 0 .4-.2h.4v-.2h.4v-.2h.4v-.2h.2a.18.18 0 0 0 .2-.2h.2l.2-.2h.2v-.2h.2v-.2h.2l.2-.2h.2v-.2h.2l.2-.2v-.2h.2a.18.18 0 0 0 .2-.2zM126 97l-.2-.2h-.2v.2h-.6v.2l-.2-.2v.2h-.2v.2h-.2a.18.18 0 0 0-.2.2h-.2l-.2.2h-.2a.18.18 0 0 0-.2.2h-.4v.2h-.8v.2h-.8v.2h-1v-.2h-1a.18.18 0 0 0-.2-.2h-.2V98h-.6v.4a.58.58 0 0 1 .4.2h.2v.2h.2c.13 0 .2 0 .2.1s.13.1.4.1h.6a.57.57 0 0 0 .4.2h.6a.41.41 0 0 0 .3-.1.8.8 0 0 1 .5-.1v-.2h.2v.2h.2a.18.18 0 0 1 .2-.2h.6v-.2h.4v-.2h.4v-.2h.4V98h.2l.2-.2h.2v-.2h.2l.2-.2h.2v-.2h.2zm-6.64-2.42V95h.4v.2h.2V95h.2v-.6h-.2a.18.18 0 0 0-.2-.2h-.2V94h-.2v.2h-.2v.2h-.2v.2zm1.61.6v.2h.8v-.2h.4v-.4l-.2-.2h-1.21v.2h-.2v.4zm1.61-.81h.2l-.2-.2zm.2.4h.2l.2-.2h.2v-.4h-.2V94h-.4zm2-19.12a.58.58 0 0 0-.2.4h.4a.58.58 0 0 1 .2-.4l.6-1 .2-.4.2-.2a6.21 6.21 0 0 1 .4-.7 7.06 7.06 0 0 0 .4-.7c0-.13 0-.2.1-.2s.1-.07.1-.2a.41.41 0 0 1 .1-.3.41.41 0 0 0 .1-.3l.2-.2v-.2h.2V71l.6-.8a1.16 1.16 0 0 1 .4-.81L130 67v-.2l.2-.2v-.2h.2v-.2l.2-.2a.87.87 0 0 1 .1-.4.89.89 0 0 0 .1-.4h.2V65l.2-.2v-.2h.2v-.2l.2-.2V64h.2v-.2c0-.13 0-.2.1-.2s.1-.07.1-.2a.41.41 0 0 1 .1-.3.41.41 0 0 0 .1-.3.18.18 0 0 0 .2-.2l.2-.2v-.2l.2-.2v-.2h.2v-.4h.2V61l.2-.2v-.2h.2v-.4h.2v-.4a.18.18 0 0 0 .2-.2v-.2h.2V59c.13 0 .2-.13.2-.4a.18.18 0 0 0 .2-.2.18.18 0 0 1 .2-.2V58l.2-.2v-.4h.2v-.2l.4-.6v-.2l.2-.2V56a.58.58 0 0 0 .2-.4h.2v-.4h.2v-.4l.2-.2v-.2h.2v-.2h-.4v.2h-.2v.2l-.2.2v.2h-.2v.2a.18.18 0 0 0-.2.2v.2h-.2v.2h-.2v.4h-.2v.2h-.2v.2l-.2.2v.4h-.2v.2a.18.18 0 0 0-.2.2v.2h-.2v.4l-.2.2v.2h-.2v.4h-.2v.4a.82.82 0 0 0-.2.6h-.2v.2h-.2v.4h-.2v.4h-.2v.4h-.2v.4h-.2v.4h-.2v.2l-.2.2v.2l-.2.2v.2a.18.18 0 0 0-.2.2.18.18 0 0 1-.2.2v.4h-.2v.2l-.2.2v.2h-.2v.4h-.2v.4a.18.18 0 0 0-.2.2l-.2.2v.2l-.2.2v.4h-.2v.2h-.2v.4a.18.18 0 0 1-.2.2v.4a.18.18 0 0 0-.2.2v.2h-.2v.4h-.2v.2l-.2.2v.4h-.2v.2h-.2v.4h-.2v.2l-.4.6v.2h-.2v.4h-.2v.4h-.2v.2c0 .14-.14.34-.4.6v.2l-.2.2v.4a.18.18 0 0 0-.2.2c0 .14-.13.34-.4.6 0 .14 0 .2-.1.2s-.1.07-.1.2a.18.18 0 0 1-.2.2.58.58 0 0 1-.2.4zm.4-4.23h.2l.2-.2h.2V71h.2v-.4h.2v-.4h.2v-.4h.2v-.6h.2V69h.2v-.4h.2v-.4h-.6v.2a.18.18 0 0 0-.2.2v.2h-.2v.2a.58.58 0 0 0-.2.4v.2h-.2v.2h-.2v.4h-.2v.4h-.2zm2.62-5a.18.18 0 0 1 .2-.2l.2-.2v-.2c.13 0 .2 0 .2-.1s.07-.1.2-.1v-.4h.2V65l.2-.2v-.2l.4-.4h-.2V64h.2v-.2h.2v-.2l.2-.2v-.2h.2V63a.18.18 0 0 0 .2-.2v-.2h.2v-.4a.18.18 0 0 0 .2-.2v-.2h.2v-.4l.2-.2v-.4h-.2l-.2.2h-.2v.2h-.2v.2h-.2v.4h-.2v.4h-.2v.4h-.2v.2h-.2v.4h-.2v.4h-.2v.2h-.2v.6h-.2v.2l-.2.2v.2h-.2v.4h-.2v.2l-.2.2v.4zm2.42 4a.18.18 0 0 1-.2-.2h-.2v.2h-.2v.2h-.2v.2l-.2.2v.2a.18.18 0 0 0-.2.2v.4h-.2V72h-.2v.2l-.2.2v.4h-.2v.4H128v.2h.8v-.2h.2v-.4h.2v-.4h.2V72h.2v-.6h.2v-.2h.2v-.4h.2zm6.44-12.28h-.4v.2H136v.2h-.2V59h-.2v.2h-.2v.2h-.2v.4h-.2v.4h-.2v.4h-.2v.2c0 .14 0 .2-.1.2s-.1.07-.1.2v.2h-.2v.4h-.2v.4h-.2v.4h-.2v.4h-.2v.4h-.2v.2l-.2.2v.2h-.2v.4h-.2v.6h-.2v.4h-.2v.4h-.2v.4h-.2v.2h-.2v.4h-.2v.4h-.2v.2l-.2.4v.4h-.2l-.2.4-.2.2v.2l-.2.2a.18.18 0 0 0 .2.2v.2h.2v-.2l.4-.6.2-.2a1.16 1.16 0 0 0 .4-.8.18.18 0 0 0 .2-.2l.2-.2V67l.4-.4a.58.58 0 0 1 .2-.4V66l.6-1v-.4h.2v-.2a.58.58 0 0 0 .2-.4h.2v-.4h.2v-.2l.2-.2V63l.2-.2v-.2h.2v-.4h.2v-.4h.2v-.4a.18.18 0 0 0 .2-.2V61a.18.18 0 0 0 .2-.2v-.2l.2-.2v-.2h.2v-.4l.2-.2v-.4h.2V59l.2-.2v-.4h.2zm-5 1.21l.2.2v-.2h.2v-.2h.2v-.4h.2V58h-.6v.4h-.2v.6h-.2v.4zm1-1.21V58h-.2zm18.88-26.54q1.4 1.81-.2 4.73a29.34 29.34 0 0 1-4.23 5.74 35.9 35.9 0 0 1-5.43 4.83q-2.82 2-3.82 1.81Q136 48.7 136 46a29.18 29.18 0 0 1 .7-6 42.85 42.85 0 0 1 1.71-6 18.8 18.8 0 0 1 1.25-3 1.62 1.62 0 0 1 1.34-1.12 21.68 21.68 0 0 1 2.42-.5 10.87 10.87 0 0 1 2.52-.1 8.59 8.59 0 0 1 1.81.3 8.2 8.2 0 0 1 3.79 2.02zM137 44.88l-.2-.6.2.81zm0 0h.4l.2-.4-.4-.4-.2.4zm.6-.4h.2v.4h.2l.6-.4-.6-.2-.2-.2v.2zm1.21-.4l.2-.2h-.4v.2zm2.42-10.87c0-.13.13-.2.4-.2l-.4-.2-.6-.6.6.81zm0-.4h1.21l-.2-.2.2-.4-1.41-.4.2.81zm1.21-.6h.2l.2-.2h-.2zm.4-.2l.2.6.2-.2 1.61.4-.4-.6V32l-1.21-.2h-.2zm2-.6v-.2l.2-.2h-.4l-.4.2v.2z"/><path class="cls-1" d="M152.14 74.26q-2.42 4.43-4.43 8.25t-3.62 7q-.81 2.41 1 1.41a32.78 32.78 0 0 0 4.43-3.12q2.61-2.11 4.93-4.33L157 81.1a18.31 18.31 0 0 1 4.63-2.72q1.61-.5 2.21.2a2.38 2.38 0 0 1 .3 2.11 9.58 9.58 0 0 1-1.31 3q-.2.41-.5.91a15.77 15.77 0 0 1-.91 1.31l-1.91 2.52a27.88 27.88 0 0 1-2.31 2.72l-2.2 2.43-1.45 1.42-2.21 1.81a15.85 15.85 0 0 1-5.23 2.62 2.3 2.3 0 0 1-1.31.4h-1.31a7.17 7.17 0 0 1-2.82-.2l-.6-.2c-.27 0-.44 0-.5-.1a.42.42 0 0 0-.3-.1l-1.21-.6a6.24 6.24 0 0 1-2.22-1.63 12.87 12.87 0 0 1-2.11-3.72 6.62 6.62 0 0 1 .1-4.93 27.11 27.11 0 0 1 1.91-4.35q1.51-2.92 3.12-6.14t3.12-6q1.51-2.82 2.11-4l1.81-3.62q1.61-3.22 3.82-7.85t4.83-10l4.93-10.06q2.31-4.73 4-8.15l2.11-4.23 3.22-6.44q.6-1 2.62-1a11 11 0 0 1 4 1 8.45 8.45 0 0 1 3.22 2.62 4.27 4.27 0 0 1 0 4L159 61.18a.82.82 0 0 1-.2.6q-.41 1-1.91 3.92t-3.72 6.74a8.64 8.64 0 0 0-1.03 1.82zm-6.24-4a.18.18 0 0 0-.2-.2h-.2v.2h-.2v.2h-.2V71h.2v.2h.4v-.4h.2zm.2-.81v-.2h.2V69h.2v-.4h.2v-.2h.2V68h.2v-.4h-.81v.4h-.2v.4h-.2v.4h-.2v.6zm2 .6l.2-.2v-.4h.2v-.2h.2v-.4h.2v-.4h.2V68h.2v-.4l.2-.2V67a.18.18 0 0 0 .2-.2v-.2h.2v-.4h.2V66h-.4l-.2.2v.2h-.2v.2h-.2a.18.18 0 0 0-.2.2v.2h-.2v.6h-.2v.4h-.2v.4h-.2v.4h-.2v.4h-.2v.4h-.2v.4h-.2v.6h-.2v.4h-.2v.2l-.2.2v.2h-.2v.6h-.2v.2l-.2.2v.2c-.13 0-.2 0-.2.1s.07.1.2.1v.2h.2l.4-.4v-.2l.4-.4v-.4h.2v-.2l.2-.2v-.2l.2-.2a.41.41 0 0 1 .1-.3.41.41 0 0 0 .1-.3v-.2h.2zm-1.81-1.81l-.2-.2h.2zm4 24.75v-.2l.2-.2h.4l-.2-.2h.4v-.2l.2.2.4-.6V92l.2-.2h.4v-.4l.2-.4v-.2h.6v-.4l.2.2.2-.4.2.2.2-.2-.4-.2-.6.2v.4l-.2-.2-.2-.2-.4.4h-.4l-.2.6v.4l-.4-.4v.2h-.2v.4h-.4l-.4.4-.2.4-.2-.2-.2.4v-.2l-.4.6-.4.2h-.4v.2l-.2.4-.2-.4-.2.6h-.2l-.4.4-.2.2-.2.2h.2l.8-.4h.8v-.2l.2-.2.4-.2-.2-.2.4-.2c.13 0 .33-.13.6-.4h.2zm-3.42-26h.2v.2h.4v-.6h-.4v-.2h-.2zm1.21 25a.18.18 0 0 1-.2-.2h-.2V92h-.4l.2.2-.4-.2v.81h.2l-.2.2h.4v-.4h.4zm.8-19.92v-.2h-.2V72h-.2v.2h-.2v.4h-.2v.4h.8v-.6h.2V72zm0 18.51l-.4.2-.2.2v.4l.4.2v-.2l.2.2v-.2l.2-.2.4-.2v-.2l.4.4v-.4l.2-.4-.4-.4-.4.2v.4zm2-22.74h-.2V68h-.4v.2h-.2v.6h-.2v.4h-.2v.4h-.2v.6h-.2v.4h-.2v.6h-.2v.4h.2v.2l.2-.2.2-.2.2-.2V71a.18.18 0 0 1 .2-.2v-.2c0-.13 0-.2.1-.2s.1-.07.1-.2v-.4h.2v-.2a.18.18 0 0 0 .2-.2v-.2h.2v-.6h.2v-.4h.2l-.2-.2zm-1 27.17h.2l-.4-.2V95h-.2v.2l-.2.2-.4-.2v.4l.81.6v-.4l.2-.4.2.2v-.4zm.4-5.23h.2V90l.4.2.2-.6-.6-.2.2-.2h-.2zm3 2.62l-.2-.4-.2.4-.2-.2-.4.4v.2l-.2.2h-.2v.4h-.2l-.4.4-.2-.2-.2.4v-.2l-.2.6h-.4v.2l.2.2-.2.2h.2l.2-.4.4.2.2-.2.2-.2h.2c-.13-.13-.13-.2 0-.2s.13-.13 0-.4l.2-.2h.4c.13.27.13.2 0-.2h.6l.2-.6h.2zm.4-.4l-.4.2v.2h.2v-.2zm2.42-36.83a.58.58 0 0 1 .2-.4l.6-1a.58.58 0 0 1 .2-.4v-.2l.81-1.41c0-.13 0-.2.1-.2s.1-.07.1-.2a.41.41 0 0 1 .1-.3.41.41 0 0 0 .1-.3l.2-.2v-.4h.2l1-2q.2-.6.4-1.11t.4-.91v-.2h.2v-.4a.18.18 0 0 0 .2-.2.18.18 0 0 1 .2-.2.79.79 0 0 1 .1-.5.41.41 0 0 0 .1-.3l.2-.2v-.2a.18.18 0 0 0 .2-.2v-.2a.18.18 0 0 0 .2-.2v-.2a.18.18 0 0 0 .2-.2v-.2a.18.18 0 0 0 .2-.2.82.82 0 0 0 .2-.6.18.18 0 0 0 .2-.2l.2-.2v-.4h.2v-.4l.2-.2V40h.2v-.4h.2v-.4h.2V39l.2-.2v-.4h.2V38a.58.58 0 0 0 .2-.4l.2-.2V37h.2v-.4a.18.18 0 0 0 .2-.2v-.2h.2a.82.82 0 0 1 .2-.6v-.4h.2V35a.58.58 0 0 0 .2-.4l.2-.2V34h.2v-.4h.2v-.4h-.2v.2h-.2l-.2.2v.2a.18.18 0 0 0-.2.2v.2h-.2v.4h-.2v.2h-.2v.4H165v.2h-.2v.4h-.2v.4h-.2v.4h-.2v.4l-.2.2v.2l-.2.2v.2a.18.18 0 0 1-.2.2v.4a.58.58 0 0 0-.2.4v.2h-.2v.2l-.2.2v.2l-.2.2v.2l-.2.2v.4h-.2v.4h-.2v.4h-.2v.4h-.2v.4l-.2.2v.2h-.2v.4h-.2v.6h-.2v.2l-.2.2v.4h-.2v.2l-.2.2v.2l-.2.2v.4h-.2v.2l-.2.2v.6h-.2v.4l-.2.2v.2h-.2v.4l-.2.2v.4h-.2v.4h-.2v.2a.18.18 0 0 1-.2.2.41.41 0 0 1-.1.3.41.41 0 0 0-.1.3l-.2.2v.2l-.2.2v.4h-.2v.2a.41.41 0 0 1-.1.3.41.41 0 0 0-.1.3l-.2.2v.4h-.2v.4c-.27.27-.4.47-.4.6s-.2.13-.2.4a.18.18 0 0 1-.2.2.58.58 0 0 1-.2.4v.81zm.4-4.63v-.2h.2v-.2h.2v-.6h.2v-.4h.2v-.6h.2v-.4h.2v-.4h.2v-.2h-.2v-.2h-.2a.18.18 0 0 1-.2.2v.2h-.2v.2a.18.18 0 0 0-.2.2v.2a.18.18 0 0 0-.2.2v.4h-.2v.2h-.2v.4h-.2v.6h-.1v.4zm2-5v-.2l.2-.2a.58.58 0 0 0 .2-.4h.2v-.4a.18.18 0 0 0 .2-.2l.2-.2a.41.41 0 0 1 .1-.3.41.41 0 0 0 .1-.3v-.2h.2v-.4h.2v-.2h.2v-.4h.2v-.4h.2v-.6h.2v-.4h.2v-.4h.2V40h-.2a.18.18 0 0 0-.2-.2v.2h-.2v.2h-.4v.4h-.2v.6h-.1v.4h-.2v.4h-.2v.4h-.2v.2a.18.18 0 0 1-.2.2v.4h-.2v.4h-.2v.4h-.2v.4l-.2.2-.2.2v.6zm2 3.82v.2h-.2v.2h-.2v.4h-.1v.4h-.2v.4h-.2v.4h-.2v.6h-.2v.4h.2v.2h.2v-.2h.4v-.6h.2v-.4h.2v-.4h.2v-.6h.2v-.4h.2v-.6zm5.63-12.07v.2c-.14 0-.2 0-.2.1s.07.1.2.1H166v.2h-.2V38h-.2v.2h-.2v.4a.18.18 0 0 0-.2.2v.4h-.2v.4h-.2v.4h-.2v.4l-.2.2v.4h-.2v.4h-.2v.4a.18.18 0 0 0-.2.2v.2h-.2v.4h-.2v.4h-.2v.4l-.2.2v.6h-.2v.4h-.2v.4h-.2v.4a.18.18 0 0 0-.2.2v.2h-.2v.4a.58.58 0 0 0-.2.4.18.18 0 0 1-.2.2v.2c0 .14 0 .2-.1.2s-.1.07-.1.2v.2h-.2v.8h.2v-.2l.4-.4a.18.18 0 0 1 .2-.2v-.2l.4-.8v-.2a.18.18 0 0 0 .2-.2V46a.18.18 0 0 1 .2-.2l.2-.4c0-.13 0-.2.1-.2s.1-.07.1-.2v-.2l.6-1v-.4a.18.18 0 0 0 .2-.2l.2-.4v-.2h.2v-.4h.2V42c0-.13 0-.2.1-.2s.1-.07.1-.2v-.2h.2V41l.2-.2v-.4h.2V40h.2v-.4l.2-.2v-.2l.2-.2v-.2c0-.13 0-.2.1-.2s.1-.07.1-.2v-.2l.2-.2v-.2a.18.18 0 0 0 .2-.2v-.4zm-4.43 1.21v.2h.2v-.2h.2v-.2h.2v-.4h.2V37h-.5v.4h-.2v.6h-.2v.4zm6.54-12.5v.2h.4v-.4h.2v-.6a.18.18 0 0 0-.2-.2h-.2v.2h-.2v.2H168v.6zm.4-1.61h.4v-.2h.2v-.2h.2v-.4h.2v-.2h.2v-.4h.2v-.4h-.8v.4H169l.2.2h-.2v.2h-.2v.4h-.2zm1.81.6h-.2v.4l-.2.2V26h-.2v.2l-.2.2v.2h-.2v.6h-.2v.2l-.2.2v.2a.18.18 0 0 0-.2.2l.2.2h.2l.4-.4v-.2l.4-.4v-.4a.18.18 0 0 0 .2-.2l.2-.2v-.2l.2-.2a.41.41 0 0 1 .1-.3.41.41 0 0 0 .1-.3v-.2h.2V25l.2-.2v-.4h.2v-.2l.2-.2v-.2h.2v-.4h.2V23a.18.18 0 0 0 .2-.2v-.2l.2-.2V22a.18.18 0 0 0 .2-.2v-.2h.2v-.4h.2V21h-.4l-.2.2v.2h-.4v.2h-.2v.4h-.2v.6h-.2v.4h-.2v.4h-.2v.4h-.2v.4h-.2v.4h-.2zm-.6-3h.2v.2h.4v-.6H170v-.2h-.2zm2 5v-.2h-.2V27h-.2v.2h-.2v.4h-.2v.4h.81v-.6h.2V27zm1-3.22v.4h-.2v.4h-.2v.6h-.2v.4h-.2v.6h-.2v.4h.4v-.2h.2l.2-.2V26a.18.18 0 0 1 .2-.2v-.2c0-.13 0-.2.1-.2s.1-.07.1-.2v-.4h.2v-.2a.18.18 0 0 0 .2-.2v-.2h.2v-.6h.2v-.8h-.2v.2h-.4v.2h-.2v.6z"/><path class="cls-1" d="M209.49 77.68q1.41-1.61 2-1a4.77 4.77 0 0 1 1 1.61 9.27 9.27 0 0 1 .2 3.42 37.59 37.59 0 0 1-7.34 8.75q-3.92 3.32-7.14 5.94a17.3 17.3 0 0 1-6 3.12 13.2 13.2 0 0 1-6.24.3 11.59 11.59 0 0 1-5.43-2.72 12.78 12.78 0 0 1-3.62-5.94q-1.21-3.82-2.11-7.45a26.27 26.27 0 0 1-.91-6.24 2.84 2.84 0 0 1 .71-2.42q.91-1 1.51-1.81A5.68 5.68 0 0 1 179.5 71q3.42-1 8.25-2.82A36.5 36.5 0 0 0 196 64q3-2 2.52-4.13T195 57.35q-3-.4-7.95 1.91t-10.77 9l-5.84 11.27q-2.82 5.43-5 9.66t-3.52 6.94a25.37 25.37 0 0 1-1.53 2.87q-.4 1-1.61.5a6.4 6.4 0 0 1-2.42-2 12.84 12.84 0 0 1-2-3.82 7.18 7.18 0 0 1 0-4.73 30 30 0 0 1 1.91-4.43l3.12-6.24q1.61-3.22 3.12-6t2.11-4l21.13-44.07 3.25-6.5q.4-1 2.62-1a9 9 0 0 1 4 1 5.94 5.94 0 0 1 3.22 2.62 3.92 3.92 0 0 1 .2 4l-15.5 29.78a24.41 24.41 0 0 1 6.54-4.33 16.69 16.69 0 0 1 5.74-1.41 14.26 14.26 0 0 1 4.63.5 12.22 12.22 0 0 1 3.22 1.41 7.66 7.66 0 0 1 3.1 3.72 11.36 11.36 0 0 1 .7 5 15.07 15.07 0 0 1-1.47 5.5 21.3 21.3 0 0 1-3.52 5.13 14.74 14.74 0 0 1-6.94 4.13q-4.73 1.51-11.77 3.12a1.55 1.55 0 0 1-.6.2h-.2v.2q.4 2 1 4 .4 1.61.91 3.52t.91 3.52q.8 3 2.31 3.92a4.54 4.54 0 0 0 3.22.6 8.55 8.55 0 0 0 3.42-1.51q1.71-1.21 3.32-2.42 2.61-2 4.13-3.32a31.76 31.76 0 0 0 2.62-2.52q1.1-1.21 2.11-2.52a30.76 30.76 0 0 1 2.57-2.87zm-53.13 14.69h.2v-.2h.2V92h-.2v-.2h.2v-.4h.2v-.2h-.2l-.2-.2v.2h-.2l-.2.2v.2l-.2.2v.2h-.2v.6h-.2v.4h.8zm2.21-.2V92l.6-1.21v-.4h.2v-.2h.2V90l.2-.4v-.2l.2-.2V89h.2v-.4l.2-.2V88h.2v-.2l.2-.2v-.2a.18.18 0 0 1 .2-.2v-.4h.2v-.4l.2-.2V86l.2-.2v-.4h.2V85h.2v-.4a.58.58 0 0 0 .2-.4V84h.2v-.2l.2-.2V83h.2v-.4h-.2v.2h-.2v.2h-.2v.2H162v.4h-.2v.2h-.2v.2a.18.18 0 0 0-.2.2v.4h-.2v.4h-.2v.6h-.2v.2a.59.59 0 0 0-.2.4v.2h-.2v.4a.18.18 0 0 0-.2.2v.2l-.2.2v.4h-.2v.4h-.2v.4h-.2v.4h-.2v.4h-.2v.4h-.2v.6h-.2v.4h-.2v.4l-.2.2v.4h-.2v.4h-.2v.4h-.2a.57.57 0 0 1-.2.4v.2l-.2.2v.2a.83.83 0 0 0-.2.6h-.2v.4h-.2c0 .14 0 .2-.1.2s-.1.07-.1.2a.18.18 0 0 1-.2.2v.2a.18.18 0 0 1-.2.2v.6h.2l.2-.2c0-.13.14-.33.4-.6l.2-.2V95l.6-.8V94a.57.57 0 0 0 .2-.4v-.2h.2v-.2l.4-.4a.83.83 0 0 1 .17-.63zm-1.81-2.41h.2V90h.2a117.62 117.62 0 0 1 .4-.4v-.4h.2V89h.2v-.4h.2v-.4h.2V88a.18.18 0 0 0 .2-.2v-.4h.2V87a.18.18 0 0 0 .2-.2v-.2h-.6v.2h-.2v.2H158v.4h-.2v.4h-.2v.4h-.2v.6h-.2v.2h-.2v.4l-.2.2zM160 93h-.4v.2h-.2v.2h-.2v.4h-.2v.4h-.2v.6h-.2v.2h.8v-.4h.2v-.4h.2v-.6h.2zm-1-7.45h.2v.2h.2l.2-.2v-.4h.2v-.4h-.8zm4.43-.2h-.2l-.2.2v.2h-.2v.2h-.2v.2h-.2v.4h-.2v.6H162v.4h-.2v.6h-.2v.4h-.2v.4h-.2v.4h-.2V90a.18.18 0 0 1-.2.2v.2l-.2.2v.2l-.2.2v.6h-.2l-.2.2v.81h.2l.2-.2.2-.2V92l.4-.6V91h.2a.18.18 0 0 1 .2-.2v-.4l.4-.8v-.2h.2V89l.2-.2v-.2h.2V88h.2v-.4h.2v-.4l.2-.2v-.4h.2V86h.2v-.4h.2zm13.68-2h-.2v-.4h-.4v.2h-.2v.6h.2v.4h.2v.2h.2v-.2h.2zm2 6.44v-.81h-.2v-.4l-.2-.2c0-.27-.07-.4-.2-.4v-.4l-.2-.2v-.6h-.2v-.6h-.2v-.2a.18.18 0 0 0-.2-.2v-.4h-.4v.4h-.2v.4h.2v.4l.2.2v.4h.2v.6h.2v.4h.2v.4h.2v.6h.2v.2h.2V90h.4l.2-.2zm6.24 4.83h-.2l-.2-.2-.4-.6a.18.18 0 0 1-.2-.2h-.2v-.2l-.6-1a.18.18 0 0 1-.2-.2h-.2a.6.6 0 0 0-.2-.4h-.2v-.4l-.4-.6-.4-.4V90a2.08 2.08 0 0 1-.8-1.41h-.2v-.2l-.2-.2v-.4c0-.13 0-.2-.1-.2s-.1-.07-.1-.2l-.2-.2v-.4h-.2v-.6h-.2v-.4l-.2-.4v-.4h-.2v-.4l-.2-.2v-.4h-.2v-.6h-.2v-.6a.18.18 0 0 1-.2-.2v-.4l-.2-.2v-.6h-.2v-.4c0-.13 0-.2-.1-.2s-.1-.07-.1-.2v-.6l-.2-.2v-.6h-.2v-.4h-.2v2.31h.2v.81h.2v.6h.2v.6h.2v.6h.2v.6h.2v.6h.2v.4l.2.2v.2a.18.18 0 0 0 .2.2v.4l.2.2v.4a.18.18 0 0 1 .2.2v.2l.2.2v.4h.2v.4a.18.18 0 0 1 .2.2v.2h.2v.4h.2v.4h.2a.18.18 0 0 0 .2.2v.4h.2v.2l.2.2v.2h.2v.4h.2v.2l.4.4v.4h.2v.2h.2v.2l.4.4v.2h.2a.18.18 0 0 0 .2.2v.2h.2a.57.57 0 0 0 .2.4l.2.2v.2h.2l.2.2a.57.57 0 0 0 .4.2h.4zm-5.43-12.28v.6h.2v.4a.18.18 0 0 0 .2.2v.4h.2v.4h.2a.18.18 0 0 0-.2.2h.2v.6h.2v.4h.2v.6h.2v.2h.2v.4h.2v.4l.2.2v.4h.2a.57.57 0 0 0 .2.4v.2h.2v.4a.18.18 0 0 1 .2.2l.2.2h.2l.2-.2h-.2v-.4l-.2-.2v-.2l-.2-.4v-.2a.18.18 0 0 1-.2-.2l-.2-.2h.2a.57.57 0 0 1-.2-.4l-.2-.2v-.2c0-.13-.13-.33-.4-.6v-.2l-.2-.2h.2l-.2-.2v-.4h-.2v-.4a.18.18 0 0 0-.2-.2v-.6h-.2v-.4h-.2v-.4a.18.18 0 0 0-.2-.2v-.6h-.2v-.4a.18.18 0 0 0-.2-.2v-.6h-.2v.2h-.2v1.41zm1.61 10.46v-.2h-.2v-.2h-.2V92h-.2v-.2h-.2v-.2h-.2v-.4h-.6v.4l.2.2v.2l.2.2.2.2v.4h.2v.2h.2v.2h.2v.2h.2v.2h.4v-.8zm2.42-51.52l.4-.81.4-.6a1.81 1.81 0 0 0 .5-1 3.06 3.06 0 0 1 .5-1.21v-.2h.2v-.2a.18.18 0 0 1 .2-.2v-.4h.2l.4-.81a.18.18 0 0 1 .2-.2v-.4a.18.18 0 0 0 .2-.2v-.2h.2v-.2h.2v-.4h.2V34c0-.13 0-.2.1-.2s.1-.07.1-.2a.41.41 0 0 1 .1-.3.41.41 0 0 0 .1-.3.18.18 0 0 1 .2-.2c0-.13 0-.2.1-.2s.1-.07.1-.2v-.2l.2-.2v-.2l.2-.2v-.2l.2-.2v-.4h.2v-.2l.2-.2V30h.2a.58.58 0 0 1 .2-.4v-.4h.2c0-.27.07-.4.2-.4a.82.82 0 0 1 .2-.6V28h.2v-.4l.2-.2V27h.2v-.4a.82.82 0 0 0 .2-.6.18.18 0 0 0 .2-.2v-.2h.2v-.4c0-.13 0-.2.1-.2s.1-.07.1-.2v-.2h.2v-.4l.2-.2v-.4h.2v-.4h-.2v.2h-.2v.2H192v.4h-.2v.2l-.2.2v.4h-.2v.2h-.2v.4h-.2v.2a.18.18 0 0 1-.2.2v.2l-.2.2v.4a.18.18 0 0 0-.2.2v.2l-.2.2v.2h-.2v.6h-.2v.4h-.2v.4h-.2v.4a.82.82 0 0 0-.2.6h-.2v.2h-.2v.4l-.2.2v.4h-.2a.58.58 0 0 1-.2.4v.4h-.2v.4h-.2v.4h-.2v.4a.18.18 0 0 0-.2.2v.2h-.2v.4h-.2v.4h-.2v.4h-.2v.4h-.2v.2a.18.18 0 0 1-.2.2v.4h-.2v.4h-.2v.2l-.2.2v.2l-.2.2v.2l-.2.2v.2h-.2v.4l-.2.2v.4a.18.18 0 0 0-.2.2v.2h-.2v.4h-.2v.4h-.2v.4h-.2v.4h-.2v.2l-.2.2a.58.58 0 0 1-.2.4.41.41 0 0 1-.1.3.41.41 0 0 0-.1.3h-.2v.2l-.2.2v.2h-.2v.4l-.2.2-.4.81v.2l-.2.2v.4h-.2v.2c-.27.27-.4.47-.4.6a.58.58 0 0 0-.2.4l-.2.2v.2c-.14 0-.2.14-.2.4-.14 0-.2.14-.2.4v.6l.2-.2c0-.13 0-.2.1-.2s.1-.07.1-.2l.6-1h.2v-.2l.2-.4v-.2l1-1.61.2-.4.4-.6v-.4h.2v-.2l.2-.2zm-3.22 1.41h.4v-.2h.2a.18.18 0 0 0 .2-.2v-.4h.2v-.4h.2v-.4h.2v-.2h.2v-.6h.2v-.4h.2v-.4h.2v-.2h-.2V39h-.2v.2h-.2a.18.18 0 0 1-.2.2v.2h-.2v.2a.18.18 0 0 1-.2.2v.4h-.2v.4h-.2v.2h-.2v.4h-.2v.6h-.2zm3-5.63a.58.58 0 0 1 .2-.4l.4-.4v-.4h.2v-.2l.2-.2v-.2h.2a.41.41 0 0 1 .1-.3.41.41 0 0 0 .1-.3v-.2h.2v-.2a.18.18 0 0 1 .2-.2v-.2h.2v-.4h.2v-.2l.2-.2v-.4h.2v-.4h.2v-.4a.18.18 0 0 0 .2-.2v-.2h.2V31h-.4v.2h-.4v.2h-.2v.4h-.2v.4c-.14 0-.2 0-.2.1s.07.1.2.1h-.2v.2l-.2.2v.4h-.2v.2h-.2v.4h-.2v.4h-.2v.4h-.2v.4h-.2v.2a.18.18 0 0 1-.2.2v.4h-.2v.4a.18.18 0 0 0-.2.2h-.2v.6zm-.2 53.13v.4h.2V91h.2v.2h.2v.2h.2v.2h.2v.2l.2-.2v-.2h.2V91h-.2v-.2h-.2v-.2h-.2v-.4h-.4v-.4h-.2v-.2h-.4v.6zm2.21-48.9h-.4v.2h-.2v.4h-.2v.2l-.2.2v.4h-.2v.2h-.2v.4h-.2v.4h-.2v.4a.18.18 0 0 0-.2.2v.2h-.2v.2h.8v-.2h.2v-.4h.2v-.4h.2v-.4h.2v-.4h.2v-.6h.2v-.4h.2v-.2h.2v-.2zm6.64-13.68l-.2.2V28H192v.4h-.4v.4h-.2v.4h-.2v.4h-.2v.4h-.2v.4h-.2v.6h-.2v.2l-.2.2v.4h-.2v.4h-.2v.4h-.2v.4h-.2v.4h-.2v.4h-.2v.4h-.2v.4l-.2.2v.2h-.2v.6a.18.18 0 0 0-.2.2v.2h-.2v.4h-.2v.4h-.2v.2l-.2.4-.2.2v.4c-.13 0-.2.14-.2.4h-.2v.4l-.4.4v.2h-.2v.4l-.2.2a.18.18 0 0 0 .2.2v.2h.2v-.2c.27-.27.4-.47.4-.6a.18.18 0 0 0 .2-.2v-.2l.6-.81v-.2a.58.58 0 0 0 .2-.4v-.2h.2v-.2c.13 0 .2-.13.2-.4l.4-.4v-.2l.6-1.21v-.4h.2v-.2a.58.58 0 0 0 .2-.4l.2-.2v-.2l.2-.2v-.2h.2V33l.2-.2v-.2l.2-.2v-.2h.2v-.6h.2v-.4h.2v-.4h.2v-.4l.2-.2v-.4h.2v-.4h.2V29a.18.18 0 0 0 .2-.2v-.2l.2-.2v-.2l.2-.2v-.4zm-4.63 1.81a.18.18 0 0 1 .2-.2V29a.18.18 0 0 0 .2-.2v-.2h.2v-.81h-.2v-.2a.18.18 0 0 0-.2.2h-.2v.4h-.2v.6h-.2v.6zm13.08 27.77h.2v.2h.2v.4h.6v-.6a.18.18 0 0 0-.2-.2v-.2H201V57h-.2zm1.41 2L202 59h.2v-.2h-.2v-.6l-.2-.2h-.4v.2h.2l-.2.2v.4a.18.18 0 0 0 .2.2v3.22l-.2.2h.2v.2h.4v-.2h.2zm-.4-4.23h.2a.57.57 0 0 0 .2.4v.2h.2a.81.81 0 0 0 .2.6v.2a1040606.81 1040606.81 0 0 0 .4.4h-.2a.6.6 0 0 1 .2.4v.4l.4 1v3h-.2c.13.13.13.2 0 .2v1.61H203v.8h-.2v.2h.4v-.2h.2v-.4h.2v-.2h.2v-.81h.2v-4.6h-.2v-.6h-.2v-.8a.18.18 0 0 1-.2-.2v-.4h-.2v-.2l-.2-.2v-.2h-.2v-.2l-.2-.4h-.2v-.2h-.2v-.2h-.2l-.2.2zm2.62.8v.4h.2v.4h.2v.6h.4a.18.18 0 0 0 .2-.2v-.6h-.2v-.6h-.2v-.2a.18.18 0 0 0-.2-.2v-.2h-.2v.2h-.2v.2h-.2v.2zm1 4c-.14 0-.2 0-.2.1s.07.1.2.1h-.2v.4l.2.2v.2h-.2V61h.2v.2h.2V61h.2v-.2h.2v-2.24l-.2-.2.2-.2-.2-.2h-.4zm.4 2.82v-.8h-.6v.8zM378.53.2q2 0 5.84.2a41.1 41.1 0 0 1 7.55 1.11 17.78 17.78 0 0 1 6.54 3 7 7 0 0 1 2.82 5.94 13.74 13.74 0 0 1-.4 3.12 11.26 11.26 0 0 1-1.31 3.22 9.57 9.57 0 0 1-2.31 2.62 4.8 4.8 0 0 1-3 1.11q-2.22 0-2.62-1.11a4.81 4.81 0 0 1-.1-2.62c.2-1 .43-2 .7-3a3.36 3.36 0 0 0 0-2.31q-.81-1.21-5-1.51t-12.68-.2q-8.45.1-21.13.6t-30.39.7l-.6 1q-1.41 2.22-5.53 10.77T307.29 43q-5.43 11.57-11.67 24.45t-11.78 23.61q-5.54 10.77-9.76 17.81t-5.63 7q-1.81 0-3-3a16.65 16.65 0 0 1-1.21-6.24q0-.6 3-7t7.55-16q4.53-9.56 10.06-20.83t10.67-21.63q5.13-10.36 9.16-18.31t5.63-11q-12.68 0-23.95.8t-18.36.82a5.61 5.61 0 0 1-2.82-.81 3.7 3.7 0 0 1-1.81-2 3.2 3.2 0 0 1 .7-2.82q1.1-1.61 4.93-3.22a14.88 14.88 0 0 1 4.23-1q3-.4 8.65-.7T296 2.42q8.45-.2 20.73-.6A6.51 6.51 0 0 1 320.37.2a3.73 3.73 0 0 1 3.82 1.41Q337.48.81 350.76.5t27.77-.3zM286 71.84V72l-.4.4a.18.18 0 0 1-.2.2v.2l-1.21 1.81c-.14 0-.14.07 0 .2l-.4.81-.4.6-.4.8-.4 1a.89.89 0 0 1-.1.4.87.87 0 0 0-.1.4l-.2.4-.4.6a.18.18 0 0 1-.2.2v.4l-.4 1-.4.6c.13.14.13.2 0 .2l-.2.81-.4.6v.4l-.2.2-.2.6-.2.2v.2a.18.18 0 0 1-.2.2l-.2.81a.18.18 0 0 0-.2.2l-.2.4-.4 1a.18.18 0 0 0-.2.2v.4a.18.18 0 0 0-.2.2v.2a.18.18 0 0 0-.2.2v.2l-.2.81-.2.2-.2.2-.4.81a.41.41 0 0 1-.1.3.79.79 0 0 0-.1.5l-.2.2-.4.8a.18.18 0 0 1-.2.2l-.4 1a.18.18 0 0 0-.2.2l-.8 1.61c0 .14 0 .2-.1.2s-.1.07-.1.2l-.2.4c.13.27.17.4.1.4s-.1.14-.1.4v.4a1.11 1.11 0 0 0 .4-.7 1.1 1.1 0 0 1 .4-.7v-.2l.2-.4.2-.4.5-1a3.84 3.84 0 0 1 .71-1v-.2c0-.13.13-.33.4-.6l.2-.81 1.31-2.06 1.21-3.42a.18.18 0 0 0 .2-.2l.2-.2a.79.79 0 0 1 .1-.5.41.41 0 0 0 .1-.3v-.4a.18.18 0 0 0 .2-.2l.2-.6.4-.81a1.93 1.93 0 0 0 .6-1.41l.2-.4a.18.18 0 0 1 .2-.2l.2-.6a.18.18 0 0 1 .2-.2v-.4l.2-.2v-.2l.4-.8c.13 0 .2-.1.2-.3s.07-.3.2-.3v-.2a1.93 1.93 0 0 0 .6-1.41l.4-.6a.18.18 0 0 1 .2-.2v-.4c.4 0 .47-.27.2-.8l.4-.81a.58.58 0 0 0 .2-.4l.4-.81a.18.18 0 0 0 .2-.2l.2-.6zM274.49 93l.4-.4.81-2 .4-.6.2-.6-.2-.2h-.2l-.2.6-.2.2-.2.4-.2.2v.2a.18.18 0 0 1-.2.2v.2l-.4.81a.18.18 0 0 0-.2.2l-.2.81zm2.62-6c0-.13 0-.2.1-.2s.1-.07.1-.2l.2-.2.2-.4v-.2l.2-.2v-.2a.18.18 0 0 0 .2-.2l.2-.4a.82.82 0 0 0 .2-.6l.2-.4.2-.2.4-.6a.18.18 0 0 0 .2-.2v-.6a.18.18 0 0 1 .2-.2l.2-1 .4-.6-.4-.2a.18.18 0 0 0-.2.2v.2l-.4.6-.4.81-.2.2v.6l-.2.2-.2.4h-.2a.18.18 0 0 0 .2.2l-.2.2a.18.18 0 0 1-.2.2v.4l-.4.8-.4 1a.18.18 0 0 0-.2.2l-.2.6zm2.42 4.23a.18.18 0 0 0-.2-.2l-.4.4a.18.18 0 0 0-.2.2v.2a.18.18 0 0 0-.2.2l-.2.2-1.21 2.42.8.2.4-.81.4-.6.4-1 .4-.81zm6.24-14.69l-.4.6-.4.4-.2.2v.2l-.4.81a.18.18 0 0 0-.2.2l-.2.8a.36.36 0 0 0-.4.4v.2a.18.18 0 0 1-.2.2l-.2.81-.4.8c.13.14.13.2 0 .2v.4l-.4.6-.4.81-.2.2v.6l-.81 1.61a.58.58 0 0 0-.2.4l-.4.6-.2.4v.6a.58.58 0 0 1-.2.4l-.2.2v1.21l.2-.2c.13 0 .2-.27.2-.81v-.2a.83.83 0 0 1 .3-.5 1 1 0 0 0 .3-.7l.2-.2c0-.27.07-.4.2-.4l.2-.4c.13 0 .2-.13.2-.4s.07-.4.2-.4l.2-.4.8-2c.27-.27.33-.4.2-.4h.2l.2-.6.2-.2v-.8h.2l.2-.81.4-.8a.18.18 0 0 1 .2-.2v-.2l.2-.2v-.2a.18.18 0 0 1 .2-.2v-.2l.2-.2v-.4c.4-.4.53-.6.4-.6v-.2a.18.18 0 0 1 .2-.2l.2-.8zm-5.23 1.81l.2.2.6-.81.4-1-.4-.2v.2l-.2-.2v.6h-.2zM282.33 7l-.2.4.4.2.4-.6zm3.42-.2l-.6.2.2.4 1 .2v-.76zm2.62.2l-.2.4.4.2.43-.6zm1.81 58.36H290l-.4.4-.4 1 .6.2.2-.8.4-.6zm1.21-2.21h-.2l-.4.4v.6l.6-.4zm1-1.61l-.4.2h-.2l.2.2h.4zm-.2-54.34h.4l-.4-.2zm2 50.31l-.4-.2-.2.81-.4.81h.6l.2-.6.4-.81zM295.8 7.2h-.4V7a.18.18 0 0 0-.2.2V7h-.4l-.2.6.4-.2h.81zm-.8 47.94v.4h-.2v.6l.2-.2.4-.8zm1.21-1.41v-.2l-.2.2-.2-.2v.4l.2.2.4-.4zm14.09-31.6l-.4.2a.18.18 0 0 0-.2.2l-.4.8-.2.6-.4.6a.18.18 0 0 0-.2.2l-.2.2h-.2l-.2.81a.18.18 0 0 0-.2.2v.2l-.4.6a.18.18 0 0 1-.2.2l-.2 1-.4.4c-.14 0-.2.2-.2.6l-.2.6-.4.81c-.27 0-.34.07-.2.2s.07.2-.2.2v.6l-.2.6h-.2l-.2.6a.18.18 0 0 0-.2.2V33a.18.18 0 0 0-.2.2v.2l-.2.2v.2l-.4.8-.4.6a.18.18 0 0 1-.2.2v.2l-.4.6a.18.18 0 0 1-.2.2l-1 2-.2 1a.18.18 0 0 1-.2.2l-.81 1.61a1.37 1.37 0 0 1-.4 1v.2a.18.18 0 0 0-.2.2l-.2.4a.18.18 0 0 0-.2.2l-.8 1.61-.81 1.21a.25.25 0 0 1 0 .4l-.4.81a.82.82 0 0 0-.2.6.58.58 0 0 1-.2.4v.2a2.81 2.81 0 0 1 .91-.91 1.37 1.37 0 0 0 .5-1.51l1.21-1.81a.58.58 0 0 0 .2-.4v-.2a1.16 1.16 0 0 0 .4-.8v-.2h.2l.6-1.21 1.81-3.82.4-.8.4-.6c0-.4.13-.6.4-.6v-.4a.18.18 0 0 0 .2-.2l.4-.8a.18.18 0 0 0 .2-.2l.2-.4c0-.13 0-.2.1-.2s.1-.07.1-.2l.4-.81.2-.2V32c.27 0 .33-.07.2-.2s-.07-.2.2-.2v-.4l.2-1.21.4-.81a3.11 3.11 0 0 0 .8-.6 2 2 0 0 0 .4-1.41l.2-.6.4-.8.4-.81.2-.2.4-1.21a.18.18 0 0 0 .2-.2l.2-.6a.18.18 0 0 0 .2-.2v-.2zm-12.47 28.78h-.6l.2.4h.4zm-.2-43.47l2-.2v-.4l-2 .2zm.6 35.42l.4-.2v-.6l.4-.6.4-1 .4-.6a.18.18 0 0 1 .2-.2l-.2-.4h-.4l-.4.8-.4.6-.2.6a.18.18 0 0 0-.2.2l-.2.81-.4.6zm.6 5.84l-.2-.2-.2.2v.81h.6v-.81zm1.41-2l-.2.2v-.2a.18.18 0 0 0-.2-.2l-.2.6.4.2v-.4h.2zm.2-9.66l.4-.6.4-.4v-.2a.18.18 0 0 1 .2-.2l.2-.2 1-2 .4-.6a.18.18 0 0 0 .2-.2v-.2l.4-.6.2-.8v-.2h.4a.18.18 0 0 0-.2-.2h-.81l.2.2-.2.2-.2.6-.2.2V32l-.4.81-.4.6-.4.81-.4 1-.4.4a.18.18 0 0 0-.2.2l-.2.4a.18.18 0 0 1-.2.2V37zm2.42 4.43a.18.18 0 0 0-.2-.2l-.4.4a.18.18 0 0 0-.2.2l-.4.6a.18.18 0 0 1-.2.2l-.2.6-.4.81-.4 1h.6l.4-.6.8-1.61-.2-.2.4-.2.4-.6zm6.84-14.69l-.4.6-.6.4-.2.6-.8 1.61c-.14 0-.2.14-.2.4l-.2.4-.2.81a.18.18 0 0 1-.2.2v.2h-.2v.4l-.4.6a.18.18 0 0 0 .2.2l-.4.6-.4.8-.4 1-.4.6-.8 1.61c-.4.4-.54.6-.4.6v.4a.18.18 0 0 1-.2.2v.2a.18.18 0 0 0-.2.2v1l.6-1 .2-.2.4-1.21a.58.58 0 0 0 .2-.4l.2-.4a1.64 1.64 0 0 0 .6-1l.8-1.61a.18.18 0 0 1 .2-.2v-.2c0-.27.07-.4.2-.4v-.4l.4-.8c.27 0 .33-.07.2-.2s-.07-.2.2-.2l.2-.4.2-.2-.2-.4.4-.6a.18.18 0 0 1 .2-.2V30l.2-.2v-.2a.18.18 0 0 0 .2-.2v-.2l.2-.2v-.4l.4-.6a.18.18 0 0 0 .2-.2v-.2l.4-.81zm-5.63-19.54V7l-.2.2V7l-.2.6h.4c.13 0 .2-.13.2-.4zm.4 21.33l.6.2.4-.6.4-.81-.8-.4.2.2-.4.4v.6l-.4.2zm2.62-21.33a.2.2 0 1 0-.4 0V7a.18.18 0 0 1-.2.2l-.4-.2-.2.6h1l.2-.2zm3.82.4l.2-.2L308.9 7l.4.6zm0 13.28l-.6.4h.6zm.8-1l-.4-.4-.2.2.2.2zm-.6.4v.4l.2-.4zm1.21-2l-.4.2h-.2a.18.18 0 0 0 .2.2l.6.4v-.6zm0-.4l.4.2v-.2zm.6-.6l-.2-.2v.4h.2zm.6-.81h-.2a.59.59 0 0 0-.4-.2l.6.4zm.2-.4v-.2h-.6l.6.4a.18.18 0 0 0 .2-.2zm.4-1h-.2l-.2-.2v.4h.4zm-.4.81l.2.2v-.2zm56.36-11.29h-3.82a2.45 2.45 0 0 1-1.21.1 1.65 1.65 0 0 0-1 .1h-4.23a2.8 2.8 0 0 1-1.21.2h-2.31a9.07 9.07 0 0 0-1.71.2l-3.42.2v-.2l-1 .2h-8.87a1.8 1.8 0 0 0-.8.2c0-.13-.14-.2-.4-.2l-4.63.2-.2.2h-2l4.23.4.2.2a.18.18 0 0 0 .2-.2h4.63a.88.88 0 0 0 .4-.1.89.89 0 0 1 .4-.1h3.82l.2-.2h5a.18.18 0 0 0 .2-.2l.4.2 2.62-.4a.18.18 0 0 0 .2.2l3.62-.2h4a2.8 2.8 0 0 0 1.21-.2h4.23a.82.82 0 0 0 .6-.2l.6-.2zm-31.59-.4a.18.18 0 0 1 .2.2l1.41.2h3.22a.82.82 0 0 1 .6-.2l3.42-.2a.18.18 0 0 1 .2.2l6.64-.4a.82.82 0 0 1 .6-.2h2.62a.18.18 0 0 1 .2-.2v-.2l-.4-.2c.13.13.13.2 0 .2a3.78 3.78 0 0 1-1.21-.2h-.6c-.13 0-.17 0-.1.1s0 .1-.1.1a1.58 1.58 0 0 1-.5-.1 1.69 1.69 0 0 0-.5-.1v.2h-3a3.48 3.48 0 0 0-1.41.2h-4.83a.18.18 0 0 0-.2.2zm5.43 3.22l-.8-.2c-.14 0-.2 0-.2.1s-.07.1-.2.1h-.4a.18.18 0 0 0-.2-.2l-.8.2.2.8.2-.2 2.21-.4zm11.27-.2c-.14 0-.2 0-.2-.1s-.07-.1-.2-.1h-8.65a.18.18 0 0 0-.2.2v.2l.4.4h5.23l.2-.2h3.42l.2-.4zm8.25-.8h-3.22a.18.18 0 0 0-.2.2h-.4a.18.18 0 0 0-.2-.2l-1.21.2V7h.6l.2.2h1a.41.41 0 0 0 .3-.1.41.41 0 0 1 .3-.1h3v-.4zm-.2-3l.8-.2-.2-.2H362l-2.82.2A.18.18 0 0 1 359 3h-.2a.18.18 0 0 0-.2.2v.2z"/><path class="cls-1" d="M338.48 78.89q3.42-3.82 5.33-2.72t-1.51 6.34a30.74 30.74 0 0 1-5 6.14 39.75 39.75 0 0 1-7.3 5.53 46.41 46.41 0 0 1-8.65 4 28 28 0 0 1-9.26 1.61 18 18 0 0 1-6.24-1.11 12.36 12.36 0 0 1-5.13-3.52 16.19 16.19 0 0 1-3.19-6.16 20.64 20.64 0 0 1-.3-9 28.54 28.54 0 0 1 3.12-9.66 41.36 41.36 0 0 1 6.44-9.06 47.35 47.35 0 0 1 8.85-7.45 38.73 38.73 0 0 1 10.56-4.73q8.85-2.41 14.19 1.11t3.32 11.37a20.7 20.7 0 0 1-2.11 5.23 19.72 19.72 0 0 1-5.23 6 29.81 29.81 0 0 1-9.26 4.73 39.27 39.27 0 0 1-14.19 1.51q-2.82-.4-3.62-1.41-3.42 7.24-.8 11.47t9.06 3a27.93 27.93 0 0 0 10.36-4.63 69.07 69.07 0 0 0 10.56-8.59zm-31.6-9.46h.2v-.2a2.18 2.18 0 0 0 .81-1 1.63 1.63 0 0 0 .3-.4 1.08 1.08 0 0 1 .5-.4l.4-.4 1.81-2.41h.2v-.2l.2-.2a.18.18 0 0 0 .2-.2h.2v-.2h.2v-.2h.2l.6-.81a.18.18 0 0 0 .2-.2h.2l.2-.2.2-.2.4-.4h.2v-.2a.18.18 0 0 0 .2-.2h.2v-.2a.58.58 0 0 0 .4-.2l.6-.6h.2l.2-.2.2-.2a.18.18 0 0 0 .2-.2h.2v-.2h.2v-.2h.2l.2-.2.2-.2h.2v-.2h.2v-.2h.4v-.2h.2v-.2h.2l.2-.2h.2c0-.13 0-.2.1-.2s.1-.07.1-.2a.58.58 0 0 0 .4-.2h.2l.4-.4c.13 0 .33-.13.6-.4l.2-.2h.2v-.2h.2a.18.18 0 0 0 .2-.2h.4a.18.18 0 0 1 .2-.2.18.18 0 0 0 .2-.2h.2c.27-.27.47-.4.6-.4a.18.18 0 0 0 .2-.2h.4v-.2h.2l.2-.2a.58.58 0 0 0 .4-.2h.4v-.2h.4v-.2h.4v-.2h.4l.2-.2v-.2h-.6v.2h-.4l-.2.2h-.4v.2h-.4v.2h-.81v.2h-.4a.18.18 0 0 1-.2.2h-.2l-.2.2h-.2v.2H322v.2h-.4v.2h-.2a.18.18 0 0 0-.2.2h-.2l-.2.2a.18.18 0 0 0-.2.2h-.2v.2h-.4v.2h-.2v.2h-.4v.2h-.2l-.2.2-.6.4-.2.2h-.2v.2h-.2l-.2.2h-.2v.2h-.2l-.2.2v.2a.58.58 0 0 0-.4.2h-.2V59h-.2v.2h-.2v.2h-.2a.18.18 0 0 1-.2.2.18.18 0 0 0-.2.2h-.2v.2h-.2v.2h-.2l-.2.2h-.2v.2h-.2v.2a.18.18 0 0 0-.2.2h-.2v.2h-.2v.2h-.2v.2h-.2v.2h-.2v.2h-.2l-.2.2-.2.2a.18.18 0 0 0-.2.2h-.2v.2l-.2.2h-.2v.2h-.2v.2l-.4.4h-.2v.2l-.6.6v.2h-.2v.2h-.2v.2h-.2v.2l-.2.2v.2h-.2v.2h-.2v.2h-.2v.2l-.2.2a.18.18 0 0 0-.2.2v.2h-.2v.2h-.2v.2l-.2.2-.2.2v.2h-.2v.2a.18.18 0 0 0-.2.2l-.6.6v.2h-.2v.2l-.2.2a.18.18 0 0 1-.2.2v.2a.18.18 0 0 0-.2.2v.2h-.2c0 .27-.07.44-.2.5s-.2.24-.2.5h-.2v.2l-.2.2v.2a.18.18 0 0 1-.2.2v.2l-.6 1a.58.58 0 0 0-.2.4v.2h-.2v.4c-.13 0-.2.14-.2.4a.82.82 0 0 0-.2.6v.6h.2v-.2a.82.82 0 0 0 .2-.6l.4-.6c0-.13.13-.33.4-.6v-.2a.58.58 0 0 1 .2-.4v-.2a.18.18 0 0 0 .2-.2 2.71 2.71 0 0 0 .6-.91 2.65 2.65 0 0 1 .6-.91c0-.13 0-.2.1-.2s.1-.07.1-.2v-.2c.27-.27.4-.47.4-.6a.18.18 0 0 0 .2-.2l.2-.2zm-2.42.4v-.2h.4v-.2h.2V69h.2v-.2a.18.18 0 0 0 .2-.2v-.2h.2v-.2h.2V68a.18.18 0 0 0 .2-.2v-.2h.2v-.2l.2-.2V67h.2v-.2h.2v-.4h.2v-.2h.2v-.4l-.2-.2v.2h-.2a234.86 234.86 0 0 0-.4.4h-.2v.2a.18.18 0 0 0-.2.2l-.2.2c0 .14 0 .2-.1.2s-.1.07-.1.2v.2h-.2v.2h-.2v.2h-.2v.2h-.2v.4h-.2v.2a.18.18 0 0 0-.2.2v.2a.18.18 0 0 0-.2.2v.2h-.2v.4zm3.23 2.17v-.2h.2v-.4h.2V71h.2v-.2h.2v-.2h.2v-.4h.2v-.4h.2v-.2h.2v-.2l.2-.2V69h.2v-.2h.2v-.2a.18.18 0 0 1-.2-.2h-.2v.2h-.4v.2h-.2v.4h-.2a.18.18 0 0 1-.2.2.58.58 0 0 1-.2.4v.2h-.2v.2h-.2v.2h-.2v.2h-.2v.4h-.2v.4h-.2v.4h-.2v.4h.4V72zm21.53 19h-.6v.2h-.2l-.2.2H328v.2h-.6v.2h-.4v.2h-.4v.2h-.2a.18.18 0 0 0-.2.2h-.4v.2h-.2l-.2.2h-.4v.2h-.4v.2h-.2l-.4.4h-.6v.2h-.4l-.2.2h-.4a.18.18 0 0 1-.2.2h-.4v.2h-.6v.2h-.6v.2h-.8v.2h-.6a.18.18 0 0 0-.2.2h-.81l-.2.2h-.8l-.2.2h-.4a.18.18 0 0 0-.2.2l-.2-.2h-.2l-.2.2h-5a.84.84 0 0 0-.6-.2h-.4v-.2h-1.41v.2h.2v.2h.4a.92.92 0 0 1 .4.1 1.35 1.35 0 0 0 .6.1.18.18 0 0 0 .2.2h.4a2.27 2.27 0 0 1 .7.1 2.16 2.16 0 0 0 .7.1h3.62l2-.4h.4v-.2l.2.2v-.2h.4a1.17 1.17 0 0 0 .81-.2h.8v-.2h.8l.2-.2a.82.82 0 0 0 .6-.2h.4l.2-.2h.4v-.2h.4v-.2h.4a.18.18 0 0 0 .2-.2h.4V94h.4l.2-.2h.2l.2-.2a.58.58 0 0 0 .4-.2h.2v-.2h.4V93h.2l.2-.2h.2l.6-.4a.18.18 0 0 0 .2-.2h.2V92h.4v-.2h.2a.18.18 0 0 0 .2-.2h.2v-.2h.2l.2-.2zM308.7 63.39h.2v.2h.2v-.2l.4-.2V63h.2l.4-.2v-.2a.18.18 0 0 0 .2-.2h.2v-.2a11446607.81 11446607.81 0 0 0 .4-.4h.2l.6-.6V61h.2l.2-.2.2-.2h.2v-.2h.2v-.2h.2l.2-.2h.2v-.2h.2v-.2h.2v-.2h.2v-.2h.2V59h.2a.18.18 0 0 1 .2-.2.18.18 0 0 0 .2-.2h.2v-.2h.2v-.2h.2V58h.2v-.2h-.6v.2h-.6v.2h-.2v.2h-.2l-.2.2h-.2v.2a.18.18 0 0 0-.2.2h-.2v.2h-.2v.2h-.2v.2h-.2v.2h-.4v.2h-.2v.2h-.2v.2h-.2v.2h-.2v.2h-.2v.2h-.2v.2h-.2v.2h-.2v.2h-.2v.2h-.2a.18.18 0 0 0-.2.2v.2h-.2l-.2.2v.2h-.2l-.2.2v.2h-.2a.18.18 0 0 1-.2.2zm3.82 2.41v-.2h.2l.2-.2v-.2h.2V65h.2l.4-.4 1.81-1.81v-.2h.2v-.2h.2l.4-.4h.2v-.2h.4v-.2h.2v-.2h.2l.2-.2.2-.2a.18.18 0 0 1 .2-.2h.2v-.2h.2v-.2h.2l.2-.2h.2V60h.2v-.2h.2l.2-.2a.18.18 0 0 0 .2-.2.58.58 0 0 0 .4-.2l.2-.2h.2v-.2h.2l.2-.2h.2v-.2c.13 0 .2 0 .2-.1s.07-.1.2-.1l.2-.2h.2a.18.18 0 0 1 .2-.2h.2v-.2h.2v-.2h.4v-.2a.18.18 0 0 0-.2-.2l-.2.2h-.4v.2h-.6l-.2.2h-.2l-.2.2h-.2v.2h-.2l-.2.2h-.2v.2H320a.18.18 0 0 0-.2.2h-.2v.2h-.2v.2h-.2l-.2.2h-.2v.2h-.2v.2h-.2l-.2.2h-.2v.2h-.2v.2h-.2v.2h-.2a.18.18 0 0 1-.2.2h-.2v.2h-.2v.2h-.2v.2h-.2v.2h-.2l-.2.2h-.2v.2h-.2v.2h-.2v.2h-.2v.2h-.2v.2h-.2v.2h-.2v.2a.18.18 0 0 0-.2.2h-.2v.2h-.2v.2h-.2v.2h-.2v.2h-.2v.2h-.2v.2c-.14 0-.2 0-.2.1s-.07.1-.2.1v.2h-.2v.2h-.2v.2h-.2a.58.58 0 0 1-.2.4h-.2v.2l-.2.2v.2c-.13 0-.34.14-.6.4v.2h-.2a.18.18 0 0 1-.2.2c0 .14 0 .2-.1.2s-.1.07-.1.2v.2l.2.2v-.2a.18.18 0 0 0 .2-.2l.6-.4a.18.18 0 0 1 .2-.2v-.2h.2zm2.21 32v-.2h-.8l-.2.2h-.4v-.2h-1.21v.2h-.4v.4h.2v.2h2v-.2h.4v.2h.2v-.2h.6v-.4zm21.33-37.23a3.93 3.93 0 0 0-2-2.52q-1.61-.91-4.43.1a24.81 24.81 0 0 0-2.51 1 11.34 11.34 0 0 0-2.52 1.61 18.28 18.28 0 0 0-2.42 1.61 5.69 5.69 0 0 1-1.21 1 5.67 5.67 0 0 1-1.21 1A31.79 31.79 0 0 0 317 67q-1.51 1.61-2.52 2.82l-2.62 3.42a11.92 11.92 0 0 1 4.43-.4 21.53 21.53 0 0 0 5.53-1 37.21 37.21 0 0 0 6.84-2.72 23.84 23.84 0 0 0 5.63-3.92q2.38-2.2 1.77-4.63zm-23.55 34v.2h1.61v-.2h1a.18.18 0 0 1 .2-.2v-.2h-.2V94h-2.82v.6zm14.89-.4h-.6v.2l-.2-.2v.2h-.8v.2h-.4v.2h-.4V95h-.4v.2a.58.58 0 0 0-.4.2h-.4l-.2.2h-.4v.2h-.4l-.2.2h-.4l-.2.2h-.4a.18.18 0 0 0-.2.2h-.4a.18.18 0 0 1-.2.2h-.4v.2h-.6v.2h-.8l-.2.2h-.6a.58.58 0 0 0-.4.2h-1.21v.2h-.4l-.2.2v.2h1.21a1.16 1.16 0 0 0 .8-.2h.81v-.2h1l.2-.2a.79.79 0 0 0 .5-.1.8.8 0 0 1 .5-.1V97h.6l.4-.2h.6v-.2h.4l.2-.2h.4v-.2h.4l.2-.2h.4v-.2h.4l.2-.2h.2v-.2h.4v-.2h.2a.18.18 0 0 0 .2-.2h.4v-.2h.4v-.2h.2v-.2h.2zM318 94v-.2a.18.18 0 0 1 .2.2h.2l.2-.2h.4v-.2h.2v.2h.2v-.2h1v-.2h.6v-.2h.4V93h.6v-.2l-.2-.2h-.4a.18.18 0 0 0-.2-.2v.2h-.6l-.2.2h-.6v.2h-.8v.2h-.6v.2h-1v.2a.18.18 0 0 0-.2-.2h-.2v.2h-.2v.4zm-1-37.83l.2.2v.2h.4v-.2h.2a.18.18 0 0 0 .2-.2v-.2h.4v-.2a.18.18 0 0 0 .2.2v-.2h.2v-.2h.2v-.2h.2v-.2h-.2v-.2h-.6v.2h-.2v.2h-.4v.2c-.13.14-.13.2 0 .2h-.4v.2h-.2v.2zm6 36h.2v.2h.4v-.2h.4V92h.2v-.2h.2v-.2h-.2v-.2h-.6v.2h-.2v.2h-.2v.2a.18.18 0 0 0-.2-.2zM336.87 67l-.2.2h-.2v.2a.18.18 0 0 0-.2.2l-.2.2v.2h-.2l-.2.2h-.2v.2a.18.18 0 0 0-.2.2h-.2v.2a.18.18 0 0 0-.2.2h-.2v.2h-.2v.2h-.2v.2h-.2v.2h-.2a.18.18 0 0 1-.2.2h-.2v.2h-.2v.2H333l-.2.2-.2.2h-.2v.2h-.4l-.2.2-.4.2a.18.18 0 0 0-.2.2h-.4v.2h-.2v.2a.82.82 0 0 0-.6.2h-.2v.2h-.4v.2a1.17 1.17 0 0 0-.8.2h-.4v.2h-.4l-.2.2a.18.18 0 0 0-.2.2h-.2v.2h.6a1.6 1.6 0 0 1 1-.2.18.18 0 0 1 .2-.2h.2V73a1.79 1.79 0 0 0 .81-.2.82.82 0 0 0 .6-.2l.2-.2a.41.41 0 0 0 .3-.1.41.41 0 0 1 .3-.1V72h.4v-.2a1.16 1.16 0 0 0 .81-.4.41.41 0 0 0 .3-.1.41.41 0 0 1 .3-.1l.2-.2 1.41-1.21.2-.2v-.2h.2l.2-.2h.2c.27-.27.4-.47.4-.6h.2v-.2h.2v-.2h.2l.2-.2v-.2h.2a.18.18 0 0 1 .2-.2l.2-.2c0-.13 0-.2.1-.2s.1-.07.1-.2l.2-.2.2-.2.2-.2v-.2h.2a.18.18 0 0 1 .2-.2v-.2l.2-.2v-.2h.2v-.2h.2V65l.2-.2v-.2l.2-.2v-.2a.58.58 0 0 0 .2-.4.18.18 0 0 0 .2-.2v-.2h.2v-.6h.2v-.2a.58.58 0 0 0 .2-.4v-.4h.2v-.6c.13 0 .2 0 .2-.1s-.07-.1-.2-.1h.2v-1h-.2v.2h-.2v.4c-.13.14-.13.2 0 .2h-.2v.6h-.2v.4h-.2v.2h-.2v.6h-.2v.2a.18.18 0 0 1-.2.2v.4h-.2v.2l-.2.2v.4h-.2v.2c-.14 0-.2.13-.2.4h-.2v.2a.18.18 0 0 0-.2.2l-.2.2v.2a.18.18 0 0 0-.2.2l-.2.2a234.9 234.9 0 0 1-.4.4v.2h-.2v.2h-.2zm-6 2.62v.2h-.4V70h-.2v.2h-.4v.6h.8v-.2h.2v-.2h.4v-.2h.2V70h.2v-.2h.2v-.2h.4v-.4h-.6a.18.18 0 0 0-.2.2h-.2l-.2.2zm3.22 3l-.2-.2h-.6v.2h-.4v.2h-.2v.2h-.4v.2h-.4v.2h-.2v.2h-.4v.2H331v.2h.2v.2h.8v-.2h.2v-.2h.4v-.2h.2v-.2l.2.2v-.2a.18.18 0 0 0 .2-.2h.2a.18.18 0 0 1 .2-.2v-.2h.4zm1.81-7.45h-.2v.4h-.2v.2h-.2V66h-.2v.2h-.2v.2h-.2v.2h-.2v.2h-.2v.2h-.2v.2h-.4v.4h-.4v.2h-.3v.2l.2.2h.4V68h.4v-.2h.2v-.2h.2v-.2h.2l.2-.2V67h.2v-.2h.4v-.2h.2v-.2h.2v-.2h.2V66a.18.18 0 0 0 .2-.2v-.2h.2v-.2h.2v-.2h.2l-.2-.2h-.8zm5-.8h-.2v.4h-.2v.4h-.2v.4h-.2v.2l-.2.2v.2h-.2v.2h-.2v.4h-.2V67h-.2v.2h-.2v.2l-.2.2v.2h-.2v.2h-.2v.2h-.2v.2h-.2v.2h-.2v.4h-.2v.2h-.2v.2h-.2v.2h-.2v.2h-.2v.2c-.14 0-.2 0-.2.1s-.07.1-.2.1v.2h-.2l-.2.2-.2.2h-.2v.4h-.4l-.2.2-.4.4v.2l.2.2a.18.18 0 0 1 .2-.2.58.58 0 0 1 .4-.2.18.18 0 0 0 .2-.2h.2c0-.27.2-.4.6-.4V71l.2-.2h.2v-.2h.2c0-.13 0-.2.1-.2s.1-.07.1-.2a.58.58 0 0 0 .4-.2v-.2h.2l.6-.6v-.4h.4a.58.58 0 0 1 .2-.4l.2-.2.2-.2v-.2h.2c0-.13 0-.2.1-.2s.1-.07.1-.2a.18.18 0 0 0 .2-.2h.2v-.4h.2v-.2h.2v-.2a.18.18 0 0 1 .2-.2V66l.2-.2v-.2h.2v-.4h.2V65a.18.18 0 0 1 .2-.2v-.4a.18.18 0 0 0 .2-.2V64h.2v-.6h-.2v.2h-.2v.2h-.2v.4h-.2zm-3.22-.4v-.2h.2l-.2-.2h.2v-.2h.2l-.2-.2h.2V63h-.8v.6h-.2v.4z"/><path class="cls-1" d="M389 80.09q4.42-3.22 5.63-3.22c.4 0 .6.27.6.81q0 1.41-1.81 5.53t-8.25 10.56l-.6.6-3.23 2.63a17.56 17.56 0 0 1-3.42 2 10.87 10.87 0 0 1-4.43.81 7.09 7.09 0 0 1-2.62-.4l-.8-.2-.4-.2-1.41-.6a5.61 5.61 0 0 1-2.82-3 9.86 9.86 0 0 1-.8-3.62 8 8 0 0 1-1.51 1.51 18.64 18.64 0 0 0-1.71 1.51L357 97.4a16.2 16.2 0 0 1-8.45 2.42 12.46 12.46 0 0 1-4.83-1.11q-2.61-1.1-4.63-5.13a12.56 12.56 0 0 1-1.51-7.45 57.07 57.07 0 0 1 1.91-8 45.3 45.3 0 0 1 13.28-20.53 41.92 41.92 0 0 1 10.77-6.84 30.38 30.38 0 0 1 12.38-2.62 24.23 24.23 0 0 1 5.43.7 25.68 25.68 0 0 1 5.63 2 13.43 13.43 0 0 1 4.43 3.52 8 8 0 0 1 1.81 5.23 19.85 19.85 0 0 1-1.51 3.72 85.74 85.74 0 0 1-5.33 8.69l-5.23 7.85a67.56 67.56 0 0 0-4.15 6.89 11.77 11.77 0 0 0-1.29 3.26c0 .27.07.4.2.4a6.84 6.84 0 0 0 2.92-1.51q2.11-1.51 4.33-3.42t3.92-3.52zM345.52 96h-.2v-.2a.18.18 0 0 1-.2-.2v-.4h-.2l-1-1-.4-.2-.2.2.4.6h.2l.2.4a.18.18 0 0 0 .2.2h.2l.2.4.4.4a.18.18 0 0 0 .2.2h.2zm10.67-2.82l-.8.2-.6.2-.6.4h-.4l-.4.2a.36.36 0 0 0-.4.4h-.4v.2h-.4l-.6-.2-2.42.6h-1a.18.18 0 0 0-.2-.2h-1a.18.18 0 0 0-.2-.2h-.4l-.4-.2-.2-.2-.4-.4-.2-.4-.2-.4-.2-.2v-1.62l-.2-.2-.4-.2v1.21l.2.2a.56.56 0 0 0 .1.7 1 1 0 0 1 .3.7l.4.81 1.61.81a3.43 3.43 0 0 0 1.41.2l.8.2a.58.58 0 0 0 .4-.2H351c.27 0 .4-.07.4-.2h.2v-.2h.6l.81-.4h.8l.2-.4.6-.2.2-.2h.81l.2-.2c.13 0 .2 0 .2-.1s.07-.1.2-.1zm-10.26.4l.2.2h.2l.81.2-.2-.4-.6-.2-.4-.2-.2.4zm9.46 1.61h-.2l-.6-.2-.8.4-.4.4h-.8l-1.21.2-1.21.4a.18.18 0 0 0-.2.2h-.2l-3.42-.2.2.2c.4 0 .6.07.6.2l2.42.2 1.41-.4h1.21l.6-.2a.18.18 0 0 1 .2-.2l.6-.2a.18.18 0 0 1 .2-.2h.6l.4-.2a.18.18 0 0 0 .2-.2h.4zm11.47-11.67q1.81-3.82 3.72-7.55T374.7 68l5-10.06a32.27 32.27 0 0 0-6.74.5 30.52 30.52 0 0 0-5.53 2.11l-4.63 3.22-4.4 4.23a28.65 28.65 0 0 0-5.4 6.26 39.25 39.25 0 0 0-3.12 5.94 26.7 26.7 0 0 0-1.51 4.73 17.38 17.38 0 0 0-.4 2.62q0 3 1.41 3.72A5.87 5.87 0 0 0 352 92a13.37 13.37 0 0 0 6.64-2.31 60.92 60.92 0 0 0 7.85-5.74l.2-.2a.18.18 0 0 0 .16-.23zM348.14 94h-.2l.4.2 1.21.2 1.81-.6H351a.18.18 0 0 0-.2-.2l-.6.2h-2zm4-26.76a.18.18 0 0 0 .2.2v.2l.2-.2a.41.41 0 0 1 .1-.3.41.41 0 0 0 .1-.3l.6-1.41.4-.4v-.2l2.26-2.44.4-.4 2.6-2.42 3.22-2.42a.18.18 0 0 0 .2-.2l.8-.2a.18.18 0 0 1 .2-.2l1-.6a.18.18 0 0 0 .2-.2l.6-.2.8-.4 1-.4c.27-.27.47-.4.6-.4l.4-.2.4-.2h.2l.81-.4a.58.58 0 0 0 .4-.2l.8-.2 1-.4.4-.2h.6a1.37 1.37 0 0 1 1-.4l1.61-.2a.18.18 0 0 1 .2-.2h1.41a.18.18 0 0 0 .2-.2h.6a.83.83 0 0 1 .6.2h1.61a.18.18 0 0 0 .2.2l.2-.2-1.41-.4-.2-.2h-.2l-1.21-.2h-1.41l-2.21.4-1.41.4a.58.58 0 0 1-.4.2c-.14 0-.2 0-.2.1s-.07.1-.2.1h-.6l-.2.2-.6.2-.2.2h-.2a.58.58 0 0 0-.4.2h-.4a.18.18 0 0 1-.2.2h-.4l-.8.4a.18.18 0 0 1-.2.2.18.18 0 0 0-.2.2h-.4l-.6.4a.18.18 0 0 0-.2.2l-.8.2a.18.18 0 0 1-.2.2l-.2.2a.18.18 0 0 0-.2.2l-1.61.81-.2.2h-.2a.18.18 0 0 1-.2.2l-.2.2-.6.4a.18.18 0 0 0-.2.2h-.2a.18.18 0 0 1-.2.2l-.81.6c-.13 0-.2 0-.2.1s-.07.1-.2.1l-.2.2a.18.18 0 0 1-.2.2l-.4.6-1.21.8-.2.2-1 .81-.4.6a.18.18 0 0 0-.2.2l-.2.2a1.59 1.59 0 0 1-.4.3 1.09 1.09 0 0 0-.4.5l-.4.4-.2.2-.2.2a.53.53 0 0 1-.6.6V65l-.6 1c-.14 0-.24.14-.3.4a2.66 2.66 0 0 0-.1.6zm.2 26.56l.4-.2.4-.6h-.4l-.4.2zm1.81-32.6l1.21-.4.6-.6.2-.2.8-.8.6-.4.4-.4.2-.2h.2l-.2-.6-.4.2-.2.2h-.2c0 .27-.07.37-.2.3s-.2 0-.2.1l-.2.2a.58.58 0 0 0-.4.2v.2l-.4.4-.6.4a.18.18 0 0 0-.2.2.18.18 0 0 1-.2.2l-.2.2a.18.18 0 0 1-.2.2l-.4.4zm4.63 1.21a.18.18 0 0 1 .2-.2V62l.4-.4.4-.81-.2.2-.6.4a.18.18 0 0 0-.2.2l-.2.2c-.14 0-.2 0-.2.1s-.07.1-.2.1l-.2.2-.6.4-.8.81-.4.6.8.2a.18.18 0 0 1 .2-.2l1.21-1.21a.18.18 0 0 0 .2-.2zm1.61-6.64a.18.18 0 0 0 .2.2v-.2c.27 0 .4-.07.4-.2h.4a.58.58 0 0 1 .4-.2v-.2a.18.18 0 0 0 .2-.2h.2a1.16 1.16 0 0 0 .8-.4 1.16 1.16 0 0 1 .81-.4l1.21-.6a.18.18 0 0 1 .2-.2l.6-.2a.18.18 0 0 0 .2-.2h.2a.18.18 0 0 0 .2-.2l.8-.4a.18.18 0 0 0 .2-.2h.4l.2-.2.4-.2h-1.61l-.6.4-.2.2h-.4l-.8.4a.18.18 0 0 0-.2.2l-.6.2-.6.4-1.61.8-.4.6-.81.4a.18.18 0 0 0-.2.2zm15.29-2.41h-2.82l-1.21.4-1 .4a.18.18 0 0 0-.2.2l-.8.2-.81.4a.18.18 0 0 0-.2.2h-.4l-1 .4-.4.4a.18.18 0 0 0-.2.2h-.4l-.4.4-.2.2-.6.2-.2.2h-.2l-.4.4c-.14 0-.2 0-.2.1s-.07.1-.2.1l-.2.2-.6.2-.4.4h-.2l-.4.4a.18.18 0 0 0-.2.2l-.2.2-.8.6.2.4.8-.6.2-.2 1.21-.6c0-.27.2-.4.6-.4l.2-.2.6-.4.8-.4a2 2 0 0 1 .7-.5 5.29 5.29 0 0 0 .71-.3l.6-.4a.18.18 0 0 1 .2-.2c.27 0 .4-.07.4-.2h.4a.18.18 0 0 1 .2-.2l.6-.2a.58.58 0 0 0 .4-.2h.4l.8-.4.2-.2 1-.2a.18.18 0 0 1 .2-.2l.8-.2a.18.18 0 0 0 .2-.2h.2c.27 0 .4-.07.4-.2h1a.18.18 0 0 0 .2-.2h.6zm-5.43-2.42h1l.2-.2.6-.2.8-.4-.6-.4a.18.18 0 0 0-.2.2l-.81.4h-.2l-.4.2h-.4zm6 29h.2l1-1.81.2-.2v-.2c0-.13 0-.2.1-.2s.1-.07.1-.2l.4-.6a1.74 1.74 0 0 1 .6-1.21l1-2a.18.18 0 0 0 .2-.2l.2-.4c-.27.13-.24.07.1-.2a1.09 1.09 0 0 0 .5-.8l.2-.4a.18.18 0 0 0 .2-.2v-.6c.27 0 .4-.2.4-.6l.4-.6a.18.18 0 0 1 .2-.2V69l.81-1.61a.18.18 0 0 0 .2-.2V67c.13 0 .2-.13.2-.4a.36.36 0 0 1 .4-.4l.2-1.21.2-.4.2-.6.4-.6v-.2a.18.18 0 0 1 .2-.2l.2-.4H385l-.4.6-.4 1-.4.81-.4.6a.18.18 0 0 0-.2.2v.2l-.4.81-.2.2v.4c-.27 0-.37.07-.3.2s0 .2-.1.2l-.2.6a.18.18 0 0 0-.2.2v.2l-.2.2v.2a.18.18 0 0 0-.2.2V70l-.4.6-.4.8-.4.6a.18.18 0 0 0-.2.2l-.2.6-.8 1.21-.2.2-.4 1-.4.81a.58.58 0 0 1-.2.4l-.2.4-.4.6a.41.41 0 0 1-.1.3.41.41 0 0 0-.1.3l-.2.2a.18.18 0 0 1-.2.2v.4c-.4 0-.6.27-.6.8l-.2.81a.58.58 0 0 0-.2.4h.2zm1.21-5.63l-.4-.2-.4.6a.18.18 0 0 0-.2.2l-.2.6-.4.6-.2.2v.6l.4-.2v.2a.18.18 0 0 1 .2-.2l.2-.2.2-.6a.18.18 0 0 0 .2-.2v-.2l.4-.8a.18.18 0 0 1 .2-.2zm2.82-6h-.4l.2.2-1.21 1.81-.4 1.21-.4.6a.18.18 0 0 0-.2.2.18.18 0 0 1-.2.2l.4.2.2-.2.4-.6a.18.18 0 0 1 .2-.2v-.2a.82.82 0 0 0 .2-.6l.2-.2a.18.18 0 0 1 .2-.2l.2-.4.4-.6a.18.18 0 0 1 .2-.2v-.4l.4-.6-.4-.2zm-.2 8l-.6.4a.18.18 0 0 1-.2.2v.2l-.4.81-.4 1 .6-.2.8-1.61.4-.6zm5-10.06H385l-.4.8-.4 1-.2.2-.2.6-.2.2-.2.8-.4.6-.8 1.61-.2.2h.2l-.4.6-.4 1-.4.6a.18.18 0 0 0-.2.2l-.4.8a.18.18 0 0 0 .2.2l.2-.2.4-.4.2-.2a.82.82 0 0 1 .2-.6v-.2a.18.18 0 0 1 .2-.2l.2-.2c.13 0 .2-.1.2-.3s.07-.3.2-.3v-.2a3.52 3.52 0 0 0 .4-1l.2-.2a.18.18 0 0 1 .2-.2v-.2a.18.18 0 0 1 .2-.2v-.2l.4-.8.4-1 .4-.81a.18.18 0 0 1 .2-.2v-.4l.4-.6a.18.18 0 0 1 .2-.2l.2-.6-.4-.2zm-4 .6V67l.2-.2.4-1.21h-.4V66l-.4.81z"/></g></g></svg>