<svg xmlns="http://www.w3.org/2000/svg" viewBox="0 0 310.92 120.72"><defs><style>.cls-1{fill:#b7d435}</style></defs><title>sherbet-title</title><g id="Layer_2" data-name="Layer 2"><g id="Layer_1-2" data-name="Layer 1"><path class="cls-1" d="M90 .22a18.05 18.05 0 0 1 9.65 3.48 16.09 16.09 0 0 1 5.21 7 19.58 19.58 0 0 1 1.16 8.69 21.7 21.7 0 0 1-2.56 8.61 23.17 23.17 0 0 1-6.18 7.14A19.18 19.18 0 0 1 88.11 39a3 3 0 0 1-2.61-.39c-.71-.51-.87-.9-.48-1.16a22.66 22.66 0 0 0 4.05-3.76 45.38 45.38 0 0 0 4.34-5.79 38.23 38.23 0 0 0 3.38-6.66 12.65 12.65 0 0 0 1-6.28 6.76 6.76 0 0 0-2.9-4.63Q92.38 8.5 86.97 8.5a45.4 45.4 0 0 0-8 .68 54.67 54.67 0 0 0-8.21 2.22L66.09 13Q54.7 19.33 51.42 24.45t-1.54 10.14a29 29 0 0 0 6.85 10.33Q61.84 50.23 67.45 57a31 31 0 0 1 5.79 8.88 27.06 27.06 0 0 1 1.54 11.78 42.76 42.76 0 0 1-5.89 19.89A45.25 45.25 0 0 1 56.34 111a50.57 50.57 0 0 1-16.12 7.53A57.49 57.49 0 0 1 24 120.7a47.08 47.08 0 0 1-8.88-1.26 24.35 24.35 0 0 1-7.92-3.38 15.9 15.9 0 0 1-7.14-15.25 24.8 24.8 0 0 1 4.06-12.06 40.33 40.33 0 0 1 9.07-9.94 50.91 50.91 0 0 1 11.87-7 43.41 43.41 0 0 1 12.84-3.28 8.66 8.66 0 0 1 1.64-.19h1.64q2.9 0 3.67.58A1 1 0 0 1 45 70.4a8 8 0 0 1-2.12 1.93q-1.55 1.06-3.28 2-3.86 2.13-8.78 4.34a74.36 74.36 0 0 0-9.46 5.12 33.45 33.45 0 0 0-7.82 6.85 16.31 16.31 0 0 0-3.67 9.56 14.21 14.21 0 0 0 .29 4.34 7.86 7.86 0 0 0 2.41 4.05 12.59 12.59 0 0 0 5.5 2.8 31.26 31.26 0 0 0 9.75.58 34.54 34.54 0 0 0 13-3.38 46.75 46.75 0 0 0 11.3-7.53A44.81 44.81 0 0 0 60.59 91a29.57 29.57 0 0 0 4.15-11.49 22.46 22.46 0 0 0-1.35-11.3 21.9 21.9 0 0 0-8.11-9.65l-1.73-1.96q-2.13-1.93-4.55-4.15a37.52 37.52 0 0 1-4.54-5 25.61 25.61 0 0 1-3.46-6.3A18 18 0 0 1 40 33a26.48 26.48 0 0 1 5.5-14.67A43.41 43.41 0 0 1 57.7 7.65a53.26 53.26 0 0 1 15.83-6.27A52.09 52.09 0 0 1 90 .22zM9.33 87.68l.58-.19a.56.56 0 0 1 .39-.19l.19-.58a1.11 1.11 0 0 0 .77-.39.56.56 0 0 0 .19-.39v-.19c.13 0 .16 0 .1-.1s0-.1.1-.1h.19l1-.77.77-.39.58-.77a.17.17 0 0 1 .19-.19c.13 0 .19-.13.19-.39v-.19a.17.17 0 0 0 .19-.19.17.17 0 0 1 .19-.19l.19-.19.39-.58a.56.56 0 0 0 .39-.19l1-.58h.19l.58-.39.19-.19.52-.35.77-.39.39-.39.58-.39a.17.17 0 0 0 .19-.19h.19l.19-.19 1-.58h.58l.39-.19.39-.19v-.39h.58c.39-.39.58-.51.58-.39l.77-.19.77-.58a7.88 7.88 0 0 0 .87-.1c.45-.06.68-.22.68-.48h.19l1-.39a.32.32 0 0 1 .39-.1c.13.07.19 0 .19-.29l1.29-.58h.19c.13 0 .19 0 .19-.1s.06-.1.19-.1h.19a.17.17 0 0 0 .19-.19h.39a3.22 3.22 0 0 1 1-.19 1.53 1.53 0 0 0 1-.19h.19l.39-.19 1.16-.39a.17.17 0 0 1 .19-.19c.26 0 .39-.06.39-.19h-.39a.39.39 0 0 0-.29.1.39.39 0 0 1-.29.1l-1.55.39a1.71 1.71 0 0 1-.77.19l-.77.19c0 .13-.32.19-1 .19l-1.35.39a.17.17 0 0 1-.19.19h-.58l-1 .58-.19.19h-.19l-.77.39a.92.92 0 0 0-.68.29.93.93 0 0 1-.68.29L23 76.87a9 9 0 0 0-1.16.48l-1 .48L19 79c0 .26 0 .32-.1.19s-.1-.06-.1.19l-.58.39a1.26 1.26 0 0 0-1.06.39 7.09 7.09 0 0 1-.68.77l-1.35.39v.19l-.39.19v.58h-.19v.19L13 83.82c-.26 0-.39.1-.39.29s-.26.42-.77.68l-.19.39a.17.17 0 0 0-.19.19l-1 .77-1 1-.19.19-.58.58v.58L8 89.62a2.4 2.4 0 0 1-.48.87A2.09 2.09 0 0 0 7 91.55v.19h-.18v.19l-.19.19L6 93.48a1.31 1.31 0 0 0-.39 1l-.77 2.9.19.19-.19.77a.17.17 0 0 1 .19.19v.19L5.47 97v-.39L6 94.25l1-1.16h-.18A.17.17 0 0 0 7 92.9v-.39h.19l.39-1 .19-.19.23-.16.17-.16.19-1.16v-.39l.39-.58a.56.56 0 0 1 .19-.39.56.56 0 0 0 .19-.39h.19zm-2.51 1.94l.39-.39.39-.58.58-1 .58-.39v-.58l.19-.39.39-.58a.17.17 0 0 0 .19-.19l.39-.19.39-.58 1-.39.39-.58a.56.56 0 0 0 .39-.19l.39-.39.39-.58a.56.56 0 0 0 .39-.19l.39-.19.19-.58a.56.56 0 0 0 .39-.19l.58-.19.39-.58.77-.77.77-.19.19-.19v-.19l.19-.19c.13-.13.22-.19.29-.19s.22-.13.48-.39H18a.17.17 0 0 1 .19-.19l.58-.39c.26 0 .39-.06.39-.19l.58-.19.77-.58.77-.39a.78.78 0 0 1 .19-.58.56.56 0 0 1 .39-.19l-.19-.19a.17.17 0 0 1-.19.19l-1 .58-.19.19-1.54 1.16a1.57 1.57 0 0 0-1.16.39l-2.7 2.12a.51.51 0 0 1-.58.58l-.19.19-.19.19h-.39l-1 1h-.19c.13 0 .06.13-.19.39l-.19.19-.19.19-.19.19q0-.19-.87.58a7.1 7.1 0 0 1-1.26 1V85c0 .13-.13.19-.39.19v.19l-.19.19-.58 1.16v.39c-.13 0-.45.26-1 .77l-.19.39-.39 1c-.52.26-.68.42-.48.48s.16.1-.1.1L5.85 91a.4.4 0 0 1-.1.29.39.39 0 0 0-.1.29l-.19.58a.56.56 0 0 0-.39.19v.19l.39-.19.39-.19v-.77l.39-.19.58-1.2zm3.09.38l-.19-.19.19-.39.77-.58v-.19l.39-.19a.17.17 0 0 1-.19-.19l-.77.39-.58.77L8.75 91h.58l.39-1zm1.54 23.36h-.19l.19-.19-.39-.19-.19.39v.19h.58zm9.27-33.6l-.39.19-.19.19-.77.58a1.49 1.49 0 0 1-.58.19.56.56 0 0 0-.39.19l-.39.19h-.19l-1 1h-.39v.19l-.39.19-.39.39a.56.56 0 0 0-.19.39h-.39l-.39 1-.77.39-.19.19v.39a.56.56 0 0 0-.39.19h-.19a.17.17 0 0 0-.19.19l-.39.39.77.19.19-.58 1-1h.19l.58-.58v-.39h.19l.58-.39.77-.77.77-.39.4-.58.58-.39a.78.78 0 0 0 .58-.19v-.19h.39l.39-.19.19-.19.19-.39h.19zM14 115.49l-.77-.19.39-.19h-.19c-.13 0-.19 0-.19.1s-.07.1-.19.1h-.19l.19.19 1.16.39v-.39zm2.51 1.16l-.19-.39h-.19v.39h-.43l1 .39v-.39zm4.02 1.35v-.19h-.58l.19.19-.39.19h.19l.77-.19zm2.32 0l-.77.19.19.19 1.35-.39zm.58-42.67l.39-.19 1.18-.39 1-.39.39-.19 1-.39a.17.17 0 0 1 .19-.19l.39-.19h.77l1-.39.19-.19a.17.17 0 0 0-.19-.19h-1.3l-.58.39-.77.39h-.58l-.39.39-1 .39-.58.39-.77.39zm5.79.39h-.77l-.77.39-.58.39-1 .39-.77.19-.58.58a.56.56 0 0 1-.39.19h-.16L24 78l1.16-.19.77-.19a.17.17 0 0 0 .19-.19v-.39h1l.19-.19.58-.19.58-.39a.17.17 0 0 0 .19-.19l.58-.19zm-1 42.29l-.19-.19-2.32.19h-.19l-.39.19a.17.17 0 0 0 .19.19l2.51-.19zm4.25-.77v.58l.39.19v-.19h.39v-.58zm3.53-1.17l-1 1h.77v-.19l.58-.77zm4.63-1.54v.19l-.58.39-1.74.58 1.35-.19.77-.19.39-.77zm22.76-16.61l-1.74 1.16c0 .13 0 .19-.1.19s-.1.07-.1.19v.39l-1.54 1a.56.56 0 0 1-.19.39l-.39.39-.39.58-3.47 3.09v.39l-1.54.77a.17.17 0 0 0-.19.19h-.19l-.19.39a.17.17 0 0 0-.19.19H53c-.13.26-.26.32-.39.19s-.52.13-1.16.77H51c0 .26-.07.39-.19.39l-.39.19c.13.26.13.32 0 .19s-.13-.06 0 .19h-.39a.56.56 0 0 0-.39.19l-.39.39a.17.17 0 0 0-.19.19l-1 .77a.56.56 0 0 0-.39.19.56.56 0 0 1-.39.19l-.19.39a.56.56 0 0 0-.39.19h-.19a1.13 1.13 0 0 0-.77.19l-.58.58a.79.79 0 0 0-.58.19l-.19.58a.17.17 0 0 0-.19.19h-.19l-.77.58h.58v-.19h.39l.77-.39.58-1 1-.19.77-.77.77-.19h.39l.39-.58c.13 0 .32-.13.58-.39a.56.56 0 0 1 .39-.19l.39-.19a.17.17 0 0 0 .19-.19h.19a.79.79 0 0 1 .19-.58.56.56 0 0 1 .39-.19l.77-.39.58-.39.77-.39.39-.58.39-.19.58-.58.19-.19h.19c0-.26.06-.32.19-.19s.19.07.19-.19l.39-.19c.13 0 .19-.13.19-.39l.39-.77h.39l.39-.39.77-.58.77-.77 1-.77.19-.39.77-.77a.17.17 0 0 0 .19-.19l1.12-.77c0-.26 0-.39.1-.39s.1-.06.1-.19h.19c0-.13 0-.19.1-.19s.1-.13.1-.39H63a.17.17 0 0 0 .19-.19v-.2a.56.56 0 0 0 .39-.19v-.19zM44.47 32.66v-.58l-.39.39h-.19a.17.17 0 0 0 .19.19l-.19.19h.39zm.19 2.7V34.2h-.58v1h.19l-.19.58.77-.39zm0-4.44l.19-1.16-.58.39.19.77zm.77 7.72l-.58-.19-.39.39h.77zm0-11.59l-.39.19h.39l.39-.39zM46 40.38l-.19-.19h-.39v.58h.39v.39l.19-.39-.19-.19zm.77-14.67v-.39l.39-.39a.17.17 0 0 1-.19-.19h-.39v.39l-.39.39.39.19zm-.58 16.22l.19.58-.19.19h.19l.77.58-.15-.58v-.2l-.77-.77zm.39-16.22l-.19-.19h.19zm-.19 84.76H47l.77-.58v-.39l1.16-.19-.19-.39.58-.19 1.16-.77.39-.19.58-.58.77-.19 1.16-1 .19-.58.58-.58.58-.39.39-.39.77-.19.19-.19-.19-.39a.56.56 0 0 0 .19-.39l.19-.39-.58.77-1.35.77-.58.58-.19.19-1.35 1.54h-.39a.56.56 0 0 0-.39.19l-.58.39-.58.58-.39.19h-.39l-.19.19-.77.58a.17.17 0 0 1-.19.19l-.19.19-.58.19a.17.17 0 0 1-.19.19l-.58.39-.39.58zM48.52 23l-.19-.19-.19.39-.39.19h.19zm2.12 88l-1 .19-.77.39v.58l.39-.39.39-.19h.19v-.19l.58-.19zm6.18-4.63l-.39-.19a.17.17 0 0 1-.19.19l-.19.39h-.39v.24a.39.39 0 0 0-.29.1.39.39 0 0 1-.29.1v.19c-.13 0-.32.13-.58.39l-.39.19-.19.19-.58.19-.19.39H53l-.58.39v.39l-.58.39h-.19l-.19.19h1.16l.58-.58.39-.58.39-.39 1-.39.39-.39.58-.39a.17.17 0 0 1 .19-.19l.19-.19v-.39h.39zM95.25 4.08l-1.16-.19h-.19V3.5h-.77l-1.93-.38h-6a2.72 2.72 0 0 0-1.16.19H82.7a.17.17 0 0 0-.19.19h-.77a.31.31 0 0 0-.29.19.31.31 0 0 1-.29.19h-.58a.17.17 0 0 0-.19.19l-1.54.19h-1v.39h-.58a.39.39 0 0 0-.29.1.39.39 0 0 1-.29.1h-.39l-1.16.39a.17.17 0 0 0-.19.19h-.55l-1 .19h-.19l-.77.19a.17.17 0 0 0-.19.19l-.58.19-1.91.81a.56.56 0 0 1-.39.19h-.19l-1.35.39-.19.19h-.19l-.39.19-.58.19h-.19a.17.17 0 0 0-.19.19l-.58.19v.19l-.58.39-.77.19a1.66 1.66 0 0 0-.68.29c-.32.19-.61.36-.87.48h-.19c-.13 0-.19.13-.19.39v.19H62v.19l-.77.39-.58.39-.77.39a.62.62 0 0 0-.39.58h-.19a.56.56 0 0 1-.39.19c-.13 0-.19.13-.19.39v.19L56.4 14.9a.17.17 0 0 0-.19.19.17.17 0 0 1-.19.19l-1.16.58a.75.75 0 0 1-.58.77l-.77 1 3.67-2.7a.56.56 0 0 1 .39-.19l1.54-1.16.19-.39a.17.17 0 0 1 .19-.19l2.12-1.54c.13 0 .19 0 .19-.1s.06-.1.19-.1l1.16-.58c.13-.51.32-.77.58-.77l5.41-2.12a1.2 1.2 0 0 1 .87-.39 2 2 0 0 0 1.11-.4h.19l.19-.19h.19v-.22l1.16-.39A3.61 3.61 0 0 0 74 6c.39-.13.58-.26.58-.39h1l1.35-.19.19-.19 2.7-.39a.56.56 0 0 1 .39-.19h.58l.21-.38h1l2.9-.19c.26 0 .39-.06.39-.19l.19.19a.17.17 0 0 0 .19-.19H92a2.18 2.18 0 0 1 1 .19h1l-.19.19h1.35zM56.44 52.35l.39.39 1.16.77-.19.58.77.19.58.39-.19.19h.19l1 .77.39.39a.51.51 0 0 0 .58.58l.19.19-.19.39v.39h.19l.19.19a.17.17 0 0 1 .19.19h.19l.77.58-.19.19h.19l.19.58.19.19.19.19q-.19.39.29.29c.32-.06.42 0 .29.1l.39.39a.17.17 0 0 1 .19.19l-.19.19 1.54 1.54h.19a.17.17 0 0 1-.19.19l.19.19c.13 0 .16 0 .1.1s0 .1.1.1v.39h.19v.19l.39.58v.39l.58.77c0 .26 0 .36.1.29s.1 0 .1.1l.19.39v.39l.58.77-.19.19.39.19.39.39c0 .65.19 1 .58 1v.19l-.39.19h.19l.19.19c0 .39.13.58.39.58l-.19.58.39-.77a.55.55 0 0 1-.19-.39l-.19-.77c0-.13 0-.19-.1-.19s-.1-.06-.1-.19l.19-.19-1.16-1.54c.13-.39.13-.51 0-.39s-.19.07-.19-.19l-.26-.43a.17.17 0 0 1-.19-.19l-.58-1.16-.39-.77-.19-.19-.77-1.74-.19-.19h-.19l-.37-.43a1.58 1.58 0 0 0-.58-1l-.19-.39h-.19L64 59.5l-.58-.39a.57.57 0 0 0-.19-.39.55.55 0 0 1-.19-.39l-.23-.33h-.19v-.19h-.19l-.43-.25c0-.13 0-.19-.1-.19s-.1-.06-.1-.19V57h-.19l.19-.19v-.21h-.19l-.39-.77-.19-.19-.39-.39-.39-.19c-.26 0-.39-.06-.39-.19v-.39c-.26 0-.39-.06-.39-.19l-.39-.19v-.2l-.39-.39h-.39l-.19-.39h-.39l-.19-.19a.17.17 0 0 1-.19-.19c-.13 0-.19 0-.19-.1s-.07-.1-.19-.1l-.58-.39zm.39 49.65v.19a.17.17 0 0 1 .19.19h.39v-.19l.39-.19.19-.39.19-.39.58-.39.58-.19.39-.58-.77.19-.77.39-.39.58-.8.78zm3.28.39l-.39 1-.77.58a.17.17 0 0 0-.19.19h-.39l-.58.58.58.19v-.39a.56.56 0 0 0 .39-.19h.39a.17.17 0 0 1 .19-.19l1.93-1.93zm-.58-44.79V57h-.39l.39-.19-.39-.19-.39 1a.17.17 0 0 1 .19.19.17.17 0 0 0 .19-.19l.39.19V58l.39-.19zm.77-46.73l.58-.19.58-.77.39-.19.39-.19.39-.39 1-.39.37-.42.77-.19a.55.55 0 0 0 .39-.19l.39-.19.58-.39h-1l-.19.19-1 .39a.39.39 0 0 0-.29.1.39.39 0 0 1-.29.1h-.16a.17.17 0 0 1-.19.19l-.19.19-1 .39-.39.39a.17.17 0 0 0-.19.19l-.39.19a.56.56 0 0 1-.39.19h-.16l-.39 1zm0 42.48l.39.39-.19.39h.19l.19.19.58.39v.39l.58.19a.17.17 0 0 1 .19.19h.19v.39h.19l.39.58.19.19h.19l-.19.58.39.58h.58a.17.17 0 0 1-.16.2h.19l.39.19a.17.17 0 0 0 .19.19v.39l.39.19c0 .26.06.39.19.39l.39.19-.19.19h.19l.39.58.19.39c.26 0 .32.1.19.29s-.07.29.19.29l.19.19.19.19h.19l-.19.19h.39V62l.19-.19h-.19v-.58h-.19q-.77-1.16-.58-1.35l-.39-.39-.19-.39-1-1v-.39h-.58v-.19h-.19v-.39h-.19l.19-.39-.58-.19a.55.55 0 0 1-.19-.39.57.57 0 0 0-.19-.39v-.39l-.58-.19-.39-.19h-.19l-.39-.77c0-.13-.1-.16-.29-.1s-.29 0-.29-.1l.19-.19-.19-.19a.17.17 0 0 1-.19-.19h-.39a.17.17 0 0 0-.19-.19v-.19l-.39.19zm6-43.44h-.58l-.19.19-.39.58c0 .13-.26.26-.77.39l-.19.19a.4.4 0 0 0-.29.1.39.39 0 0 1-.29.1h-.19l-.58.39L62 12l-.39.39-.19.19-.19.19-.39.58-.58.39 1.16-.19q0-.39.29-.29c.19.07.29-.1.29-.48l.58-.19.39-.39.77-.19 1.16-.77.39-.19h.19l.58-.39c.13 0 .19-.19.19-.58zm-2.14 53.45l.19-.19c-.39 0-.45-.13-.19-.39v-.58l-.16-.39h-.39l.19-.19h-.39c0-.13-.13-.19-.39-.19l-.59-.43v-.58l-.19-.19v-.19l-.24-.35h-.39l.19-.19h-.19a.17.17 0 0 0-.19-.19l-.58-.58v.77l-.19.19h.19l.39.19.77.77V61l.39.39v.39h.39l.39.39.19.19-.19.19.58.19zm2.7 3.48l-.19-.19v-.39h-.19v-.58h-.39l.19-.19-.39-.39-.39-.58-.19.19.19.39v.58c.13 0 .19 0 .19.1s.13.1.39.1v.77l.19.39v.39l.58.19.19-.77zm-.58 21.82l-.39 1.16h.39l.19-1.16zm.77-1.35l-.19.19-.19.39.58-.58zm.58-1.35h-.39v.39l.39-.19zM89.07 5.24L86.95 5l.19-.19-.58.19.19-.19L85.6 5v-.15L83.47 5v.19h-1.35l-.19.19-4.25.39-1.35.39-1 .39-.19.19-.94.26-1 .39h-.58l-.19.19-1.93.58h-.39c0 .26-.26.39-.77.39L68 8.91l-.39.39h-.19l.19.19c.13 0 .19 0 .19-.1s.06-.1.19-.1l1.16-.19 1.93-.77a3.12 3.12 0 0 1 1.35-.39l1.35-.39H74c.13 0 .19 0 .19-.1s.06-.1.19-.1h.39l2.9-.77a.79.79 0 0 1 .58-.19L80 6c.26 0 .39-.06.39-.19l2.32-.19h1.35c.26 0 .39-.06.39-.19h4.63zM67.83 63l.58.39-.19.19v.19a.17.17 0 0 0 .19.19v.19c.13 0 .19 0 .19.1s.06.1.19.1l-.19.19h.19l.39.77v.39h.19l.77.19v-.58l-.58-.58v-.39h-.19l-.37-.4-.19-.58-.4-.36h.19c.13-.13.13-.19 0-.19H68zm.39 19.69v.19a.17.17 0 0 0-.19.19l.19.39-.39.39.19.39.58-.39v-1.19zm.58-1.54l-.19.19-.19.39h.39l.39-.58zm0-1.16v.19l.39-.19zm.77-3.48h-.19l.19.19-.39.39 1-.19H70l.19-.19-.58-.39zM69.38 78v.19l.39-.19zm.19-2.9l.77-.19a.17.17 0 0 0-.19-.19h-.39zM70 5.63a.17.17 0 0 0 .19-.19zm.19-.19h.58a.84.84 0 0 0 .39-.1 1.35 1.35 0 0 1 .58-.1h.19l1-.39H73c.13 0 .19 0 .19-.1s.06-.1.19-.1l1.93-.58a.56.56 0 0 0 .39-.19h.77v-.19l.19-.19h.39l1.74-.39h.39a.17.17 0 0 0 .19-.19l1-.19H81l-.58-.39h-1.2l-.22.2h-.58a.17.17 0 0 1-.19.19l-1.35.39-2.12.19-.39.58h-.58l-1.16.39h-.58v.39a1.5 1.5 0 0 0-.58.19L70.34 5v.19zm13.9-3.28l-.19.19c.13.13.19.13.19 0s.13-.19.39-.19l-.19.19h.19a.56.56 0 0 1 .39-.19l1.74-.39v-.2H85l-.39.19.19-.19-.39.19h-.77v.39zm35.96 89.48a12.68 12.68 0 0 1 3.75-2.32c.9-.26 1.52-.24 1.84.08s.37.88.16 1.68a7.16 7.16 0 0 1-1.12 2.32 11 11 0 0 1-1.12 1.92L121 98.51l-1.92 1.92-1.08 1.27-1.92 1.6a11.9 11.9 0 0 1-2 1.36 10.75 10.75 0 0 1-2.16.88 4.58 4.58 0 0 1-2.08.48h-1.12a6.78 6.78 0 0 1-1.28-.16H107a.66.66 0 0 0-.48-.16 6.81 6.81 0 0 0-1.12-.32 11.08 11.08 0 0 0-1.12-.64 2.4 2.4 0 0 1-1-.8 7.18 7.18 0 0 1-1-1.76 5.77 5.77 0 0 1-.4-2.24 12.82 12.82 0 0 1 1-4.79l.48-1.28a1.59 1.59 0 0 0 .4-.56 4.43 4.43 0 0 1 .24-.56l.48-1a2.76 2.76 0 0 1 .32-.8q1.44-3 2.79-5.35a45.84 45.84 0 0 0 2.16-4.07 18.41 18.41 0 0 1 1.25-2.67 39.38 39.38 0 0 0 1.76-3.67 8.86 8.86 0 0 0 1.12-3.11q.16-1.35-2.08-1.36l.16-.16a10 10 0 0 0-4.47 1.52 33.78 33.78 0 0 0-4.31 3.11q-2.08 1.76-3.91 3.59L96.1 81.9q-2.4 4.47-4.55 8.54t-3.75 7.27q-1.6 3.2-2.56 5.19a17.63 17.63 0 0 0-1 2.16q-.32.8-1.44.48a4.19 4.19 0 0 1-2.03-1.54 9.09 9.09 0 0 1-1.52-3 5.81 5.81 0 0 1 .08-3.67 27.72 27.72 0 0 1 1.44-3.51q1.12-2.4 2.47-5T85.8 84q1.2-2.23 1.68-3.19l16.29-34.21 2.55-5.11a2.09 2.09 0 0 1 2.08-1 9 9 0 0 1 3.35.8 6.53 6.53 0 0 1 2.56 2.24 3.39 3.39 0 0 1 0 3.19l-10.7 20.6h.16a12.07 12.07 0 0 1 2.87-1.44 31.23 31.23 0 0 1 3.35-.8 4.48 4.48 0 0 1 1.68-.32h2.47a1.45 1.45 0 0 1 .64.16 2.69 2.69 0 0 1 .64.08 2.52 2.52 0 0 0 .64.08 10.72 10.72 0 0 1 2.24 1.12l1.12.8a3.85 3.85 0 0 1 1.6 1.6 7.45 7.45 0 0 1 1.2 4.47 18.3 18.3 0 0 1-1 5.35 41.44 41.44 0 0 1-2.56 5.83q-1.6 3-3.35 6.07c-.21.32-.48.77-.8 1.36s-.69 1.2-1.12 1.84a16.24 16.24 0 0 0-1 1.76 3.84 3.84 0 0 0-.4 1q-1.76 2.87-.72 2.55a10.52 10.52 0 0 0 3-1.84q1.92-1.52 3.83-3.35zM94.82 73.91a.14.14 0 0 0 .16-.16v-.16a3.77 3.77 0 0 0 .64-1l1-1.6L98 68.48v-.32l.16-.16v-.16l.16-.16v-.16l.16-.16.16-.16V67l.48-.8a145.93 145.93 0 0 1 .32-.64v-.16h.16v-.32h.16v-.32h.16v-.48h.16v-.16l.16-.16a.33.33 0 0 1 .08-.24.32.32 0 0 0 .08-.24l.48-.8.16-.16c0-.21.05-.32.16-.32v-.32h.16v-.32a.14.14 0 0 0 .16-.16v-.1h.16a.46.46 0 0 1 .16-.32v-.16l.16-.16v-.16l.16-.16v-.16l.16-.16v-.16l.16-.16v-.16l.16-.16v-.16c.11 0 .16-.11.16-.32l.32-.48.32-.64a.32.32 0 0 1 .08-.24.33.33 0 0 0 .08-.24.46.46 0 0 0 .16-.32h.16v-.32l.16-.16.16-.16V56l.16-.16v-.16a.14.14 0 0 0 .16-.16v-.16l.48-.64v-.16c0-.1 0-.16.08-.16s.08-.05.08-.16v-.16h.16v-.32l.32-.48a.14.14 0 0 1 .16-.16V53c0-.1 0-.16.08-.16s.08-.05.08-.16v-.16h.16V52l.16-.16v-.16h.16v-.28h-.16v.16h-.16v.16H106v.16l-.16.16v.48h-.16a.14.14 0 0 1-.16.16v.16l-.16.16v.32h-.16v.16h-.2v.16l-.16.16a.14.14 0 0 1-.16.16v.32a.14.14 0 0 0-.16.16l-.16.16v.16a.14.14 0 0 0-.16.16v.16l-.16.16v.16l-.16.16v.16h-.16V56h-.16v.32h-.16v.32h-.16V57h-.16v.32H103v.32a.14.14 0 0 0-.16.16.14.14 0 0 1-.16.16v.32h-.16v.16a2.76 2.76 0 0 0-.32.8.14.14 0 0 0-.16.16l-.16.16v.16l-.16.16V60l-.16.16v.16l-.16.16v.16a.46.46 0 0 0-.16.32l-.16.16v.16a.14.14 0 0 0-.16.16v.16a.14.14 0 0 0-.16.16v.16l-.16.16v.16l-.16.16v.16a.14.14 0 0 0-.16.16v.16h-.16v.16l-.16.16v.16a.14.14 0 0 1-.16.16v.32a.14.14 0 0 0-.16.16l-.16.16v.16l-.16.32v.16l-.16.16v.16l-.16.16v.16h-.16v.32a.14.14 0 0 0-.16.16v.16a.14.14 0 0 0-.16.16v.16h-.16v.32h-.16v.16L98 67v.16l-.16.16v.32h-.14v.16l-.16.16v.16l-.16.16v.16l-.16.16v.4a.14.14 0 0 0-.16.16l-.16.16v.32h-.16v.32a.14.14 0 0 0-.16.16.46.46 0 0 0-.16.32.14.14 0 0 0-.16.16v.16l-.16.16V71h-.32v.32h-.16v.32l-.16.16v.2h-.16v.32h-.16v.32c-.11 0-.16.11-.16.32l-.48.64v.16h-.16v.32h-.16v.16a.14.14 0 0 1-.16.16v.16a.46.46 0 0 0-.16.32V75h-.16a2.43 2.43 0 0 0-.32 1 .14.14 0 0 0-.16.16c0 .11 0 .16-.08.16s-.08.06-.08.16l-.16.16v.48l-.16.16-.48 1-.32.32v.32h-.16V79l-.32.48a.32.32 0 0 1-.08.24.33.33 0 0 0-.08.24.33.33 0 0 1-.08.24.32.32 0 0 0-.08.24v.16h.16v-.16h.16v-.14a.46.46 0 0 1 .16-.32 1.42 1.42 0 0 0 .4-.64 1.41 1.41 0 0 1 .4-.64v-.16l.32-.48v-.16h.16v-.16l1.1-1.91a.32.32 0 0 1 .08-.24.32.32 0 0 0 .08-.24v-.16l.48-.64v-.32a.14.14 0 0 0 .16-.16zm-2.24.64v.16h.16v-.16h.32v-.16h.16v-.32h.16v-.32h.16v-.32h.16v-.32h.16v-.31H94v-.32h.16v-.32h.16v-.32l.16-.16v-.16h.16V71h.16v-.16h.2v-.32h-.16v-.12h-.16v.16l-.16.16v.16h-.16a.14.14 0 0 1-.16.16v.32a.14.14 0 0 0-.16.16l-.16.16a.32.32 0 0 1-.08.24.33.33 0 0 0-.08.24v.16h-.16v.16l-.16.16v.16a.14.14 0 0 0-.16.16v.16h-.16v.32h-.16v.32h-.16v.32l-.16.16v.16h-.16v.16zm4.63-2.24v.16h-.31v.32a.14.14 0 0 0-.16.16v.16h-.16a.14.14 0 0 1-.16.16v.32a.46.46 0 0 0-.16.32.14.14 0 0 0-.16.16v.16h-.32v.32h-.16v.16h-.16V75a.14.14 0 0 0-.16.16v.16l-.16.16v.32H95v.32h-.16v.32h.32v-.16h.32v-.16h.16v-.32h.16v-.32h.32V75h.16v-.16l.16-.16v-.16h.16v-.32h.16v-.48h.16v-.32h.16v-.16l.16-.16V73l.16-.16v-.48zm-1.11-4.15a.14.14 0 0 1 .16-.16c0-.1 0-.16.08-.16s.08-.05.08-.16l.16-.16c0-.1.1-.26.32-.48v-.16l.16-.16v-.16h.16a.46.46 0 0 1 .16-.32l.16-.32.32-.8V65H98v-.16a.14.14 0 0 0 .16-.16v-.32h.16V64h.16v-.16a.14.14 0 0 0 .16-.16v-.16h.16v-.32h.2v-.32h.16v-.16l.16-.16v-.32h.16v-.16l.16-.16v-.16l.16-.16v-.16a.14.14 0 0 1 .16-.16v-.16l.16-.16v-.16h-.32v.2h-.16v.16h-.32v.32h-.16v.32H99v.16h-.16v.32a.14.14 0 0 0-.16.16v.16h-.18v.32a.14.14 0 0 0-.16.16v.16a.14.14 0 0 0-.16.16v.16H98v.32h-.16V64l-.16.16v.16h-.16v.48h-.16v.32l-.16.16v.32h-.16v.32h-.14v.16a.46.46 0 0 0-.16.32h-.16v.32a.14.14 0 0 0-.16.16V67h-.16v.16l-.16.16v.16h-.32v.64zm7.51-7.67a.46.46 0 0 0 .16-.32l.16-.16a.46.46 0 0 1 .16-.32v-.32a.14.14 0 0 0 .16-.16v-.16h.16v-.15l.16-.16v-.16a.14.14 0 0 1 .16-.16c0-.21.05-.32.16-.32v-.32h.11v-.16c0-.1 0-.16.08-.16s.08-.05.08-.16v-.16h.16V57a.14.14 0 0 1 .16-.16v-.16a.14.14 0 0 1 .16-.16l-.16-.16h-.16v.16h-.16v.32H105V57h-.16v.32h-.16v.16h-.16v.16l-.16.16-.16.16v.16l-.16.16v.16h-.16v.32h-.16v.48h-.16v.32h-.16v.16a.14.14 0 0 0-.16.16.46.46 0 0 1-.16.32v.16l-.16.16v.16l-.16.16V61l-.16.16v.16a.14.14 0 0 1-.16.16v.32h-.16v.16l-.16.16v.16H102v.48h-.16v.16h-.16v.32a.14.14 0 0 0-.16.16v.16h-.16v.32h-.16v.32h-.16v.16c0 .21-.05.32-.16.32V65h-.16v.16h-.16v.16h.16v.16h-.16v.32h-.16v.16l-.16.16v.32h-.16v.32h-.16V67h-.16v.16h-.16v.16a.65.65 0 0 0-.16.48h-.16v.32h-.16v.32H99v.16a.14.14 0 0 0-.16.16v.32h-.16v.32a.14.14 0 0 0-.16.16l-.32.48v.16a.14.14 0 0 1-.16.16v.16l-.16.16a.46.46 0 0 1-.16.32v.16a.14.14 0 0 0 .16.16H98a.46.46 0 0 1 .16-.32l.32-.64a.14.14 0 0 0 .16-.16v-.16l.16-.16.48-.8c0-.1 0-.16.08-.16s.08-.05.08-.16a.32.32 0 0 1 .08-.24.32.32 0 0 0 .08-.24h.16V68h.16a.92.92 0 0 1 .32-.64.33.33 0 0 1 .08-.24.32.32 0 0 0 .08-.24l.16-.32a3.47 3.47 0 0 0 .64-1.28v-.16h.16v-.32h.16v-.16h.16v-.32a.65.65 0 0 1 .16-.48l.16-.16v-.16h.16v-.32h.16v-.32h.16v-.16l.32-.48v-.16l.16-.16v-.16l.16-.16v-.16l.16-.16v-.16a.14.14 0 0 1 .16-.16v-.16l.16-.16zm-2.55-1.6l.16-.16v-.16h.16v-.16l.16-.16h-.16v-.15h.16v-.16h.16v-.32h.16v-.32h.14v-.16h-.16V57h-.48v.32h-.16v.32a.14.14 0 0 0-.16.16v.48h-.16v.32h-.16v.32zM110 91a.14.14 0 0 0 .16-.16l.32-.64V90h.16v-.16l.16-.16v-.16l.16-.16v-.16a.14.14 0 0 0 .16-.16c0-.21.05-.32.16-.32v-.32l.32-.48v-.16a.14.14 0 0 0 .16-.16.14.14 0 0 1 .16-.16v-.16a.14.14 0 0 1 .16-.16V87c0-.1 0-.16.08-.16s.08-.05.08-.16v-.16h.16v-.32h.16v-.32h.16v-.16c0-.1 0-.16.08-.16s.08-.05.08-.16l.16-.16v-.16c0-.1 0-.16.08-.16s.08-.05.08-.16 0-.16.08-.16.08-.05.08-.16a.46.46 0 0 1 .16-.32v-.32h.16v-.16a.14.14 0 0 1 .16-.16v-.16a.14.14 0 0 1 .16-.16.65.65 0 0 1 .16-.48v-.16l.16-.16v-.16l.16-.16.16-.32v-.16l.16-.16v-.3h.16v-.32h.16v-.16h-.32v.16h-.16v.16l-.16.16v.16a.14.14 0 0 0-.16.16v.16h-.16v.32H114v.16h-.16v.32h-.16v.16l-.16.16v.16h-.16v.32l-.16.16v.16l-.16.16v.16l-.16.16v.16l-.16.16v.32h-.16v.32h-.16v.16a.33.33 0 0 1-.08.24.32.32 0 0 0-.08.24l-.16.16v.16h-.16v.32h-.16v.32l-.16.16v.16h-.16v.32h-.16v.32h-.16v.32a.14.14 0 0 0-.12.18v.16h-.16v.32h-.16v.32h-.16v.48h-.16v.32h-.16v.32a.14.14 0 0 0-.2.08v.16h-.16v.32h-.16v.32h-.16v.32a.14.14 0 0 0-.16.16v.16h-.16v.16l-.16.16v.32l-.16.16v.32a.14.14 0 0 0-.16.16l-.16.16v.32a.14.14 0 0 0-.16.16v.16h-.16v.32h-.32v.32h-.16v.16a.14.14 0 0 1-.16.16.32.32 0 0 1-.08.24.33.33 0 0 0-.08.24v.16h-.16v.32h-.16v.16a.14.14 0 0 1-.16.16V96a.92.92 0 0 1-.32.64v.32h-.16v.48L106 98v.32h-.16v.16a.46.46 0 0 1-.16.32v.8h.16v-.16a.46.46 0 0 0 .16-.32 3.71 3.71 0 0 1 .48-.8V98a.14.14 0 0 1 .16-.16v-.16l.64-1.12c0-.21.05-.32.16-.32v-.16a.32.32 0 0 1 .08-.24.33.33 0 0 0 .08-.24l.16-.16v-.16l.16-.16.48-.64a2.77 2.77 0 0 0 .32-.8l1-1.92.16-.16v-.32l.16-.16zm-4.31 4.47a.14.14 0 0 0 .16.16h.15v-.16h.32v-.32h.16v-.48h.16v-.32h.16v-.16a.14.14 0 0 0 .2-.19v-.32l.16-.16v-.32h.16v-.32l-.16-.16H107v.16h-.16v.32h-.16v.16l-.16.16c0 .21-.05.32-.16.32v.32h-.16v.16h-.2v.48h-.16v.48h-.16zm2.08-4.31v.16h.16v-.16l.32-.16v-.16h.16a.46.46 0 0 1 .16-.32v-.16h.16v-.16l.16-.16v-.16h.11a.65.65 0 0 1 .16-.48v-.16h.16v-.48h.16v-.32h.16v-.16a.14.14 0 0 0 .16-.16V88h.2v-.32h.16v-.32a.14.14 0 0 0 .16-.16v-.32h.16v-.32h.16v-.16h-.32v.16h-.16v.16h-.32V87h-.16v.32h-.16v.32h-.16V88h-.16v.16l-.16.16v.16h-.16v.32h-.16v.48h-.16v.48h-.16v.16l-.16.16v.16h-.32v.48h-.16v.16h-.16v.32zm2.23 3.35h-.16v-.16h-.16v.16h-.16v.16h-.16V95h-.16v.16h-.2v.48h-.16v.16l-.16.16v.16h-.16v.48h-.16v.48h.48v-.16h.16v-.32l.16-.16v-.32h.16V96l.16-.16v-.48h.16V95h.16v-.16l.16-.16zm.8-1.6l.32-.64v-.16a.14.14 0 0 0 .16-.16v-.15l.16-.16a145.94 145.94 0 0 0 .32-.64l.16-.16a2.46 2.46 0 0 0 .32-1h.16l-.16-.16h.16v-.28h.16a.46.46 0 0 1 .16-.32v-.32h.16v-.32h.12v-.16l.16-.16v-.32h.16v-.32h.16v-.32h.16v-.32h.16v-.32a.14.14 0 0 0 .16-.16v-.16l.16-.16v-.32h.16v-.32h.16v-.32h.16v-.32l.16-.16v-.16h.16V84h-.16v.16h-.16v.16h-.16v.16h-.16v.16h-.16v.32H114v.16h-.16v.32h-.16v.32l-.16.16v.32h-.16v.32h-.16v.32h-.2v.32h-.16v.32h-.16v.32h-.16v.32h-.16v.32l-.16.16v.16h-.16v.48h-.16v.32l-.16.16V90h-.16v.32h-.16v.48h-.16v.32h-.16a.46.46 0 0 1-.16.32v.16h-.16v.4a.46.46 0 0 0-.16.32.14.14 0 0 1-.16.16v.16a.46.46 0 0 0-.16.32.14.14 0 0 0-.16.16v.16l-.16.16v.32l.16.16h.16v-.16c0-.1.1-.26.32-.48v-.16h.16zm.16-7.83v.16h.32v-.16a.14.14 0 0 0 .16-.16v-.32h.16v-.32h.16V84h-.64v.48H111v.48h-.16v.16z"/><path class="cls-1" d="M153.59 89.08q2.71-3 4.23-2.16t-1.2 5a24.39 24.39 0 0 1-4 4.87 31.48 31.48 0 0 1-5.75 4.39 36.81 36.81 0 0 1-6.87 3.19 22.2 22.2 0 0 1-7.35 1.28 14.26 14.26 0 0 1-5-.88 9.81 9.81 0 0 1-4.07-2.79 12.84 12.84 0 0 1-2.55-4.87 16.37 16.37 0 0 1-.24-7.11 22.65 22.65 0 0 1 2.47-7.67 32.81 32.81 0 0 1 5.11-7.19 37.55 37.55 0 0 1 7-5.91 30.72 30.72 0 0 1 8.38-3.83q7-1.92 11.26.88t2.63 9a16.45 16.45 0 0 1-1.68 4.15 15.66 15.66 0 0 1-4.15 4.79 23.65 23.65 0 0 1-7.24 3.78 31.17 31.17 0 0 1-11.26 1.2 4.55 4.55 0 0 1-2.87-1.12q-2.72 5.75-.64 9.1t7.19 2.4a22.16 22.16 0 0 0 8.22-3.58 54.79 54.79 0 0 0 8.38-6.92zm-25.07-7.51h.16v-.16a1.73 1.73 0 0 0 .64-.8 1.3 1.3 0 0 0 .24-.32.86.86 0 0 1 .44-.29l.32-.32 1.44-1.92h.16v-.16l.16-.16a.14.14 0 0 0 .16-.16h.16v-.16h.16v-.16h.16l.48-.64a.14.14 0 0 0 .16-.16h.16l.16-.16.16-.16.32-.32h.16v-.16a.14.14 0 0 0 .16-.16h.16V75a.46.46 0 0 0 .32-.16l.48-.48h.16l.16-.16.16-.16a.14.14 0 0 0 .16-.16h.16v-.16h.16v-.16h.16l.16-.16.16-.16h.12v-.16h.16V73h.32v-.2h.16v-.16h.16l.16-.16h.16c0-.1 0-.16.08-.16s.08-.05.08-.16a.46.46 0 0 0 .32-.16h.16l.32-.32c.1 0 .26-.1.48-.32l.16-.16h.16V71h.12a.14.14 0 0 0 .16-.16h.32a.14.14 0 0 1 .16-.16.14.14 0 0 0 .16-.16h.2c.21-.21.37-.32.48-.32a.14.14 0 0 0 .16-.16h.32v-.16h.16l.16-.16a.46.46 0 0 0 .32-.16h.32v-.16h.32v-.16h.32v-.16h.32L144 69v-.2h-.48v.2h-.32l-.16.16h-.32v.16h-.32v.16h-.64v.16h-.32a.14.14 0 0 1-.16.16h-.16l-.16.16h-.16v.16h-.32v.16h-.32v.16H140a.14.14 0 0 0-.16.16h-.16l-.16.16a.14.14 0 0 0-.16.16h-.16V71h-.32v.16h-.16v.16h-.32v.16h-.16l-.16.16-.48.32-.16.16h-.16v.16h-.16l-.16.16h-.16v.16h-.16l-.16.16V73a.47.47 0 0 0-.32.16H136v.16h-.16v.16h-.16v.16h-.16a.14.14 0 0 1-.16.16.14.14 0 0 0-.16.16h-.16v.16h-.16v.16h-.16l-.16.16h-.16v.16h-.16v.16a.14.14 0 0 0-.16.16h-.16V75h-.16v.16h-.16v.16h-.16v.16h-.16v.16h-.16l-.16.16-.16.16a.14.14 0 0 0-.16.16h-.16v.16l-.16.16h-.16v.16H132v.16l-.32.32h-.16v.16l-.48.48v.16h-.16v.16h-.16v.16h-.16v.16l-.16.16v.16h-.16v.16h-.16V79H130v.16l-.16.16a.14.14 0 0 0-.16.16v.16h-.16v.16h-.16v.2l-.16.16-.16.16v.16h-.16v.16a.14.14 0 0 0-.16.16l-.48.48v.16H128v.16l-.16.16a.14.14 0 0 1-.16.16v.16a.14.14 0 0 0-.16.16v.16h-.16c0 .21-.05.35-.16.4s-.16.19-.16.4h-.16v.16l-.16.16v.16a.14.14 0 0 1-.16.16V84l-.48.8a.46.46 0 0 0-.16.32v.16h-.16v.32c-.11 0-.16.11-.16.32a.65.65 0 0 0-.16.48v.48h.16v-.16a.65.65 0 0 0 .16-.48l.32-.48c0-.1.1-.26.32-.48v-.16a.46.46 0 0 1 .16-.32v-.16a.14.14 0 0 0 .16-.16 2.14 2.14 0 0 0 .48-.72 2.11 2.11 0 0 1 .48-.72c0-.1 0-.16.08-.16s.08-.05.08-.16v-.16c.21-.21.32-.37.32-.48a.14.14 0 0 0 .16-.16l.16-.16zm-1.92.32v-.16h.32v-.16h.16v-.32h.16v-.15a.14.14 0 0 0 .16-.16v-.16h.16v-.16h.16v-.16a.14.14 0 0 0 .16-.16v-.16h.12V80l.16-.16v-.16h.16v-.18h.16v-.32h.16V79h.16v-.3l-.16-.16v.16h-.16a73.84 73.84 0 0 0-.32.32H128v.16a.14.14 0 0 0-.16.16l-.16.16c0 .11 0 .16-.08.16s-.08.06-.08.16V80h-.16v.16h-.16v.16h-.16v.16h-.16v.32h-.16v.16a.14.14 0 0 0-.16.16v.16a.14.14 0 0 0-.16.16v.16h-.16v.32zm2.55 1.76v-.16h.16v-.32h.16v-.32h.16v-.15h.16v-.16h.21v-.32h.16v-.32h.16v-.16h.16v-.16l.16-.16v-.16h.16v-.16h.16v-.16a.14.14 0 0 1-.16-.16h-.16v.16h-.32v.16h-.16v.32H130a.14.14 0 0 1-.16.16.46.46 0 0 1-.16.32v.16h-.16v.16h-.16v.16h-.16v.16h-.2v.32h-.16v.32h-.16v.32h-.16v.32h.32v-.16zm17.09 15h-.48v.16h-.16l-.16.16h-.16v.16h-.48v.16h-.32v.16h-.32v.16H144a.14.14 0 0 0-.16.16h-.32v.16h-.16l-.16.16h-.32v.16h-.32v.16h-.16l-.32.32h-.48v.16h-.32l-.16.16h-.32a.14.14 0 0 1-.16.16h-.32v.16h-.48v.16h-.48v.16h-.64v.16h-.48a.14.14 0 0 0-.16.16h-.64l-.16.16h-.64l-.16.16h-.32a.14.14 0 0 0-.16.16l-.16-.16h-.16l-.16.16h-4a.66.66 0 0 0-.48-.16h-.32v-.16h-1.12v.16h.16v.16h.32a.73.73 0 0 1 .32.08 1.08 1.08 0 0 0 .48.08.14.14 0 0 0 .16.16h.32a1.8 1.8 0 0 1 .56.08 1.7 1.7 0 0 0 .56.08h2.88l1.6-.32h.32v-.16l.16.16v-.16h.32a.92.92 0 0 0 .64-.16h.64v-.16h.64l.16-.16a.65.65 0 0 0 .48-.16h.32l.16-.16h.32v-.16h.32v-.16h.32a.14.14 0 0 0 .16-.16h.32v-.16h.32l.16-.16h.16l.16-.16a.46.46 0 0 0 .32-.16h.16v-.16h.32v-.16h.16l.16-.16h.16l.48-.32a.14.14 0 0 0 .16-.16h.16v-.16h.32v-.15h.16a.14.14 0 0 0 .16-.16h.16V99h.16l.16-.16zM130 76.79h.16v.16h.16v-.16l.32-.16v-.16h.16l.32-.16v-.16a.14.14 0 0 0 .16-.16h.16v-.16a36.92 36.92 0 0 1 .32-.32h.16l.48-.48v-.16h.16l.16-.16.16-.16h.12v-.16h.16v-.16h.16l.16-.16h.16v-.16h.16v-.16h.16v-.16h.16v-.16h.16v-.16h.16a.14.14 0 0 1 .16-.16.14.14 0 0 0 .16-.16h.16v-.15h.16v-.16h.16v-.16h.16v-.16h-.48v.16h-.48v.16h-.16v.16h-.16l-.16.16h-.16v.16a.14.14 0 0 0-.16.16h-.16v.16h-.16v.16h-.16v.16H133v.16h-.32v.16h-.16v.16h-.16v.16h-.16v.16h-.2v.16h-.16v.16h-.16V75h-.16v.16h-.16v.16h-.16v.16h-.16a.14.14 0 0 0-.16.16v.16h-.16l-.16.16v.16h-.16l-.16.16v.16h-.16a.14.14 0 0 1-.16.16zm3 1.92v-.16h.16l.16-.16v-.16h.16v-.16h.16l.32-.32 1.44-1.44v-.16h.16V76h.16l.32-.32h.16v-.16h.32v-.16h.16v-.16h.16l.16-.2.16-.16a.14.14 0 0 1 .16-.16h.16v-.16h.16v-.16h.16l.16-.16h.16v-.16h.16v-.16h.16l.16-.16a.14.14 0 0 0 .16-.16.46.46 0 0 0 .32-.16l.16-.16h.16v-.16h.16l.16-.16h.16v-.12c.1 0 .16 0 .16-.08s.05-.08.16-.08l.16-.16h.16a.14.14 0 0 1 .16-.16h.16v-.16h.16V72h.32v-.16a.14.14 0 0 0-.16-.16l-.16.16h-.32V72h-.48l-.16.16h-.16l-.16.16h-.16v.16h-.16l-.16.16h-.16v.16h-.16a.14.14 0 0 0-.16.16h-.16v.16h-.16v.16h-.16l-.16.16h-.16v.16h-.16v.16h-.16l-.16.16h-.16v.16h-.16v.16H137v.16h-.16a.14.14 0 0 1-.16.16h-.16v.16h-.16v.16h-.16V75h-.2v.16h-.16l-.16.16h-.16v.16h-.16v.16h-.16v.16h-.16v.2h-.16v.16h-.16v.16h-.16v.16a.14.14 0 0 0-.16.16h-.16v.16h-.16v.16h-.16v.16h-.16v.16h-.16v.16h-.16v.16c-.11 0-.16 0-.16.08s-.05.08-.16.08v.16H133v.16h-.16v.16h-.16a.46.46 0 0 1-.16.32h-.16v.16l-.16.16V79c-.11 0-.27.11-.48.32v.16h-.16a.14.14 0 0 1-.16.16c0 .11 0 .16-.08.16s-.08.05-.08.16v.16l.16.16v-.16a.14.14 0 0 0 .16-.16l.48-.32a.14.14 0 0 1 .16-.16v-.16h.16zm1.76 25.39v-.16h-.64l-.16.16h-.32v-.16h-1v.16h-.32v.32h.16v.16h1.6v-.16h.32v.16h.16v-.16h.48v-.32zm16.93-29.54a3.12 3.12 0 0 0-1.6-2 4.25 4.25 0 0 0-3.51.08 19.9 19.9 0 0 0-2 .8 9 9 0 0 0-2 1.28 14.53 14.53 0 0 0-1.93 1.28 4.51 4.51 0 0 1-1 .8 4.54 4.54 0 0 1-1 .8 25.24 25.24 0 0 0-2.16 2.08q-1.2 1.28-2 2.24l-2.08 2.71a9.47 9.47 0 0 1 3.51-.32 17.07 17.07 0 0 0 4.39-.8 29.53 29.53 0 0 0 5.43-2.16 18.93 18.93 0 0 0 4.47-3.11 3.7 3.7 0 0 0 1.46-3.69zm-18.68 27v.16h1.28v-.16h.8a.14.14 0 0 1 .16-.16v-.16h-.16v-.16h-2.24v.48zm11.82-.32h-.48v.16l-.16-.16v.16h-.64v.16h-.32v.16h-.32v.16h-.32v.12a.46.46 0 0 0-.32.16h-.32l-.16.16h-.32v.16h-.32l-.16.16h-.32l-.16.16h-.32a.14.14 0 0 0-.16.16h-.32a.14.14 0 0 1-.16.16h-.32v.16h-.48v.16h-.64l-.16.16h-.48a.46.46 0 0 0-.32.16h-1v.16h-.32l-.16.16v.16h1a.92.92 0 0 0 .64-.16h.64v-.16h.8l.16-.16a.63.63 0 0 0 .4-.08.63.63 0 0 1 .4-.08v-.16h.48l.32-.16h.49v-.16h.32l.16-.16h.32v-.16h.32l.16-.16h.32v-.16h.32l.16-.16h.16v-.16h.32V102h.16a.14.14 0 0 0 .16-.16h.32v-.16h.32v-.16h.16v-.16h.16zm-7.51-.16v-.16a.14.14 0 0 1 .16.16h.16l.16-.16h.32v-.16h.16v.16h.16v-.16h.8v-.16h.48v-.16h.28v-.16h.48v-.16l-.16-.16H140a.14.14 0 0 0-.16-.16v.16h-.48l-.16.16h-.48v.16h-.64v.16h-.48v.16h-.8v.16a.14.14 0 0 0-.16-.16h-.16v.16h-.16v.32zm-.8-30l.16.16v.16h.32v-.2h.16a.14.14 0 0 0 .16-.16v-.16h.32v-.16a.14.14 0 0 0 .16.16v-.16h.16v-.16h.16v-.16h.16v-.16h-.16v-.16h-.48v.16h-.16v.16h-.32v.16c-.11.11-.11.16 0 .16h-.32v.16h-.16V71zm4.79 28.59h.16v.16h.32v-.16h.32v-.16h.16v-.21h.16v-.16h-.16V99h-.48v.16h-.16v.16h-.16v.16a.14.14 0 0 0-.16-.16zm11-20l-.16.16H152V80a.14.14 0 0 0-.16.16l-.16.16v.16h-.16l-.16.16h-.16v.16a.14.14 0 0 0-.16.16h-.16v.16a.14.14 0 0 0-.16.16h-.16v.16h-.16v.16h-.16v.16h-.16v.16h-.16a.14.14 0 0 1-.16.16h-.16v.16h-.16v.16h-.16l-.16.16-.16.16h-.16v.16h-.32l-.16.16-.32.16a.14.14 0 0 0-.16.16h-.32v.16h-.16v.16a.65.65 0 0 0-.48.16h-.16V84h-.32v.16a.93.93 0 0 0-.64.16h-.32v.16h-.32l-.16.16a.14.14 0 0 0-.16.16h-.16v.16h.48a1.27 1.27 0 0 1 .8-.16.14.14 0 0 1 .16-.16h.16v-.16a1.41 1.41 0 0 0 .64-.16.65.65 0 0 0 .48-.16l.16-.16a.32.32 0 0 0 .24-.08.33.33 0 0 1 .24-.08v-.16h.32v-.16a.92.92 0 0 0 .64-.32.32.32 0 0 0 .24-.08.33.33 0 0 1 .24-.08l.16-.16 1.12-1 .16-.16v-.16h.12l.16-.16h.16c.21-.21.32-.37.32-.48h.16v-.16h.2v-.16h.16l.16-.16v-.14h.16a.14.14 0 0 1 .16-.16l.16-.16c0-.11 0-.16.08-.16s.08-.05.08-.16l.16-.16.16-.16.16-.16V79h.16a.14.14 0 0 1 .16-.16v-.14l.16-.16v-.16h.16v-.16h.16v-.16l.16-.16v-.16l.16-.16v-.16a.46.46 0 0 0 .16-.32.14.14 0 0 0 .16-.16v-.16h.12v-.48h.16v-.16a.46.46 0 0 0 .16-.32v-.32h.16V75c.1 0 .16 0 .16-.08s-.05-.08-.16-.08h.16v-.8h-.16v.16h-.16v.32c-.11.11-.11.16 0 .16h-.16v.48H155v.32h-.16v.16h-.16v.48h-.16v.16a.14.14 0 0 1-.16.16v.32h-.16v.16l-.16.16v.32h-.16v.16c-.11 0-.16.11-.16.32h-.16v.16a.14.14 0 0 0-.16.16l-.16.16v.16a.14.14 0 0 0-.16.16l-.16.16a73.84 73.84 0 0 1-.32.32v.16h-.16v.16h-.16zm-4.79 2.08v.16h-.32v.16h-.2v.16h-.32v.48h.64v-.16h.16v-.16h.32v-.16h.2v-.16h.16v-.17h.16v-.16h.32v-.32h-.48a.14.14 0 0 0-.16.16h-.16l-.16.16zm2.56 2.4l-.16-.16h-.48v.16h-.32v.16H149v.16h-.32v.16h-.32v.16h-.16v.16h-.32v.16h-.16v.16h.16v.16h.64v-.16h.16v-.16h.32v-.16h.16v-.16l.16.16v-.16a.14.14 0 0 0 .16-.16h.16a.14.14 0 0 1 .16-.16v-.16h.32zm1.44-5.91h-.16v.32h-.16v.16h-.2v.16h-.16V79h-.16v.16h-.16v.16h-.16v.16h-.16v.16h-.16v.16h-.32v.32h-.32v.16h-.16v.16l.16.16h.32v-.16h.32v-.14h.16v-.16h.16V80h.16l.16-.16v-.16h.16v-.18h.32v-.16h.16v-.16h.16V79h.16v-.16a.14.14 0 0 0 .16-.16v-.16h.2v-.16h.16v-.16h.16l-.16-.16h-.64zm4-.64h-.16v.32h-.16v.32h-.2v.32h-.16v.16l-.16.16V79h-.16v.16h-.16v.32h-.16v.16h-.16v.16h-.16v.2l-.16.16v.16h-.16v.16h-.16v.16h-.16v.16h-.16v.16H153v.32h-.16v.16h-.16v.16h-.16v.16h-.16v.16h-.16v.16c-.11 0-.16 0-.16.08s-.05.08-.16.08v.16h-.16l-.16.16-.16.16h-.16V83h-.32l-.16.16-.32.32v.16l.16.16a.14.14 0 0 1 .16-.16.46.46 0 0 1 .32-.16.14.14 0 0 0 .16-.16h.16c0-.21.16-.32.48-.32v-.16l.16-.16h.16v-.16h.16c0-.1 0-.16.08-.16s.08-.05.08-.16a.46.46 0 0 0 .32-.16v-.14h.16l.48-.48v-.32h.32a.46.46 0 0 1 .16-.32l.16-.16.16-.16v-.16h.16c0-.1 0-.16.08-.16s.08-.05.08-.16a.14.14 0 0 0 .16-.16h.16v-.32h.08v-.16h.16v-.16a.14.14 0 0 1 .16-.16v-.16l.16-.16v-.16h.16v-.32h.16v-.16a.14.14 0 0 1 .16-.16v-.32a.14.14 0 0 0 .16-.16v-.16h.16v-.48h-.16v.16H156v.16h-.16v.32h-.16zm-2.52-.33v-.16h.16l-.16-.16h.16v-.16h.16l-.16-.16h.16v-.16h-.64v.48h-.16v.32z"/><path class="cls-1" d="M193.67 77.27a13.65 13.65 0 0 1 3.33-2.88q1.28-.64 1.76-.24a1.87 1.87 0 0 1 .4 1.6 6.55 6.55 0 0 1-.72 2.48 4.66 4.66 0 0 1-1 2.08q-.16.32-1.44 2.16a32 32 0 0 1-3.19 3.83 35.93 35.93 0 0 1-4.17 3.7 8.48 8.48 0 0 1-4.39 2 4.86 4.86 0 0 1-2.08-.16h-.64a.32.32 0 0 1-.24-.08.33.33 0 0 0-.24-.08l-1-.32a3.88 3.88 0 0 1-1.76-1.44 5.27 5.27 0 0 1-1.38-3.92 15 15 0 0 1 1-5l.59-1 .5-1.3.48-1a.91.91 0 0 0 .32-.64l1.12-2a8.89 8.89 0 0 1 .56-.88l.48-.64a9.68 9.68 0 0 0 .72-1.28 4.48 4.48 0 0 0 .4-1c.05-.26-.19-.45-.72-.56a14.89 14.89 0 0 0-6.15 2.55 44 44 0 0 0-6.21 4.81q-2.08 3.68-4.63 8.3l-4.79 8.7q-2.24 4.07-3.75 6.95l-1.68 3.19a.71.71 0 0 1-1.12.4 5.09 5.09 0 0 1-1.68-1.6 7.93 7.93 0 0 1-1.28-2.87 6.51 6.51 0 0 1 .24-3.59 27.78 27.78 0 0 1 1.48-3.54q1.12-2.4 2.4-5t2.47-5q1.2-2.31 1.52-3.11.32-.48 1-1.84t1.52-3q.8-1.68 1.6-3.19t1.28-2.48q1-1.76 1.68-3.11t.88-1.68a2.48 2.48 0 0 1 1.68-1.28 4.11 4.11 0 0 1 2.4.08 6.63 6.63 0 0 1 2.16 1.2 2.42 2.42 0 0 1 1 1.92 28.19 28.19 0 0 1 4.47-2.08 13.24 13.24 0 0 1 4.47-.8l.64.16h.64a5.29 5.29 0 0 1 1.28.32 7.19 7.19 0 0 1 2.24 1l.8.48a5.11 5.11 0 0 1 2.52 3.41 8.51 8.51 0 0 1-.48 4.23 22.51 22.51 0 0 1-2.16 4.39q-1.36 2.16-2.48 3.75-1.28 2.56-.8 2.87t1.93-1.24zm-41.52 21.87v-.32H152v-.16h-.32v.16h-.16v.32h-.16v.48h.16v.16h.32v-.32h.16v-.32zm-.32-1.14h.17l.16.16a.14.14 0 0 1 .16-.16l.32-.16v-.16h.16v-.32h.2v-.16h.16v-.32h.16l-.16-.16h.16v-.32h-.48v.16h-.16v.32h-.16v.16c-.11.11-.11.16 0 .16h-.16v.32h-.16v.32h-.2zm1.92.64a.14.14 0 0 0 .16-.16l.16-.16V98h.16l.16-.16.16-.16v-.16a.14.14 0 0 1 .16-.16v-.32h.16v-.32a.14.14 0 0 0 .16-.16v-.16l.16-.16V96h.16v-.48h.16V95h.16v-.16h-.32V95h-.16v.16H155v.16h-.16v.32h-.16V96h-.16v.32a.47.47 0 0 0-.16.32v.16h-.16v.32h-.16l.16.16h-.16v.16h-.16v.48h-.16l-.16.32h-.16v.32h-.16v.32h-.16l.16.16h-.16v.32H153v.32h-.16v.32h-.16v.32h-.16v.32h-.16v.16l-.16.16v.16a.14.14 0 0 1-.16.16v.16l.16.16h.16v-.16c.11 0 .16 0 .16-.08s.05-.08.16-.08v-.32l.32-.32v-.16l.16-.16v-.16a.45.45 0 0 0 .16-.32l.16-.16v-.16l.32-.64zm-.48-2.64v.16h.32v-.48h-.16l-.16-.16h-.16V96zm1.28 4.31v-.16h-.32v.16h-.16v.32h-.16v.48h.16v.16h.32v-.32h.16v-.48h.16v-.16zm1.6-3.83v.16h-.32v.32h-.16v.48h-.16v.48h-.16l-.16.32H155v.48h-.16V99h-.16v.32l-.16.16v.16a.14.14 0 0 0-.16.16l.16.16h.16l.16-.16v-.16a.14.14 0 0 0 .16-.16h.16v-.18a.14.14 0 0 1 .16-.16V99a.64.64 0 0 0 .16-.48v-.16h.16V98h.16l.16-.32h.16v-.32h.16c-.1 0-.1-.05 0-.16v-.32h.16v-.48zm3.67-12.78v.3a.14.14 0 0 0-.16.16v.48h.16v-.16a.14.14 0 0 0 .16-.16l.48-.64zm1.12-2.4v-.48h.16v-.32h.16v-.2h.16l.16-.48h.16v-.32h.16v-.16l-.16-.16h-.32v.16h-.16v.32h-.16V80h-.16l-.16.32h-.16v.16a.14.14 0 0 0-.16.16v.32h-.16v.32zm1.76-.64l.32-.48.32-.32.64-1.28v-.32h.16v-.32h.16a.65.65 0 0 0 .16-.48.14.14 0 0 0 .16-.16l.16-.16v-.16l.16-.16v-.16a.14.14 0 0 0 .16-.16v-.16l.16-.16c0-.1 0-.16.08-.16s.08-.05.08-.16a.14.14 0 0 1 .16-.16v-.16l.16-.16V75h.16v-.16a.14.14 0 0 1 .16-.16v-.32h.16l.16-.32h.16v-.16l.16-.16v-.16a.46.46 0 0 0 .16-.32c0-.1 0-.16.08-.16s.08-.05.08-.16l.16-.16v-.16l.16-.16v-.32h.16V72c0-.1 0-.16.08-.16s.08-.05.08-.16v-.16h.16v-.32a.14.14 0 0 0 .18-.2v-.16h.16v-.32h.16v-.32h.16v-.16h-.32v.16H168v.16h-.16v.32h-.16V71h-.32v.32h-.16v.16h-.2V72h-.16v.16h-.16v.32h-.16v.32h-.16v.32h-.16v.32a.46.46 0 0 0-.16.32.14.14 0 0 1-.16.16v.16a.46.46 0 0 0-.32.16v.16l-.16.16v.16h-.16V75l-.16.16v.16h-.16v.48h-.16v.2h-.16v.32h-.16v.32h-.16v.32h-.16v.16l-.16.16v.32h-.16v.16l-.16.16v.16h-.16v.32h-.16v.32l-.16.16v.32H163v.16l-.16.16v.16a.14.14 0 0 1-.16.16l-.16.32h-.16v.16l-.16.16v.16h-.16a.65.65 0 0 1-.16.48v.16h-.16v.16h-.16v.32l-.32.48v.32h-.16v.32c-.21.21-.32.37-.32.48a.14.14 0 0 0-.16.16.92.92 0 0 0 .64-.16v-.16l.64-1v-.3l.32-.32v-.32h.16zm-.32-2.71l.16-.16v-.16l.16-.16a.14.14 0 0 1 .16-.16v-.16h.14v-.16a.65.65 0 0 0 .16-.48h.16v-.32h.16V76h.16v-.16a.14.14 0 0 0 .16-.16v-.16h.2v-.32l.16-.16v-.32h.16v-.32H164v.16h-.32v.16h-.16v.48h-.16v.32h-.16v.16h-.2V76h-.16v.32h-.16v.32h-.16v.32h-.16v.16l-.16.16v.16l-.16.16v.32zm1.76 3a.14.14 0 0 0-.16-.16h-.16a.14.14 0 0 1-.16.16v.16h-.16v.16a.14.14 0 0 0-.16.16v.32h-.16v.16H163v.32h-.16v.48h-.16v.16h.64v-.32h.16v-.32h.16v-.33h.16v-.48h.2v-.32h.16zm4.47-8.14h-.32V73h-.16v.16H168v.16h-.16v.16h-.16v.32h-.16v.32h-.16l-.16.32h-.2v.32h-.16V75h-.16v.48h-.16v.16l-.16.16v.2h-.16v.32a.14.14 0 0 0-.16.16v.16h-.16v.48h-.16v.48h-.16v.16h-.16v.32h-.16v.16c0 .11 0 .16-.08.16s-.08.06-.08.16v.16h-.16v.16l-.16.32v.16l-.32.32v.16l-.16.16-.16.32h.32v-.16h.16c.1 0 .16 0 .16-.08s.05-.08.16-.08v-.32c.21-.21.32-.37.32-.48l.16-.16v-.34h.16c0-.1 0-.16.08-.16s.08-.05.08-.16 0-.16.08-.16.08-.05.08-.16a2.8 2.8 0 0 0 .32-.8v-.16h.16v-.16a.46.46 0 0 0 .16-.32h.16v-.32h.16V76a.14.14 0 0 0 .16-.16l.16-.16v-.16l.16-.16V75h.16v-.16a.14.14 0 0 1 .16-.16v-.32l.16-.16.16-.32h.16v-.16a.14.14 0 0 1 .16-.16v-.16l.16-.16V73h.16zm-3.83.48l-.16-.16v.16zm0 .16h.32v-.16h.16V73h.16v-.48h-.16v-.16h-.32v.32h-.16zm18.21 7v-.15h.16l.16-.32h.16v-.16h.16v-.48h.16V79h.16v-.16h-.16l-.16-.16v.16h-.16l-.16.16v.16h-.16v.32H183v.16h-.16V80h-.16l-.16.32h-.16v.16zm1.76-.32l.32-.32.16-.32a3.43 3.43 0 0 0 .64-1.12v-.16a.14.14 0 0 1 .16-.16v-.16h.16a.32.32 0 0 1 .08-.24.32.32 0 0 0 .08-.24v-.16h.16v-.16a.14.14 0 0 1 .16-.16v-.16l.16-.16a.14.14 0 0 1 .16-.16V76h.16v-.16a.14.14 0 0 0 .16-.16v-.32h.16V75a.14.14 0 0 0 .16-.16v-.32h.16l.16-.48h.16v-.32l.16-.16v-.32a.14.14 0 0 1 .16-.16v-.8h.16v-.8c.1 0 .1-.05 0-.16h.16v-.12h-.16V71h.16v-.16h-.32v.32a.14.14 0 0 1-.16.16v.48h-.16v.32h-.16v.48a.14.14 0 0 1-.16.16v.48h-.16v.48h-.16l-.16.64h-.16v.32H187V75a.14.14 0 0 0-.16.16v.32h-.16v.32h-.16v.32h-.16v.32h-.16v.32h-.2v.32h-.16v.32h-.16v.16h-.16v.48h-.16v.16a.14.14 0 0 0-.16.16v.32h-.2V79h-.16v.32h-.16v.32h-.16v.16l-.16.16-.32.16a.46.46 0 0 1-.16.32v.16h-.16v.32h-.16v.16c0 .11 0 .16-.08.16s-.08.05-.08.16l-.16.16v.16l-.16.16-.32.32v.32h-.16v.16l-.16.16V83c-.11.11-.11.16 0 .16v.16h.16a.14.14 0 0 1 .16-.16c0-.1.11-.26.32-.48v-.16l.16-.16.16-.16.48-.64a145.93 145.93 0 0 0 .32-.64v-.16h.16v-.16zm-.48-2.4l.16-.16a.14.14 0 0 1 .16-.16v-.32h.16l.16-.16a.46.46 0 0 1 .16-.32v-.32h.16v-.16h.16v-.32h.16v-.16a.14.14 0 0 1 .16-.16v-.32h.16v-.32l-.16-.16h-.16v.16h-.16V75h-.16v.16H185v.32a.14.14 0 0 0-.16.16v.16h-.16l.16.16h-.16v.16h-.16v.16l-.16.16h.16v.16h-.16v.16l-.16.16v.16a.14.14 0 0 0-.16.16l-.16.16v.32zm1.28 4.15v-.32h.16v-.16h.16v-.3h.13v-.32h.16v-.16H186v-.16h-.32v.16h-.16v.16a.14.14 0 0 0-.16.16v.16h-.16v.32h-.2v.16h-.16v.48h-.16v.16h.64v-.32zm.48-8a.14.14 0 0 1 .16.16h.16l.16-.16v-.32h.16v-.32h-.32v-.16H186zm2.4 1v.48h-.16v.48h-.16v.32h-.16v.32h-.16v.32h-.16v.32h-.16v.48h-.16v.48h-.16v.16H187v.32h-.16v.16c0 .11 0 .16-.08.16s-.08.05-.08.16v.16a.46.46 0 0 0-.16.32h-.16v.32c-.11.11-.11.16 0 .16l-.16.16h.16l.48-.48v-.18l.32-.32V79l.16-.16v-.14h.16a.46.46 0 0 1 .16-.32v-.16l.16-.16a.69.69 0 0 1 .08-.32.72.72 0 0 0 .08-.32v-.16h.16v-.16l.16-.16v-.32h.16v-.16l.16-.16V76h.16v-.32h.16v-.48h.08v-.48h.16v-.48a.46.46 0 0 0 .32-.16v-.48h.16v-.32h-.32v.16a.14.14 0 0 0-.16.16v.16H189v.16h-.16l-.16.48h-.16v.48z"/><path class="cls-1" d="M221.94 72.8a13.44 13.44 0 0 1 .16 2.4v1a5 5 0 0 1-.16 1.2 41.17 41.17 0 0 1-2.88 9.6l-1.12 2.24-.64 1.12-.64 1.28-1.6 2.24a16.59 16.59 0 0 1-1.75 2.12 28.49 28.49 0 0 1-3.83 3.75 23.8 23.8 0 0 1-4.31 2.79 24.44 24.44 0 0 1-4.39 2 25.78 25.78 0 0 1-4.23 1 13.77 13.77 0 0 1-7.35-1 4.8 4.8 0 0 1-.56-.32 5.62 5.62 0 0 0-.56-.32 3.54 3.54 0 0 0-.48 1q-.32.8-1.28.48a4.36 4.36 0 0 1-1.92-1.52 10.36 10.36 0 0 1-1.6-3 5.45 5.45 0 0 1 0-3.67 23.73 23.73 0 0 1 1.52-3.51l2.48-5q1.28-2.55 2.48-4.79t1.72-3.11l16.77-35 2.56-5.11q.32-.8 2.08-.8a7.11 7.11 0 0 1 3.19.8 4.72 4.72 0 0 1 2.56 2.08 3.11 3.11 0 0 1 .16 3.19l-11.5 21.72A9 9 0 0 0 208 67a6.54 6.54 0 0 1 1.36-.72 8.9 8.9 0 0 1 3.47-1.28 8.07 8.07 0 0 1 3.17 0 9.67 9.67 0 0 1 2.4 1.12l1.28 1.12a3.88 3.88 0 0 1 .56.72c.16.27.34.56.56.88a11 11 0 0 1 .8 1.92 9 9 0 0 1 .34 2.04zm-37.53 27v.32h-.16v.48h.48v-.16h.16v-.64zm.8-.8l.16-.16v-.32h.32V98h.16v-.16h-.64v.32H185v.16h-.16v.32a.14.14 0 0 0-.16.16v.2h-.16v.16h.64zm1.76.32V99h.16v-.32h.16v-.32h.16V98a.14.14 0 0 0 .16-.16v-.32h.16v-.48h.16v-.32h-.32v.16h-.16v.16h-.16v.16h-.16v.48H187V98h-.16v.32h-.16v.32h-.16V99h-.16v.32h-.16v.32h-.2v.48h-.16v.32h-.16v.32h-.16v.48h-.16v.32l-.16.16v.48h.16a.14.14 0 0 0 .16-.16l.16-.16v-.16c0-.1 0-.16.08-.16s.08-.05.08-.16l.16-.16v-.32a.14.14 0 0 0 .16-.16l.16-.16v-.16a.33.33 0 0 1 .08-.24.32.32 0 0 0 .08-.24v-.16h.16v-.32h.16v-.18zm-1.28-2.08v.32h.16l.16.16v-.16h.16v-.16l-.16-.16zm1.76 4l-.16-.16h-.16l-.16.16v.32h-.16v.32h.64zm1.12-3v.16h-.32v.32h-.16V99h-.16v.32h-.16v.32l-.16.16v.32h-.16v.48h-.16v.32h.16v.16h.16v-.32h.16v-.16h.16v-.32h.16v-.32h.16v-.32h.16v-.34h.16V99h.16v-.48h.16v-.32zm15.49-3.35q.8-.8 1.6-1.52a8.89 8.89 0 0 0 1.44-1.68l1.44-1.6.64-1a3.72 3.72 0 0 1 .64-1 14.72 14.72 0 0 0 1.12-2q.48-1 1-2a34.78 34.78 0 0 0 2.24-6.71 14.07 14.07 0 0 0 .32-3.91 2.83 2.83 0 0 0-.72-1.84c-.37-.32-.61-.53-.72-.64q-2.24-1.12-5.43 1.6a50.83 50.83 0 0 0-6.29 6.41 3.67 3.67 0 0 0-.48.56 1.22 1.22 0 0 1-.48.4l-10.06 19.5c0 .21.1.21.32 0a14.22 14.22 0 0 0 5.51-.48 17.24 17.24 0 0 0 4.71-1.92l.32-.16q.8-.48 1.52-1a8.87 8.87 0 0 0 1.35-1.07zm-4.47-22.2a1.22 1.22 0 0 0-.16.48h.16v.16l.16-.16a.32.32 0 0 1 .08-.24.33.33 0 0 0 .08-.24l.64-1.12v-.16a.46.46 0 0 0 .16-.32l.16-.16v-.16l1-1.76a.65.65 0 0 0 .16-.48h.16a.92.92 0 0 1 .32-.64v-.32h.16v-.32l.16-.16 1-1.92.32-.48 1.12-2.4.16-.16v-.32h.16v-.16l.16-.16v-.19l.16-.16.48-1V60h.16v-.3a.14.14 0 0 0 .16-.16l.16-.16v-.16l.16-.16v-.16a.14.14 0 0 0 .16-.16v-.16l.16-.16a.46.46 0 0 1 .16-.32 2.77 2.77 0 0 0 .32-.8.14.14 0 0 0 .16-.16 145.93 145.93 0 0 1 .32-.64 147.58 147.58 0 0 0 .32-.32v-.32a.47.47 0 0 0 .16-.32h.16v-.32l.16-.16v-.16a.14.14 0 0 0 .16-.16v-.16h.16v-.32l.16-.16c0-.1 0-.16.08-.16s.08-.05.08-.16a.46.46 0 0 1 .16-.32v-.16l.32-.48a.33.33 0 0 1 .08-.24.32.32 0 0 0 .08-.24.46.46 0 0 0 .16-.32h.16v-.32l.16-.16v-.14h.16v-.32l.16-.16v-.16l.16-.16a.92.92 0 0 1 .32-.64v-.16l.16-.16v-.16l.16-.16v-.16l.32-.48v-.16h.16V48h.16v-.32h.16v-.16l.16-.16v-.32h-.16v.16h-.16v.16h-.16v.16a.14.14 0 0 1-.16.16v.16a.14.14 0 0 1-.31.16v.16h-.16v.32a.14.14 0 0 0-.16.16v.16h-.16v.2h-.16v.16l-.16.16v.32h-.16v.16h-.16v.2l-.16.16v.32h-.16v.32a.14.14 0 0 0-.16.16v.16h-.16v.16l-.16.16v.16l-.16.16V52h-.16v.16l-.16.16v.32l-.32.32v.32h-.16l-.32.64v.16l-.16.16v.32h-.16v.16l-.16.16v.16l-.16.16v.16a.46.46 0 0 0-.16.32l-.16.16V56l-.16.16v.16l-.16.16v.16h-.16V57h-.16v.32l-.16.16a.14.14 0 0 1-.16.16v.16c0 .11 0 .16-.08.16s-.08.06-.08.16v.16l-.16.16v.16h-.16v.32h-.16v.32h-.16v.32H206v.16l-.16.16V60l-.16.16v.16l-.16.16v.32h-.16v.2h-.16v.32l-.16.16v.16l-.16.16v.16a.14.14 0 0 1-.16.16v.16h-.16v.48h-.16v.32h-.16v.32a.14.14 0 0 0-.16.16v.16h-.16v.16l-.16.16v.32h-.16v.32h-.16V65h-.16v.32a.14.14 0 0 0-.16.16v.16h-.16v.32h-.16v.16l-.16.16-.32.8a.14.14 0 0 0-.16.16v.16l-.16.16v.16h-.16v.16a.14.14 0 0 1-.16.16v.32l-.48.8v.32l-.16.16v.16h-.16v.32a.14.14 0 0 0-.16.16l-.48.8c0 .21-.05.32-.16.32v.32a.14.14 0 0 0-.16.16.46.46 0 0 1-.16.32.65.65 0 0 0-.18.43zm1.12-4.79v-.16h.29v-.16l.16-.16V67h.16v-.32h.16v-.32h.16v-.32h.16v-.48h.2v-.32h.16v-.16h.16v-.48h.16v-.48l-.16-.16v.16h-.16v.16H202v.16l-.16.16v.4h-.16a.14.14 0 0 1-.16.16v.16l-.16.32v.32h-.16v.16h-.2v.32h-.16v.32h-.16V67a.14.14 0 0 0-.16.16v.32h-.16v.32zm4.15-1.92a.14.14 0 0 0-.16-.16v.16h-.16v.16h-.16v.16l-.16.16v.16h-.16v.16a.14.14 0 0 1-.16.16V67l-.16.32v.16h-.16v.16a.14.14 0 0 1-.16.16v.2l-.16.16v.32h-.16v.32h-.16v.48h-.16v.32h.32v-.16h.32v-.32h.16v-.32a.14.14 0 0 0 .16-.16v-.32h.16v-.16h.16v-.32h.16v-.48h.16V67h.16v-.32h.16v-.32h.16zm-1.6-4.31v.32h.16v-.16c.1 0 .16 0 .16-.08s.05-.08.16-.08v-.37a.28.28 0 0 0 .32-.32l.16-.16v-.32h.16a.46.46 0 0 1 .16-.32l.16-.16v-.16l.32-.64v-.16h.16v-.32h.16v-.16h.16v-.32h.16v-.32h.16v-.16l.16-.16v-.16h.16v-.32h.16v-.32l.16-.16v-.16l.16-.16v-.16l.16-.16v-.16h.16v-.48h-.32v.16h-.16v.16h-.16v.16h-.16v.32H206v.32h-.16v.32h-.16V57a.14.14 0 0 1-.16.16v.16l-.16.16v.16l-.16.16v.16l-.16.16v.16h-.16v.32h-.16v.32h-.16v.16h-.16l.16.16h-.16v.32h-.16v.32h-.16v.32l-.16.16v.16h-.16v.16l-.16.16v.32a.14.14 0 0 0-.16.16l-.16.16zm8.94-10.06h-.2v.16h-.32V52h-.16v.16a.14.14 0 0 1-.16.16v.16h-.16v.16h-.16v.16h-.16v.32a.14.14 0 0 0-.16.16v.16h-.16v.32h-.16v.32a.14.14 0 0 0-.16.16v.16a.14.14 0 0 0-.16.16v.16l-.16.32v.16h-.16v.32h-.16v.16l-.16.16v.32h-.16v.16l-.16.16v.32H209v.2l-.16.16v.16l-.16.16v.16h-.16v.32a.14.14 0 0 0-.16.16v.16h-.16v.32h-.2v.48h-.16v.16h-.16v.48h-.16V60h-.16v.32h-.16v.32h-.16V61h-.16v.32a.14.14 0 0 0-.16.16c0 .11 0 .16-.08.16s-.08.05-.08.16l-.16.16v.16l-.16.16v.16a.65.65 0 0 0-.16.48H206v.32a.14.14 0 0 0-.16.16l-.32.48V64h-.16v.32l-.16.16V65h.16l.16-.16.32-.64h.16v-.32l.16-.16.48-.8v-.16l.16-.16.16-.32v-.32h.16l.32-.48a.32.32 0 0 1 .08-.24.33.33 0 0 0 .08-.24l.8-1.6v-.16a.14.14 0 0 1 .16-.16v-.18h.16a.65.65 0 0 1 .16-.48v-.16a.14.14 0 0 0 .16-.16v-.16h.16v-.32h.16v-.16a.14.14 0 0 1 .16-.16.32.32 0 0 1 .08-.24.33.33 0 0 0 .08-.24l.16-.16v-.16h.16v-.32l.16-.16v-.16a.14.14 0 0 1 .16-.16v-.16l.16-.16v-.16l.16-.16v-.16l.16-.16v-.16a.46.46 0 0 0 .16-.32l.16-.16v-.32h.16v-.32h.16a.65.65 0 0 1 .16-.48v-.16h.16v-.16l.16-.16v-.32h.08v-.32l.16-.16zm-2.4 43.28l.16-.16v-.16l.16-.16h.16v-.16a1.29 1.29 0 0 0 .24-.32.86.86 0 0 1 .4-.32l.48-.8.32-.32 1.28-1.97v-.16a.14.14 0 0 0 .16-.16V90h.16v-.16l.16-.16.16-.16.32-.64.16-.16v-.12a.14.14 0 0 0 .16-.16v-.16h.16v-.16l.16-.16v-.16h.16v-.32h.16v-.16a.46.46 0 0 0 .16-.32.92.92 0 0 0 .32-.64l.16-.16c0-.1 0-.16.08-.16s.08-.05.08-.16v-.16l.16-.16a.14.14 0 0 1 .16-.16v-.32l.16-.16v-.32h.16v-.32h.16v-.48h.16v-.32l.16-.32.16-.32a.32.32 0 0 1 .08-.24.33.33 0 0 0 .08-.24.65.65 0 0 1 .16-.48v-.32a.14.14 0 0 0 .16-.16v-.3h.16v-.64l.16-.16v-.64h.16V79a.33.33 0 0 1 .08-.24.32.32 0 0 0 .08-.24v-1.09h.16v-.32h-.16v-.16l-.16.16v.32l-.16.16v.64l-.16.16v.48a.14.14 0 0 0-.16.16v.48h-.16v.32l-.16.16v.48a.14.14 0 0 1-.16.16v.48h-.16v.64a.14.14 0 0 0-.16.16v.48h-.16v.32h-.16v.16a.71.71 0 0 1-.08.32.7.7 0 0 0-.08.32l-.16.16V84h-.16v.32h-.16v.32l-.16.16v.32h-.16v.32h-.16v.32h-.16V86h-.16v.32h-.16v.16l-.16.16V87h-.16v.16h-.16v.32a.14.14 0 0 0-.16.16v.16H214v.32h-.16v.16l-.16.16v.16h-.16v.32h-.16v.16l-.32.32v.16a.46.46 0 0 0-.16.32.14.14 0 0 0-.16.16.14.14 0 0 1-.16.16v.16h-.16v.16l-.16.16v.16L212 91v.16h-.16v.32h-.16v.16h-.16v.16l-.16.16v.16h-.16v.16h-.16v.32h-.16v.16h-.16v.16h-.16v.32h-.16v.16h-.16l-.16.16q0 .16-.32.48v.16h-.16v.16h-.16v.16h-.16v.16h-.16v.16H209V95a1.26 1.26 0 0 0-.24.32.86.86 0 0 1-.4.32v.16l-.16.16h-.2v.16h-.16v.16h-.16l-.8.8h-.16v.16a.14.14 0 0 0-.16.16c-.11 0-.16 0-.16.08s-.05.08-.16.08l-.32.32a.14.14 0 0 0-.16.16.14.14 0 0 1-.16.16l.16.16.16-.16c.1 0 .16 0 .16-.08s.05-.08.16-.08a3.74 3.74 0 0 1 1-.64v-.16a.46.46 0 0 0 .32-.16.14.14 0 0 1 .16-.16l.16-.16.56-.56.56-.56.32-.32zm-2.24-41.2v.16h.32v-.16h.12v-.16l.16-.16V53h.16v-.16a.14.14 0 0 1 .16-.16v-.32l.16-.16V52H208v.48h-.16v.16h-.16l.16.16h-.16v.32h-.16v.32l-.16.16zm2.71 38l-.16-.16v.16h-.32v.16l-.16.16v.16h-.16v.16h-.16a.46.46 0 0 0-.16.32v.16H209v.16h-.16a.14.14 0 0 1-.16.16v.16h-.16v.16h-.16v.16h-.16v.32h-.2V94h-.16v.32h.32v-.16h.48v-.32h.16v-.16h.2v-.16h.16v-.12l.16-.16v-.16h.16v-.16h.16v-.32h.16v-.16h.2v-.16l.16-.16.16-.16zm2.08 2.08H212a1810980.23 1810980.23 0 0 0-.32.32v.16h-.16l-.16.16v.16h-.16l-.16.32-.16.16v.16h-.16a.14.14 0 0 1-.16.16v.16h-.16v.16h-.16v.16h-.16v.32H210v.16h-.16v.32h.48l.16-.16.16-.16v-.16h.16V96h.16v-.16a.14.14 0 0 0 .16-.16l.16-.16v-.16h.16v-.16h.16v-.32h.16v-.16h.16v-.16h.08v-.32h.16V94h.16zm1.92-9.1l-.32.32h-.16v.16h-.16v.32h-.16v.32h-.16V86h-.16v.32H213v.32h-.16v.16h-.16v.32h-.16v.32h-.16v.32h-.16v.32h-.2v.16h-.16v.16l-.16.16v.16h-.16v.32h-.16v.16l-.16.16h-.16v.48h.32a.14.14 0 0 1 .16-.16v-.16h.16a.46.46 0 0 1 .16-.32.14.14 0 0 0 .16-.16v-.16l.16-.16.16-.16.16-.16.32-.64v-.16h.2v-.32h.16v-.16h.16V87l.16-.16v-.16h.16v-.32h.16V86h.2v-.32h.16v-.32l.16-.16v-.16h.16v-.48zm4.47-3.67v.16h-.16v.32h-.16v.48h-.16v.16h-.16v.32h-.16v.48h-.16v.32a.14.14 0 0 0-.16.16v.48h-.16v.32a.14.14 0 0 0-.16.16v.32h-.16V85a.14.14 0 0 0-.16.16v.16l-.16.16v.32h-.16v.2h-.16v.32h-.16v.32h-.16V87H216v.32h-.16v.16l-.16.16V88h-.16v.16a.14.14 0 0 0-.16.16v.32h-.16v.32h-.16v.32h-.16v.32h-.16v.16h-.16V90l-.32.32a.14.14 0 0 1-.16.16v.16H214v.16a.46.46 0 0 1-.16.32v.16h-.16v.32h-.16l-.32.32v.16h-.2v.16a.14.14 0 0 1-.16.16v.32c-.11 0-.16 0-.16.08s.05.08.16.08v.16a.14.14 0 0 0 .16-.16l.16-.16c0-.1.11-.26.32-.48a.14.14 0 0 0 .16-.16l.16-.16.48-.64.16-.16V91l.16-.16v-.32h.16l.32-.48a.46.46 0 0 1 .16-.32l.16-.32a3.45 3.45 0 0 0 .64-1.12v-.16l.16-.16v-.16h.16a.65.65 0 0 1 .16-.48.14.14 0 0 1 .16-.16V87l.16-.16v-.16h.16v-.32a.46.46 0 0 0 .16-.32l.16-.16v-.32h.16v-.16a.14.14 0 0 1 .16-.16v-.32h.16v-.48a.14.14 0 0 0 .16-.16v-.16l.16-.16v-.32a.14.14 0 0 0 .16-.16v-.32h.16v-.32a.46.46 0 0 1 .16-.32v-.48a.14.14 0 0 0 .16-.16v-.32h.16v-.64zm-3.83 2.24v.16h.16v-.16h.16V83l.16-.16v-.32h.16v-.8h-.48v.48h-.16v.64h-.16v.32zm38.65 5.84q2.71-3 4.23-2.16t-1.2 5a24.39 24.39 0 0 1-4 4.87 31.48 31.48 0 0 1-5.75 4.39 36.81 36.81 0 0 1-6.87 3.19 22.2 22.2 0 0 1-7.35 1.28 14.26 14.26 0 0 1-5-.88 9.81 9.81 0 0 1-4.07-2.79 12.84 12.84 0 0 1-2.55-4.87 16.37 16.37 0 0 1-.24-7.11 22.65 22.65 0 0 1 2.47-7.67 32.81 32.81 0 0 1 5.11-7.19 37.55 37.55 0 0 1 7-5.91 30.72 30.72 0 0 1 8.38-3.83q7-1.92 11.26.88t2.63 9A16.45 16.45 0 0 1 256 79.5a15.66 15.66 0 0 1-4.15 4.79 23.65 23.65 0 0 1-7.32 3.71 31.17 31.17 0 0 1-11.26 1.2 4.55 4.55 0 0 1-2.87-1.12q-2.72 5.75-.64 9.1t7.19 2.4a22.16 22.16 0 0 0 8.22-3.58 54.79 54.79 0 0 0 8.39-6.92zm-25.07-7.51h.16v-.16a1.73 1.73 0 0 0 .64-.8 1.3 1.3 0 0 0 .24-.32.86.86 0 0 1 .4-.32l.32-.32 1.44-1.92h.16v-.16l.16-.16a.14.14 0 0 0 .16-.16h.16v-.16h.16v-.16h.16l.48-.64a.14.14 0 0 0 .16-.16h.16l.16-.16.16-.16.32-.32h.16v-.16a.14.14 0 0 0 .16-.16h.16V75a.46.46 0 0 0 .32-.16l.48-.48h.16l.16-.16.16-.16a.14.14 0 0 0 .16-.16h.16v-.16h.16v-.16h.16l.16-.16.16-.16h.16v-.16h.16V73h.32v-.2h.16v-.16h.16l.16-.16h.16c0-.1 0-.16.08-.16s.08-.05.08-.16a.46.46 0 0 0 .32-.16h.16l.32-.32c.1 0 .26-.1.48-.32l.16-.16h.16V71h.15a.14.14 0 0 0 .16-.16h.32a.14.14 0 0 1 .16-.16.14.14 0 0 0 .16-.16h.16c.21-.21.37-.32.48-.32a.14.14 0 0 0 .16-.16h.32v-.16h.16l.16-.16a.46.46 0 0 0 .32-.16h.32v-.16h.32v-.16h.32v-.16h.32L244 69v-.2h-.48v.2h-.32l-.16.16h-.32v.16h-.32v.16h-.64v.16h-.32a.14.14 0 0 1-.16.16h-.16l-.16.16h-.16v.16h-.32v.16h-.32v.16H240a.14.14 0 0 0-.16.16h-.16l-.16.16a.14.14 0 0 0-.16.16h-.16V71h-.32v.16h-.16v.16h-.32v.16h-.16l-.16.16-.48.32-.16.16h-.16v.16h-.16l-.16.16h-.16v.16h-.16l-.16.16V73a.47.47 0 0 0-.32.16H236v.16h-.16v.16h-.16v.16h-.16a.14.14 0 0 1-.16.16.14.14 0 0 0-.16.16h-.2v.16h-.16v.16h-.16l-.16.16h-.16v.16h-.16v.16a.14.14 0 0 0-.16.16h-.16V75h-.16v.16h-.16v.16h-.16v.16h-.16v.16h-.16l-.16.16-.16.16a.14.14 0 0 0-.16.16h-.16v.16l-.16.16h-.16v.16H232v.16l-.32.32h-.16v.16l-.48.48v.16h-.16v.16h-.16v.16h-.16v.16l-.16.16v.16h-.16v.16h-.16V79h-.16v.16l-.16.16a.14.14 0 0 0-.16.16v.16h-.16v.16h-.16v.2l-.16.16-.16.16v.16h-.16v.16a.14.14 0 0 0-.16.16l-.48.48v.16H228v.16l-.16.16a.14.14 0 0 1-.16.16v.16a.14.14 0 0 0-.16.16v.16h-.16c0 .21-.05.35-.16.4s-.16.19-.16.4h-.16v.16l-.16.16v.16a.14.14 0 0 1-.16.16V84l-.48.8a.46.46 0 0 0-.16.32v.16h-.16v.32c-.11 0-.16.11-.16.32a.65.65 0 0 0-.16.48v.48h.16v-.16a.65.65 0 0 0 .16-.48l.32-.48c0-.1.1-.26.32-.48v-.16a.46.46 0 0 1 .16-.32v-.16a.14.14 0 0 0 .16-.16 2.14 2.14 0 0 0 .48-.72 2.11 2.11 0 0 1 .48-.72c0-.1 0-.16.08-.16s.08-.05.08-.16v-.16c.21-.21.32-.37.32-.48a.14.14 0 0 0 .16-.16l.16-.16zm-1.92.32v-.16h.32v-.16h.11v-.32h.16v-.15a.14.14 0 0 0 .16-.16v-.16h.16v-.16h.16v-.16a.14.14 0 0 0 .16-.16v-.16h.2V80l.16-.16v-.16h.16v-.18h.16v-.32h.16V79h.16v-.3l-.16-.16v.16h-.16a73.84 73.84 0 0 0-.32.32H228v.16a.14.14 0 0 0-.16.16l-.16.16c0 .11 0 .16-.08.16s-.08.06-.08.16V80h-.16v.16h-.16v.16h-.2v.16h-.16v.32h-.16v.16a.14.14 0 0 0-.16.16v.16a.14.14 0 0 0-.16.16v.16h-.16v.32zm2.55 1.76v-.16h.16v-.32h.16v-.32h.16v-.15h.16v-.16h.16v-.32h.16v-.32h.16v-.16h.16v-.16l.16-.16v-.16h.16v-.16h.16v-.16a.14.14 0 0 1-.16-.16h-.16v.16h-.32v.16h-.16v.32h-.16a.14.14 0 0 1-.16.16.46.46 0 0 1-.16.32v.16h-.16v.16h-.16v.16h-.16v.16H229v.32h-.16v.32h-.16v.32h-.16v.32h.32v-.16zm17.09 15h-.48v.16h-.16l-.16.16h-.16v.16h-.48v.16h-.32v.16h-.32v.16H244a.14.14 0 0 0-.16.16h-.32v.16h-.16l-.16.16h-.32v.16h-.32v.16h-.16l-.32.32h-.48v.16h-.32l-.16.16h-.32a.14.14 0 0 1-.16.16h-.32v.16h-.48v.16h-.48v.16h-.64v.16h-.48a.14.14 0 0 0-.16.16h-.64l-.16.16h-.64l-.16.16h-.32a.14.14 0 0 0-.16.16l-.16-.16h-.16l-.16.16h-4a.66.66 0 0 0-.48-.16h-.32v-.16h-1.12v.16h.16v.16h.32a.73.73 0 0 1 .32.08 1.08 1.08 0 0 0 .48.08.14.14 0 0 0 .16.16h.32a1.8 1.8 0 0 1 .56.08 1.7 1.7 0 0 0 .56.08h2.88l1.6-.32h.32v-.16l.16.16v-.16h.32a.92.92 0 0 0 .64-.16h.6v-.16h.64l.16-.16a.65.65 0 0 0 .48-.16h.32l.16-.16h.32v-.16h.32v-.16h.32a.14.14 0 0 0 .16-.16h.32v-.16h.32l.16-.16h.16l.16-.16a.46.46 0 0 0 .32-.16h.16v-.16h.32v-.16h.2l.16-.16h.16l.48-.32a.14.14 0 0 0 .16-.16h.16v-.16h.32v-.15h.16a.14.14 0 0 0 .16-.16h.16V99h.16l.16-.16zm-16.29-21.86h.16v.16h.16v-.16l.32-.16v-.16h.16l.32-.16v-.16a.14.14 0 0 0 .16-.16h.16v-.16a36.92 36.92 0 0 1 .32-.32h.16l.48-.48v-.16h.16l.16-.16.16-.16h.2v-.16h.16v-.16h.16l.16-.16h.16v-.16h.16v-.16h.16v-.16h.16v-.16h.16v-.16h.16a.14.14 0 0 1 .16-.16.14.14 0 0 0 .16-.16h.16v-.15h.08v-.16h.16v-.16h.16v-.16h-.48v.16h-.48v.16h-.16v.16h-.16l-.16.16h-.16v.16a.14.14 0 0 0-.16.16h-.16v.16h-.16v.16h-.16v.16H233v.16h-.32v.16h-.16v.16h-.16v.16h-.16v.16h-.2v.16h-.16v.16h-.16V75h-.16v.16h-.16v.16h-.16v.16h-.2a.14.14 0 0 0-.16.16v.16h-.16l-.16.16v.16h-.16l-.16.16v.16h-.16a.14.14 0 0 1-.16.16zm3 1.92v-.16h.16l.16-.16v-.16h.16v-.16h.16l.32-.32 1.44-1.44v-.16h.16V76h.16l.32-.32h.16v-.16h.32v-.16h.16v-.16h.16l.16-.16.16-.16a.14.14 0 0 1 .16-.16h.16v-.16h.16v-.16h.16l.16-.16h.16v-.16h.16v-.16h.16l.16-.16a.14.14 0 0 0 .16-.16.46.46 0 0 0 .32-.16l.16-.16h.16v-.16h.16l.16-.16h.16v-.16c.1 0 .16 0 .16-.08s.05-.08.16-.08l.16-.16h.16a.14.14 0 0 1 .16-.16h.16v-.16h.16V72h.32v-.16a.14.14 0 0 0-.16-.16l-.16.16h-.32V72h-.48l-.16.16h-.16l-.16.16h-.16v.16h-.16l-.16.16H239v.16h-.16a.14.14 0 0 0-.16.16h-.16v.16h-.16v.16h-.16l-.16.16h-.16v.16h-.16v.16h-.16l-.16.16h-.16v.16h-.16v.16h-.16v.16h-.16a.14.14 0 0 1-.16.16h-.16v.16h-.16v.16h-.16V75H236v.16h-.16l-.16.16h-.16v.16h-.16v.16h-.16v.16h-.2v.2h-.16v.16h-.16v.16h-.16v.16a.14.14 0 0 0-.16.16h-.16v.16h-.16v.16h-.16v.16h-.16v.16h-.16v.16h-.16v.16c-.11 0-.16 0-.16.08s-.05.08-.16.08v.16H233v.16h-.16v.16h-.16a.46.46 0 0 1-.16.32h-.16v.16l-.16.16V79c-.11 0-.27.11-.48.32v.16h-.16a.14.14 0 0 1-.16.16c0 .11 0 .16-.08.16s-.08.05-.08.16v.16l.16.16v-.16a.14.14 0 0 0 .16-.16l.48-.32a.14.14 0 0 1 .16-.16v-.16h.16zm1.76 25.39v-.16h-.64l-.16.16h-.32v-.16h-1v.16h-.32v.32h.16v.16h1.6v-.16h.32v.16h.16v-.16h.52v-.32zm16.93-29.54a3.12 3.12 0 0 0-1.6-2 4.25 4.25 0 0 0-3.51.08 19.9 19.9 0 0 0-2 .8 9 9 0 0 0-2 1.28 14.53 14.53 0 0 0-1.88 1.28 4.51 4.51 0 0 1-1 .8 4.54 4.54 0 0 1-1 .8 25.24 25.24 0 0 0-2.16 2.08q-1.2 1.28-2 2.24l-2.08 2.71a9.47 9.47 0 0 1 3.51-.32 17.07 17.07 0 0 0 4.39-.8 29.53 29.53 0 0 0 5.43-2.16 18.93 18.93 0 0 0 4.47-3.11 3.7 3.7 0 0 0 1.46-3.69zm-18.68 27v.16h1.28v-.16h.8a.14.14 0 0 1 .16-.16v-.16H235v-.16h-2.2v.48zm11.82-.32h-.48v.16l-.16-.16v.16h-.64v.16h-.32v.16h-.32v.16h-.32v.12a.46.46 0 0 0-.32.16h-.32l-.16.16h-.32v.16h-.32l-.16.16h-.32l-.16.16h-.32a.14.14 0 0 0-.16.16h-.32a.14.14 0 0 1-.16.16h-.32v.16h-.48v.16h-.64l-.16.16h-.48a.46.46 0 0 0-.32.16h-1v.16h-.32l-.16.16v.16h1a.92.92 0 0 0 .64-.16h.64v-.16h.8l.16-.16a.63.63 0 0 0 .4-.08.63.63 0 0 1 .4-.08v-.16h.48l.32-.16h.48v-.16h.32l.16-.16h.32v-.16h.32l.16-.16h.32v-.16h.32l.16-.16h.16v-.16h.32V102h.16a.14.14 0 0 0 .16-.16h.32v-.16h.32v-.16h.16v-.16h.16zm-7.51-.16v-.16a.14.14 0 0 1 .16.16h.16l.16-.16h.32v-.16h.16v.16h.16v-.16h.8v-.16h.48v-.16h.36v-.16h.48v-.16l-.16-.16H240a.14.14 0 0 0-.16-.16v.16h-.48l-.16.16h-.48v.16h-.64v.16h-.48v.16h-.8v.16a.14.14 0 0 0-.16-.16h-.16v.16h-.16v.32zm-.8-30l.16.16v.16h.32v-.2h.16a.14.14 0 0 0 .16-.16v-.16h.32v-.16a.14.14 0 0 0 .16.16v-.16h.16v-.16h.16v-.16h.16v-.16h-.16v-.16h-.48v.16h-.16v.16h-.32v.16c-.11.11-.11.16 0 .16h-.32v.16h-.16V71zm4.79 28.59h.16v.16h.32v-.16h.32v-.16h.16v-.21h.16v-.16h-.16V99h-.48v.16h-.16v.16h-.16v.16a.14.14 0 0 0-.16-.16zm11-20l-.16.16H252V80a.14.14 0 0 0-.16.16l-.16.16v.16h-.16l-.16.16h-.16v.16a.14.14 0 0 0-.16.16h-.16v.16a.14.14 0 0 0-.16.16h-.16v.16h-.16v.16h-.16v.16H250v.16h-.16a.14.14 0 0 1-.16.16h-.16v.16h-.16v.16h-.16l-.16.16-.16.16h-.16v.16h-.32l-.16.16-.32.16a.14.14 0 0 0-.16.16h-.32v.16h-.16v.16a.65.65 0 0 0-.48.16h-.16V84h-.32v.16a.93.93 0 0 0-.64.16h-.32v.16h-.32l-.16.16a.14.14 0 0 0-.16.16h-.16v.16h.48a1.27 1.27 0 0 1 .8-.16.14.14 0 0 1 .16-.16h.16v-.16a1.41 1.41 0 0 0 .64-.16.65.65 0 0 0 .48-.16l.16-.16a.32.32 0 0 0 .24-.08.33.33 0 0 1 .24-.08v-.16h.32v-.16a.92.92 0 0 0 .64-.32.32.32 0 0 0 .24-.08.33.33 0 0 1 .24-.08l.16-.16 1.12-1 .16-.16v-.16h.2l.16-.16h.16c.21-.21.32-.37.32-.48h.16v-.16h.2v-.16h.16l.16-.16v-.14h.16a.14.14 0 0 1 .16-.16l.16-.16c0-.11 0-.16.08-.16s.08-.05.08-.16l.16-.16.16-.16.16-.16V79h.16a.14.14 0 0 1 .16-.16v-.14l.16-.16v-.16h.08v-.16h.16v-.16l.16-.16v-.16l.16-.16v-.16a.46.46 0 0 0 .16-.32.14.14 0 0 0 .16-.16v-.16h.2v-.48h.16v-.16a.46.46 0 0 0 .16-.32v-.32h.16V75c.1 0 .16 0 .16-.08s-.05-.08-.16-.08h.16v-.8h-.16v.16h-.16v.32c-.11.11-.11.16 0 .16h-.16v.48H255v.32h-.16v.16h-.16v.48h-.16v.16a.14.14 0 0 1-.16.16v.32h-.16v.16l-.16.16v.32h-.16v.16c-.11 0-.16.11-.16.32h-.16v.16a.14.14 0 0 0-.16.16l-.16.16v.16a.14.14 0 0 0-.16.16l-.16.16a73.84 73.84 0 0 1-.32.32v.16h-.16v.16h-.16zm-4.79 2.08v.16h-.32v.16H247v.16h-.32v.48h.64v-.16h.16v-.16h.32v-.16h.2v-.16h.16v-.17h.16v-.16h.32v-.32h-.48a.14.14 0 0 0-.16.16h-.16l-.16.16zm2.56 2.4l-.16-.16h-.48v.16h-.32v.16h-.16v.16h-.32v.16h-.32v.16h-.16v.16h-.32v.16h-.16v.16h.16v.16h.64v-.16h.16v-.16h.32v-.16h.16v-.16l.16.16v-.16a.14.14 0 0 0 .16-.16h.16a.14.14 0 0 1 .16-.16v-.16h.32zm1.44-5.91h-.16v.32h-.16v.16H251v.16h-.16V79h-.16v.16h-.16v.16h-.16v.16h-.16v.16h-.2v.16h-.32v.32h-.32v.16h-.16v.16l.16.16h.32v-.16h.32v-.14h.16v-.16h.16V80h.16l.16-.16v-.16h.16v-.18h.32v-.16h.16v-.16h.16V79h.16v-.16a.14.14 0 0 0 .16-.16v-.16h.24v-.16h.16v-.16h.16l-.16-.16h-.64zm4-.64h-.16v.32h-.16v.32H255v.32h-.16v.16l-.16.16V79h-.16v.16h-.16v.32h-.16v.16h-.2v.16h-.16v.2l-.16.16v.16h-.16v.16h-.16v.16h-.16v.16h-.16v.16h-.16v.32h-.16v.16h-.16v.16h-.16v.16h-.16v.16h-.16v.16c-.11 0-.16 0-.16.08s-.05.08-.16.08v.16h-.16l-.16.16-.16.16h-.16V83h-.32l-.16.16-.32.32v.16l.16.16a.14.14 0 0 1 .16-.16.46.46 0 0 1 .32-.16.14.14 0 0 0 .16-.16h.16c0-.21.16-.32.48-.32v-.16l.16-.16h.16v-.16h.16c0-.1 0-.16.08-.16s.08-.05.08-.16a.46.46 0 0 0 .32-.16v-.14h.16l.48-.48v-.32h.32a.46.46 0 0 1 .16-.32l.16-.16.16-.16v-.16h.16c0-.1 0-.16.08-.16s.08-.05.08-.16a.14.14 0 0 0 .16-.16h.16v-.32h.2v-.16h.16v-.16a.14.14 0 0 1 .16-.16v-.16l.16-.16v-.16h.16v-.32h.16v-.16a.14.14 0 0 1 .16-.16v-.32a.14.14 0 0 0 .16-.16v-.16h.16v-.48h-.16v.16H256v.16h-.16v.32h-.16zm-2.56-.32v-.16h.16l-.16-.16h.16v-.16h.16l-.16-.16h.16v-.16h-.64v.48h-.16v.32z"/><path class="cls-1" d="M307.85 53.47a3.34 3.34 0 0 1 2.47 1.6 4.27 4.27 0 0 1 .56 2.63 4 4 0 0 1-1.2 2.4 3.57 3.57 0 0 1-2.63 1l-3-.16q-2.8-.16-6.95-.24t-9.34-.24l-10.14-.32-8 15a.65.65 0 0 1-.16.48q-.32.8-1.52 3.11t-3 5.19l-.8 1.6q-1.92 3.51-3.51 6.55t-2.87 5.59q-.64 1.92.72 1.28a19.78 19.78 0 0 0 3.27-2.08 39.79 39.79 0 0 0 3.59-3l1.84-1.76A14.55 14.55 0 0 1 271 90q1.28-.4 1.76.16a1.89 1.89 0 0 1 .24 1.64 7.58 7.58 0 0 1-1 2.4q-.16.32-.4.72t-.72 1c-.32.43-.69.91-1.12 1.44a19.49 19.49 0 0 1-1.44 1.6l-1.76 1.92-.8.8v.16l-.32.16-1.76 1.44a12.59 12.59 0 0 1-4.15 2.08 1.83 1.83 0 0 1-1 .32h-1a5.68 5.68 0 0 1-2.24-.16l-.48-.16a.63.63 0 0 1-.4-.08.32.32 0 0 0-.24-.08l-1-.48a3.46 3.46 0 0 1-1.6-1.28 8.48 8.48 0 0 1-1.84-3 5.25 5.25 0 0 1 .08-3.91 21.52 21.52 0 0 1 1.52-3.43q1.2-2.31 2.48-4.87t2.48-4.79q1.2-2.23 1.68-3.19l9.8-20.41H266a3.11 3.11 0 0 1-2.63-1 3 3 0 0 1-.64-2.08 3.39 3.39 0 0 1 1-2.08 4.32 4.32 0 0 1 2.27-1.21h5q1.6-3.19 2.63-5.35t1.37-2.63l2.56-5.11q.48-.8 2.08-.8a8.7 8.7 0 0 1 3.19.8 5.68 5.68 0 0 1 2.56 2.08 3.39 3.39 0 0 1 0 3.19l-4.15 7.67h26.67zm-57 46.47v-.48l-.32-.32-.16.32zm-.16-.64h.16l-.16-.16zm.8 2.71l.16-.16.48-.16-.16-.16.16-.32H252l-.32-.32h-.16l.16-.16-.16-.32v-.16l-.48-.16-.32.32.32.32-.16.16.16.16v.16h.48l-.16.48.32.16h-.16zm1.76-1.76l-.16-.16.16-.16-.16-.32-.32-.32v-.16l-.16-.32.16-.16h-.32l.16-.48h-.48c.11-.1.11-.16 0-.16l-.16-.16.16-.16H252l-.32-.48-.32-.32v-.32l-.16-.16-.16.64.16.16v.48l.16-.32-.16.48h.16V98l.16.16.16.32.32.16v.16l.16.32-.16.16.32.16-.16.16h.48l-.16.48h.32l-.16.16.32.48h-.16l.48.32v.16l.16.32v.16l.16.16v.48l.16.16h.16c.11 0 .11.06 0 .16l.32.32a.2.2 0 0 0 0 .32l.64.64.16-.16-.16-.32v-.16l-.16-.16.16-.16c-.11 0-.16-.08-.16-.24s-.1-.24-.32-.24a.46.46 0 0 1-.16-.32l-.16-.32a.46.46 0 0 0-.16-.32v-.32l-.48-.48-.16-.32zm-.8 2.08v.16l-.16-.16-.16.32h.16v.48h.16l-.16.16.32.16.16-.16.32-.16-.16-.16.16-.32-.32-.16.16-.16zm.48-5.11l.16.16h-.16l.16.48.32.64h.16v.16l.32.16-.16.32.32.32h-.16l.48.48h-.16l.48.32h-.32l.32.48.16-.48.16.16.16-.16a.46.46 0 0 1-.16-.32v-.16l-.16-.16-.16-.16v-.16h-.32v-.16l-.16-.32.16-.16-.32-.16.16-.32-.48-.16.16-.16-.32-.48h.16l-.32-.16v-.16l-.32-.16zm2.24 3.19l-.16.64.16.16v.32l.32.16h.16l.32-.48h-.32l.16-.16-.64-.32zm14.69-34a.86.86 0 0 1 .32-.4.26.26 0 0 0 .16-.24c0-.32.1-.48.32-.48v-.48a2.55 2.55 0 0 0 .8-1.44v-.32h.16l.16-.32v-.16h.16a1.1 1.1 0 0 1 .08-.48.71.71 0 0 0 .08-.32h.16v-.16h.16V61h.16l.16-.48h.16a.14.14 0 0 1 .16-.16l.16-.16v-.32c.1 0 .16-.1.16-.32v-.16h.32l-.16-.16v-.16l.16-.48h.3v-.64h.16v-.16l.16-.16v-.48l.16-.32.16-.48h.16c0-.21.1-.26.32-.16v-.8l.32-.32v-.16h.16l.16-.64.16-.16v-.8l.16-.16V53h-.16l-.32.32v.16h-.16v.32h-.16v.32c-.11 0-.11.05 0 .16v.32h-.16l-.16.16h-.16l-.16.48h-.16v.32l-.16.16v.8l-.16-.16v.32h-.32l-.16.48v.48h-.32v1H273l-.16.48-.16-.16v.48l-.16.32h-.16v.8h-.32l-.16.48h-.16v.64a.14.14 0 0 0-.16.16h-.16v.48h-.16v.48H271l-.16.16h-.16v.48h-.16l-.16.8.16.32h-.32l-.2.44h-.16v.64l-.16-.16v.16a1.77 1.77 0 0 0-.16.8h-.16v.32H269l-.16.48v.16a.14.14 0 0 1-.16.16v.64h-.16l-.16.32q-.32 0-.48.48l.16.48h-.16v.48a.14.14 0 0 0-.16.16v.48h.32v-.32c0-.21.05-.34.16-.4s.16-.18.16-.4h.16l-.16-.48h.16a2.13 2.13 0 0 1 .4-.56 1.83 1.83 0 0 0 .4-.72v-.16l.16-.48.16-.16zm-1.6-.16h.16v-.64h.32v-.48h.16l.16-.64h.16l-.16-.32V64l-.32-.16V64h-.32v.16h-.16l.16.48-.16.16v.32h-.16v.48h-.32v1h.48zm1.44-4h.16c0-.21.05-.32.16-.32v-.32h.32v-.16l.32-.32a.65.65 0 0 1 .16-.48v-.32h.18V60l.16.16V60h.32l.16-.64h.16l-.16-.32.16-.48.32-.16v-.3h-.48v.32h-.32v.16h-.16l-.16.48-.16-.16v1h-.32v.1h-.16v.64l-.16-.16-.2.52h-.16v.32h-.16v.32l-.32.16v.32zm2.08 4a.14.14 0 0 1-.16-.16h-.16v.16h-.16v.32h-.16L271 67c-.11-.11-.16-.05-.16.16h-.32v1.28h-.32l-.16.16h.8l.16-.16h.16v-.64h.16v-.48h.16v-.48l.08-.16c-.06.11 0 .06.24-.16zm4.15-9.74l-.16.32V57h-.16v.32h-.32v.48h-.16v.32H275v.48l-.16.48h-.32l.16.32a.14.14 0 0 0-.16.16l-.16.48a.46.46 0 0 1-.16.32v.32h-.32l-.16.48h-.32v1l-.16.32-.16.48h-.16v.32c-.21-.1-.32-.05-.32.16h-.16v.48l-.16.32.16.32c-.21 0-.32.06-.32.16l-.32.32v.8h.16l.32-.32V65l.32-.32a.14.14 0 0 1 .16-.16.14.14 0 0 0 .16-.16h.08v-.64h.16v-.48l.32-.32a1 1 0 0 0 .24-.48c.05-.21.13-.32.24-.32l-.16-.16h.32v-.66h.16l.16-.64h.32l.16-.32v-.48l.16-.32h.16v-.16c0-.1.1-.16.32-.16v-.48l.16-.32v-.8h.16V57h.32l.16-.48zm-3.51.16V57h.16l.16-.32h.16v-.48l.16.16v-.48l-.48-.16v.16h-.16v.64h-.16v.16zm5.11-10.06a.14.14 0 0 0-.16-.16h-.16v.16H277v.16h-.16v.48h.16v.16h.32v-.32h.16zm.16-.64v-.16h.16v-.16h.15v-.32h.16v-.16h.16v-.32h.16v-.32h-.64v.32h-.16v.32h-.16l.16.16h-.16v.16h-.16V46zm1.6.48l.16-.16v-.16a.14.14 0 0 1 .16-.16v-.16h.16v-.32h.16v-.32h.16v-.32h.16v-.32l.16-.16V44a.14.14 0 0 0 .16-.16v-.16h.16v-.32h.16v-.16h-.32l-.16.16v.16h-.16v.16h-.16l-.16.16V44l-.16.16v.32h-.16v.32h-.16v.32h-.16v.32h-.16v.32h-.16v.32h-.16v.32h-.16v.48h-.16v.32h-.16v.16l-.16.16v.16H278v.48h-.16v.16l-.16.16v.16c-.11 0-.16 0-.16.08s.05.08.16.08v.2h.16l.32-.32v-.16l.32-.32v-.32h.16v-.16l.16-.16v-.16l.16-.16A.32.32 0 0 1 279 47a.33.33 0 0 0 .08-.24v-.16h.16zm-1-2.4h.16v.16h.32v-.48h-.32v-.16h-.16zm1.6 4v-.16h-.16V48h-.16v.16h-.16v.32h-.16v.32h.64v-.48h.16V48zm1.44-2.24v-.48h.16V45h.16l-.16-.16v-.16h-.16v.16H281V45h-.16v.48h-.16v.32h-.16v.32h-.16v.48h-.16v.32h-.16v.48h-.16v.32h.16v.16l.16-.16.16-.16.16-.16v-.32h.16v-.16a.46.46 0 0 0 .16-.32v-.32h.16v-.16a.14.14 0 0 0 .16-.16v-.16zm27.15 10.38a.14.14 0 0 0-.16.16 1.4 1.4 0 0 1-.64-.16l-.32.16-2.87-.16a1.66 1.66 0 0 1-1 .16l-7-.16V56l-.16.16v.16h.16v.16h1v.16h1v.16l.48.16.16-.16v.2h.48v-.16h.16V57a.14.14 0 0 0 .16-.16c.21 0 .32.05.32.16v-.16h1.12V57c0-.1.1-.16.32-.16l.16.16h.48v-.16l.16.16h.64v-.16h1l.32-.16v.16h.16v-.16l1.92.16h.16l.32-.16h.99c.21 0 .32-.05.32-.16h.16zm-10.06-1.12v.16l.48.16v.16h.8l.16-.16v.16l.32-.16v.16l.16-.16h1v.16h.32v-.16h.16v.16h.16v-.16h1.28l.32-.16h.16l.16.16.16-.16h.32v-.32h-2.55l-.16.16v-.16l-3.35-.16v.32zm1.12 2.71v.16h-.64v.48h.64v-.16l.16.16v-.48zm4.15.32a.14.14 0 0 1-.16-.16h-1.92v-.16a.46.46 0 0 0-.32.16h-.8v.32h.32v.16h1.44l.16.16v-.16h1.28zm1-3c0 .11.1.16.32.16l1.28.16v-.16h.16v-.48h-.48v.16l-.8-.16v.16l-.16-.16a.46.46 0 0 0-.32.16zm1.92 2.87h-.16v-.16h-.16l-1.12-.16v.16H305l-.32-.16v.48h.32l.16.16h.16l.32-.16.8.16a.14.14 0 0 0 .16-.16z"/></g></g></svg>