<svg xmlns="http://www.w3.org/2000/svg" viewBox="0 0 254.83 105.82"><defs><style>.cls-1{fill:#b7d435}</style></defs><title>topping-title</title><g id="Layer_2" data-name="Layer 2"><g id="Layer_1-2" data-name="Layer 1"><path class="cls-1" d="M91.43.06q1.6 0 4.63.16a32.65 32.65 0 0 1 6 .88 14.12 14.12 0 0 1 5.19 2.4 5.55 5.55 0 0 1 2.24 4.71 10.93 10.93 0 0 1-.32 2.48 8.93 8.93 0 0 1-1 2.56 7.58 7.58 0 0 1-1.84 2.08 3.8 3.8 0 0 1-2.39.88q-1.76 0-2.08-.88a3.81 3.81 0 0 1-.08-2.08q.24-1.2.56-2.4a2.68 2.68 0 0 0 0-1.84q-.64-1-4-1.2t-10.1-.17q-6.71.08-16.77.48t-24.11.56l-.48.8q-1.12 1.76-4.39 8.52T34.9 34q-4.31 9.18-9.26 19.4T16.3 72.16q-4.4 8.55-7.75 14.13t-4.47 5.59q-1.44 0-2.4-2.4a13.21 13.21 0 0 1-1-5 40.11 40.11 0 0 1 2.4-5.59q2.4-5.11 6-12.7t8-16.53q4.39-8.94 8.46-17.17T32.82 18Q36 11.72 37.3 9.32q-10.06 0-19 .64t-14.54.64a4.46 4.46 0 0 1-2.24-.6A2.93 2.93 0 0 1 .09 8.36a2.54 2.54 0 0 1 .55-2.23 9.08 9.08 0 0 1 3.92-2.56 11.81 11.81 0 0 1 3.35-.8q2.4-.32 6.87-.56T26 1.81q6.71-.16 16.45-.48A5.17 5.17 0 0 1 45.28.06a3 3 0 0 1 3 1.12Q58.85.54 69.39.3T91.43.06zM18 56.91v.16l-.32.32a.14.14 0 0 1-.16.16v.16l-1 1.44c-.11 0-.11.05 0 .16l-.32.64-.32.48-.32.64-.32.8a.71.71 0 0 1-.08.32.7.7 0 0 0-.08.32l-.16.32-.32.48a.14.14 0 0 1-.16.16v.32l-.32.8-.32.48c.11.11.11.16 0 .16l-.16.64-.32.48v.32l-.16.16-.16.48-.16.16v.16a.14.14 0 0 1-.16.16l-.16.64a.14.14 0 0 0-.16.16l-.16.32-.32.8a.14.14 0 0 0-.16.16v.32a.14.14 0 0 0-.16.16v.16a.14.14 0 0 0-.16.16v.16l-.16.64-.16.16-.16.16-.32.64a.32.32 0 0 1-.08.24.63.63 0 0 0-.08.4l-.16.16-.32.64a.14.14 0 0 1-.16.16l-.32.8a.14.14 0 0 0-.16.16l-.64 1.28c0 .11 0 .16-.08.16s-.08.05-.08.16l-.16.32c.11.21.13.32.08.32s-.08.11-.08.32v.32a.88.88 0 0 0 .32-.56.88.88 0 0 1 .32-.6v-.16l.16-.32.16-.32.4-.8a3 3 0 0 1 .56-.8v-.16c0-.1.1-.26.32-.48l.16-.64 1.12-1.76 1-2.71a.14.14 0 0 0 .16-.16l.16-.16a.63.63 0 0 1 .08-.4.32.32 0 0 0 .08-.24v-.32a.14.14 0 0 0 .16-.16l.16-.48L14 66a1.53 1.53 0 0 0 .48-1.12l.16-.32a.14.14 0 0 1 .16-.16l.16-.48a.14.14 0 0 1 .16-.16v-.32l.16-.16v-.16l.32-.64c.1 0 .16-.08.16-.24s.05-.24.16-.24v-.16a1.53 1.53 0 0 0 .48-1.12l.32-.48a.14.14 0 0 1 .16-.16v-.32c.32 0 .37-.21.16-.64l.32-.64a.46.46 0 0 0 .16-.32l.32-.64a.14.14 0 0 0 .16-.16l.16-.48zM8.87 73.68l.32-.32.64-1.6.32-.48.16-.48-.16-.16H10l-.16.48-.16.16-.16.32-.16.16v.16a.14.14 0 0 1-.16.16v.16l-.32.64a.14.14 0 0 0-.16.16l-.16.64zm2.08-4.79c0-.1 0-.16.08-.16s.08-.05.08-.16l.16-.16.16-.32v-.16l.16-.16v-.16a.14.14 0 0 0 .16-.16l.16-.32a.65.65 0 0 0 .16-.48l.16-.32.16-.16.32-.48a.14.14 0 0 0 .16-.16v-.48a.14.14 0 0 1 .13-.15l.16-.8.32-.48-.32-.16a.14.14 0 0 0-.16.16v.16l-.32.48-.32.64-.16.16v.48l-.16.16-.14.3h-.16a.14.14 0 0 0 .16.16l-.16.16a.14.14 0 0 1-.16.16v.32l-.32.64-.32.8a.14.14 0 0 0-.16.16l-.16.48zm1.92 3.35a.14.14 0 0 0-.16-.16l-.32.32a.14.14 0 0 0-.16.16v.16a.14.14 0 0 0-.16.16l-.17.12-1 1.92.64.16.32-.64.32-.48.32-.8.32-.64zm5-11.66l-.32.48-.32.32-.16.16v.16l-.32.64a.14.14 0 0 0-.16.16l-.16.64a.28.28 0 0 0-.32.32v.16a.14.14 0 0 1-.16.16l-.16.64-.32.64c.1.11.1.16 0 .16v.32l-.37.46-.32.64-.16.16v.48L14 68.57a.46.46 0 0 0-.16.32l-.32.48-.16.32v.48a.47.47 0 0 1-.16.32l-.16.16v1l.16-.16c.1 0 .16-.21.16-.64v-.16a.66.66 0 0 1 .24-.4.76.76 0 0 0 .24-.56l.16-.16c0-.21.05-.32.16-.32l.16-.32c.1 0 .16-.1.16-.32s.05-.32.16-.32l.16-.32.64-1.6c.21-.21.26-.32.16-.32h.16l.16-.48.16-.16v-.64h.16l.16-.64.32-.64a.14.14 0 0 1 .16-.16v-.16L17 63v-.16a.14.14 0 0 1 .16-.16v-.18l.16-.16V62c.32-.32.42-.48.32-.48v-.16a.14.14 0 0 1 .16-.16l.16-.64zM13.66 62l.16.16.48-.64.32-.8-.32-.16v.16l-.16-.16v.48H14zM15.1 5.49l-.16.32.32.16.32-.48zm2.71-.16l-.48.16.16.32.8.16v-.64zm2.08.16l-.16.32L20 6l.32-.48zm1.44 46.31h-.16l-.32.32-.32.8.48.16.16-.64.32-.48zm1-1.76h-.16l-.32.32v.48l.48-.32zm.8-1.28l-.32.16h-.21l.16.16h.32zm-.21-43.11h.32l-.32-.16zm1.6 39.92l-.32-.16-.16.64-.32.64h.48l.16-.48.32-.64zM25.8 5.65h-.32v-.16a.14.14 0 0 0-.16.16v-.16H25l-.16.51.32-.16h.64zm-.64 38V44H25v.48l.16-.16.32-.64zm1-1.12v-.16l-.16.16-.16-.16v.32l.16.16.32-.32zM37.3 17.46l-.32.16a.14.14 0 0 0-.16.16l-.32.64-.16.48-.32.48a.14.14 0 0 0-.16.16l-.16.16h-.16l-.16.64a.14.14 0 0 0-.16.16v.16l-.32.48a.14.14 0 0 1-.16.16l-.16.8-.32.32c-.11 0-.16.16-.16.48l-.16.48-.32.64c-.21 0-.27.05-.16.16s.05.16-.16.16v.48l-.16.48H33l-.16.48a.14.14 0 0 0-.16.16v.16a.14.14 0 0 0-.16.16v.16l-.16.16v.16l-.32.64-.32.48a.14.14 0 0 1-.16.16v.16l-.32.48a.14.14 0 0 1-.16.16l-.8 1.6-.16.8a.14.14 0 0 1-.16.16l-.64 1.28a1.08 1.08 0 0 1-.32.8v.16a.14.14 0 0 0-.16.16l-.16.32a.14.14 0 0 0-.16.16l-.64 1.28-.64 1a.2.2 0 0 1 0 .32l-.32.64a.65.65 0 0 0-.16.48.46.46 0 0 1-.16.32v.16a2.22 2.22 0 0 1 .72-.72 1.09 1.09 0 0 0 .4-1.2l1-1.44a.46.46 0 0 0 .16-.32v-.16a.92.92 0 0 0 .32-.64v-.16h.16l.48-1 1.44-3 .32-.64.32-.48c0-.32.11-.48.32-.48v-.32a.14.14 0 0 0 .16-.16l.32-.64a.14.14 0 0 0 .16-.16l.16-.32c0-.1 0-.16.08-.16s.08-.05.08-.16l.32-.64.16-.16v-.16c.21 0 .26-.05.16-.16s-.06-.16.16-.16v-.32l.16-1 .32-.64a2.48 2.48 0 0 0 .64-.48 1.56 1.56 0 0 0 .32-1.12l.16-.48.32-.64.32-.64.16-.16.32-1a.14.14 0 0 0 .16-.16l.16-.48a.14.14 0 0 0 .16-.16v-.16zM27.39 40.3h-.48l.16.32h.32zm-.16-34.49l1.6-.16v-.32l-1.6.16zm.48 28.11l.32-.16v-.48l.32-.48.32-.8.32-.48a.14.14 0 0 1 .16-.16L29 31h-.32l-.32.64-.32.48-.16.48a.14.14 0 0 0-.16.16l-.16.64-.32.48zm.48 4.63l-.19-.16-.16.16v.64h.48v-.64zm1.12-1.6l-.16.16v-.16a.14.14 0 0 0-.16-.16l-.16.48.32.16v-.32h.16zm.16-7.67l.32-.48.32-.32v-.16a.14.14 0 0 1 .16-.16l.16-.16.8-1.6.32-.48a.14.14 0 0 0 .16-.16v-.16l.32-.48.16-.64v-.16h.32a.14.14 0 0 0-.16-.16h-.64l.16.16-.16.16-.16.48-.16.16v.16l-.32.64-.32.48-.32.64-.32.8-.32.32a.14.14 0 0 0-.16.16l-.16.32a.14.14 0 0 1-.16.16v.48zm1.92 3.51a.14.14 0 0 0-.16-.16l-.32.32a.14.14 0 0 0-.16.16l-.32.48a.14.14 0 0 1-.16.16l-.16.48-.32.64-.32.8h.48l.32-.48.64-1.28-.16-.16.32-.16.32-.48zm5.43-11.66l-.32.48-.48.32-.16.48-.64 1.28c-.11 0-.16.11-.16.32l-.16.32-.16.64a.14.14 0 0 1-.16.16v.16h-.16v.32l-.32.48a.14.14 0 0 0 .16.16l-.32.48-.32.64-.32.8-.32.48-.64 1.28c-.32.32-.43.48-.32.48v.32a.14.14 0 0 1-.16.16V31a.14.14 0 0 0-.16.16V32l.48-.8.16-.16.32-1a.46.46 0 0 0 .16-.32l.16-.32a1.31 1.31 0 0 0 .48-.8l.64-1.28a.14.14 0 0 1 .16-.16V27c0-.21.05-.32.16-.32v-.32l.32-.64c.21 0 .26-.05.16-.16s-.05-.16.16-.16l.16-.32.16-.16-.16-.32.32-.48a.14.14 0 0 1 .16-.12v-.32l.16-.16v-.16a.14.14 0 0 0 .16-.16v-.16l.16-.16v-.32l.32-.48a.14.14 0 0 0 .16-.16v-.16l.32-.64zM32.34 5.65v-.16l-.16.16v-.16L32 6h.32c.1 0 .16-.1.16-.32zm.32 16.93l.48.16.32-.48.32-.64-.64-.32.16.16-.32.32v.48l-.32.16zm2.08-16.93a.14.14 0 0 0-.16-.16.14.14 0 0 0-.16.16v-.16a.14.14 0 0 1-.16.16l-.32-.16-.16.51h.8l.16-.16zm3 .32l.16-.16-1.76-.32.36.51zm0 10.54l-.48.32h.48zm.64-.8l-.32-.32-.16.16.16.16zm-.48.32v.32l.16-.32zm1-1.6l-.32.16h-.16a.14.14 0 0 0 .16.16l.48.32v-.48zm0-.32l.32.16v-.16zm.48-.48l-.16-.16v.32h.16zm.48-.64h-.16a.47.47 0 0 0-.32-.16l.48.32zm.16-.32v-.16h-.48l.48.32a.14.14 0 0 0 .16-.16zm.32-.8h-.16l-.18-.15V12h.32zm-.32.64l.16.16v-.16zm44.71-8.94h-3a1.94 1.94 0 0 1-1 .08 1.3 1.3 0 0 0-.8.08h-3.35a2.23 2.23 0 0 1-1 .16h-1.79a7.21 7.21 0 0 0-1.36.16l-2.71.16v-.16l-.8.16h-7a1.43 1.43 0 0 0-.64.16c0-.1-.11-.16-.32-.16l-3.67.16-.16.16H55.5l3.35.32L59 5a.14.14 0 0 0 .16-.16h3.67a.69.69 0 0 0 .32-.08.71.71 0 0 1 .32-.08h3l.16-.16h4a.14.14 0 0 0 .16-.16l.32.16 2.08-.32a.14.14 0 0 0 .16.16l2.88-.16h3.19a2.23 2.23 0 0 0 1-.16h3.35a.65.65 0 0 0 .48-.16l.48-.16zm-25.08-.32a.14.14 0 0 1 .16.16l1.12.16h2.55a.66.66 0 0 1 .52-.16l2.71-.16a.14.14 0 0 1 .16.16l5.27-.32a.65.65 0 0 1 .48-.16h2.08a.14.14 0 0 1 .16-.16v-.16l-.32-.16c.1.11.1.16 0 .16a3 3 0 0 1-1-.16h-.48c-.11 0-.13 0-.08.08s0 .08-.08.08a1.25 1.25 0 0 1-.4-.08 1.36 1.36 0 0 0-.4-.08v.16h-2.4a2.76 2.76 0 0 0-1.12.16h-3.82a.14.14 0 0 0-.16.16zM64 5.81l-.64-.16c-.11 0-.16 0-.16.08s-.05.08-.16.08h-.32a.14.14 0 0 0-.16-.16l-.64.16.16.64.16-.16L64 6zm8.94-.16c-.11 0-.16 0-.16-.08s-.05-.08-.16-.08h-6.9a.14.14 0 0 0-.16.16v.16l.32.32H70l.19-.13h2.71l.16-.32zM79.46 5H76.9a.14.14 0 0 0-.16.16h-.32a.14.14 0 0 0-.16-.16l-1 .16v.32h.48l.16.16h.8a.32.32 0 0 0 .3-.07.32.32 0 0 1 .24-.08h2.4v-.32zm-.16-2.4l.64-.16-.16-.16h-1.44l-2.24.16a.14.14 0 0 1-.16-.16h-.16a.14.14 0 0 0-.16.16v.16z"/><path class="cls-1" d="M61.25 60.58a26 26 0 0 1-2.71 6.55 31 31 0 0 1-4.71 6.23 24.77 24.77 0 0 1-6.55 4.79 19.37 19.37 0 0 1-8.22 2.08 12.21 12.21 0 0 1-4.71-1 9.74 9.74 0 0 1-4-3.11A13.45 13.45 0 0 1 28 70.64a22.47 22.47 0 0 1-.08-7.83 33.71 33.71 0 0 1 7-14.69 26.79 26.79 0 0 1 13.25-8.78q5.27-1.59 8.46-.32a8.34 8.34 0 0 1 4.63 4.39 17.52 17.52 0 0 1 1.36 7.67 41.08 41.08 0 0 1-1.37 9.5zm-21.08-5a27.48 27.48 0 0 0-4.15 7 13.31 13.31 0 0 0-1 5.91 6.26 6.26 0 0 0 1.68 4A5.18 5.18 0 0 0 40.49 74a9.38 9.38 0 0 0 4.63-1.36 19.67 19.67 0 0 0 4.47-3.51 32.5 32.5 0 0 0 3.75-4.71A25.82 25.82 0 0 0 56 59.31l.16-.16v-.48a29.33 29.33 0 0 0 1.28-7.27 6.67 6.67 0 0 0-.8-3.75 2.68 2.68 0 0 0-2.32-1.12 9.64 9.64 0 0 0-3.27.64c-.53.21-1.15.48-1.84.8a9 9 0 0 0-1.84 1.12l-1.92 1.6-1.12.64zm-3.51-.48h1a.65.65 0 0 0 .16-.48l.48-.8v-.16l.16-.16.16-.32a1.31 1.31 0 0 1 .48-.8l.48-.8.32-.16v-.16l.48-.48v-.32h.16v-.16h.16v-.1l.8-.64.48-.8.32-.32L43.84 47H44v-.16l.16-.16h.16l.32-.32h.16l1-.48a.14.14 0 0 1 .16-.16v-.16h.32v-.16h.32l.16-.16h.16v-.16H47v-.16a73.84 73.84 0 0 0 .32-.32l.8-.16a.14.14 0 0 1 .16-.16.46.46 0 0 0 .32-.16l.16-.16H49l-.16-.16h.48v-.16h.16c.11 0 .16 0 .16-.08s.05-.08.16-.08h.16v-.16h.32v-.16h.32l.16-.16h.16c0-.1.1-.16.32-.16a.46.46 0 0 1 .32-.16h.16v-.16a.65.65 0 0 0 .48-.16h.8v-.32h.48v-.14h.16a.46.46 0 0 0 .32-.16h.48a.32.32 0 0 0 .24-.08.33.33 0 0 1 .24-.08h.64v-.16h2.08v-.16h-.32v-.16h-3v.16h-.64l-.16.16h-.48v.16h-.32l-.16.16h-.32v.16h-.32v.16h-.48v.32H51a.46.46 0 0 0-.32.16h-.32l-.16.16-.16.16h-.16V43h-.32v.16h-.16c-.11 0-.16 0-.16.08s-.11.08-.32.08h-.48v.16h-.16v.16H48v.16h-.16v.2h-.16l-.16.16h-.16v.16h-.16a.14.14 0 0 1-.16.16l-.16.16h-.16a.14.14 0 0 0-.16.16h-.16v.16h-.16a.14.14 0 0 1-.16.16l-.16.16h-.16v.16h-.48v.16H45l-.16.16v.16h-.16l-.16.32h-.16v.16h-.48v.32h-.16v.16h-.32V47a.14.14 0 0 1-.16.16l-.16.16a.14.14 0 0 0-.16.16h-.16a.14.14 0 0 0-.16.16h-.2l-.64.64h-.16a.14.14 0 0 0-.16.16c-.11 0-.11.06 0 .16v.16h-.16v.16h-.16v.16H41v.16h-.16a.46.46 0 0 1-.16.32l-.32.64h-.16v.16a.14.14 0 0 0-.16.16h-.16l-.16.16a.14.14 0 0 1-.16.16V51a.14.14 0 0 0-.16.16l-.32.64h-.16v.2l-.16.16-.16.16v.16a.14.14 0 0 0-.16.16.63.63 0 0 0-.32 1 .14.14 0 0 1-.16.16v.16h-.16V54a.65.65 0 0 0-.16.48.46.46 0 0 0-.16.32zm1.76-4.63h.64l.16-.16V50h.16v-.16h.16v-.16l.16-.16h.16v-.32H40v-.16h.16a.14.14 0 0 1 .16-.16v-.32h.16l-.16-.32h.32v-.16l.16-.16h.2v-.16h.16v-.16l-.16-.11v.16h-.32l-.16.16h-.16V48a.14.14 0 0 0-.16.16v.16l-.32.16.16.16h-.16v.16h-.32v.16h-.16v.16h-.16v.48h-.16v.16h-.16v.16a.14.14 0 0 0-.16.16v.16h-.16v.16h-.16zm3.35.16h.16v-.16h.32v-.16h.16v-.11h.16l.16-.16v-.32h-.33v.16h-.16l-.16.16h-.16v.16h-.16a.14.14 0 0 1-.16.16v.16h-.16v.32h-.16V51H41v.16h-.16v.16h-.16v.32h-.16v.16l-.16.16v.32a.14.14 0 0 0-.16.16h.48v-.32h.16V52H41v-.2h.16v-.16h.16v-.16h.16v-.32h.16V51h.16zm.8-4.31a.14.14 0 0 0 .16-.16c.1 0 .21-.1.32-.32h.16v-.16a.32.32 0 0 0 .24-.08.33.33 0 0 1 .24-.08l.16-.16a.46.46 0 0 1 .32-.16.14.14 0 0 1 .16-.16l.16-.16c.21-.21.37-.32.48-.32v-.16h.48l.16-.16h.32v-.16h.16l.16-.16c-.11-.1-.11-.16 0-.16h.16v-.16h.32v-.1h.16l.16-.16h.16v-.16h.16a.14.14 0 0 1 .16-.16h.16a.14.14 0 0 1 .16-.16H48v-.16h.32v-.16h.16a.14.14 0 0 0-.16-.16h-.48v.16h-.16v-.16h-.16v.16h-.32v.16H47v.3h-.32l-.16.16h-.12v.16h-.32v.16h-.32v.16h-.32v.16h-.16c-.11 0-.11.05 0 .16H45l-.16.16v.16h-.16v.16h-.32l-.16.16H44v.16h-.16v.32h-.32v.16l-.16.16H43l-.16.16h-.16v.16h-.16zM54.22 43h-.32v-.16h-.16V43h-.8v.16h-.64l-.16.16h-.64v.16h-.32v.16h-.32l-.16.16h-.16l.16.16h-.32v.16h-.16v.16h-.16v.16h-.48a.14.14 0 0 0-.16.16h-.32l-.16.16h-.32v.16a.14.14 0 0 1-.16.16h-.16v.16H48v.16h-.48l-.16.16v.16H47v.48h-.16v.16h-.64v.16a.14.14 0 0 1-.16.16h-.16v.16h-.16l-.12.16c-.11 0-.16 0-.16.08s-.05.08-.16.08H45v.16h-.2v.16h-.16c0 .11-.11.16-.32.16v.16H44v.2a.14.14 0 0 0-.16.16v.16h-.32v.16c-.11 0-.11.06 0 .16-.11 0-.16 0-.16.08s-.05.08-.16.08v.32l.16.16v-.16a.14.14 0 0 0 .16-.16l.32-.32v-.16l.16-.16.8-.48v-.16h.48l.16-.16h.16c.1 0 .26-.1.48-.32l.32-.32h.16l.8-.48h.16v-.16l.16-.16v-.16H48v-.16a.32.32 0 0 0 .24-.08.32.32 0 0 1 .24-.08v-.16H49v-.16h.48l.16-.16.32-.16h.16v-.16h.16v-.16a.14.14 0 0 0 .16-.16H51v-.16h.16l.16-.16h.16l.16-.16a.14.14 0 0 0 .16-.16h.32v-.16h.32v-.18h.32a.14.14 0 0 0 .16-.16h.8l.16-.16h.32zm4.31 17.73l.16-.16a1.09 1.09 0 0 1 .08-.48 1.11 1.11 0 0 0 .08-.48H59v-.32h.16V59l.16-.16v-.48h.16v-.16a.56.56 0 0 1-.08-.48 1.11 1.11 0 0 0 .08-.48h.16v-.8a.14.14 0 0 0 .16-.16V56l.2-1v-1.76a.45.45 0 0 1-.16-.32v-.16a.14.14 0 0 0-.16-.16v.16h-.16l.16.16.16.64a3.56 3.56 0 0 1-.16 1.12v.48a.14.14 0 0 1-.16.16v.16a1.11 1.11 0 0 1-.08.48 1.1 1.1 0 0 0-.08.48 6.5 6.5 0 0 0-.36 1.11v.64l-.32.64v.32l-.16.16v.32h-.16l-.48 1.28-.48.64-.16.48a13.94 13.94 0 0 0-.48 1.36 7.07 7.07 0 0 1-.48 1.2l-.16.16v.16l-.16.16v.16l-.16.16v.16h-.16v.16h-.14v.16l-.48.8a.14.14 0 0 0-.16.16h-.16V67l-.16.16v.16h-.16v.32l-.32.48v.16h-.32v.16l-.16.16-.16.32-.48.32v.16l-.32.16a.46.46 0 0 0-.16.32h-.16l-.16.16-.16.16v.16h-.16c0 .11 0 .16-.08.16s-.08.05-.08.16h-.16v.16a73.84 73.84 0 0 1-.32.32v.16H51v.16h-.16v.16h-.16v.16h-.16a.14.14 0 0 1-.16.16c0 .11 0 .16-.08.16s-.08.05-.08.16l-.16.32h-.16c-.21.21-.37.32-.48.32s-.11.27-.32.48c-.21 0-.32.05-.32.16a.14.14 0 0 0-.16.16h-.16v.16h-.16a.14.14 0 0 0-.16.16H48a.14.14 0 0 1-.16.16l-.16.16a.14.14 0 0 0-.16.16l-.52.28a.14.14 0 0 0-.16.16v.16h-.32v.16h-.12a.14.14 0 0 0-.16.16.63.63 0 0 0-.4.08.32.32 0 0 1-.24.08h-.16v.16h-.16a.46.46 0 0 0-.32.16h-.16a.46.46 0 0 0-.32.16h-.32l-.16.16h-.16v.16h.8v-.16h.48l.16-.16h.32l.16-.16h.48v-.16h.48v-.16H47v-.16h.16a.14.14 0 0 1 .16-.16h.16l.16-.16h.16v-.32h.2v-.16h.32v-.16h.16l.16-.16a.14.14 0 0 0 .16-.16h.2V74h.16v-.16h.16l.16-.16h.16a.14.14 0 0 1 .16-.16v-.16h.16v-.16h.32V73l.16-.16a.14.14 0 0 0 .16-.16l.48-.48c.1 0 .1-.05 0-.16h.16v-.16h.16v-.16h.16v-.12h.16v-.16h.16a.14.14 0 0 1 .16-.16c0-.21.05-.32.16-.32s0-.16.08-.16.08-.05.08-.16h.16v-.16a.14.14 0 0 0 .16-.16h.16v-.16L53 70v-.16h.16l.16-.16v-.16h.16v-.16h.16v-.16l.16-.16h.32v-.16h.16v-.16a.14.14 0 0 0 .16-.16h.16v-.16l.16-.16v-.16h.16v-.16l.16-.16v-.16c-.11-.1-.11-.16 0-.16v-.16h.16v-.16l.32-.32v-.16h.16v-.16l.16-.16v-.16H56V66l.16-.16v-.16a.14.14 0 0 0 .16-.16.14.14 0 0 1 .16-.16v-.16l.16-.16v-.14h.16v-.48l.16-.16v-.32h.16v-.32h.16v-.48h.16V63h.16v-.64h.16v-.16l.16-.16v-.34h.16v-.16h.16v-.16a.14.14 0 0 1 .16-.16v-.32h.16zm-2.87 2.57L56 63v-.32l.16-.16v-.16l.14-.36v-.16a.14.14 0 0 1-.16-.16l-.16.16V62l-.48.64V63l-.64.8v.48l-.32.32v.16h-.16v.16c-.21.21-.32.37-.32.48-.21.21-.37.32-.48.32l-.16.32-.64 1.12v.16h-.16v.16h-.16l.16.16h-.16a.64.64 0 0 1-.08.4.32.32 0 0 0-.08.24h-.16a.14.14 0 0 1-.16.16v.16h-.16v.16h-.16v.16h-.16V69h-.16l-.16.16H51v.16h-.16a.14.14 0 0 0-.16.16h-.16v.16l-.16.16a.14.14 0 0 0-.16.16v.16a.14.14 0 0 1-.16.16h-.16v.16h-.16l-.16.16h-.16a.46.46 0 0 1-.16.32l-.16.32H49v.16h-.16v.16h-.16v.16h-.16v.16c-.11 0-.16 0-.16.08s-.06.08-.16.08l.16.16H48v.16a.14.14 0 0 0-.16.16h-.16v.16h-.32v.16h-.16V73H47v.16h.48V73h.16a.14.14 0 0 0 .16-.16h.2v-.16h.48v-.16h.16l.16-.16h.2v-.16h.16l-.16-.12h.16v-.16h.16v-.16h.16v-.16h.32v-.16l.16-.16.32-.48a.14.14 0 0 1 .16-.16l.16-.16a.14.14 0 0 0 .16-.16v-.16h.16L51 70a.14.14 0 0 1 .16-.16v-.16h.16v-.16h.16v-.16h.32v-.16h.2V69h.16l.16-.16v-.16h.16a.14.14 0 0 1 .16-.16v-.16h.16v-.16h.16v-.16h.16v-.48h.16l-.16-.16h.16v-.16h.16v-.64h.16v-.16h.32v-.16a.14.14 0 0 1 .16-.16V66h.16v-.16l.16-.16v-.16h.16v-.16l.32-.32v-.14H55v-.32h.16v-.16l.32-.64v-.16h.16zm-5.75-21.72h.64a.14.14 0 0 1 .16-.16h.16v-.16h.32v-.16h.48v-.32h-.16v-.16h-.32v.16h-.32v.16h-.32v.16h-.32v.16h-.32zM52.31 73a.14.14 0 0 0-.16-.16h-.32V73h-.16l-.32.32v.16H51v.16h-.16v.16h-.16v.2h-.16v.32h.16v.16H51v-.16h.16v-.16h.16V74h.16v-.16h.16v-.16h.16l-.16-.16H52v-.16l.16-.16h.16zm1.12-1.76h-.16v.16h.16zm4.63-6.07a.14.14 0 0 0-.16-.16.14.14 0 0 1-.16.16c0 .11 0 .16-.08.16s-.08.06-.08.16h-.16v.16c-.21.21-.32.37-.32.48h-.16v.16l-.16.16v.32a.14.14 0 0 0-.16.16l-.16.16-.32.8v.32H56l-.16.16v.16h-.16v.16h-.18v.16h-.16V69H55v.16a.14.14 0 0 1-.16.16h-.14v.16a.14.14 0 0 0-.16.16h-.16V70h-.16v.16h-.16v.16h-.32v.16h-.16v.16l-.16.16v.48h.32V71h.48v-.2h.16v-.16h.16v-.16h.16v-.16h.16V70H55v-.16h.16v-.16h.16v-.16h.16v-.16h.16v-.16h.16V69h.32v-.32h.16v-.16h.16v-.16h.16v-.16h.16v-1.07h.16l.18-.13v-.16h.16v-.16a.14.14 0 0 0 .16-.16l.16-.16V66c.11 0 .16 0 .16-.08s.05-.08.16-.08v-.32h.16zm0-7.83v-.32h-.32v.16h-.16l-.16.16v.16h-.16l.16.64h-.16v.48h-.16V59h-.16v.64h-.16v1h-.16v.16h-.16v.32h.32v-.32h.16v-.16h.16v-.54l.16-.16v-.16a.46.46 0 0 0 .16-.32v-.16h.16V59h.16v-.48h.16V58h.16l-.16-.64zm2.4 1v.16h-.16v.16h-.16v.16H60v.8h-.16v.48h-.16v.48h-.16v.32h-.16v.64h-.16a.14.14 0 0 0-.16.16v.3h-.16v.16l-.16.16v.16l.16.16H59v-.14h.16v-.16a.14.14 0 0 0 .16-.16l.16-.16v-.16l.16-.16v-.16h.16a.46.46 0 0 1 .16-.32v-.64h.16v-.48a.14.14 0 0 0 .16-.16v-.32a.14.14 0 0 0 .16-.16V59h.16v-.64z"/><path class="cls-1" d="M99.25 64.9a13.25 13.25 0 0 1 3.67-2.32c.85-.26 1.44-.24 1.76.08a1.68 1.68 0 0 1 .24 1.6 7.63 7.63 0 0 1-1 2.4l-1.12 1.92-2.56 3.19-1.76 1.92-.48.64-.32.16-.32.32-1.76 1.6a13.56 13.56 0 0 1-4.15 2.4c-.43.11-.8.19-1.12.24a6.69 6.69 0 0 1-1.12.08 2.77 2.77 0 0 1-2.08-.16h-.64a.32.32 0 0 1-.24-.08.33.33 0 0 0-.24-.08l-1-.32a6.69 6.69 0 0 1-1.76-1.28 6.62 6.62 0 0 1-1.6-4A8.62 8.62 0 0 1 82 70.8q.32-1.12.64-2.4l.48-1.28.64-1.28.32-1a.92.92 0 0 0 .32-.64q1.44-2.88 2.71-5.27t2.08-4.15a26.45 26.45 0 0 1 1.2-2.78q.88-1.83 1.84-3.59a7.61 7.61 0 0 0 .88-2.79q.08-1.2-1.36-1.52a13.31 13.31 0 0 0-5.91 2.55 53 53 0 0 0-5.91 4.79q-2.08 3.68-4.55 8.3t-4.63 8.7q-2.16 4.07-3.59 6.95l-1.6 3.19c0 .21-.05.32-.16.32l-1.6 3.59q-1 2.16-2.16 4.63t-2.48 5q-1.28 2.55-2.55 4.63l-.48.64-.48 1a4.89 4.89 0 0 0-.24.56 1.56 1.56 0 0 1-.4.56l-.64 1.12a13.06 13.06 0 0 1-3.19 3.51 7 7 0 0 1-5.11 1.6 7.57 7.57 0 0 1-4.39-2.08 9.39 9.39 0 0 1-2.55-4.55 9.62 9.62 0 0 1 .4-5.83 5.54 5.54 0 0 1 1.68-2.4 2.58 2.58 0 0 1 2-.64 1.72 1.72 0 0 1 1.36 1.2 4.56 4.56 0 0 1-.24 3 8.61 8.61 0 0 0-.56 3.11q.08 1.2.64 1.44c.38.16.88 0 1.52-.48a7.46 7.46 0 0 0 1.92-2.63l2.88-5.75 10.84-21.56q.64-1.59 1.68-3.75t2.08-4.23q1-2.07 1.92-3.75t1.2-2.48c.1-.32.37-.93.8-1.84l1.44-3 1.52-3.19q.72-1.52 1.2-2.48 1-1.76 1.6-3.19c.42-1 .69-1.54.8-1.76q.48-.8 2.08-.8a9 9 0 0 1 3.35.8 7.35 7.35 0 0 1 2.24 1.6L86 39.18a14.12 14.12 0 0 1 3.19-.8 16.73 16.73 0 0 1 1.68-.24q.88-.08 2-.08h.48a.92.92 0 0 0 .64.16 5.28 5.28 0 0 1 1.28.32 7.19 7.19 0 0 1 2.24 1 7.49 7.49 0 0 1 2.71 3.19 8.45 8.45 0 0 1 .8 4.39 21.45 21.45 0 0 1-1 5.19 35.34 35.34 0 0 1-2.4 5.59q-1.52 2.87-3.11 5.75l-3.35 5.91q-1 1.92-.8 2.32t1-.08a15.51 15.51 0 0 0 2.24-1.6q1.35-1.11 2.55-2.24t2.08-2zM50.07 96.36v-.16h.16v-.32h.16v-.32h.16v-.32h.16v-.32h.16v-.32h-.48v.16h-.16v.32h-.16v.32h-.16v.16h-.16v.32h-.16v.48zm1.44.16c.21-.21.32-.37.32-.48l.32-.48v-.16l.64-1.12V94h.16v-.2h.16v-.16a.65.65 0 0 0 .16-.48h.16V93l.16-.16v-.16h.16v-.32h.16v-.16a.46.46 0 0 0 .16-.32.14.14 0 0 0 .16-.16v-.16h.16v-.16l.16-.16v-.16l.16-.16v-.32h.16v-.16l.16-.16v-.16l.16-.16a.47.47 0 0 1 .16-.32v-.16l.16-.16v-.16l.16-.16v-.32h.16c0-.21.05-.32.16-.32v-.16l.16-.16v-.16l.16-.16v-.32h.16v-.32h.16v-.16h-.33v.16h-.16v.16H56v.32h-.16v.16h-.16v.32h-.18v.16h-.16v.32h-.16v.32H55v.32h-.16v.16h-.14v.32l-.16.16v.32h-.16v.32h-.16v.16l-.16.16v.16h-.16v.32h-.16v.32h-.16v.32h-.16v.32h-.16v.16h-.16v.32h-.16V93h-.16v.32h-.16v.16l-.16.16v.16l-.16.2v.32h-.16v.32a.14.14 0 0 0-.16.16l-.16.16v.32h-.16v.32h-.16v.16h-.16V96c-.1 0-.16.1-.16.32H51v.16h-.16v.32h-.16a.65.65 0 0 1-.16.48v.16h-.16v.32l-.32.32a.46.46 0 0 1-.16.32v.16l-.16.16v.48h.16a.14.14 0 0 1 .16-.16l.32-.64.16-.16v-.16l.48-.8a.14.14 0 0 0 .16-.16.46.46 0 0 1 .16-.32v-.16h.16zm-.48-3h.16l.16-.16a36.92 36.92 0 0 0 .32-.32v-.16h.16v-.16a.46.46 0 0 0 .16-.32v-.2h.16V92h.16v-.16a.14.14 0 0 0 .16-.16v-.16h.16v-.32h.16v-.32h.16v-.48h-.32l.16.16h-.49v.32h-.16v.32H52v.32h-.16v.16c-.11 0-.11.05 0 .16h-.16V92h-.16v.48h-.16v.16h-.16V93l-.16.16h-.16v.16zm2.24 2.87l-.16-.16h-.16a.14.14 0 0 0-.16.16v.16h-.16v.16a.14.14 0 0 0-.16.16V97h-.17v.32h-.16v.32H52V98h.16v.16h.16V98h.32v-.32a.14.14 0 0 0 .16-.16v-.16h.16v-.48h.16v-.32h.16zm.48-6.87v-.32h.16v-.32h-.64l.16.16h-.16v.32h-.17v.32h.48v-.32zm2.71 0v.16l-.16.16h-.16V90H56v.32h-.16v.48h-.16v.32h-.18v.16a.14.14 0 0 0-.16.16v.32h-.16v.16H55v.32h-.16v.32h-.14v.32h-.16V93h-.16v.64h-.16v.16h-.16v.32l-.16.16v.16h-.16v.32h-.16v.32l-.16.16-.16.16v.48h.16l.32-.32v-.16h.16v-.16l.16-.32a.14.14 0 0 0 .16-.16v-.32h.16c0-.11 0-.16.08-.16s.08-.06.08-.16l.16-.12v-.2l.32-.48V93h.16v-.32h.16v-.16h.16v-.16a.14.14 0 0 1 .16-.16V92a.14.14 0 0 1 .16-.16v-.16l.16-.16v-.32h.16v-.16a.14.14 0 0 1 .16-.16v-.32h.16v-.32l.16-.16V90l.16-.16v-.16a.14.14 0 0 0 .16-.16zM76.9 45.57h-.16v.16l-.16.16v.32h-.16v.16a.14.14 0 0 0-.16.16v.16h-.16v.16a.14.14 0 0 0-.16.16l-.16.16v.16l-.16.16v.16h-.16V48l-.16.16v.16h-.16v.32H75v.32l-.16.16v.32h-.16v.16a.14.14 0 0 1-.16.16V50l-.32.32v.32H74v.16l-.16.16v.48h-.14c0 .11 0 .16-.08.16s-.08.05-.08.16h-.16v.48h-.16v.16h-.16v.48a.14.14 0 0 0-.16.16h-.16v.48l-.16.16v.16h-.16v.32h-.16v.32h-.16V55h-.16v.16h-.16v.32l-.16.16v.16a.46.46 0 0 0-.16.32v.16a.14.14 0 0 0-.16.16v.16h-.16v.16H71v.48h-.16v.32h-.16v.32a.14.14 0 0 0-.16.16v.16h-.16v.48h-.16V59H70v.32h-.16v.16l-.16.16a.65.65 0 0 1-.16.48.14.14 0 0 1-.16.16v.32h-.16v.32a.14.14 0 0 0-.16.16l-.32.64V62l-.16.16v.16h-.16v.16l-.32.48a.65.65 0 0 0-.16.48.46.46 0 0 1-.16.32l-.16.16v.32a.46.46 0 0 0-.16.32v.16h.16v-.16c0-.1 0-.16.08-.16s.08-.05.08-.16l.48-.8a.32.32 0 0 1 .08-.24.33.33 0 0 0 .08-.24h.16v-.16l.64-1.28a.46.46 0 0 0 .16-.32l.32-.64v-.32h.16v-.14l.48-.64.32-.8v-.32l1-1.76v-.16a.14.14 0 0 0 .16-.16V56l.16-.16h.16a.63.63 0 0 1 .08-.4.33.33 0 0 0 .08-.24.46.46 0 0 0 .16-.32v-.16l.16-.16h.16V54h.16v-.16a.14.14 0 0 0 .16-.16v-.28c.21-.21.32-.37.32-.48v-.16c.11 0 .16-.1.16-.32h.16v-.16h.16v-.48a.14.14 0 0 0 .16-.16h.16v-.48h.16V51a.14.14 0 0 0 .16-.16v-.32l.32-.16V50l.32-.48v-.32a.14.14 0 0 1 .16-.16l.16-.16v-.32l.16-.16v-.16h.16V48l.32-.48v-.16h.16V47h.16a.46.46 0 0 1 .16-.32v-.32l.16-.16a.14.14 0 0 1 .16-.16zm-8.63 15.17h.16v-.16h.32v-.32a.14.14 0 0 0 .16-.16v-.16h.16v-.32h.16v-.32h.16v-.48h.16v-.32h.16v-.64l-.16.16v.16h-.16v.16l-.16.16v.16h-.16v.64h-.32v.32a.14.14 0 0 1-.16.16v.16h-.16v.32h-.16zm3.19-1.44h-.16v-.16h-.16v.16H71v.32h-.16v.16l-.16.16v.32a.14.14 0 0 0-.16.16v.16h-.16v.32l-.16.16v.16H70v.48h-.16v.3H70v-.16h.32v-.48h.16v-.16l.16-.16v-.32l.16-.16a.14.14 0 0 0 .16-.16v-.48h.16v-.32h.16v-.16h.16zm-1.28-2.87h.16v-.16h.16v-.16h.16V56l.16-.32v-.16H71v-.32a.14.14 0 0 0 .16-.16l.16-.16.16-.32v-.36h.16V54h.16v-.32a.47.47 0 0 0 .16-.32h.16v-.32h.16v-.32h.16v-.48h.16v-.16h.16v-.48h-.16v.16h-.16V52h-.16v.16h-.16v.32h-.16v.32h-.16v.48h-.16v.16h-.16v.48h-.16V54h-.16v.32H71v.48h-.16v.2l-.16.16v.32h-.16v.32h-.16v.32a.14.14 0 0 0-.16.16zm6.07-7.35h-.15l-.16.16v.16h-.16v.16a.14.14 0 0 0-.16.16h-.16v.48h-.16v.32h-.16v.32A.14.14 0 0 1 75 51v.16a.14.14 0 0 0-.16.16v.32h-.16v.16h-.18v.48h-.16v.16l-.16.16v.32H74v.16a.14.14 0 0 0-.16.16v.32h-.14v.32h-.16V54a.14.14 0 0 1-.16.16v.32a.14.14 0 0 0-.16.16v.16h-.16v.48h-.16v.16h-.16v.32a.33.33 0 0 1-.08.24.32.32 0 0 0-.08.24h-.16v.32h-.16c0 .21-.06.32-.16.32v.48l-.32.32V58l-.16.16v.16c-.11 0-.16 0-.16.08s.05.08.16.08v.16h.16v-.32c0-.1.1-.26.32-.48v-.32l.48-.64v-.16a.14.14 0 0 0 .16-.16v-.32h.16A.32.32 0 0 1 73 56a.33.33 0 0 0 .08-.24l.16-.32.16-.16.48-.8V54H74c0-.21.05-.32.16-.32v-.28h.16v-.32h.16v-.32l.16-.32h.16v-.32h.2v-.32h.16v-.32a.14.14 0 0 0 .16-.16v-.16a.14.14 0 0 0 .16-.16v-.16a.14.14 0 0 1 .16-.16v-.32h.16V50h.16v-.32h.16v-.16l.16-.16zm-2.71 1.28V50h.16l.16-.16v-.44H74v-.32h-.3v.16c-.11 0-.11.05 0 .16h-.16v.16h-.16V50h-.16v.32zm2.71-1.76v.48h.16v-.32h.16v-.16zm.64-3.19v.16h.16v-.16zm16 12.3a.14.14 0 0 0-.16.16V58a.14.14 0 0 0-.16.16v.32h-.16v.32a.14.14 0 0 0-.16.16v.16l-.32.32v.32h-.16v.32l-.16.16v.32a.14.14 0 0 0-.16.16.14.14 0 0 1 .16.16h.16v-.16l.16-.16a.92.92 0 0 1 .32-.64v-.16l.16-.16v-.16h.16l.43-1.09.16-.16V58l.16-.32v-.16h.16v-.32c.21-.21.32-.37.32-.48l.32-.64.18-.08.64-1.44v-.16l.16-.16V54l.16-.16v-.16l.32-.48v-.16a.14.14 0 0 0 .16-.16v-.16h.16v-.12l.16-.16v-.16l.16-.16V52a.65.65 0 0 0 .16-.48h.16v-.16l.16-.16V51l.16-.16v-.16l.16-.16v-.32h.16v-.32h.16v-.32l.16-.16v-.16l.16-.16v-.32c.1 0 .16-.1.16-.32l.16-.16v-.16l.16-.16v-.48h.16V47h.16v-.48c.1 0 .16-.1.16-.32v-.16c.1 0 .1-.05 0-.16h.16v-.64h-.16v.16h-.16v.32a.14.14 0 0 0-.16.16v.32h-.16v.32H98v.32h-.16v.32l-.16.16v.32h-.18V48a.14.14 0 0 0-.16.16v.32h-.16v.32H97v.32a.46.46 0 0 0-.16.32v.16h-.14v.32h-.16v.32l-.16.16v.16l-.16.16V51h-.16v.32h-.16v.16a.14.14 0 0 1-.16.16V52h-.16v.16l-.16.16v.16a.14.14 0 0 1-.16.16v.16l-.16.16v.16l-.16.16v.32h-.16v.16a.14.14 0 0 1-.16.16v.32h-.16v.16h-.16v.48h-.16v.32l-.16.16v.32h-.16v.16l-.16.16v.32h-.16v.32h-.16v.16a.65.65 0 0 0-.16.48H93v.16h-.16zm-1.28-.32v.16h.16v-.16h.32v-.32h.16v-.32h.16v-.32h.16V56h.16v-.32h.16v-.32h-.16v-.16h-.16v.16h-.16v.16h-.16v.32h-.16v.32h-.16v.32h-.16v.32h-.16v.48h-.16v.16zm1.76-3.51l.16-.16v-.16l.16-.16h.16v-.32a.14.14 0 0 0 .16-.16l.16-.16a.46.46 0 0 1 .16-.32v-.16a.14.14 0 0 1 .16-.16V52h.16v-.32h.16v-.32h.16V51h.16v-.32a.14.14 0 0 0 .16-.16v-.16h.16v-.16l-.19-.2h-.16v.16h-.32v.16h-.16v.32h-.16V51h-.16v.32h-.16v.32H94V52h-.16v.16h-.16v.16l.16.16h-.16v.32h-.16v.16h-.16v.32h-.16v.16l-.16.16v.32zm2.08 3h-.16v-.16h-.19v.16h-.16l-.16.16v.16h-.16v.16c0 .11 0 .16-.08.16s-.08.06-.08.16v.16h-.16v.32h-.16v.32H94V59h.48v-.16h.16v-.32h.16v-.32h.16v-.48h.16v-.32h.16v-.32h.16zm.16-7.83h.32v-.16h.16v-.32h.16v-.48h-.16L95.9 48h-.16v.48a.14.14 0 0 0-.16-.16v.64h-.16zm3.19-.32a.14.14 0 0 0-.16.16v.16h-.16v.32h-.18v.32h-.16V50c0 .11 0 .16-.08.16s-.08.05-.08.16v.16h-.16v.32l-.16.16v.32h-.16v.32h-.16v.4h-.16v.32H97v.32h-.16v.48h-.14v.32h-.16v.32h-.16V54h-.16v.32h-.16v.32h-.16v.48h-.16v.16c0 .11 0 .16-.08.16s-.08.06-.08.16h-.16v.64h.16v-.16l.32-.32v-.16h.16c0-.1.1-.26.32-.48V55a.46.46 0 0 1 .16-.32v-.16a.46.46 0 0 0 .16-.32c.1 0 .16-.1.16-.32H97a1.25 1.25 0 0 0 .16-.48.46.46 0 0 1 .16-.32v-.32h.16v-.16l.16-.16v-.32h.16V52l.2-.2a.46.46 0 0 1 .16-.32v-.32h.16v-.32h.16v-.32h.16v-.32l.16-.16v-.32h.16v-.32a.47.47 0 0 0 .16-.32v-.16h.16v-.48h.16v-.32h-.32v.32h-.16v.16h-.16z"/><path class="cls-1" d="M134.55 64.9a13.25 13.25 0 0 1 3.67-2.32c.85-.26 1.44-.24 1.76.08a1.68 1.68 0 0 1 .24 1.6 7.63 7.63 0 0 1-1 2.4l-1.12 1.92-2.56 3.19-1.76 1.92-.48.64-.32.16-.32.32-1.76 1.6a13.56 13.56 0 0 1-4.15 2.4c-.43.11-.8.19-1.12.24a6.69 6.69 0 0 1-1.12.08 2.77 2.77 0 0 1-2.08-.16h-.64a.32.32 0 0 1-.24-.08.33.33 0 0 0-.24-.08l-1-.32a6.69 6.69 0 0 1-1.76-1.28 6.62 6.62 0 0 1-1.6-4 8.62 8.62 0 0 1 .32-2.4q.32-1.12.64-2.4l.48-1.28.64-1.28.32-1a.92.92 0 0 0 .32-.64q1.44-2.88 2.71-5.27t2.08-4.15a26.45 26.45 0 0 1 1.2-2.79q.88-1.83 1.84-3.59a7.61 7.61 0 0 0 .88-2.79q.08-1.2-1.36-1.52a13.31 13.31 0 0 0-5.91 2.55 53 53 0 0 0-5.91 4.79q-2.08 3.68-4.55 8.3T106 68.49q-2.16 4.07-3.59 6.95l-1.6 3.19c0 .21-.05.32-.16.32l-1.6 3.59q-1 2.16-2.16 4.63t-2.48 5q-1.28 2.55-2.55 4.63l-.48.64-.48 1a4.89 4.89 0 0 0-.24.56 1.56 1.56 0 0 1-.4.56l-.64 1.12a13.06 13.06 0 0 1-3.19 3.51 7 7 0 0 1-5.11 1.6A7.57 7.57 0 0 1 77 103.7a9.39 9.39 0 0 1-2.55-4.55 9.62 9.62 0 0 1 .4-5.83 5.54 5.54 0 0 1 1.68-2.4 2.58 2.58 0 0 1 2-.64 1.72 1.72 0 0 1 1.36 1.2 4.56 4.56 0 0 1-.24 3 8.61 8.61 0 0 0-.56 3.11q.08 1.2.64 1.44c.38.16.88 0 1.52-.48a7.46 7.46 0 0 0 1.92-2.63L86 90.13l10.86-21.56q.64-1.59 1.68-3.75t2.08-4.23q1-2.07 1.92-3.75t1.2-2.48c.1-.32.37-.93.8-1.84l1.44-3 1.52-3.19q.72-1.52 1.2-2.48 1-1.76 1.6-3.19c.42-1 .69-1.54.8-1.76q.48-.8 2.08-.8a9 9 0 0 1 3.35.8 7.35 7.35 0 0 1 2.24 1.6l2.55-1.28a14.12 14.12 0 0 1 3.19-.8 16.73 16.73 0 0 1 1.68-.24q.88-.08 2-.08h.48a.92.92 0 0 0 .64.16 5.28 5.28 0 0 1 1.28.32 7.19 7.19 0 0 1 2.24 1 7.49 7.49 0 0 1 2.71 3.19 8.45 8.45 0 0 1 .8 4.39 21.45 21.45 0 0 1-1 5.19 35.34 35.34 0 0 1-2.4 5.59q-1.52 2.87-3.11 5.75l-3.35 5.91q-1 1.92-.8 2.32t1-.08a15.51 15.51 0 0 0 2.24-1.6q1.35-1.11 2.55-2.24t2.08-2zM85.36 96.36v-.16h.16v-.32h.16v-.32h.16v-.32H86v-.32h.16v-.32h-.48v.16h-.16v.32h-.16v.32h-.16v.16H85v.32h-.16v.48zm1.44.16c.21-.21.32-.37.32-.48l.32-.48v-.16l.64-1.12V94h.16v-.2h.16v-.16a.65.65 0 0 0 .16-.48h.16V93l.16-.16v-.16H89v-.32h.16v-.16a.46.46 0 0 0 .16-.32.14.14 0 0 0 .16-.16v-.16h.16v-.16l.16-.16v-.16l.16-.16v-.32h.16v-.16l.16-.16v-.16l.16-.16a.47.47 0 0 1 .16-.32v-.16l.16-.16v-.16l.16-.16v-.32h.16c0-.21.05-.32.16-.32v-.16l.16-.16v-.16l.16-.16v-.32h.16v-.32h.16v-.16h-.32v.16h-.16v.16h-.16v.32h-.16v.16h-.16v.32h-.16v.16h-.16v.32h-.16v.32h-.16v.32h-.16v.16H90v.32l-.16.16v.32h-.16v.32h-.16v.16l-.16.16v.16h-.16v.32H89v.32h-.16v.32h-.16v.32h-.16v.16h-.16v.32h-.16V93h-.16v.32h-.16v.16l-.16.16v.16l-.16.16v.32h-.16v.32a.14.14 0 0 0-.16.16l-.16.16v.32H87v.32h-.2v.16h-.16V96c-.1 0-.16.1-.16.32h-.16v.16h-.16v.32H86a.65.65 0 0 1-.16.48v.16h-.16v.32l-.32.32a.46.46 0 0 1-.16.32v.16l-.16.16v.48h.16a.14.14 0 0 1 .16-.16l.32-.64.16-.16v-.16l.48-.8a.14.14 0 0 0 .16-.16.46.46 0 0 1 .16-.32v-.16h.16zm-.48-3h.16l.16-.16A36.92 36.92 0 0 0 87 93v-.16h.16v-.16a.46.46 0 0 0 .16-.32v-.16h.16V92h.16v-.16a.14.14 0 0 0 .16-.16v-.16h.16v-.32h.16v-.32h.16v-.48h-.32l.16.16h-.48v.32h-.16v.32h-.16v.32h-.16v.16c-.11 0-.11.05 0 .16H87V92h-.2v.48h-.16v.16h-.16V93l-.16.16h-.16v.16zm2.24 2.87l-.16-.16h-.16a.14.14 0 0 0-.16.16v.16h-.16v.16a.14.14 0 0 0-.16.16V97h-.16v.32h-.16v.32h-.16V98h.16v.16h.16V98h.32v-.32a.14.14 0 0 0 .16-.16v-.16h.16v-.48h.16v-.32h.16zm.44-6.9v-.32h.16v-.32h-.64l.16.16h-.16v.32h-.16v.32h.48v-.32zm2.71 0v.16l-.16.16h-.16V90h-.16v.32h-.16v.48h-.16v.32h-.16v.16a.14.14 0 0 0-.16.16v.32h-.16v.16h-.16v.32h-.16v.32H90v.32h-.16V93h-.16v.64h-.16v.16h-.16v.32l-.16.16v.16H89v.32h-.16v.32l-.16.16-.16.16v.48h.16l.32-.32v-.16h.16v-.16l.16-.32a.14.14 0 0 0 .16-.16v-.32h.16c0-.11 0-.16.08-.16s.08-.06.08-.16L90 94v-.2l.32-.48V93h.16v-.32h.16v-.16h.16v-.16a.14.14 0 0 1 .16-.16V92a.14.14 0 0 1 .16-.16v-.16l.16-.16v-.32h.16v-.16a.14.14 0 0 1 .16-.16v-.32h.16v-.32l.16-.16V90l.16-.16v-.16a.14.14 0 0 0 .16-.16zm20.44-43.92H112v.16l-.16.16v.32h-.16v.16a.14.14 0 0 0-.16.16v.16h-.16v.16a.14.14 0 0 0-.16.16l-.16.16v.16l-.16.16v.16h-.16V48l-.16.16v.16h-.16v.32h-.16v.32l-.16.16v.32H110v.16a.14.14 0 0 1-.16.16V50l-.32.32v.32h-.16v.16l-.16.16v.48h-.2c0 .11 0 .16-.08.16s-.08.05-.08.16h-.16v.48h-.16v.16h-.16v.48a.14.14 0 0 0-.16.16h-.2v.48l-.16.16v.16h-.16v.32h-.16v.32h-.16V55h-.16v.16h-.16v.32l-.16.16v.16a.46.46 0 0 0-.16.32v.16a.14.14 0 0 0-.16.16v.16h-.16v.16h-.16v.48h-.16v.32H106v.32a.14.14 0 0 0-.16.16v.16h-.16v.48h-.16V59h-.16v.32h-.16v.16l-.16.16a.65.65 0 0 1-.16.48.14.14 0 0 1-.16.16v.32h-.16v.32a.14.14 0 0 0-.16.16l-.32.64V62l-.16.16v.16h-.16v.16l-.32.48a.65.65 0 0 0-.16.48.46.46 0 0 1-.16.32l-.16.16v.32a.46.46 0 0 0-.16.32v.16h.16v-.16c0-.1 0-.16.08-.16s.08-.05.08-.16l.48-.8a.32.32 0 0 1 .08-.24.33.33 0 0 0 .08-.24h.16v-.16l.64-1.28a.46.46 0 0 0 .16-.32l.32-.64v-.32h.16v-.14l.48-.64.32-.8v-.32l1-1.76v-.16a.14.14 0 0 0 .16-.16V56l.16-.16h.16a.63.63 0 0 1 .08-.4.33.33 0 0 0 .08-.24.46.46 0 0 0 .16-.32v-.16l.16-.16h.04V54h.16v-.16a.14.14 0 0 0 .16-.16v-.28c.21-.21.32-.37.32-.48v-.16c.11 0 .16-.1.16-.32h.2v-.16h.16v-.48a.14.14 0 0 0 .16-.16h.16v-.48h.16V51a.14.14 0 0 0 .16-.16v-.32l.32-.16V50l.32-.48v-.32a.14.14 0 0 1 .16-.16l.16-.16v-.32l.16-.16v-.16h.16V48l.32-.48v-.16h.16V47h.16a.46.46 0 0 1 .16-.32v-.32l.16-.16a.14.14 0 0 1 .16-.16zm-8.62 15.17h.16v-.16h.31v-.32a.14.14 0 0 0 .16-.16v-.16h.16v-.32h.16v-.32h.16v-.48h.16v-.32h.2v-.64l-.16.16v.16h-.16v.16l-.16.16v.16h-.16v.64H104v.32a.14.14 0 0 1-.16.16v.16h-.16v.32h-.16zm3.19-1.44h-.16v-.16h-.16v.16h-.16v.32h-.16v.16l-.16.16v.32a.14.14 0 0 0-.16.16v.16h-.16v.32l-.16.16v.16h-.16v.48h-.16v.3h.16v-.16h.32v-.48h.16v-.16l.16-.16v-.32l.16-.16a.14.14 0 0 0 .16-.16v-.48h.16v-.32h.16v-.16h.16zm-1.28-2.87h.16v-.16h.16v-.16h.24V56l.16-.32v-.16h.16v-.32a.14.14 0 0 0 .16-.16l.16-.16.16-.32v-.36h.16V54h.16v-.32a.47.47 0 0 0 .16-.32h.16v-.32h.16v-.32h.16v-.48h.16v-.16h.08v-.48h-.16v.16h-.16V52h-.16v.16h-.16v.32h-.16v.32h-.16v.48h-.16v.16h-.16v.48h-.16V54h-.16v.32h-.16v.48h-.16v.2l-.16.16v.32h-.16v.32h-.16v.32a.14.14 0 0 0-.16.16zm6.07-7.35h-.16l-.16.16v.16h-.16v.16a.14.14 0 0 0-.16.16h-.16v.48h-.16v.32h-.16v.32a.14.14 0 0 1-.16.16v.16a.14.14 0 0 0-.16.16v.32H110v.16h-.16v.48h-.16v.16l-.16.16v.32h-.16v.16a.14.14 0 0 0-.16.16v.32h-.2v.32h-.16V54a.14.14 0 0 1-.16.16v.32a.14.14 0 0 0-.16.16v.16h-.16v.48h-.16v.16h-.2v.32a.33.33 0 0 1 0 .24.32.32 0 0 0-.08.24h-.16v.32h-.16c0 .21-.06.32-.16.32v.48l-.32.32V58l-.16.16v.16c-.11 0-.16 0-.16.08s.05.08.16.08v.16h.16v-.32c0-.1.1-.26.32-.48v-.32l.48-.64v-.16a.14.14 0 0 0 .16-.16v-.32h.16a.32.32 0 0 1 .08-.24.33.33 0 0 0 .08-.24l.16-.32.16-.16.48-.8V54h.16c0-.21.05-.32.16-.32v-.28h.16v-.32h.16v-.32l.16-.32h.16v-.32h.16v-.32h.16v-.32a.14.14 0 0 0 .16-.16v-.16a.14.14 0 0 0 .16-.16v-.16a.14.14 0 0 1 .16-.16v-.32h.16V50h.16v-.32h.16v-.16l.16-.16zm-2.71 1.28V50h.2l.16-.16v-.44h.16v-.32H109v.16c-.11 0-.11.05 0 .16h-.16v.16h-.16V50h-.16v.32zm2.71-1.76v.48h.16v-.32h.16v-.16zm.64-3.19v.16h.16v-.16zm16 12.3a.14.14 0 0 0-.16.16V58a.14.14 0 0 0-.16.16v.32h-.16v.32a.14.14 0 0 0-.16.16v.16l-.32.32v.32H127v.32l-.16.16v.32a.14.14 0 0 0-.16.16.14.14 0 0 1 .16.16h.16v-.16l.16-.16a.92.92 0 0 1 .32-.64v-.16l.16-.16v-.16h.16l.48-1.12.16-.16V58l.16-.32v-.16h.16v-.32c.21-.21.32-.37.32-.48l.32-.64.16-.16.64-1.44v-.16l.16-.16V54l.16-.16v-.16l.32-.48v-.16a.14.14 0 0 0 .16-.16v-.16h.16v-.12l.16-.16v-.16l.16-.16V52a.65.65 0 0 0 .16-.48h.16v-.16l.16-.16V51l.16-.16v-.16l.16-.16v-.32h.16v-.32h.16v-.32l.16-.16v-.16l.16-.16v-.32c.1 0 .16-.1.16-.32l.16-.16v-.16l.16-.16v-.48h.16V47h.16v-.48c.1 0 .16-.1.16-.32v-.16c.1 0 .1-.05 0-.16h.16v-.64h-.16v.16h-.16v.32a.14.14 0 0 0-.16.16v.32h-.16v.32h-.16v.32h-.16v.32l-.16.16v.32h-.16V48a.14.14 0 0 0-.16.16v.32h-.16v.32h-.16v.32a.46.46 0 0 0-.16.32v.16H132v.32h-.16v.32l-.16.16v.16l-.16.16V51h-.16v.32h-.16v.16a.14.14 0 0 1-.16.16V52h-.16v.16l-.16.16v.16a.14.14 0 0 1-.16.16v.16l-.16.16v.16l-.16.16v.32h-.16v.16a.14.14 0 0 1-.16.16v.32h-.16v.16h-.16v.48h-.16v.32l-.16.16v.32h-.16v.16L129 56v.32h-.16v.32h-.16v.16a.65.65 0 0 0-.16.48h-.16v.16h-.16zm-1.28-.32v.16h.13v-.16h.32v-.32h.16v-.32h.16v-.32h.16V56h.2v-.32h.16v-.32H128v-.16h-.16v.16h-.16v.16h-.16v.32h-.16v.32h-.16v.32h-.2v.32h-.16v.48h-.16v.16zm1.76-3.51l.16-.16v-.16l.16-.16h.16v-.32a.14.14 0 0 0 .16-.16l.16-.16a.46.46 0 0 1 .16-.32v-.16a.14.14 0 0 1 .16-.16V52h.16v-.32h.16v-.32h.16V51h.16v-.32a.14.14 0 0 0 .16-.16v-.16h.16v-.16l-.16-.16h-.16v.16h-.32v.16h-.16v.32h-.16V51h-.16v.32h-.16v.32h-.16V52h-.16v.16H129v.16l.16.16H129v.32h-.16v.16h-.16v.32h-.16v.16l-.16.16v.32zm2.08 3h-.16v-.16h-.16v.16h-.16l-.16.16v.16h-.16v.16c0 .11 0 .16-.08.16s-.08.06-.08.16v.16h-.16v.32h-.16v.32h-.16V59h.48v-.16h.16v-.32h.16v-.32h.16v-.48h.16v-.32h.16v-.32h.16zm.16-7.83h.32v-.16h.16v-.32h.16v-.48h-.16l-.16-.16H131v.48a.14.14 0 0 0-.16-.16v.64h-.16zm3.19-.32a.14.14 0 0 0-.16.16v.16h-.16v.32h-.16v.32h-.16V50c0 .11 0 .16-.08.16s-.08.05-.08.16v.16h-.16v.32l-.16.16v.32h-.16v.32h-.16v.4h-.16v.32h-.16v.32h-.16v.48H132v.32h-.16v.32h-.16V54h-.16v.32h-.16v.32h-.16v.48h-.2v.16c0 .11 0 .16-.08.16s-.08.06-.08.16h-.16v.64h.16v-.16l.32-.32v-.16h.16c0-.1.1-.26.32-.48V55a.46.46 0 0 1 .16-.32v-.16a.46.46 0 0 0 .16-.32c.1 0 .16-.1.16-.32h.16a1.25 1.25 0 0 0 .16-.48.46.46 0 0 1 .16-.32v-.32h.16v-.16l.16-.16v-.32h.16V52l.16-.16a.46.46 0 0 1 .16-.32v-.32h.16v-.32h.16v-.32h.16v-.36l.16-.16v-.32h.16v-.32a.47.47 0 0 0 .16-.32v-.16h.16v-.48h.16v-.32h-.32v.32h-.16v.16h-.16z"/><path class="cls-1" d="M150.67 63.46a12.33 12.33 0 0 1 3.67-2.08q1.28-.32 1.76.24a1.89 1.89 0 0 1 .16 1.76 7.17 7.17 0 0 1-1.12 2.32 5.53 5.53 0 0 1-1.14 1.75q-1.28 1.76-3 3.67a21 21 0 0 1-3.43 3.19l-1.12 1.12-1.76 1.44a12.61 12.61 0 0 1-4.15 2.08 4.92 4.92 0 0 1-1.2.16h-1a6.19 6.19 0 0 1-2.24-.32l-.48-.16a.65.65 0 0 1-.48-.16l-1.07-.47a6.53 6.53 0 0 1-1.6-1.44 4.09 4.09 0 0 1-1-2 14.4 14.4 0 0 1-.16-2.16 9.62 9.62 0 0 1 .32-2.48q.32-1.2.8-2.48l.48-1.12.48-1.28.48-1 .48-.64q1.44-2.87 2.71-5.27t2.12-4.13a10.5 10.5 0 0 1 .8-1.6l1.36-2.4q.72-1.28 1.44-2.64t1.2-2.32l2.54-5.04c.32-.64 1.06-.85 2.24-.64a12 12 0 0 1 3.83.72 2.72 2.72 0 0 1 1.6 1.44 3.2 3.2 0 0 1 0 2 10.23 10.23 0 0 1-1 2.24 17 17 0 0 1-.8 1.76q-.64 1.28-1.52 3t-1.84 3.43q-1 1.76-1.92 3.35a63.09 63.09 0 0 0-3.83 6.55 13.86 13.86 0 0 0-.8 1.44q-.48 1-1 1.92t-1.36 2.56q-1 1.92-.64 2.24t1.44-.32a22.16 22.16 0 0 0 2.79-2q1.68-1.35 3.11-2.71t2.55-2.32q1.14-1.04 1.3-1.2zM136 77.19V77h-.16v-.16h-.32v-.32h-.16v-.16h-.16v-.16h-.2v-.16h-.16v.16h-.16v.16a.14.14 0 0 0-.16.16h.16v.16h.16v.16h.16V77h.16v.16h.16v.16h.16v.16h.32v.16h.2v-.16h.16v-.32zm6.87-2.4h-.32V75h-.32v.16h-.48v.16h-.16l-.16.16h-.16v.16h-.16l-.16.16h-.16v.16h-.32v.16h-.16l-.16.16h-.32v.16h-.48v.16h-1.45v-.16h-.48v-.16h-.32v-.16h-.16v-.16h-.16l-.16-.16v-.16h-.16v-.16h-.16v-.16a.14.14 0 0 1-.16-.16H136V75h-.16v-.2l-.16-.16v-.32a.14.14 0 0 1-.16-.16h-.16V74H135v.16a.14.14 0 0 1 .16.16c0 .11 0 .16.08.16s.08.05.08.16v.16l.16.16.32.64h.2a.46.46 0 0 0 .16.32h.16v.16l.16.16v.16a.46.46 0 0 1 .32.16.14.14 0 0 1 .16.16.32.32 0 0 1 .24.08.32.32 0 0 0 .24.08.66.66 0 0 1 .48.16h1.6a.46.46 0 0 0 .32-.16h.32v-.16h.32v-.16h.32v-.16h.16a.14.14 0 0 0 .16-.16h.16l.16-.16h.16v-.16h.16v-.16h.16l.16-.16h.16v-.16h.16l.16-.16v-.16h.16a.14.14 0 0 0 .16-.16zm-.32 2.08l-.16-.16h-.16v.16h-.48V77l-.16-.16V77h-.16v.16h-.16a.14.14 0 0 0-.16.16h-.16l-.16.16h-.16a.14.14 0 0 0-.16.16h-.32v.16h-.64v.2h-.64v.16h-.8V78h-.8a.14.14 0 0 0-.16-.16h-.16v-.16h-.48V78a.46.46 0 0 1 .32.16h.16v.16h.16c.11 0 .16 0 .16.08s.1.08.32.08h.48a.45.45 0 0 0 .32.16h.48a.33.33 0 0 0 .24-.08.63.63 0 0 1 .4-.08v-.16h.16v.16h.16a.14.14 0 0 1 .16-.16h.48v-.16h.32V78h.32v-.16h.32v-.16h.16l.16-.16h.16v-.16h.16l.16-.16h.16V77h.16zM137.26 75v.32h.32v.16h.16v-.16h.16v-.52h-.16a.14.14 0 0 0-.16-.16h-.16v-.16h-.16v.16h-.16v.16h-.16v.2zm1.28.48v.16h.64v-.16h.32v-.32l-.16-.16h-1v.16h-.16v.32zm1.28-.64h.18l-.16-.16zm.16.32h.16l.16-.16h.16v-.32h-.16v-.16h-.3zm1.6-15.17a.46.46 0 0 0-.16.32h.32a.46.46 0 0 1 .16-.32l.48-.8.16-.32.16-.16a4.8 4.8 0 0 1 .32-.56 5.66 5.66 0 0 0 .32-.56c0-.1 0-.16.08-.16s.08-.05.08-.16a.32.32 0 0 1 .08-.24.32.32 0 0 0 .08-.24l.16-.16v-.16h.18v-.16l.48-.64a.92.92 0 0 1 .32-.64l1-1.92v-.16l.16-.16v-.19h.04v-.16l.16-.16a.7.7 0 0 1 .08-.32.71.71 0 0 0 .08-.32h.16v-.16l.16-.16v-.16h.16V51l.16-.16v-.16h.16v-.16c0-.1 0-.16.08-.16s.08-.05.08-.16a.32.32 0 0 1 .08-.24.33.33 0 0 0 .08-.24.14.14 0 0 0 .16-.16l.16-.16v-.16l.16-.16v-.16h.16v-.32h.16v-.32l.16-.16V48h.16v-.32h.16v-.32a.14.14 0 0 0 .16-.16V47h.16v-.32c.11 0 .16-.1.16-.32a.14.14 0 0 0 .16-.16.14.14 0 0 1 .16-.16v-.16l.16-.16v-.32h.16v-.16l.32-.48v-.16l.16-.16v-.16a.46.46 0 0 0 .16-.32h.16v-.32h.16v-.32l.16-.16V43h.16v-.16h-.32V43h-.16v.16l-.16.16v.16h-.16v.16a.14.14 0 0 0-.16.16v.2H150v.16h-.16v.32h-.16v.16h-.16v.16l-.16.16v.32h-.16v.16a.14.14 0 0 0-.16.16v.16h-.16v.32l-.16.16v.16h-.16v.32h-.16V47a.65.65 0 0 0-.16.48h-.16v.16H148V48h-.16v.32h-.16v.32h-.16v.32h-.16v.32h-.16v.16l-.16.16v.16l-.16.16V50a.14.14 0 0 0-.16.16.14.14 0 0 1-.16.16v.32h-.16v.16l-.16.16v.16H146v.32h-.16v.32a.14.14 0 0 0-.16.16l-.16.16v.16l-.16.16v.32h-.16v.16h-.16v.32a.14.14 0 0 1-.16.16v.32a.14.14 0 0 0-.16.16V54h-.16v.32h-.16v.16l-.16.16V55h-.16v.16H144v.32h-.16v.16l-.32.48v.16h-.16v.32h-.16v.32h-.2v.16c0 .11-.11.27-.32.48v.16l-.16.16v.32a.14.14 0 0 0-.16.16c0 .11-.11.27-.32.48 0 .11 0 .16-.08.16s-.08.06-.08.16a.14.14 0 0 1-.16.16.46.46 0 0 1-.16.32zm.32-3.35h.16l.16-.16h.16v-.16h.16V56h.16v-.32h.16v-.32h.14v-.48h.16v-.16h.16v-.32h.16V54H143v.16a.14.14 0 0 0-.16.16v.16h-.16v.16a.46.46 0 0 0-.16.32v.16h-.16v.16h-.16v.32h-.16v.4h-.16zm2.08-4a.14.14 0 0 1 .16-.16l.16-.16v-.16c.11 0 .16 0 .16-.08s.05-.08.16-.08v-.32h.16v-.16l.16-.16v-.16l.32-.32h-.16v-.16h.16v-.16h.16v-.16l.16-.16V50h.16v-.16a.14.14 0 0 0 .16-.16v-.16h.1v-.32a.14.14 0 0 0 .16-.16v-.16h.16v-.32l.16-.16v-.32h-.16l-.16.16H146v.16h-.16v.16h-.16v.32h-.16v.32h-.16v.32h-.16v.16h-.16V50h-.16v.32h-.16v.16h-.16V51h-.16v.16l-.16.16v.16h-.16v.32H144v.2l-.16.16v.32zm1.92 3.19a.14.14 0 0 1-.16-.16h-.16v.16h-.16V56h-.16v.16l-.16.16v.16a.14.14 0 0 0-.16.16v.32h-.16v.16h-.16v.16l-.16.16v.32h-.16V58h-.16v.16h.64V58h.16v-.32h.16v-.32h.16v-.32h.16v-.48h.16v-.16h.16v-.32h.16zm5.1-9.78h-.32v.16h-.16v.16h-.16v.32h-.16v.16h-.2V47h-.16v.32h-.16v.32h-.16V48h-.16v.16c0 .11 0 .16-.08.16s-.08.05-.08.16v.16h-.16v.32h-.16v.32h-.16v.32h-.16v.32h-.16v.32h-.16v.16l-.16.16v.16H148V51h-.16v.48h-.16v.32h-.16v.32h-.16v.32h-.16v.16h-.2v.32h-.16v.32h-.16v.16l-.16.32V54h-.16l-.16.32-.16.16v.16l-.16.16a.14.14 0 0 0 .12.2v.16h.16V55l.32-.48.16-.16a.92.92 0 0 0 .32-.64.14.14 0 0 0 .16-.16l.16-.16v-.32l.32-.32a.46.46 0 0 1 .16-.32v-.16l.48-.8v-.32h.16V51a.47.47 0 0 0 .16-.32h.16v-.32h.16v-.16l.16-.16v-.16l.16-.16v-.16h.16v-.32h.16v-.32h.16v-.32a.14.14 0 0 0 .16-.16v-.16a.14.14 0 0 0 .16-.16V48l.16-.16v-.16h.16v-.32l.16-.16v-.32h.16v-.16l.16-.16v-.32h.2zm-4 1l.16.16V47h.16v-.16h.16v-.32h.16v-.64h-.48v.32H147v.48h-.16V47zm.8-1v-.16h-.16zm15-21.08q1.11 1.44-.16 3.75a23.29 23.29 0 0 1-3.35 4.55 28.48 28.48 0 0 1-4.29 3.84q-2.24 1.6-3 1.44-1.44 0-1.44-2.16a23.17 23.17 0 0 1 .56-4.79 34.12 34.12 0 0 1 1.36-4.79 14.91 14.91 0 0 1 1-2.32 1.29 1.29 0 0 1 1-.88 17.33 17.33 0 0 1 1.92-.4 8.61 8.61 0 0 1 2-.08 6.81 6.81 0 0 1 1.44.24 6.51 6.51 0 0 1 2.97 1.63zm-11.5 10.54l-.16-.48.16.64zm0 0h.32l.16-.32-.32-.32-.16.32zm.48-.32h.22v.32h.16l.48-.32-.48-.16-.16-.16V35zm1-.32l.16-.16h-.32v.16zm1.92-8.62c0-.1.1-.16.32-.16l-.32-.16-.48-.48.48.64zm0-.32h1l-.16-.16.16-.32-1.12-.32.16.64zm1-.48h.16l.16-.16h-.16zm.32-.16l.16.48.16-.16 1.28.32-.32-.48v-.16l-1-.16h-.16zm1.6-.48v-.16l.16-.16h-.32l-.32.16v.16z"/><path class="cls-1" d="M185.33 64.74a13.25 13.25 0 0 1 3.67-2.32q1.28-.4 1.76.08t.16 1.68a7.17 7.17 0 0 1-1.12 2.32 4.69 4.69 0 0 1-1.12 1.92 8.53 8.53 0 0 1-1 1.44q-.64.8-1.44 1.76l-1.76 2.08-.64.48-.16.32-.32.32q-.48.32-1 .72t-1 .88a17.28 17.28 0 0 1-4 2.24 6.52 6.52 0 0 1-2.24.48h-1a3.23 3.23 0 0 1-1-.16l-.64-.16a.64.64 0 0 1-.48-.16 2.42 2.42 0 0 1-1-.32 6.69 6.69 0 0 1-1.64-1.34 6.17 6.17 0 0 1-1.6-4 12.82 12.82 0 0 1 1-4.79l.44-1.21.48-1.12.48-1a2.81 2.81 0 0 0 .32-.8l2.64-5.27q1.2-2.4 2-4.15l3-6.23a11 11 0 0 0 1-3c.1-.8-.32-1.3-1.28-1.52a13.46 13.46 0 0 0-6 2.64 71 71 0 0 0-6 4.71q-1.92 3.68-4.39 8.3t-4.63 8.7q-2.15 4.07-3.59 6.95t-1.6 3.35q-.32.8-1.28.4a5.69 5.69 0 0 1-2-1.6 8.32 8.32 0 0 1-1.6-3 6.62 6.62 0 0 1-.08-3.67 27.87 27.87 0 0 1 1.44-3.51q1.12-2.4 2.4-5t2.4-4.87l1.6-3.19 5-10.38 2.4-5a2.09 2.09 0 0 1 2.08-1 9 9 0 0 1 3.35.8 9.47 9.47 0 0 1 1.2.72 8.3 8.3 0 0 1 1 .88 9.69 9.69 0 0 1 2.56-1.12l3.19-1a16.77 16.77 0 0 1 1.68-.24 8.8 8.8 0 0 1 2 .08h1.12l1.28.32a7.17 7.17 0 0 1 2.24 1 6.4 6.4 0 0 1 2.55 3.19 7.57 7.57 0 0 1 1 4.39 21.45 21.45 0 0 1-1 5.19 35.52 35.52 0 0 1-2.4 5.59q-1.52 2.87-3.11 5.75l-3.35 5.91q-1.44 2.87-.48 2.55a11.26 11.26 0 0 0 2.88-1.84 43.4 43.4 0 0 0 3.75-3.35zm-33.7 10.86v-.48h.16V75h.21v-.32h.16v-.16l.16-.16V74l.16.16V74h.16v-.16h.16v-.48l.16-.16V73h-.16v.16h-.16l-.16.16-.16-.16v.64h-.16v.2l-.16.16v.16h-.16l-.16.16V75h-.16v.16h-.16v.32h-.16v.16l-.16.32v.16l-.16-.16v.16h-.32v.64a.47.47 0 0 0-.32.16L150 77h-.16v.32h.16a.14.14 0 0 1 .16-.16l.16-.16.48-.48v-.16l.16.16v-.32h.16v-.16zm-1.44.32h.16v-.16l.16-.16v-.16h-.32v.16l-.16.16h-.16v.32h.32zm.16-1h.32v-.12h.16v-.16h.17l.16-.16h.16v-.64l-.32-.16V74h-.16v.32l-.16.32h-.16v.16h-.16zm1.12 1.44V77h-.16l-.16.16h.32l.16-.32h.16v-.32h.21v-.16zm-.16-2.71h.32v-.16h.16v-.16h-.32v-.13l-.16.16zm1.92.32h-.32v.32h-.16l-.16.32v.48h-.16v.32l-.16-.16v.16h-.16l-.16.32v.48l.16-.16h.16v-.16h.16l.16-.16v-.48l.16-.16h.16v-.29h.16l.16-.32zm-.32-1h.16v-.32h-.16zm.32.8V74h.16v-.16zm1.6-14.77h.17v-.16h.16v-.48h-.32v.32h-.32V59h.16v.16h.16zm1.76-.64V58a.14.14 0 0 0 .16-.16h.16v-.16h.16v-.32h.16v-.32a.14.14 0 0 1 .16-.16v-.16h.16v-.16l.16-.16v-.16h.16v-.48l.16-.16v-.16h.16v-.32H158v.16h-.16v.16h-.16v.16h-.16v.16h-.16v.32h-.16v.48h-.16v.16l-.16.16v.16h-.16v.16h-.16v.48h-.16v.16h-.16v.32h-.16v.48h-.16v.16h-.16v.2h-.16v.16h-.16v.48h-.16v.16a.46.46 0 0 0-.32.16v.16h-.16v.32h.2a.14.14 0 0 1 .16-.16l.32-.16v-.16l.32-.32v-.16h.16v-.16h.16V59h.16v-.16zm-1.6-.48h.48v-.16h.16v-.16l.16-.16v-.16h.16v-.16h.16v-.48h-.48v.32h-.16v.32h-.16v.32h-.16v.16H155zm1.12-1.6h.32v-.16h.16V56h-.32l-.16-.16zm.64 3v.16h-.16v.48h-.16v.16h.48v-.32h.16v-.32h.16v-.16zm1.76-3v.32h-.32v.32H158v.32h-.16v.48h-.16V58h-.16v.16h-.16v.32h-.16V59h.16l.16-.16.16-.16v-.16h.16v-.32l.16-.32.16-.16h.16v-.32h.16v-.48h.16v-.32h.16v-.32zm-.16-5h.16V51h.16v-.32h.16v-.48h.17V50l.16-.16v-.16H159v-.16h-.16v.16h-.16l-.16.16V50h-.16v.32l-.16.16v.16h-.2V51h-.16v.48h.48zm1.44.16c.21-.21.32-.37.32-.48l.32-.32v-.32a1.61 1.61 0 0 0 .4-.56 4.15 4.15 0 0 1 .24-.56v-.32h.16v-.16h.16a.32.32 0 0 1 .08-.24.33.33 0 0 0 .08-.24v-.16h.16V48h.16v-.32h.13v-.16l.16-.16a.46.46 0 0 1 .16-.32v-.16a.14.14 0 0 0 .16-.16v-.16h.16v-.32l.16-.16v-.16h.2v-.32h.16v-.16l.16-.16v-.16c0-.1 0-.16.08-.16s.08-.05.08-.16v-.16l.16-.16v-.16h.16V44a.14.14 0 0 0 .16-.16.46.46 0 0 1 .16-.32v-.16l.16-.16V43l.16-.16v-.32h.16v-.32a.14.14 0 0 0 .16-.16h-.32a.14.14 0 0 1-.16.16v.16h-.16v.32h-.16v.16h-.16v.32h-.16v.16h-.16v.32h-.16v.16a.14.14 0 0 1-.16.16v.32H163v.32h-.16v.32h-.16v.32h-.16v.32h-.16v.16a.14.14 0 0 1-.16.16v.32h-.2v.32h-.16v.32h-.16v.32h-.16v.16l-.16.16v.16a.14.14 0 0 0-.16.16v.2h-.16v.32h-.16v.32h-.16v.32h-.16v.16h-.16v.48h-.16v.32h-.16v.32h-.16v.32h-.16v.32h-.16V51a.46.46 0 0 0-.16.32h-.16v.32h-.16V52H159c0 .21-.05.32-.16.32v.32h-.16v.32l-.32.32v.16h-.16v.16l-.16.16v.64h.16v-.2a.14.14 0 0 0 .16-.16l.32-.48a.46.46 0 0 0 .16-.32h.16a1.31 1.31 0 0 1 .48-.8v-.32a.46.46 0 0 0 .16-.32h.16zm-.64-3l.16.16h.16a36.92 36.92 0 0 1 .32-.32v-.16h.16V48l.16-.16a.46.46 0 0 1 .16-.32v-.16h.16V47h.16v-.16h.16v-.32h.16v-.32h.16v-.32h.16v-.32h-.32v.16h-.32v.16h-.16v.32h-.16v.32h-.16v.32h-.16V47h-.16v.48h-.16v.16l-.16.16v.2h-.16v.32h-.16zm2.4 2.88h-.16v-.16h-.16v.16h-.16v.16h-.16v.32a.14.14 0 0 0-.16.16v.16h-.16v.16h-.16v.48h-.16v.16l.16.16h.48v-.48h.16v-.32h.16V52h.16v-.32a.14.14 0 0 0 .16-.16zm-.16-6.55h.32l.16-.16v-.16h.13V44h-.48v.16h-.16v.48h-.16zm3.35-.32v.16h-.16v.16h-.16v.16h-.16v.16l-.16.16v.16h-.16v.48h-.16v.32h-.16v.32h-.16v.32h-.16v.32h-.16v.32H163v.32h-.16v.32h-.16v.32l-.16.16v.32h-.16v.16l-.16.16v.16h-.2v.16a.46.46 0 0 1-.16.32V50l-.16.16v.16h-.16v.48h.32a.46.46 0 0 1 .16-.32v-.16h.16a.32.32 0 0 1 .08-.24.32.32 0 0 0 .08-.24h.16v-.32h.16v-.12l.16-.16v-.16l.16-.16a.92.92 0 0 1 .32-.64V48h.16v-.16a.14.14 0 0 1 .16-.16v-.16h.16v-.16a.14.14 0 0 1 .16-.16v-.32h.16v-.32h.16v-.32a.14.14 0 0 0 .16-.16v-.16l.16-.16v-.32h.16v-.32h.16v-.32h.12v-.32zm11.82 19.32v-.16l.8-1.6.64-1.76v-.15l.16-.16v-.16a.14.14 0 0 0 .16-.16v-.16h.16v-.16a.32.32 0 0 1 .08-.24.33.33 0 0 0 .08-.24v-.16h.16v-.32l.16-.16V58l.16-.16v-.16l.16-.16v-.16c0-.1 0-.16.08-.16s.08-.05.08-.16a.33.33 0 0 1 .08-.24.33.33 0 0 0 .08-.24l.16-.16v-.16l.16-.16v-.32h.16v-.16a.46.46 0 0 1 .16-.32V55l.16-.16v-.16l.16-.16v-.32a.14.14 0 0 0 .16-.16.46.46 0 0 1 .16-.32c0-.21.05-.32.16-.32v-.48a.14.14 0 0 0 .16-.16v-.32h.16v-.32l.16-.16v-.32a.65.65 0 0 0 .16-.48h.16v-.32l.16-.16c0-.21.05-.32.16-.32v-.48h.16v-.48h.16v-.32h-.32v.32H182v.32h-.16V50a.14.14 0 0 0-.16.16v.16h-.16v.32h-.16V51h-.16v.32h-.2v.48h-.16v.32h-.16v.48h-.16v.32l-.16.16v.32l-.16.16v.16a.33.33 0 0 1-.08.24.32.32 0 0 0-.08.24l-.16.16v.32h-.16V55l-.16.16v.32h-.16v.32h-.16v.32a.14.14 0 0 1-.16.16v.32h-.16v.32l-.16.16v.16l-.16.16v.32h-.16V58h-.16v.32l-.16.16v.32H178v.32h-.16v.32l-.16.16v.32h-.16v.16a.14.14 0 0 1-.16.16v.48h-.16v.48h-.2v.32h-.16v.32l-.16.16v.32h-.16v.32h-.16V63a.14.14 0 0 0-.16.16.33.33 0 0 1-.08.24.32.32 0 0 0-.08.24.14.14 0 0 0-.16.16v.16a.14.14 0 0 1-.16.16v.32h-.16v.16a.33.33 0 0 1-.08.24.62.62 0 0 0-.08.4h-.16v.48h-.16V66c-.21.21-.32.37-.32.48s0 .16-.08.16-.08.05-.08.16v.2l-.16.16v.32c-.11 0-.16.11-.16.32v.32h.16v-.16a.14.14 0 0 0 .16-.16l.48-1 .16-.32v-.16l.64-1.28.16-.32a.32.32 0 0 1 .08-.24.33.33 0 0 0 .08-.24l.16-.16v-.32zm-2.08.32v.16h.16v-.15h.32v-.32h.16v-.48h.16V63h.16v-.64h.16v-.16h.16v-.5h.16v-.16h-.16v-.16h-.16v.16h-.16v.16h-.16v.3h-.16v.16a.46.46 0 0 0-.16.32v.16h-.16V63h-.16v.32a.14.14 0 0 0-.16.16v.48h-.16v.16zm1.92-4.31a.14.14 0 0 1 .16-.16v-.16c0-.1 0-.16.08-.16s.08-.05.08-.16.1-.05 0-.16h.16v-.16a.14.14 0 0 0 .16-.16v-.16l.16-.16a.65.65 0 0 1 .16-.48v-.16a.14.14 0 0 0 .16-.16v-.16h.16v-.16a.14.14 0 0 1 .16-.16v-.32h.16v-.32a.14.14 0 0 0 .16-.16V56h.16v-.48h.16v-.32h-.32v.16H178v.16h-.16v.16h-.16V56l-.16.16v.32h-.16v.32h-.16v.32h-.2v.32l-.16.16v.16h-.16v.64h-.16v.32h-.16v.16a.14.14 0 0 1-.16.16v.32h-.16v.48zM178 63v.16h-.16v.32h-.16v.16l-.16.16v.32h-.16v.32h-.16v.32h-.2v.48h-.16v.48h.32v-.16h.32v-.48h.16v-.32h.16v-.32h.2v-.64h.16v-.32h.16V63zm4.47-10.38h-.16v.16h-.16v.32H182v.16l-.16.16v.16h-.16V54h-.16v.48h-.16V55h-.16v.32h-.2v.48h-.16v.32h-.16v.48h-.16v.32h-.16v.32h-.16v.32h-.16V58h-.16v.64h-.16V59h-.16v.32h-.16v.32a.46.46 0 0 0-.16.32v.16h-.16v.32a.46.46 0 0 0-.16.32.14.14 0 0 1-.16.16v.16a.46.46 0 0 1-.16.32v.16h-.16V62c-.11.11-.11.16 0 .16v.16h.16a.14.14 0 0 1 .16-.16.65.65 0 0 1 .16-.48l.16-.16v-.16l.32-.64v-.16a.47.47 0 0 0 .16-.32v-.14h.16a.32.32 0 0 1 .08-.24.33.33 0 0 0 .08-.24l.16-.32v-.16l.48-1v-.32h.16v-.32l.16-.16v-.32h.16v-.16l.16-.16v-.16l.16-.16v-.32h.16v-.48h.16v-.32l.16-.16v-.32h.2v-.32a.14.14 0 0 1 .16-.16v-.48h.16v-.32l.16-.16v-.32h.16v-.42h.16v-.16h-.32zm-3.83 1.28h.48v-.16h.16v-.48h.16v-.66h-.48v.48h-.16v.48c0 .11 0 .13-.08.08s-.08 0-.08.08z"/><path class="cls-1" d="M210.72 78.63l-2.08 3.75q-1.28 2.32-2.71 4.79t-3 5q-1.52 2.55-2.79 4.47a28.7 28.7 0 0 1-3.75 5.11 19 19 0 0 1-2.32 1.92 10.51 10.51 0 0 1-5.43 1.76 7.5 7.5 0 0 1-4.39-1.28 8 8 0 0 1-2.79-3.51 9 9 0 0 1-.48-5.11 8.18 8.18 0 0 1 1.44-3.75 5.17 5.17 0 0 1 2.24-1.92 1.48 1.48 0 0 1 1.84.56q.72 1 .4 3.67-.64 3.35.8 4.31t3.51-3l10.22-17.89h-.16a.14.14 0 0 1-.16.16v-.16a21.08 21.08 0 0 1-6.23 1.6 10.36 10.36 0 0 1-4.71-.8 9.67 9.67 0 0 1-3.91-3 11.77 11.77 0 0 1-2.26-4.83 13.59 13.59 0 0 1 .48-6.71 37.6 37.6 0 0 1 7.91-14.61A38.46 38.46 0 0 1 205 39.82a15.76 15.76 0 0 1 9.34-1.68q4.23.72 5.51 3.91a11.91 11.91 0 0 0 1.44-3q.32-.8 1.52-.4a7.19 7.19 0 0 1 2.4 1.44 7.36 7.36 0 0 1 1.92 2.71 4.52 4.52 0 0 1 .08 3.43 24.65 24.65 0 0 1-1.44 3.43q-1.12 2.32-2.48 4.71t-2.48 4.55q-1.12 2.16-1.6 3l-4 8.14zm-18.37-23.32a.46.46 0 0 1 .16-.32l.16-.16 1-1.12a.46.46 0 0 1 .16-.32c.21-.21.32-.37.32-.48l.16-.16v-.15h.16v-.16h.16l.48-.64 2.24-2.24v-.16h.16v-.16h.16l.16-.16a.14.14 0 0 0 .16-.16l.48-.48a.14.14 0 0 0 .16-.16h.16v-.16h.32V48a.14.14 0 0 0 .16-.16h.16l-.16-.16h.16l.16-.16h.16l.64-.64h.16a.46.46 0 0 1 .32-.16v-.16h.13v-.16h.16a.14.14 0 0 1 .16-.16l.16-.16h.16v-.16h.16v-.16h.16a.14.14 0 0 1 .16-.16h.16v-.16h.16l.16-.16.16-.16.16-.16h.16l.32-.32.32-.16.32-.16h.16l-.16-.16h.16l.16-.16h.16l.16-.16.16-.16.48-.32h.16l.16-.16h.16l.16-.16.32-.16h.16v-.18h.32v-.16h.16l.16-.16h.32v-.16h-.8v.16h-.32v.16h-.32v.16h-.48v.16h-.32V43h-.32a.14.14 0 0 0-.16.16h-.16v.16h-.32v.16h-.2l-.16.16h-.16v.16h-.16v.2h-.32v.16h-.16l.16.16h-.32l-.16.16h-.16a.14.14 0 0 1-.16.16l-.32.32h-.16v.16h-.16l-.16.16h-.16v.16a.14.14 0 0 0-.16.16h-.16l-.16.16h-.16v.16h-.16v.16h-.16v.16h-.16l-.16.16a.14.14 0 0 0-.16.16h-.16v.16h-.16v.16h-.16l-.16.16v.16h-.32v.16h-.16v.16h-.16l-.16.16h-.16l.16.16h-.16l-.32.32h-.16v.16h-.16v.16h-.16v.16h-.16v.16a.14.14 0 0 0-.16.16h-.16v.16H197v.16h-.16v.16h-.16v.16h-.16v.16h-.16v.16h-.16V50l-.16.16h-.16v.16h-.16v.16l-.32.16v.16h-.16v.2h-.16v.16h-.16l.16.16h-.16v.16h-.16v.16h-.16l-.16.16c0 .11-.11.27-.32.48H194v.16l-.16.16h-.16v.16l-.16.16v.16h-.16l-.32.64h-.16l-.16.16a.14.14 0 0 0-.16.16v.16h-.16v.16l-.32.48a.46.46 0 0 1-.16.32v.16a.14.14 0 0 0-.16.16c0 .11 0 .16-.08.16s-.08.05-.08.16l-.16.32v.32a.14.14 0 0 0 .16.16v-.16h.16v-.32zm7 17.89a9.72 9.72 0 0 0 2.88-1 22.2 22.2 0 0 0 2.77-1.88l10.7-20a9.8 9.8 0 0 0-1.28-4.07 2.51 2.51 0 0 0-2.08-1 8.86 8.86 0 0 0-1.76.32 14.51 14.51 0 0 0-3.19 1.36 33.36 33.36 0 0 0-4.47 3 35.67 35.67 0 0 0-5.43 5.51 26.43 26.43 0 0 0-4.55 7.59 12.29 12.29 0 0 0-.8 5.91 4.78 4.78 0 0 0 2.32 3.59 7.37 7.37 0 0 0 4.92.67zm-6.55-20.76v-.16h.2v-.16h.16V52h.16v-.32h.16v-.16h.16v-.16h.16l-.16-.16h.16v-.32h.2v-.16h.16l.16-.16h.16v-.16h.16v-.48h-.16V50h-.32a.14.14 0 0 1-.16.16v.16a.14.14 0 0 0-.16.16h-.16l-.32.32h-.16v.2h-.2v.16c-.11 0-.11.06 0 .16h-.16v.32h-.16v.16h-.16v.32h-.16v.32zm3.67.16v-.32H196v.16h-.16v.16h-.16a.14.14 0 0 1-.16.16c0 .11 0 .16-.08.16s-.08.05-.08.16h-.16v.16h-.16v.16h-.16v.16h-.16l-.16.32h-.16V54h-.16v.32h-.16l.16.16h.48v-.16h.16v-.12h.16v-.32h.16l.16-.16h.16v-.16h.16v-.16h.16v-.32h.16v-.16h.16v-.16h.16v-.16zm-1-4.15h.16v.16h.16a.14.14 0 0 1 .16-.16.14.14 0 0 0 .16-.16.46.46 0 0 0 .32-.16h.16V48a.14.14 0 0 0 .16-.16v-.16h.25l.32-.16.32-.32V47h.16a.14.14 0 0 0 .16-.16h.16v-.16h.16l.16-.16h.16v-.16h.16v-.16h.16v-.16h.16v-.16h.16v-.16h.32v-.16a.14.14 0 0 0 .16-.16h.16v-.16h.12v-.16h.16v-.16h-.48v.16h-.48v.16h-.16v.16h-.32v.32h-.32v.16h-.16v.16h-.16l-.16.16h-.16v.16h-.16v.16h-.16v.16h-.32V47H197v.16h-.16v.16h-.16l-.16.16h-.16l-.16.16c-.11 0-.11.06 0 .16h-.2v.2l-.16.16h-.16v.16h-.16zm9.74-3.51a.14.14 0 0 0-.16-.16H205v.16h-.32v.16h-.48v.16h-.32v.16h-.16v.16h-.32v.16h-.16v.16h-.16l-.16.16a.14.14 0 0 0-.16.16h-.16v.16h-.16v.16h-.16l-.16.16h-.16v.16h-.16V47h-.16v.16h-.32v.16h-.16v.16H201l-.16.16h-.16c.11.11.11.16 0 .16v.2h-.32v.16a.14.14 0 0 0-.16.16h-.2v.16h-.16v.16h-.16v.32h-.32v.16h-.16v.16h-.16v.16h-.16v.16h-.16c0 .11 0 .16-.08.16s-.08.06-.08.16h-.32V50l-.32.32v.16h-.16l-.16.16h-.16l-.48.64-.16.16v.32h.2l.16-.16.48-.32-.16-.16h.16l.64-.48.16-.16a.46.46 0 0 1 .32-.16v-.12l.16-.16c.1 0 .16 0 .16-.08s.05-.08.16-.08l1.12-1.12v-.16h.32v-.16h.16l.16-.16a.14.14 0 0 1 .16-.16h.16V48h.16v-.16h.16c-.11-.1-.11-.16 0-.16l.32-.16h.16v-.16h.16v-.16h.16l.16-.16a.14.14 0 0 0 .16-.16h.16v-.16h.16l.16-.16h.16v-.16a.14.14 0 0 0 .16-.16h.16v-.16h.16a.14.14 0 0 0 .16-.16h.16v-.16l.16-.16h.16l.16-.16h.16v-.16h.16a.14.14 0 0 0 .16-.16h.16zm9.58 16.29v.16h-.16v.16l-.16.16v.48h-.16v.16l-.16.16v.16l-.16.16V63l-.16.16-.32.16v.16h-.16v.32h-.16v.16l-.16.16v.16H213v.32h-.16v.32l-.16.16v.16h-.16l.16.32h-.16v.32h-.16v.32l-.32.16v.16h-.16v.32l-.16.16v.16h-.16v.32h-.16v.16l-.32.64v.16h-.16v.32h-.16v.48a.14.14 0 0 1-.16.16l-.16.32a.14.14 0 0 0-.16.16V70h-.16v.16l-.16.16v.32h-.16v.16l-.16.16v.16l-.16.16v.16l-.16.16v.16l-.16.16v.16a.14.14 0 0 0-.16.16v.16l-.16.32a.14.14 0 0 0-.16.16V73h-.16v.32a.14.14 0 0 0-.16.16v.16a.14.14 0 0 0-.16.16.14.14 0 0 1-.2.2v.32h-.16v.32h-.16V75h-.16v.16h-.16v.32l-.32.32v.16h-.16v.48l-.16.16v.16h-.16V77l-.16.16v.32h-.16v.32h-.16v.32a.14.14 0 0 0-.16.16l-.16.16v.32h-.16l-.32.32v.32h-.16v.48H205v.32l-.16.16-.64 1-.64.64v.16l-.16.16v.16h-.16v.32h-.16v.32h-.16l.16.32-.48.8v.16l-.16.16v.16a.14.14 0 0 1-.16.16V85l-.32.16-.48.8a.32.32 0 0 1-.08.24.32.32 0 0 0-.08.24h-.16l.16.32h-.16a.65.65 0 0 1-.16.48.33.33 0 0 1-.08.24.32.32 0 0 0-.08.24c0 .11 0 .16-.08.16s-.08.06-.08.16l.16.16a.14.14 0 0 0 .16-.16.65.65 0 0 0 .16-.48l.64-1.12a.33.33 0 0 1 .08-.24.32.32 0 0 0 .08-.24l.16-.16v-.16l1.12-1.6.32-.48v-.16l.16-.64.16-.16v-.16a.14.14 0 0 1 .16-.16v-.16q.32-.32.8-.88a4.85 4.85 0 0 0 .64-.88l.48-1.44 1.44-2.4v-.32c.1 0 .1-.05 0-.16v-.16h.16v-.16l.32-.16a.14.14 0 0 1 .16-.16v-.16a2.8 2.8 0 0 0 .32-.8.14.14 0 0 0 .16-.16v-.16h.16V74a.14.14 0 0 1 .16-.16v-.16h.16v-.32h.16V73h.16v-.32a.46.46 0 0 0 .32-.16v-.32a.92.92 0 0 0 .32-.64v-.16a.14.14 0 0 0 .16-.16c.1 0 .16-.1.16-.32a.14.14 0 0 0 .16-.16v-.16l.16-.16v-.16a.14.14 0 0 0 .16-.16.46.46 0 0 1 .16-.32v-.16a.14.14 0 0 0 .16-.16l.16-.16a.14.14 0 0 0 .16-.16V69h.16l-.16-.32h.16v-.16c0-.1 0-.16.08-.16s.08-.05.08-.16l.16-.32.16-.32v-.16l.32-.48a.33.33 0 0 1 .08-.24.32.32 0 0 0 .08-.24l.32-.32h.16v-.32h.16v-.32h.16l-.16-.32h.16v-.26l.16-.16.32-.64v-.16a.14.14 0 0 0 .16-.16v-.16l.16-.16v-.16c.1 0 .26-.1.48-.32v-.32h.16v-.32h.16l-.16-.48h.16v-.16l.16-.16v-.32zm-13.65-17.41v.32h.32V44h.16a.14.14 0 0 0 .16-.16h.16l.16-.16h.16v-.18h.16v-.32h-.16V43h-.32v.16h-.16v.16h-.16a.14.14 0 0 0-.16.16v.16h-.16v.16zm3.51 34.65a.14.14 0 0 0-.16-.16h-.16v.16h-.16v.16l-.32.32h-.16v.16l-.16.16v.16a.2.2 0 0 0 0 .32v.16h-.16v.32h-.16v.16l-.8 1v.16h-.16v.32h-.16l-.16.48h-.16v.32h-.16v.32h.32v-.16h.32v-.16l.16-.16v-.21l.16-.16.16-.32h.16v-.32h.16l.64-1.12h.16v-.16l.16-.16v-.64h.16v-.32h.16v-.16l.32-.16zm2.4 1.76a.14.14 0 0 1-.16-.16h-.16v.16h-.16v.16l-.8 1v.16h-.16v.16l-.32.32h-.16v.48H205v.32h-.16v.16h-.16l.16.32h-.16v.32h-.16v.32h-.16v.48h-.16v.32h.32v-.16h.32v-.32h.16v-.37h.16v-.32h.16v-.32h.16l-.16-.32h.16v-.32h.16v-.48h.16V82h.16l.16-.48h.16v-.16h.16zm2.08-10.7a.14.14 0 0 0-.16.16h-.16v.16h-.16V70h-.16v.16h-.16v.16h-.16v.32H208V71h-.16v.32h-.16v.32h-.16v.32h-.16v.32h-.16v.16l-.16.32h-.16V73h-.16v.48h-.16v.16l-.16.16v.32h-.16v.16l-.16.16v.16h-.16v.16c0 .11 0 .16-.08.16s-.08.06-.08.16v.16h-.16a.46.46 0 0 1-.16.32l-.16.16h-.16v.16a.14.14 0 0 0 .16.16l.16.16h.16l-.16-.16.32-.32.16-.16.32-.32v-.16l.16-.16v-.12h.16v-.16l.16-.16v-.16l.16-.16.32-.64v-.32h.16V73l.16-.16v-.16h.16l.16-.32v-.16a.14.14 0 0 0 .16-.16v-.16h.16v-.28h.16v-.32h.16V71h.16v-.32h.16v-.32h.2V70h.16zm5.27-3.83v.16h-.16V66h-.16v.16a.46.46 0 0 0-.32.16v.16h-.16v.16h-.16V67h-.16a.14.14 0 0 1-.16.16v.16l-.16.16v.16a.14.14 0 0 1-.16.16v.16h-.16v.48h-.16v.16l-.16.16v.64h-.16l-.16.32h-.16V70a.14.14 0 0 0-.16.16.14.14 0 0 1-.16.16v.32h-.16V71h-.16v.32h-.2v.32h-.16v.32h-.16v.32h-.16l.16.32h-.16l-.16.32h-.16v.32h-.16v.16a.14.14 0 0 1-.16.16v.32h-.16v.48h-.16v.16a.14.14 0 0 0-.16.16v.16a.14.14 0 0 0-.16.16v.16l-.16.16v.16H209v.16a.51.51 0 0 0-.32.48h-.16l.16.32h-.16v.32h-.16a.65.65 0 0 1-.16.48v.16h-.2v.32c-.21.21-.32.37-.32.48l-.16.16v.16a.14.14 0 0 1-.16.16l-.16.32c-.11.11-.11.16 0 .16v.16h.16a.46.46 0 0 1 .16-.32l.48-.48v-.16l.16-.16V78l.64-.8v-.32a.46.46 0 0 0 .16-.32l.16-.16v-.16h.16l-.16-.16c0-.1.11-.26.32-.48l.32-.48.16-.16.64-1.28v-.32a.14.14 0 0 0 .16-.16V73h.16a.51.51 0 0 1 .32-.48l-.2-.12h.16v-.32h.16v-.16l.16-.16v-.16l.16-.16c0-.1 0-.16.08-.16s.08-.05.08-.16V71a.14.14 0 0 0 .16-.16v-.16h.16v-.32a.14.14 0 0 0 .16-.16V70a.14.14 0 0 0 .16-.16v-.16h.16l.16-.32.16-.16V69h.16l-.16-.32.16-.16v-.16h.16v-.32a.14.14 0 0 0 .16-.16v-.32h.16a.46.46 0 0 1 .16-.32V67h.16v-.16l.16-.16v-.32h.16l.16-.32h.16v-.32zm-3.35.48h-.64l-.16.48h-.16V67h-.16v.48h-.16v.48h.32a.14.14 0 0 1 .16-.16v-.16h.16v-.48h.16V67h.16v-.48a.14.14 0 0 0 .16-.16zm32.25-30.67q5.43-.8 8.3 1.2a6.79 6.79 0 0 1 3.19 4.87 7.85 7.85 0 0 1-.4 3.27 6.86 6.86 0 0 1-1.84 2.87 9.66 9.66 0 0 1-3.11 1.92 8.43 8.43 0 0 1-4.23.4q-3.2-.48-4-1.28l-.32.64a5 5 0 0 0-.64 2.08q-.64 5.91-1.12 9.58t-.86 5.94q-.4 2.24-.72 3.43a7.86 7.86 0 0 1-.8 2 19.57 19.57 0 0 1-3.27 5.11 9.13 9.13 0 0 1-5.19 2.87 7.61 7.61 0 0 1-2.79.16q-1.68-.16-3.75-2.71a4.54 4.54 0 0 1-1-3.51 7.38 7.38 0 0 1 1.52-3.59 13.91 13.91 0 0 1 3.27-3 10 10 0 0 1 4.18-1.76l.48-3.67q0-3 .24-7.35a36.86 36.86 0 0 1 1.44-8.38 19.5 19.5 0 0 1 3.83-7.19 12 12 0 0 1 7.59-3.9zm-19.17 35.13q-1.59 1.92-.72 2.87t2.48-.48a3 3 0 0 0 1.2-2c.05-.69 0-1-.08-.88.1.21-.11.08-.64-.4s-1.28-.17-2.24.89zm1.28 5.75h-.16a.33.33 0 0 0-.24.08.32.32 0 0 1-.24.08l-.16.16a.14.14 0 0 0 .16.16l.64-.48.32-.32.16.16.16-.32-.32.16v-.16l-.48.16zm.32-1.76V75l1.27-1 .16-.16.16-.32a.46.46 0 0 1 .16-.32v-.32L227 74v-.16l-1 .64zm1.92 0l-.64.48-.16.48zm.48-2.4a.62.62 0 0 0 .4-.08.33.33 0 0 1 .24-.08l-.32-.32-.48.48c-.11 0-.16.08-.16.24s-.05.24-.16.24l.16.16zm2.08 1.44l-.32.48h-.48l-.48.16a.47.47 0 0 1 .16.32l-.48.64v.16l-1 1.28h.16l.16-.16.16.16 1.6-1.92-.16-.16.48-.32.16-.16.16-.48v-.16l-.16.16a.65.65 0 0 1 .16-.48v-.32l-.32.32v.16l-.32.16.16.48v.16l.16-.48zm-1.6-.16l-.64.64.64-.48.48-.16h.16l.16-.16v-.15l.48-.32v-.16l.32-.48-.16-.48-.16.48-.16.32c-.21 0-.32.06-.32.16h.32l-.48.32h-.16l-.32.32v.16zm.48-2.4v-.64l-.16.48zm0 2.08v.32h.16v-.16l.16-.16V73zm.8-3.19v-.32l-.32.32zm.32-1.12c-.32-.1-.48-.05-.48.16l.16.32zm.64 4.15l-.32-.16.64-.16-.32-.16.32-.32h.16v-.48l.48-.48.16-.16v-.31l-.16-.48.32-.32H232l.16-.16v-.16l.32-.16-.16-.16h.32l-.32-.16-.16-.16.32-.32.16-.32a.14.14 0 0 0-.16.16l-.8.48v-.48l-.64.32v.8l-.32.32c-.11.11-.11.16 0 .16l-.64.32v1.28l.16-.16h.48l-.16-.16.32-.48-.16-.16h.16l-.16-.16.32-.16-.16-.16h.12l.16-.32.32-.16-.32-.16.48-.16V69l.16.16a.16.16 0 0 1 0 .32v.64l-.16.16-.32.64-.16.48v.64a.14.14 0 0 1-.16.16c-.11.21-.21.32-.32.32a.14.14 0 0 0-.16.16l-.16.16zm0-6.23c0-.1 0-.16-.08-.16s-.08.05-.08.16zM231 70h.16v-.32l-.16.16a.46.46 0 0 1-.16.32l.16.16zm1.6-14.85l-.8-.32-.64.64 1.28-.32zm-1.44 14.53l.48-.16-.16-.16.16-.48-.16.16zm1.12-3.51l-.16-.16.16-.16V66l.16-.48h.16l-.16-.48v-.14l.16-.32-.16.16a.14.14 0 0 1-.16-.16v-.32l-.16.64h.16v.64l-.64.48q-.48 0 .48.48l-.32.32h.2l.32-.16h.16l-.16-.32zm-.8-2.87l.32.32v-.48l.2-.14-.16-.16h.16l.16-.16-.16-.8.32-.16-.32-.32v-.16l-.32.16v.48l-.16.16h.16l.16.64h-.16l.16.16-.16.32zm.16 5.11l.32-.32-.16-.16v-.64h.2l-.32-.32-.16.32zm.48 3.83l-.16.16-.32.16v.16h.36l-.48.32v.32h.16l.64-.16-.32-.2.32-.16zm-.48-8.62l.16.16v-.16zm.48-10.7l.64-.16v-.48l.16-.16-.32-.12h.16l-.16-.16v-.16h.32l-.32-.16.32-.32a.14.14 0 0 1 .16-.16v-.32h.16l-.16-.16v-.36l.16-.16-.16-.16.16-.16-.16-.48-.16.16h.16l-.32.16v.16h-.16l.32.32h-.16l-.16.16a.46.46 0 0 0-.32.16l.64.16-.32.16v.16h-.16V51h-.32v.48H232l.32.32h-.16l.16.16h-.16l.16.16a.2.2 0 0 0 0 .32v.16h-.16v.16l-.32.32zm0 13.1l.16.64v-.16zm.16 5.91l-.16.32.32-.16zm0-6.07c-.11 0-.05-.1.16-.32l-.16.16zm.32-1.44v-.16c.21 0 .26-.05.16-.16.21 0 .32-.05.32-.16v-.16l-.32-.48v-.16h-.32l-.16.16.16.32.16.16v.16l-.16.64zm.32-1.92a.46.46 0 0 0 .32-.16v-.16h-.16l-.16-.32.48-.16h-.16l-.16-.16v-.48l.32-.16-.16-.16-.16-.16.16-.32.16-.16c.1-.21 0-.48-.32-.8a.45.45 0 0 1-.32-.16l-.16-.14v.48l.16.32a2.81 2.81 0 0 1-.32.8l.48 1.92v.32l.16-.16zm0 5.11l-.16-.16.32-.16-.16-.16h.16l-.16-.16.48-.16v-.32h.16l-.32-.32h.16l.16-.32.16-.16h-.16a.46.46 0 0 1 .16-.32v-.32h-.16v-.15l.16-.32v-.16h-.16l.64-.32v-.32l-.16-.16v-.16h-.16l.16-.16v-.16l.16-.16v-.16l.16-.16-.32.16.16-.16h.16l-.16-.16-.16-.8h.16l-.16-.16.16-.32-.48.48.16 1.12h-.16l.16.16-.64.32.16 1.6-.16.16v.16h.16l-.16.64-.48.16v.8h.16l-.16.32v.16l-.32.16v.16h.16v.8l.32-.16v-.16h.16l-.16-.16zm.16-10.54l-.48.8c-.11.21-.11.37 0 .48v.32q.48-.32.16-.48V58zm-.48 1.6V59l.32-.16zm0 11.66c.11.11.16.11.16 0zm1-1.76h-.32l-.32.16h.16v.48l.16.32-.32.32c-.11.11-.11.16 0 .16l-.16.16v.16h.32V70h.16l.16-.16v-.16h-.16l.32-.16-.16-.32.32-.32-.32-.16h.16zm-.48-4.79l-.16-.16v.32zm.32 3.51v-.16l-.32.32zm7.83-28.11a.14.14 0 0 1-.16.16l-.32.32h-.16l-.48.16.32.16-.64.64a.14.14 0 0 0-.16.16l-.32.16v.32h-.48v.16h-.16l-.16.16-.16.32a.28.28 0 0 1-.32.32l-.32.16.32.16h-.16l-.16.16-.32.16.16.16h-.32l.32.16-.48.48v.64h-.48a.46.46 0 0 1-.16.32v.16h-.16c.21.11.26.16.16.16v.32h-.16v.16l-.32.16-.16.48h-.16v.32h-.16v.32h-.16l.32.16h-.16c.1.11.1.16 0 .16l-.64.32.48.16H235l-.16.16V48a.46.46 0 0 0-.32.16l.16.16c-.11.11-.11.16 0 .16v.32l-.64 1h-.16a.47.47 0 0 1 .12.2c-.11 0-.11.06 0 .16l.16.16H234v.16h-.16l.32.16H234l-.16.16h-.16a.14.14 0 0 1-.16.16l.16.8v.32a.14.14 0 0 0-.16.16v.16l-.16.16a.2.2 0 0 1 0 .32h-.16l.16.32v.16a.72.72 0 0 0 .16.8.46.46 0 0 1-.32.16l.16.16v.16l.16.16c-.11.21-.13.32-.08.32s.08.06.08.16V54.2l.32-.16-.16-.32a1 1 0 0 0 0-.8l.48-.48-.32-.16v-.16l.32-.16-.16-.16h.16l-.16-.16.32-.8.16-.64 1.12-2.56v-.16l-.16-.16h.16l.32-.64.32-.16.32-.64c-.21-.1-.27-.16-.16-.16v-.16l.32-.16v-.16l.48-.16v-.32h-.16l.16-.48V44l.8-.32a.2.2 0 0 1 0-.32.46.46 0 0 0 .32-.16V43l.16-.16-.32-.16.48-.32v-.16h.16v-.3h.2l-.16-.16.64-.16.32-.32.32-.64c.1 0 .16 0 .16-.08s.05-.08.16-.08h.32l-.48-.16.48-.32.64-.32v-.16l.16-.16a.46.46 0 0 0 .16-.32l-.16-.16a.46.46 0 0 0-.16.32zm-7.67 8.3c.11 0 .21-.1.32-.32h.32l-.48-.16.48-.48.16-.16.16-.16v-.32l.16-.16h.16v-.16l.16-.32a.14.14 0 0 1 .16-.16l-.32-.16h.32l.16-.48h.48l-.16-.16h.16l-.16-.16a.46.46 0 0 1 .16-.32h.16v-.16l.32-.16-.16-.16h.16v-.16l.32-.16v-.16a.46.46 0 0 1 .32-.16v-.16a.2.2 0 0 1 0-.32h.16l-.32-.16.48-.16v-.16l.16-.16c-.11-.1-.16-.1-.16 0l-.48.16-.16.16v.32l-.16-.16h-.16l.16.16-.48.16h.32l-.16.16.16.16h-.16l-.48.48h.16l-.16.16h.16l-.32.32v.16H235l.16.16-.16.32h-.16c-.11 0-.11.05 0 .16l-.16.32v.16h-.32l.48.16h-.32l-.16.32-.16.16v.16h-.2l-.16.16.16.16-.16.16v.16a.14.14 0 0 1-.16.16c-.11 0-.11.05 0 .16l-.16.16V47h-.16l.16.16zm.4 19.65l-.16.16v.32l-.16.16v.16h-.16v.64h.16l.32-.16h-.16v-.48l.16-.16v-.16a.14.14 0 0 0 .16-.16zm-.13-4.13l.16-.16-.32.48zm.16.64h-.16l.16.16zm0 .16l-.16.48.32-.16zm.8 1.6c-.21.21-.37.32-.48.32h-.16v.16h.16c-.32.11-.43.27-.32.48l.16.32a.46.46 0 0 0-.19.32l.48-.48.48.16-.32-.16h.16v-.16l-.32-.16.16-.16zm-.32-.64a.45.45 0 0 0 .16.32h-.16l.32.16-.16-.16h.16l-.32-.48zm.32-12.94v.32l.16-.64-.32.16zm.48 10.38l-.16.16h-.32l-.16.16.32.16zm.32-10.06l.16-.16v-.18h.16l-.32-.32h.16l-.32-.16.32-.16-.32-.16h.16v-.16h.16l.48-.32-.48-.16-.16.16.16.16h-.48l-.16.32v.16c.1 0 .1.06 0 .16l.16.16H235l.48.32-.16-.16h.16l-.16-.16h.32l-.16.16.16.48-.16.32.32-.16zm-.48-.16l.16.16H235v.16h.32v-.16l.16-.16zm.32.64v.16l.16-.16zm1-4.31a.14.14 0 0 0-.16.16c-.11 0-.05.06.16.16l-.48.32h.16a.46.46 0 0 0-.16.32c.11 0 .05.11-.16.32l.16.32h.16v-.32c.1 0 .1-.05 0-.16l.32-.48c-.11-.1-.11-.16 0-.16zm.32-.8l-.32.32h.32v.64l.48-.64-.32-.16.32-.16.16-.16a.51.51 0 0 1 .32-.48l-.16-.48.8-1.12v-.16a.14.14 0 0 0 .16-.16l.32-.16v-.16c-.21-.21-.16-.32.16-.32l.32-.32-.16-.16.32-.16v-.17h.16c.1 0 .16 0 .16-.08s.05-.08.16-.08l.16-.32v-.16h.16l-.16-.16h.16l-.16-.16.64-.32v-.48h.16v-.16l.16-.16c-.11 0-.16 0-.16-.08s.05-.08.16-.08l.48-.32-.16-.16h.16l.32-.16a2.6 2.6 0 0 0 .64-.16l.16-.32-.8.48.16-.32.48-.16.16-.16 1-.32 2.55-1.6-1.44.64a.92.92 0 0 1-.64.32l-.8.48-.32.16-.16-.16v.16h-.48l.32.16h-.16a.14.14 0 0 0-.16.16h-.64v.16l-.32.32-.16.32-.48.32v.16l-.64.32h.16v.16h-.16v.16l-.16.16v.16l-.64.64a.46.46 0 0 0-.16.32l-.48.48v.16l.16.16-.32.16h.16l-.32.16v.16l-.32.16.16.16v.16h-.48l-.16.32v.48l.16.16-.48.32-.32.48.32.32-.32-.16-.16.32zm0-.16v-.16a.32.32 0 0 0 .24-.08.33.33 0 0 1 .24-.08l-.16.16zm.8-1.12l-.32.48-.16.16.16-.32h-.16l.16-.16a.14.14 0 0 0 .16-.16h.16zm.32-5.59l.8-.48c-.11 0-.11-.05 0-.16h.16l.32-.16v-.16h.16l-.35-.18.48-.16-.18-.34h-.16v-.16l-.48.16.16.16h-.48l.16.16-.16.16.16.16-.5.36v.16l-.16.16zm1.92 2.24l-1 .8h-.16l.48-.48.16-.32zm-.64 3.67c0 .11.08.16.24.16s.24-.05.24-.16l.16-.64c.1-.1.1-.16 0-.16a.46.46 0 0 0-.32.16v.48a.46.46 0 0 0-.37.14zm.64-4.15l.16.32a.14.14 0 0 0-.16.16l-.16-.16.16-.16zm1.76-3.67v.16a.65.65 0 0 0 .48-.16l.64-.32v-.32l.64-.16.16-.16 1.6-1 .32-.16v-.16l-.32.32v-.16l-3.19 1.44.16.16-.48.16-.32.32-.48.32.32.16h-.32v.16l.32-.16zm-.53 4.27a1.1 1.1 0 0 0-.24.56 3.25 3.25 0 0 0-.08.56c0 .11.08.16.24.16s.24-.05.24-.16l-.32-.48.48-.64zm1.28-.8a.46.46 0 0 1-.32.16h-.16l.32.32.32-.32zm5.27-.32q-.16-1.59-2 .08a18.89 18.89 0 0 0-3.61 4.89h1.12a5.41 5.41 0 0 0 3.67-2.24q1.44-1.92 1.28-2.71zm-4.47-2.24l-.32.16-.32.32-.16-.16.32-.16zm-.48 2.56l-.16.16.16.16zm1.28-1.12a1.79 1.79 0 0 0-.56.08 1.27 1.27 0 0 1-.4.08l.16.32 1-.32q.48-.48.64-.48l-.16-.32zm3.83-1.92l-.16-.32-1 .48-.8.48a.76.76 0 0 0-.56.24.66.66 0 0 1-.4.24l.16.32 1.12-.8H246l1-.48zm-.32-1.76l-.8.64.64-.48zm.16.16c-.11 0-.08.05.08.16a.77.77 0 0 0 .4.16v-.32zm.8 0h.16q1 .16 1.12 0c.1 0 .1 0 0-.08a.74.74 0 0 0-.32-.08z"/></g></g></svg>